<svg width="409" height="333" viewBox="0 0 409 333" fill="none" xmlns="http://www.w3.org/2000/svg">
<path d="M0.738884 208.633C1.43555 186.869 21.291 173.434 28.2586 153.224C37.1438 127.447 23.2544 96.9776 31.6039 70.9529C39.4794 46.399 65.9662 36.1571 85.6949 45.5329C92.2703 48.6742 98.301 53.4997 105.15 55.5938C121.898 60.6996 139.081 48.3965 152.797 34.9353C166.512 21.4741 180.067 5.61356 197.215 1.73526C206.911 -0.455534 216.83 1.47076 226.331 4.21896C241.122 8.51604 255.774 14.9785 267.678 26.4074C281.446 39.6057 290.844 58.7188 304.677 71.8001C321.643 87.8317 343.974 93.4403 365.614 93.119C372.389 93.0117 379.657 92.5213 385.384 96.7987C391.751 101.57 394.567 110.95 396.967 119.679C403.463 143.364 410.067 167.924 408.066 193.045C405.847 221.027 393.056 247.53 394.312 275.487C394.879 288.268 398.379 300.51 399.658 313.185C400.09 317.435 400.159 322.195 397.969 325.599C395.778 329.027 391.972 330.071 388.484 330.699C311.111 344.663 239.225 270.969 161.435 279.718C142.5 281.856 123.962 288.868 105.005 289.99C82.3858 291.344 60.1764 284.245 38.8125 275.696C25.9903 270.566 16.4508 263.204 13.6544 246.051C12.7033 240.203 11.7846 235.54 8.75468 230.736C4.46631 223.859 0.45441 218.01 0.738884 208.633Z" fill="#EDBB0A"/>
<path opacity="0.25" d="M286.837 240.078C268.62 249.063 253.238 250.552 241.689 252.066C192.658 258.561 179.959 270.344 157.04 261.128C152.364 259.254 151.24 258.099 145.261 256.045C124.693 248.986 107.063 251.989 98.9125 252.965C64.9302 256.995 27.473 245.751 27.2431 240.078C26.962 232.402 94.5945 221.698 157.04 219.002C223.574 216.127 298.233 221.749 298.846 231.709C298.999 234.071 294.937 236.073 286.837 240.078Z" fill="black"/>
<path opacity="0.25" d="M369.394 268.727C369.828 276.403 323.505 286.414 321.64 281.845C321.231 280.844 323.07 279.56 322.457 278.328C321.333 276.069 314.332 278.893 304.495 279.252C295.067 279.586 293.764 277.275 283.39 277.815C277.054 278.148 275.495 279.124 271.126 279.56C256.281 281.075 239.341 273.374 239.597 268.701C240.005 261.847 278.127 258.125 304.495 258.176C329.662 258.202 369.01 261.719 369.394 268.701V268.727Z" fill="black"/>
<path d="M185.84 91.4163C185.993 92.4688 186.146 93.547 186.3 94.5995C188.931 112.287 191.819 129.743 194.91 147.02C200.506 150.331 206.076 153.668 211.672 156.98C212.336 156.903 213.051 156.852 213.741 156.775C214.457 156.852 215.121 156.903 215.785 156.98C221.381 153.668 226.951 150.331 232.546 147.02C234.923 136.084 237.043 124.095 238.602 111.132C239.471 103.918 240.109 96.9612 240.569 90.3125C239.164 88.2588 236.175 84.4595 231.167 81.7897C226.286 79.1713 221.841 78.8889 219.541 78.9146C217.625 83.9974 209.857 83.9974 207.941 78.9146C205.514 78.9146 201.145 79.274 196.316 81.7897C190.643 84.7675 187.322 89.1829 185.865 91.442L185.84 91.4163Z" fill="white"/>
<path d="M206.715 71.983V81.6867C206.715 85.4603 209.142 88.5408 212.157 88.5408H215.198C218.187 88.5408 220.64 85.4603 220.64 81.6867V71.983C220.64 68.2608 218.213 65.1289 215.198 65.1289H212.157C210.113 65.1289 208.325 66.5665 207.43 68.7228C206.996 69.6983 206.74 70.8279 206.74 71.983H206.715Z" fill="#CCCCCC"/>
<path d="M200.66 60.3284C200.66 61.766 200.762 63.1779 201.043 64.5385C201.222 65.4113 201.427 66.2584 201.708 67.1056C203.701 73.3179 208.274 77.682 213.665 77.682C219.057 77.682 223.681 73.3179 225.674 67.0286C225.879 66.3868 226.057 65.7193 226.211 65.0519C226.568 63.563 226.747 61.9971 226.747 60.3028C226.747 59.0962 226.645 57.9411 226.466 56.8115C225.265 48.9049 220.028 42.9492 213.691 42.9492C213.282 42.9492 212.822 42.9749 212.465 43.0519C212.362 43.0519 212.286 43.0776 212.26 43.0776C208.07 43.6423 204.467 46.9025 202.423 51.5233C201.733 53.1149 201.222 54.8605 200.941 56.7345C200.762 57.8897 200.66 59.0449 200.66 60.2771V60.3284Z" fill="white"/>
<path d="M200.66 60.3283C200.66 61.7659 200.762 63.1778 201.043 64.5383C201.222 65.4112 201.427 66.2583 201.708 67.1054C202.065 67.6189 206.051 73.4205 213.41 73.5488C221.152 73.6772 225.419 67.4392 225.674 67.0284C225.879 66.3866 226.057 65.7192 226.211 65.0518C226.568 63.5628 226.747 61.9969 226.747 60.3026C226.747 59.0961 226.645 57.9409 226.466 56.8114C225.93 57.5045 221.407 63.0238 213.691 62.9724C205.975 62.9467 201.503 57.4275 200.967 56.7344C200.788 57.8896 200.686 59.0448 200.686 60.277L200.66 60.3283Z" fill="#131313"/>
<path d="M210.471 216.459H215.965V165.374H210.471V216.459Z" fill="#131313"/>
<path d="M190.616 157.878H235.381C237.68 157.878 239.571 159.752 239.571 162.088V165.22C239.571 167.53 237.706 169.43 235.381 169.43H190.616C188.317 169.43 186.426 167.556 186.426 165.22V162.088C186.426 159.778 188.291 157.878 190.616 157.878Z" fill="#575757"/>
<path d="M234.82 231.117C232.674 226.676 229.557 222.62 225.801 219.436C222.019 216.202 217.497 213.763 212.719 212.351L213.255 210.503C218.263 211.992 223.041 214.559 227.027 217.973C230.962 221.336 234.258 225.597 236.532 230.295L234.82 231.142V231.117Z" fill="#131313"/>
<path d="M230.527 230.68C230.527 233.376 232.699 235.558 235.382 235.558C238.065 235.558 240.237 233.376 240.237 230.68C240.237 227.985 238.065 225.803 235.382 225.803C232.699 225.803 230.527 227.985 230.527 230.68Z" fill="#131313"/>
<path d="M190.31 231.117L188.598 230.27C190.872 225.572 194.142 221.336 198.102 217.948C202.088 214.534 206.841 211.966 211.874 210.478L212.411 212.326C207.633 213.738 203.136 216.176 199.329 219.411C195.573 222.62 192.456 226.65 190.31 231.091V231.117Z" fill="#131313"/>
<path d="M194.604 230.68C194.604 233.376 192.432 235.558 189.749 235.558C187.066 235.558 184.895 233.376 184.895 230.68C184.895 227.985 187.066 225.803 189.749 225.803C192.432 225.803 194.604 227.985 194.604 230.68Z" fill="#131313"/>
<path d="M215.297 182.778C215.322 190.711 216.753 194.844 217.877 206.293C218.67 214.559 218.823 221.336 218.823 225.546C218.848 225.546 223.243 226.368 223.243 226.368L225.364 226.727C225.338 226.316 225.338 225.906 225.338 225.495C225.032 215.252 226.207 207.371 227.433 201.878C229.861 190.967 233.131 186.218 232.518 178.004C232.007 171.175 229.069 165.784 226.36 161.985C226.335 161.908 226.284 161.857 226.258 161.831C225.951 161.369 225.645 160.958 225.313 160.599C223.115 160.804 220.892 160.958 218.721 161.138C218.618 161.497 218.465 161.882 218.414 162.242C215.833 170.97 215.348 178.029 215.348 182.804L215.297 182.778Z" fill="#CCCCCC"/>
<path d="M215.707 238.818H231.881C232.8 237.561 233.874 235.764 233.388 234.48C232.954 233.274 231.472 233.325 229.811 232.401C228.508 231.656 226.796 230.116 225.365 226.548C223.193 226.163 221.022 225.778 218.85 225.393C217.802 229.859 216.78 234.352 215.733 238.818H215.707Z" fill="white"/>
<path d="M218.596 167.068C221.406 167.068 224.166 167.016 226.951 166.991C230.502 165.014 236.532 160.984 237.248 155.541C237.733 151.716 235.383 148.636 233.415 146.659C231.039 146.711 228.688 146.762 226.312 146.813C223.118 146.89 219.95 146.967 216.807 147.019C215.428 148.893 214.201 151.1 213.741 153.616C212.668 159.212 215.683 163.884 218.647 167.068H218.596Z" fill="white"/>
<path d="M216.703 167.17C216.703 168.274 219.309 169.173 222.554 169.173C225.799 169.173 228.405 168.274 228.405 167.17C228.405 166.066 225.799 165.168 222.554 165.168C219.309 165.168 216.703 166.066 216.703 167.17Z" fill="#CCCCCC"/>
<path d="M235.713 146.197C232.008 143.04 222.708 143.374 217.419 146.403C214.992 147.815 213.791 149.56 213.203 150.715C213.408 150.946 213.612 151.203 213.816 151.434C214.685 150.792 219.233 147.558 226.541 147.404C232.162 147.301 236.148 149.072 237.476 149.74C237.348 147.866 236.403 146.788 235.713 146.197Z" fill="#CCCCCC"/>
<path d="M213.206 182.778C213.181 190.711 211.75 194.844 210.626 206.293C209.834 214.559 209.68 221.336 209.68 225.546C209.655 225.546 205.26 226.368 205.26 226.368L203.139 226.727C203.165 226.316 203.165 225.906 203.165 225.495C203.472 215.252 202.296 207.371 201.07 201.878C198.643 190.967 195.372 186.218 195.985 178.004C196.496 171.175 199.435 165.784 202.143 161.985C202.169 161.908 202.22 161.857 202.245 161.831C202.552 161.369 202.858 160.958 203.191 160.599C205.388 160.804 207.611 160.958 209.783 161.138C209.885 161.497 210.038 161.882 210.089 162.242C212.67 170.97 213.155 178.029 213.155 182.804L213.206 182.778Z" fill="#CCCCCC"/>
<path d="M212.797 238.818H196.623C195.703 237.561 194.656 235.764 195.116 234.48C195.55 233.274 197.032 233.325 198.693 232.401C199.996 231.656 201.708 230.116 203.139 226.548C205.311 226.163 207.482 225.778 209.654 225.393C210.702 229.859 211.724 234.352 212.771 238.818H212.797Z" fill="white"/>
<path d="M209.908 167.068C207.097 167.068 204.338 167.016 201.553 166.991C198.001 165.014 191.971 160.984 191.256 155.541C190.77 151.716 193.121 148.636 195.089 146.659C197.465 146.711 199.815 146.762 202.192 146.813C205.385 146.89 208.554 146.967 211.696 147.019C213.076 148.893 214.303 151.1 214.762 153.616C215.836 159.212 212.821 163.884 209.857 167.068H209.908Z" fill="white"/>
<path d="M211.8 167.17C211.8 168.274 209.194 169.173 205.949 169.173C202.704 169.173 200.098 168.274 200.098 167.17C200.098 166.066 202.704 165.168 205.949 165.168C209.194 165.168 211.8 166.066 211.8 167.17Z" fill="#CCCCCC"/>
<path d="M192.79 146.197C196.495 143.04 205.796 143.374 211.085 146.403C213.512 147.815 214.713 149.56 215.3 150.715C215.096 150.946 214.892 151.203 214.687 151.434C213.818 150.792 209.27 147.558 201.963 147.404C196.342 147.301 192.356 149.072 191.027 149.74C191.155 147.866 192.1 146.788 192.79 146.197Z" fill="#CCCCCC"/>
<path d="M194.478 95.1128C194.273 95.6519 193.992 96.2166 193.686 96.73L177.538 121.708C175.622 124.711 171.891 125.867 168.672 124.737C168.084 124.532 167.573 124.301 167.037 123.941C166.5 123.608 166.066 123.197 165.657 122.76C163.281 120.347 162.872 116.42 164.814 113.416L180.962 88.4383C182.929 85.3321 186.889 84.1513 190.16 85.4862C190.62 85.6915 191.054 85.9226 191.437 86.1536C194.452 88.1559 195.628 91.8526 194.478 95.1128Z" fill="white"/>
<path d="M190.162 85.4598C181.985 97.0631 175.47 107.049 170.692 114.699C168.827 117.677 167.141 120.321 165.684 122.734C163.308 120.321 162.899 116.393 164.841 113.39L180.989 88.412C182.956 85.3058 186.917 84.1249 190.187 85.4598H190.162Z" fill="white"/>
<path d="M194.963 90.5429C194.835 95.215 191.002 98.8859 186.352 98.7832C181.702 98.6549 178.048 94.8042 178.151 90.1321C178.278 85.46 182.111 81.7891 186.761 81.8918C191.411 81.9944 195.065 85.8707 194.963 90.5429Z" fill="#CCCCCC"/>
<path d="M164.861 118.345C179.502 118.114 194.142 117.883 208.783 117.703C208.783 118.653 208.783 119.654 208.86 120.63C208.86 122.119 208.911 123.607 208.962 125.096C207.071 125.995 180.09 138.497 168.362 129.05C167.34 128.203 166.369 127.176 165.577 125.866L164.836 118.294L164.861 118.345Z" fill="white"/>
<path d="M186.07 126.329C196.086 125.173 203.572 122.375 208.861 120.655C208.861 122.144 208.912 123.633 208.963 125.122C207.073 126.021 180.091 138.522 168.363 129.075C167.341 128.228 166.371 127.201 165.578 125.892L165.527 125.43C174.853 126.508 180.704 126.893 186.07 126.277V126.329Z" fill="white"/>
<path d="M165.195 117.96C168.159 117.678 170.817 119.86 171.098 122.838C171.379 125.815 169.207 128.485 166.243 128.768C163.279 129.05 160.622 126.868 160.341 123.89C160.06 120.912 162.232 118.243 165.195 117.96Z" fill="#CCCCCC"/>
<path d="M229.739 95.1128C229.943 95.6519 230.224 96.2166 230.531 96.73L246.679 121.708C248.595 124.711 252.325 125.867 255.545 124.737C256.133 124.532 256.644 124.301 257.18 123.941C257.717 123.608 258.151 123.197 258.56 122.76C260.936 120.347 261.345 116.42 259.403 113.416L243.255 88.4383C241.288 85.3321 237.327 84.1513 234.057 85.4862C233.597 85.6915 233.163 85.9226 232.779 86.1536C229.764 88.1559 228.589 91.8526 229.739 95.1128Z" fill="white"/>
<path d="M234.057 85.4598C242.233 97.0631 248.748 107.049 253.526 114.699C255.392 117.677 257.078 120.321 258.534 122.734C260.91 120.321 261.319 116.393 259.377 113.39L243.229 88.412C241.262 85.3058 237.302 84.1249 234.031 85.4598H234.057Z" fill="white"/>
<path d="M229.252 90.5429C229.38 95.215 233.212 98.8859 237.863 98.7832C242.513 98.6549 246.167 94.8042 246.064 90.1321C245.937 85.46 242.104 81.7891 237.454 81.8918C232.804 81.9944 229.15 85.8707 229.252 90.5429Z" fill="#CCCCCC"/>
<path d="M259.35 118.345C244.71 118.114 230.069 117.883 215.429 117.703C215.429 118.653 215.429 119.654 215.352 120.63C215.352 122.119 215.301 123.607 215.25 125.096C217.141 125.995 244.122 138.497 255.85 129.05C256.872 128.203 257.843 127.176 258.635 125.866L259.376 118.294L259.35 118.345Z" fill="white"/>
<path d="M238.143 126.329C228.128 125.173 220.641 122.375 215.352 120.655C215.352 122.144 215.301 123.633 215.25 125.122C217.141 126.021 244.122 138.522 255.85 129.075C256.872 128.228 257.843 127.201 258.635 125.892L258.686 125.43C249.36 126.508 243.509 126.893 238.143 126.277V126.329Z" fill="white"/>
<path d="M259.017 117.96C256.053 117.678 253.395 119.86 253.114 122.838C252.833 125.815 255.005 128.485 257.969 128.768C260.933 129.05 263.59 126.868 263.871 123.89C264.152 120.912 261.98 118.243 259.017 117.96Z" fill="#CCCCCC"/>
<path d="M214.763 62.0485C214.533 61.9972 214.405 61.8432 214.456 61.6635L217.625 45.3111C217.65 45.1314 217.804 45.003 218.008 45.0544C218.187 45.08 218.289 45.2597 218.264 45.4394L215.095 61.7918C215.07 61.9459 214.942 62.0485 214.789 62.0485H214.763Z" fill="white"/>
<path d="M211.597 62.0995C211.443 62.0995 211.29 61.9711 211.29 61.8171L209.246 45.9268C209.246 45.7471 209.348 45.5931 209.527 45.5674C209.706 45.5674 209.859 45.6701 209.885 45.8498L211.929 61.7401C211.929 61.9198 211.827 62.0738 211.648 62.0995C211.648 62.0995 211.622 62.0995 211.597 62.0995Z" fill="white"/>
<path d="M78.2732 81.8152C77.1234 83.7918 75.9992 85.7942 74.8239 87.7708C72.9842 90.954 71.1701 94.1372 69.3305 97.2947L55.2266 89.3367C59.8257 83.15 64.4248 76.9377 69.0239 70.751C70.3525 72.8817 72.0389 75.2434 74.1596 77.6565C75.5648 79.2481 76.9446 80.6086 78.2477 81.8152H78.2732Z" fill="#FFA083"/>
<path d="M78.2716 81.8148C77.1218 83.7915 75.9976 85.7938 74.8223 87.7705C72.2161 86.2045 71.8839 81.7378 74.1324 77.7588C75.5377 79.0423 76.9174 80.4286 78.2716 81.8148Z" fill="#131313"/>
<path d="M76.102 82.4308C73.9813 80.7109 70.1998 76.9116 68.1302 69.236C68.0025 68.7996 66.3417 62.2535 70.8897 57.222C73.8024 53.9874 77.865 52.9606 81.1355 53.2173C87.9319 53.7307 93.1187 59.9174 93.0676 63.8708C93.0676 64.5382 92.9654 65.1286 92.8376 65.5907C91.6112 69.6467 91.0746 71.4437 91.0746 71.5464C91.0746 71.572 91.0746 71.7261 90.9724 71.8544C90.9213 71.9571 90.8447 72.0084 90.7936 72.0598C90.4103 72.4705 90.0015 72.8556 89.6183 73.2663C88.0086 76.4752 87.3954 77.8614 87.2421 78.2978C87.2421 78.2978 87.2421 78.3748 87.191 78.4519C86.961 79.1706 86.8332 79.53 86.5522 79.7611C86.4755 79.8381 86.3989 79.8894 86.3989 79.9664C86.3989 80.1461 86.6033 80.2232 86.6288 80.3772C86.6288 80.6082 86.1434 80.8393 86.0412 80.8649C85.9645 80.8906 85.198 81.1986 84.7892 80.8649C84.6359 80.7366 84.5592 80.5312 84.5592 80.5312C84.5592 80.5312 85.2491 81.3013 85.0447 81.6351C84.9681 81.7634 84.7381 81.8404 84.687 81.8404C84.5081 81.8918 84.3804 81.8404 84.3037 81.8404C83.8438 81.8661 83.4861 84.3048 82.7707 84.9723C81.7231 85.9478 78.5804 84.4075 76.102 82.4052V82.4308Z" fill="#FFA083"/>
<path d="M89.7714 78.3744C89.4903 78.8879 88.7493 78.9649 88.4683 79.0162C87.7273 79.0932 87.1396 78.8108 86.9097 78.6825C86.8075 78.4771 86.6797 78.1177 86.8075 77.7583C86.9097 77.4503 87.1652 77.3989 87.3951 77.0909C87.5485 76.8855 87.7273 76.5518 87.7529 76.0127C88.3916 74.9602 89.0304 73.9334 89.6692 72.8809C89.6692 73.7023 89.6692 74.3954 89.6692 74.8575C89.6436 76.3978 89.6181 76.3978 89.6692 76.8085C89.7714 77.7583 90.0013 78.015 89.7969 78.3744H89.7714Z" fill="#FFA083"/>
<path d="M89.4883 73.3688C89.4883 73.3688 89.2839 73.3175 89.2328 73.2405C89.0284 72.9324 88.2363 71.9569 86.9077 71.8543C86.0645 71.8029 85.4002 72.0853 85.068 72.2907C84.9147 72.3677 84.7103 72.3163 84.6337 72.188C84.557 72.034 84.6081 71.8286 84.7359 71.7516C85.1191 71.5205 85.9623 71.1611 86.9588 71.2382C88.5685 71.3922 89.5138 72.5474 89.7438 72.9068C89.846 73.0608 89.8204 73.2405 89.6671 73.3432C89.616 73.3945 89.5394 73.3945 89.4883 73.3945V73.3688Z" fill="#131313"/>
<path d="M88.2892 73.4208C87.957 74.0112 87.2671 74.2423 86.7306 73.9342C86.194 73.6262 86.0151 72.9074 86.3473 72.317C86.6795 71.7265 87.3693 71.4955 87.9059 71.8035C88.4425 72.1116 88.6213 72.8304 88.2892 73.4208Z" fill="#131313"/>
<path d="M84.454 67.0025C84.454 67.0025 85.0161 67.1308 85.5015 67.3618C86.2936 67.7469 87.8011 68.9021 89.5896 70.5964C89.7685 70.5194 90.2539 70.2627 90.5861 69.6979C90.8672 69.2102 90.9183 68.7737 90.9183 68.5427C89.4874 67.7982 88.5165 67.1565 87.8266 66.6687C87.5711 66.489 86.8302 65.9243 85.7315 65.6419C85.2205 65.5135 84.9394 65.5392 84.8117 65.5392C83.8663 65.6419 83.2786 66.412 83.0742 66.6944C83.4319 66.7457 83.8918 66.8484 84.4284 67.0025H84.454Z" fill="#131313"/>
<path d="M84.7883 81.1736C84.7883 81.1736 84.6605 81.1736 84.6094 81.1223L82.3098 79.4793C82.1565 79.3766 82.131 79.1713 82.2332 79.0429C82.3354 78.8889 82.5398 78.8632 82.6676 78.9659L84.9671 80.6088C85.1204 80.7115 85.146 80.9169 85.0438 81.0453C84.9927 81.1223 84.8905 81.1736 84.7883 81.1736Z" fill="#131313"/>
<path d="M86.3971 80.3007L83.791 80.2237C83.6121 80.2237 83.4844 80.0697 83.4844 79.89C83.4844 79.7103 83.6632 79.5562 83.8165 79.5819L86.3971 79.6589C86.576 79.6589 86.7038 79.8129 86.7038 79.9926C86.7038 80.1723 86.5505 80.3007 86.3971 80.3007Z" fill="#131313"/>
<path d="M125.95 121.349C128.94 125.122 131.955 128.896 134.944 132.644H125.439C124.264 131.72 123.114 130.795 121.939 129.871C118.515 130.128 115.628 130.513 113.405 130.847C102.597 132.567 98.049 135.211 91.7891 133.363C89.2596 132.618 87.3688 131.463 86.168 130.616V119.577C89.975 119.089 93.0155 119.089 94.9574 119.166C105.689 119.552 110.671 123.017 120.585 122.17C122.961 121.965 124.852 121.58 125.925 121.323L125.95 121.349Z" fill="#FFA083"/>
<path d="M93.0928 139.344L282.346 139.344C283.687 139.344 284.773 138.252 284.773 136.905V135.108C284.773 133.761 283.687 132.669 282.346 132.669L93.0928 132.669C91.7522 132.669 90.6655 133.761 90.6655 135.108V136.905C90.6655 138.252 91.7522 139.344 93.0928 139.344Z" fill="black"/>
<path d="M187.245 132.669H237.682C240.378 132.669 242.562 130.474 242.562 127.766V92.9047C242.562 90.1967 240.378 88.0015 237.682 88.0015H187.245C184.55 88.0015 182.365 90.1967 182.365 92.9047V127.766C182.365 130.474 184.55 132.669 187.245 132.669Z" fill="#404040"/>
<path d="M205.463 63.8194C205.284 64.1788 209.015 68.1065 213.92 68.0038C218.903 67.9011 222.531 63.6397 222.327 63.3317C222.148 63.0493 219.133 65.9758 214.355 66.2325C209.219 66.4892 205.642 63.4857 205.463 63.8194Z" fill="#EDBB0A"/>
<path d="M98.2029 241.668C93.8593 241.668 89.4901 241.693 85.1465 241.719C80.5985 241.308 76.0505 240.923 71.5025 240.513C70.9915 238.716 75.3351 230.27 76.6637 226.753C78.4523 226.958 80.2153 227.189 82.0038 227.395L86.3985 236.867C90.8443 240.102 93.8082 240.667 95.7756 240.564C96.4399 240.513 98.5606 240.307 98.765 240.872C98.8416 241.103 98.5095 241.437 98.2029 241.693V241.668Z" fill="#FFA083"/>
<path d="M70.1211 241.719H102.8C102.494 241.051 101.932 240.102 101.012 239.229C99.121 237.457 96.847 237.098 96.1061 236.944C93.781 236.508 90.1017 235.224 84.1484 231.373C84.0206 229.808 83.7651 229.474 83.5607 229.448C82.5898 229.268 81.951 235.506 78.8338 236.61C77.4797 237.098 75.6145 236.662 72.9061 234.428C71.9863 236.867 71.0665 239.28 70.1466 241.719H70.1211Z" fill="#575757"/>
<path d="M82.3094 232.221C79.8821 231.682 77.4292 231.143 75.0019 230.604C74.1843 221.362 74.0821 213.558 74.2098 207.705C74.5931 188.375 77.4292 183.523 78.8345 181.444C79.9843 179.75 81.4407 178.132 83.4592 174.616C86.1675 169.918 87.7261 165.656 88.6204 162.781C93.3217 163.423 97.1543 166.658 98.3807 170.996C99.8626 176.207 96.8477 180.494 96.4644 181.008C95.1613 183.908 93.9094 186.912 92.7085 190.044C86.934 205.138 83.8424 219.488 82.2838 232.221H82.3094Z" fill="#FFA083"/>
<path d="M71.8594 228.909H85.1712C89.4126 212.274 93.654 195.639 97.921 179.005C95.3404 178.594 91.7122 178.311 87.4963 179.056C79.6012 180.468 74.2867 184.601 71.8849 186.783V228.909H71.8594Z" fill="#131313"/>
<path d="M130.321 244.26C120.484 244.286 110.647 244.311 100.81 244.337C100.529 243.233 100.299 241.565 100.963 239.793C101.218 239.126 101.5 238.664 101.653 238.433C102.419 237.175 103.365 235.07 103.85 231.348C105.639 231.142 107.427 230.937 109.19 230.731C115.936 239.87 119.768 241.693 122.017 241.565C123.626 241.462 125.159 242.36 126.744 242.386C127.766 242.386 129.043 242.283 129.759 243.131C130.091 243.516 130.218 243.952 130.27 244.311L130.321 244.26Z" fill="#FFA083"/>
<path d="M57.4238 176.746C51.4961 167.813 45.5684 158.853 39.6406 149.92C41.1992 139.626 42.7833 129.332 44.3419 119.038C44.2397 117.497 43.6265 105.073 48.4811 96.2162C51.0106 91.6211 54.3833 88.4636 54.3833 88.4636C56.1208 86.8464 57.7816 85.7168 58.9824 84.998L70.0969 90.7227C71.119 91.8008 82.6423 104.174 78.6564 116.702C78.1454 118.345 77.2511 120.27 75.7181 122.298C73.5974 128.664 71.4767 135.056 69.3304 141.448C65.3701 153.283 61.3842 165.066 57.3983 176.772L57.4238 176.746Z" fill="#FFA083"/>
<path d="M49.9641 156.03C59.5711 155.49 67.7473 161.523 68.1816 169.507C68.616 177.49 61.2063 184.396 51.5738 184.961C41.9412 185.526 33.7905 179.467 33.3562 171.483C32.8963 163.5 40.3315 156.594 49.9641 156.03Z" fill="#FFA083"/>
<path d="M102.059 177.927C85.9362 178.851 69.7883 179.75 53.6658 180.674C52.1072 171.381 50.5487 162.088 49.0156 152.821C53.487 152.128 59.8746 151.486 67.4887 152.128C90.7142 154.105 113.48 166.914 112.202 173.204C111.87 174.821 109.801 176.721 102.059 177.927Z" fill="#FFA083"/>
<path d="M110.647 235.327C108.143 235.378 105.664 235.404 103.16 235.455C100.222 226.676 98.3312 219.103 97.1048 213.353C93.0167 194.459 94.652 189.094 95.5462 186.732C96.2872 184.807 97.3092 182.907 98.459 179.005C100.018 173.794 100.554 169.301 100.759 166.298C105.46 165.836 109.957 168.095 112.154 172.022C114.811 176.746 112.87 181.623 112.614 182.214C112.026 185.32 111.49 188.555 111.055 191.866C108.909 207.91 109.216 222.569 110.647 235.327Z" fill="#FFA083"/>
<path d="M45.3125 181.135H96.6181C95.7749 183.369 94.6507 186.783 94.0375 191.044C92.8877 199.028 94.3186 204.47 95.2128 211.786C95.826 216.767 96.3626 223.929 95.8005 232.888C100.655 232.657 105.484 232.4 110.339 232.169C111.335 215.483 112.357 198.771 113.354 182.085C113.686 180.468 114.299 176.463 112.587 171.868C111.003 167.607 108.244 165.091 106.966 164.064C95.4683 158.185 78.7582 151.87 58.3433 151.408C53.872 151.306 49.6561 151.485 45.6958 151.87C45.5936 161.625 45.4658 171.355 45.3636 181.11L45.3125 181.135Z" fill="#131313"/>
<path d="M35.3477 242.823C35.3477 244.286 47.3309 245.493 62.0991 245.493C76.8674 245.493 88.8506 244.312 88.8506 242.823C88.8506 241.334 76.8674 240.153 62.0991 240.153C47.3309 240.153 35.3477 241.334 35.3477 242.823Z" fill="#3A3A3A"/>
<path d="M58.5974 240.179H65.4961L65.4961 177.465H58.5974L58.5974 240.179Z" fill="#646464"/>
<path d="M98.7891 245.108H131.468C131.162 244.44 130.6 243.49 129.68 242.617C127.789 240.846 125.515 240.487 124.774 240.333C122.449 239.896 118.77 238.613 112.816 234.762C112.689 233.196 112.433 232.862 112.229 232.837C111.258 232.657 110.619 238.895 107.502 239.999C106.148 240.487 104.282 240.05 101.574 237.817C100.654 240.256 99.7344 242.669 98.8146 245.108H98.7891Z" fill="#575757"/>
<path d="M43.9847 157.262C51.8798 155.336 59.8005 153.411 67.6956 151.46C72.2947 137.341 76.9194 123.222 81.5185 109.103C80.1132 105.535 78.4524 101.812 76.485 97.9617C75.693 96.3957 74.8754 94.8812 74.0577 93.4179L75.2586 89.7213C70.4806 86.7435 65.7282 83.7656 60.9503 80.8135C59.7494 82.0714 58.5485 83.3292 57.3732 84.5871C54.8692 86.4611 49.9891 90.6454 46.8463 97.7306C44.5212 102.942 44.0613 107.665 43.9847 110.566L39.2578 133.208C40.8419 141.217 42.4005 149.252 43.9847 157.262Z" fill="white"/>
<path d="M93.0406 181.675C93.7304 177.208 72.8811 176.643 56.6821 157.492C42.5781 140.832 44.0856 124.377 38.7455 124.3C31.3359 124.223 16.4143 156.004 29.0108 175.488C44.6733 199.721 91.993 188.246 93.015 181.675H93.0406Z" fill="#CCCCCC"/>
<path d="M94.0094 121.142L86.5486 129.228C80.2121 124.043 75.1275 119.448 71.3971 115.931C55.1981 100.708 52.7196 94.9834 53.6395 90.5424C53.8183 89.6696 54.0994 88.9764 54.3038 88.54C61.6113 92.1083 68.8932 95.6509 76.2007 99.2192C82.1284 106.51 88.0561 113.826 94.0094 121.116V121.142Z" fill="#FFA083"/>
<path d="M86.3203 130.538C89.4375 127.535 92.5547 124.531 95.6718 121.553C90.5873 114.956 85.5027 108.333 80.4181 101.735C78.6807 99.81 63.0182 82.5591 55.353 86.5381C54.842 86.8205 54.331 87.1799 53.871 87.6933C53.4622 89.0282 53.1556 90.6968 53.1812 92.5708C53.2323 99.2709 57.397 103.943 58.8023 105.406C67.975 113.775 77.1476 122.144 86.3203 130.512V130.538Z" fill="white"/>
<path d="M98.3049 64.6928C97.334 66.2587 93.6547 66.002 92.0194 64.3591C91.4318 63.7686 91.4573 63.2552 90.7419 62.8702C89.4899 62.2027 88.4679 63.2295 86.7049 62.8702C86.3983 62.8188 86.1428 62.7161 85.9384 62.6134C84.9164 62.0487 84.4054 61.5866 84.0988 61.4326C82.3613 60.4057 76.8679 67.5679 75.4882 66.7978C74.7472 66.3871 75.6671 63.8457 75.156 63.6403C74.2362 63.2552 70.7869 72.009 68.845 71.5726C67.2609 71.2132 67.4653 65.1035 67.4909 64.6158C67.6442 60.8422 67.7719 57.0172 70.4292 54.3217C75.5904 49.0849 85.9129 52.3707 88.0847 54.1934C88.3146 54.3987 88.8256 54.8608 89.6943 55.2972C91.6873 56.2727 92.7604 55.5283 93.6036 56.4011C94.5745 57.4022 93.6036 58.8912 94.6256 59.8153C95.341 60.4571 96.1075 59.841 97.0018 60.5341C98.2793 61.4839 98.9948 63.5633 98.2793 64.7185L98.3049 64.6928Z" fill="#131313"/>
<path d="M84.8398 131.848C86.2707 134.364 87.0372 134.851 87.4716 134.723C87.9315 134.595 87.957 133.876 88.5447 133.671C89.2345 133.44 90.0777 134.107 90.7165 134.749C92.7094 129.538 94.7024 124.326 96.6953 119.141C95.5966 118.807 94.498 118.473 93.3993 118.14C90.5376 122.709 87.7015 127.253 84.8398 131.822V131.848Z" fill="white"/>
<path d="M111.233 133.105H149.737C150.344 133.105 150.836 132.611 150.836 132.002V131.206C150.836 130.596 150.344 130.102 149.737 130.102H111.233C110.626 130.102 110.134 130.596 110.134 131.206V132.002C110.134 132.611 110.626 133.105 111.233 133.105Z" fill="#131313"/>
<path d="M147.879 131.37L148.763 131.624C149.401 131.807 150.066 131.436 150.248 130.795L160.345 95.2748C160.527 94.6341 160.158 93.9663 159.52 93.7833L158.636 93.5295C157.998 93.3465 157.333 93.7176 157.151 94.3583L147.054 129.878C146.872 130.519 147.241 131.187 147.879 131.37Z" fill="#131313"/>
<path d="M77.0976 122.016C77.0976 122.016 76.9187 121.99 76.8676 121.913L74.6191 119.372C74.4914 119.243 74.5169 119.038 74.6447 118.91C74.7725 118.781 74.9769 118.807 75.1046 118.935L77.3531 121.477C77.4808 121.605 77.4553 121.81 77.3275 121.939C77.2764 121.99 77.1998 122.016 77.1231 122.016H77.0976Z" fill="#131313"/>
<path d="M70.1224 117.626C70.1224 117.626 69.9691 117.6 69.918 117.549L65.5744 113.595C65.4466 113.467 65.4211 113.287 65.5744 113.133C65.7021 113.005 65.9065 113.005 66.0343 113.133L70.3779 117.087C70.5056 117.215 70.5312 117.395 70.3779 117.549C70.3268 117.626 70.2246 117.651 70.1479 117.651L70.1224 117.626Z" fill="#131313"/>
<path d="M86.065 128.023C86.065 128.023 85.9628 128.023 85.9373 127.997C85.784 127.92 85.7073 127.74 85.784 127.56L89.1822 120.296C89.2589 120.142 89.4377 120.065 89.6166 120.142C89.7699 120.219 89.8465 120.398 89.7699 120.578L86.3716 127.843C86.3716 127.843 86.1928 128.023 86.0906 128.023H86.065Z" fill="#131313"/>
<path d="M90.9444 131.181C90.6889 131.103 90.5867 130.924 90.6378 130.77L93.7038 120.578C93.7549 120.399 93.9338 120.322 94.1127 120.373C94.2915 120.424 94.3682 120.604 94.3171 120.784L91.251 130.975C91.1999 131.103 91.0721 131.206 90.9444 131.206V131.181Z" fill="#131313"/>
<path d="M159.013 242.823H160.521C161.607 242.823 162.488 241.938 162.488 240.847V139.087C162.488 137.995 161.607 137.11 160.521 137.11H159.013C157.927 137.11 157.046 137.995 157.046 139.087V240.847C157.046 241.938 157.927 242.823 159.013 242.823Z" fill="black"/>
<path d="M271.767 240.076H273.275C274.361 240.076 275.242 239.191 275.242 238.1V136.34C275.242 135.248 274.361 134.363 273.275 134.363H271.767C270.681 134.363 269.8 135.248 269.8 136.34V238.1C269.8 239.191 270.681 240.076 271.767 240.076Z" fill="black"/>
<path d="M116.137 83.3573V80.6105C114.783 80.4308 113.659 80.1227 112.816 79.6863C111.972 79.2499 111.231 78.5312 110.593 77.5557C109.979 76.5802 109.622 75.3736 109.52 73.9361L112.253 73.4226C112.458 74.8859 112.841 75.9897 113.378 76.6572C114.144 77.6327 115.064 78.1718 116.137 78.3001V69.572C115.013 69.3666 113.863 68.9302 112.688 68.2628C111.819 67.775 111.155 67.1076 110.669 66.2348C110.209 65.362 109.954 64.3865 109.954 63.2826C109.954 61.3316 110.644 59.74 112.023 58.5335C112.943 57.712 114.297 57.2243 116.112 57.0446V55.7354H117.721V57.0446C119.305 57.1986 120.557 57.6607 121.503 58.4565C122.704 59.4576 123.419 60.8182 123.649 62.5638L120.838 63.0002C120.685 61.922 120.353 61.1006 119.842 60.5358C119.331 59.9711 118.641 59.586 117.747 59.4063V67.3129C119.127 67.6467 120.021 67.9291 120.481 68.1087C121.324 68.4938 122.014 68.9302 122.55 69.4693C123.087 70.0084 123.496 70.6502 123.777 71.3946C124.058 72.1391 124.211 72.9349 124.211 73.8077C124.211 75.7073 123.598 77.2989 122.397 78.5568C121.196 79.8147 119.638 80.5078 117.721 80.6105V83.383H116.112L116.137 83.3573ZM116.137 59.3293C115.064 59.4833 114.246 59.9197 113.633 60.6128C113.02 61.3059 112.713 62.1274 112.713 63.0772C112.713 64.0271 112.969 64.7972 113.505 65.4133C114.016 66.0551 114.911 66.5428 116.163 66.9279V59.3293H116.137ZM117.747 78.3001C118.82 78.1718 119.689 77.7097 120.379 76.9139C121.068 76.1181 121.426 75.1426 121.426 73.9617C121.426 72.9606 121.171 72.1648 120.685 71.5487C120.2 70.9326 119.229 70.3935 117.747 69.9314V78.2744V78.3001Z" fill="#6C5500"/>
<path d="M361.24 170.021H287.398V267.032H361.24V170.021Z" fill="white"/>
<path d="M368.293 168.507H280.398V172.589H368.293V168.507Z" fill="white"/>
<path d="M322.685 144.171C318.775 144.197 319.235 135.674 311.161 125.765C300.507 112.699 289.213 114.701 282.034 102.97C276.259 93.574 276.745 81.2776 282.034 79.0956C282.979 78.7105 285.406 78.0944 296.597 84.5122C309.833 92.1108 319.337 97.553 325.725 108.386C327.846 111.954 331.806 118.886 331.014 127.922C330.375 135.11 326.696 144.12 322.685 144.146V144.171Z" fill="black"/>
<path d="M326.058 142.118C323.503 140.346 337.607 123.326 347.674 112.801C354.24 105.947 357.638 102.456 363.234 99.2471C370.976 94.7804 378.564 93.1117 393.69 89.7489C406.133 86.9764 407.232 87.7208 407.59 88.1316C410.273 91.0837 399.158 103.123 385.744 111.466C374.936 118.192 371.538 116.986 356.284 124.482C336.176 134.391 327.949 143.452 326.058 142.143V142.118Z" fill="black"/>
<path d="M332.446 107.385C332.293 100.248 331.143 98.6565 329.789 82.1501C328.742 69.2633 329.074 65.8747 331.782 64.5141C335.998 62.4348 343.714 66.4138 347.675 69.674C353.807 74.7055 354.471 81.3029 354.957 85.9494C356.413 100.068 349.233 111.081 343.689 119.322C343.203 120.066 333.315 134.647 330.019 133.569C327.439 132.696 332.804 123.48 332.446 107.385Z" fill="black"/>
<path d="M305.539 137.111H345.756V152.565C345.756 161.653 338.397 169.046 329.352 169.046H321.943C312.898 169.046 305.539 161.653 305.539 152.565V137.111Z" fill="white"/>
<path d="M307.043 138.273H344.311V152.51C344.311 160.882 337.492 167.693 329.11 167.693H322.244C313.862 167.693 307.043 160.882 307.043 152.51V138.273Z" fill="#EAEAEA"/>
<path d="M356.308 171.947H287.398V173.231H356.308V171.947Z" fill="#EDBB0A"/>
<path d="M355.136 196.822H291.668V198.106H355.136V196.822Z" fill="#EDBB0A"/>
<path d="M356.285 226.857H291.668V228.141H356.285V226.857Z" fill="#EDBB0A"/>
</svg>
