<svg width="237" height="236" viewBox="0 0 237 236" fill="none" xmlns="http://www.w3.org/2000/svg">
<g clip-path="url(#clip0_103_3221)">
<path d="M205.984 198.996C201.248 203.979 196.767 207.192 193.227 209.731C151.612 239.573 102.37 230.874 91.9048 228.75C76.4512 225.613 46.5788 219.549 24.9814 194.166C-7.6935 155.764 -2.60555 95.263 22.7389 55.325C27.3748 48.02 51.8633 7.47347 101.635 0.971672C131.758 -2.96363 166.869 4.97356 192.297 26.2633C245.671 70.9541 241.872 161.237 205.984 198.996Z" fill="white"/>
<path d="M220.991 116.344C223.373 62.0278 177.749 15.9125 119.085 13.3425C60.4218 10.7724 10.9344 52.7208 8.55198 107.037C6.16959 161.353 51.7944 207.468 110.458 210.038C169.121 212.608 218.609 170.66 220.991 116.344Z" fill="#EDBB0A"/>
<g opacity="0.68">
<g style="mix-blend-mode:soft-light">
<path d="M142.125 112.174C142.115 120.863 141.797 129.553 141.12 138.218C140.425 146.881 139.359 155.518 137.817 164.079C136.242 172.627 134.237 181.129 131.206 189.314C129.668 193.391 127.885 197.409 125.463 201.088C124.243 202.913 122.859 204.664 121.147 206.107C120.291 206.824 119.35 207.46 118.313 207.927C117.278 208.392 116.144 208.685 114.995 208.704C113.846 208.737 112.696 208.515 111.64 208.091C110.58 207.671 109.616 207.063 108.739 206.369C106.985 204.97 105.57 203.239 104.329 201.427C101.865 197.775 100.057 193.765 98.5038 189.694C96.9597 185.614 95.7022 181.437 94.6134 177.224C93.5264 173.009 92.6138 168.754 91.827 164.477C90.2567 155.922 89.1831 147.286 88.4553 138.625C87.7325 129.963 87.3657 121.273 87.3117 112.582C87.2864 108.237 87.4196 103.893 87.5782 99.5511C87.7477 95.2095 87.994 90.8713 88.3203 86.539C88.9765 77.8753 89.9505 69.231 91.3918 60.6583C92.1146 56.3732 92.9571 52.1058 93.9691 47.8764C94.9837 43.6477 96.161 39.4537 97.62 35.349C99.0942 31.2569 100.812 27.2145 103.203 23.538C104.406 21.7132 105.789 19.971 107.513 18.5744C108.374 17.8824 109.324 17.2798 110.366 16.8718C111.404 16.458 112.53 16.2507 113.65 16.2937C114.77 16.3257 115.874 16.6021 116.892 17.0488C117.912 17.4972 118.848 18.1075 119.707 18.7986C121.426 20.1902 122.847 21.8902 124.108 23.6746C126.614 27.2685 128.504 31.2299 130.141 35.2596C133.376 43.3536 135.568 51.8091 137.294 60.3245C138.991 68.8525 140.177 77.4767 140.962 86.132C141.726 94.7906 142.098 103.481 142.123 112.173L142.125 112.174ZM140.471 112.174C140.492 103.528 140.168 94.8783 139.455 86.2617C138.755 77.6452 137.694 69.0523 136.106 60.5546C134.509 52.0662 132.447 43.6334 129.355 35.5706C127.79 31.5561 125.974 27.6132 123.563 24.0521C122.351 22.2838 120.985 20.6057 119.346 19.2411C117.724 17.8875 115.752 16.8482 113.634 16.7825C112.584 16.7496 111.536 16.9637 110.565 17.3641C109.591 17.7619 108.696 18.346 107.879 19.0211C106.244 20.3823 104.918 22.0967 103.766 23.9004C101.473 27.5357 99.8271 31.5561 98.4254 35.6288C97.0372 39.7141 95.9266 43.8947 94.9778 48.109C94.0315 52.3249 93.254 56.5797 92.5953 60.8513C89.9851 77.9537 89.1468 95.2904 89.2109 112.579C89.178 121.225 89.458 129.874 90.0914 138.497C90.7298 147.119 91.7131 155.719 93.189 164.234C93.9286 168.491 94.7931 172.726 95.8304 176.917C96.8686 181.107 98.0746 185.256 99.5597 189.301C101.052 193.335 102.799 197.302 105.156 200.871C106.343 202.64 107.692 204.317 109.323 205.642C110.937 206.961 112.913 207.9 114.973 207.829C117.031 207.773 118.96 206.752 120.54 205.387C122.135 204.015 123.457 202.317 124.622 200.532C126.938 196.935 128.66 192.958 130.135 188.918C133.047 180.802 134.954 172.339 136.43 163.832C137.899 155.315 138.868 146.714 139.515 138.092C140.174 129.471 140.478 120.821 140.472 112.173L140.471 112.174Z" fill="white"/>
</g>
<g style="mix-blend-mode:soft-light">
<path d="M185.978 112.173C185.913 123.372 184.467 134.576 181.463 145.374C178.4 156.147 173.783 166.506 167.525 175.805C161.277 185.084 153.319 193.314 143.811 199.284C139.06 202.255 133.929 204.633 128.558 206.246C123.19 207.862 117.587 208.704 111.979 208.707C106.371 208.711 100.765 207.876 95.3941 206.265C90.0194 204.658 84.8826 202.285 80.1261 199.317C70.6046 193.357 62.629 185.131 56.3621 175.852C50.0884 166.552 45.4583 156.187 42.3776 145.407C40.8638 140.007 39.7353 134.5 38.9898 128.943C38.2494 123.385 37.8766 117.78 37.8496 112.173C37.8808 106.567 38.2578 100.963 39.0033 95.4056C39.7531 89.8495 40.8874 84.3448 42.4062 78.9471C45.4963 68.1729 50.1356 57.8167 56.4143 48.5292C62.6847 39.262 70.6586 31.0475 80.1741 25.1062C84.929 22.1487 90.0641 19.7979 95.427 18.1923C100.787 16.5791 106.381 15.7387 111.979 15.7354C117.577 15.7446 123.169 16.5909 128.524 18.21C133.884 19.8215 139.013 22.1782 143.761 25.14C153.264 31.0905 161.22 39.3092 167.472 48.5764C173.735 57.863 178.362 68.2125 181.434 78.98C184.447 89.7736 185.903 100.974 185.978 112.173ZM184.082 112.173C184.074 101.137 182.705 90.088 179.799 79.4334C176.881 68.7932 172.488 58.5154 166.428 49.2701C163.4 44.6521 159.959 40.2987 156.103 36.3398C152.245 32.3877 147.986 28.8089 143.321 25.8362C138.651 22.8811 133.608 20.4992 128.318 18.891C123.03 17.282 117.509 16.4358 111.978 16.4155C106.446 16.4408 100.927 17.2938 95.6438 18.9079C90.3568 20.5219 85.3194 22.9098 80.6557 25.869C75.9979 28.846 71.7457 32.429 67.8966 36.3828C64.0492 40.3443 60.6176 44.6985 57.5984 49.3165C51.5541 58.5601 47.1737 68.832 44.2751 79.4655C42.8279 84.7873 41.7855 90.2144 41.0763 95.6803C40.3645 101.147 40.0145 106.659 40.0044 112.173C40.0187 117.687 40.3729 123.2 41.0889 128.665C41.8024 134.129 42.8515 139.554 44.3029 144.874C47.2117 155.501 51.6013 165.764 57.6507 174.996C60.6716 179.608 64.104 183.957 67.9506 187.911C71.7996 191.857 76.0476 195.436 80.7046 198.401C85.3667 201.35 90.4023 203.715 95.6767 205.328C100.948 206.946 106.456 207.803 111.978 207.835C117.499 207.81 123.009 206.959 128.284 205.347C133.563 203.739 138.603 201.379 143.272 198.434C147.935 195.473 152.191 191.898 156.049 187.954C159.904 184.002 163.346 179.654 166.376 175.042C172.441 165.809 176.844 155.54 179.77 144.906C182.685 134.256 184.063 123.21 184.081 112.173H184.082Z" fill="white"/>
</g>
<g style="mix-blend-mode:soft-light">
<path d="M25.8731 73.9847C33.2601 73.8776 40.6462 73.8321 48.0331 73.7546L70.193 73.6239C77.58 73.5683 84.9661 73.5742 92.353 73.5573L114.513 73.5186L158.832 73.634L180.992 73.7765C188.379 73.8608 195.765 73.9105 203.152 74.0251C203.198 74.0251 203.235 74.0639 203.235 74.1102C203.235 74.1558 203.197 74.192 203.152 74.1928C195.765 74.3075 188.379 74.3564 180.992 74.4415L158.832 74.5839L114.513 74.6994L92.353 74.6606C84.9661 74.6438 77.58 74.6497 70.193 74.594L48.0331 74.4634C40.6462 74.3859 33.2601 74.3403 25.8731 74.2333C25.804 74.2325 25.7492 74.176 25.75 74.1069C25.7509 74.0394 25.8057 73.9855 25.8731 73.9838V73.9847Z" fill="white"/>
</g>
<g style="mix-blend-mode:soft-light">
<path d="M51.5813 36.8909C56.8253 36.7839 62.0701 36.7383 67.314 36.6608L83.0468 36.5302C88.2908 36.4745 93.5356 36.4804 98.7795 36.4636L114.512 36.4248L130.245 36.4686C135.489 36.4948 140.734 36.4804 145.978 36.5403L161.711 36.6827C166.955 36.767 172.199 36.8167 177.443 36.9314C177.49 36.9322 177.526 36.971 177.525 37.0165C177.524 37.0612 177.488 37.0974 177.443 37.0982C172.199 37.2129 166.955 37.2618 161.711 37.3469L145.978 37.4893C140.734 37.5492 135.489 37.5348 130.245 37.561L114.512 37.6048L98.7795 37.566C93.5356 37.5492 88.2908 37.5551 83.0468 37.4994L67.314 37.3688C62.0701 37.2913 56.8253 37.2457 51.5813 37.1387C51.5121 37.137 51.4582 37.0805 51.459 37.0114C51.4607 36.944 51.5147 36.8909 51.5813 36.8892V36.8909Z" fill="white"/>
</g>
<g style="mix-blend-mode:soft-light">
<path d="M18.172 111.078L42.2565 110.848L66.3409 110.718C74.3688 110.662 82.3975 110.668 90.4254 110.651L114.51 110.612L162.68 110.728L186.764 110.87C194.792 110.955 202.821 111.004 210.849 111.119C210.895 111.119 210.932 111.158 210.931 111.204C210.931 111.25 210.894 111.286 210.849 111.287C202.821 111.401 194.792 111.45 186.764 111.535L162.68 111.678L114.51 111.793L90.4254 111.754C82.3975 111.738 74.3688 111.743 66.3409 111.688L42.2565 111.557L18.172 111.327C18.1028 111.327 18.048 111.27 18.0488 111.201C18.0488 111.133 18.1045 111.079 18.172 111.078Z" fill="white"/>
</g>
<g style="mix-blend-mode:soft-light">
<path d="M25.8731 148.172C33.2601 148.065 40.6462 148.02 48.0331 147.942L70.193 147.811C77.58 147.756 84.9661 147.762 92.353 147.745L114.513 147.706L158.832 147.822L180.992 147.964C188.379 148.048 195.765 148.098 203.152 148.213C203.198 148.213 203.235 148.251 203.235 148.298C203.235 148.343 203.197 148.379 203.152 148.38C195.765 148.495 188.379 148.544 180.992 148.629L158.832 148.771L114.513 148.887L92.353 148.848C84.9661 148.831 77.58 148.837 70.193 148.782L48.0331 148.651C40.6462 148.573 33.2601 148.528 25.8731 148.421C25.804 148.42 25.7492 148.363 25.75 148.294C25.7509 148.227 25.8057 148.173 25.8731 148.171V148.172Z" fill="white"/>
</g>
<g style="mix-blend-mode:soft-light">
<path d="M180.613 185.826H54.7513C54.5101 185.826 54.3145 185.631 54.3145 185.39C54.3145 185.149 54.5101 184.953 54.7513 184.953H180.613C180.854 184.953 181.049 185.149 181.049 185.39C181.049 185.631 180.854 185.826 180.613 185.826Z" fill="white"/>
</g>
</g>
<path d="M120.108 119.456C100.739 101.097 67.9681 85.2164 39.2208 85.1768L36.748 115.276C37.518 115.253 38.2914 115.241 39.0673 115.241C63.0025 115.241 86.2335 128.731 100.384 145.823C104.304 137.585 112.425 132.165 116.245 123.792L120.108 119.456H120.108Z" fill="black"/>
<path d="M50.3948 73.8867L3.85938 96.4862L10.4763 101.431H52.4947L54.4859 75.135L50.3948 73.8867Z" fill="black"/>
<path d="M50.3956 73.8867L45.9326 132.705L0.2068 98.9061C-0.101868 98.6785 -0.0571698 98.204 0.288605 98.038L50.3956 73.8867Z" fill="#191919"/>
<path d="M97.5904 161.045C101.919 151.229 109.956 131.422 116.872 123.383C97.1915 102.484 65.8668 87.0225 34.8887 86.9795L32.416 117.079C33.186 117.056 33.9594 117.043 34.7352 117.043C59.9852 117.043 93.1872 135.091 97.5904 161.044V161.045Z" fill="#191919"/>
<path d="M110.798 125.377C110.722 125.377 110.646 125.344 110.593 125.281C105.144 118.682 96.91 112.157 86.783 106.414C86.6556 106.341 86.6109 106.18 86.6826 106.051C86.7551 105.924 86.9171 105.88 87.0453 105.951C97.2279 111.726 105.513 118.293 111.003 124.942C111.097 125.055 111.081 125.223 110.967 125.317C110.918 125.357 110.857 125.377 110.798 125.377Z" fill="black"/>
<path d="M83.5946 104.631C83.5524 104.631 83.5103 104.621 83.4706 104.6C77.261 101.317 70.7866 98.5206 64.2287 96.2879C64.0904 96.2407 64.0153 96.0898 64.0634 95.9508C64.1106 95.8117 64.2616 95.7375 64.4007 95.7847C70.9848 98.0259 77.4845 100.833 83.7194 104.13C83.8493 104.198 83.8991 104.359 83.8299 104.489C83.7827 104.579 83.6899 104.631 83.5946 104.631V104.631Z" fill="black"/>
<path d="M60.4255 95.0511C60.4002 95.0511 60.3741 95.0477 60.3488 95.0393C56.3901 93.8399 52.5452 92.9043 48.9205 92.2612C48.7763 92.2351 48.6793 92.0977 48.7054 91.9536C48.7307 91.8094 48.8648 91.7125 49.0133 91.7386C52.6591 92.3859 56.5242 93.3257 60.5031 94.5319C60.6431 94.5748 60.7224 94.7223 60.6802 94.8631C60.6456 94.9777 60.5402 95.0519 60.4264 95.0519L60.4255 95.0511Z" fill="black"/>
<path d="M122.265 0.830177L116.855 0.289062L118.134 2.92805L93.1875 45.9778H137.9L147.697 48.8528L151.966 46.47L122.265 0.830177Z" fill="black"/>
<path d="M107.707 42.0752V97.4416C112.588 101.428 113.19 117.058 117.632 121.919C122.564 117.118 131.951 106.974 138.134 103.294V42.0752H107.707Z" fill="black"/>
<path d="M89.6375 48.9054H147.696L117.12 0.284321C117.057 0.185707 116.913 0.188236 116.854 0.289379L89.1576 48.0726C88.9434 48.4426 89.2099 48.9054 89.6375 48.9054Z" fill="#1A1A1A"/>
<path d="M102.174 45.002V110.387C107.706 114.373 111.906 120.078 116.349 124.939C121.28 120.138 127.069 110.292 133.089 106.493V45.002H102.174Z" fill="#191919"/>
<path d="M102.5 47.7071H92.7593C92.5358 47.7071 92.3342 47.5916 92.2212 47.3986C92.1082 47.2056 92.1057 46.9738 92.2153 46.7783L115.901 4.58317C115.973 4.45506 116.135 4.40954 116.263 4.48118C116.391 4.55283 116.436 4.71466 116.365 4.84277L92.6792 47.0379C92.6564 47.0783 92.6699 47.1129 92.6792 47.1297C92.6893 47.1466 92.7129 47.1753 92.7585 47.1753H102.499C102.646 47.1753 102.765 47.2941 102.765 47.4408C102.765 47.5874 102.646 47.7063 102.499 47.7063L102.5 47.7071Z" fill="black"/>
<path d="M206.781 86.1309C162.164 86.1915 123.961 111.188 107.441 150.704C107.441 150.704 107.441 150.715 107.441 150.716C107.426 150.75 107.411 150.789 107.395 150.824L107.416 150.828C98.7468 169.859 103.945 202.073 104.628 235.102L134.344 235.103H135.612C136.974 235.103 138.056 233.961 137.984 232.602C136.634 207.565 135.471 182.376 139.019 161.342C140.141 154.686 143.038 148.437 147.415 143.235C161.565 126.414 182.975 115.692 206.936 115.692C207.712 115.692 208.485 115.683 209.256 115.705L206.783 86.1309H206.781Z" fill="black"/>
<path d="M200.467 84.0448C200.436 83.6647 200.116 83.3705 199.734 83.3731C155.408 83.6891 117.507 108.955 101.072 149.155C101.072 149.155 101.072 149.156 101.072 149.156C101.057 149.192 101.042 149.226 101.026 149.262H101.047C92.5119 168.347 97.4185 200.446 98.2239 233.541C98.245 234.41 98.9534 235.103 99.8229 235.103H131.216C131.634 235.103 131.967 234.752 131.945 234.334C130.522 206.97 128.882 182.906 132.617 160.164C133.75 153.259 136.694 146.768 141.164 141.383C155.315 124.333 176.672 113.471 200.567 113.471C201.074 113.471 201.58 113.469 202.085 113.474C202.514 113.478 202.855 113.113 202.819 112.685L200.468 84.0448H200.467Z" fill="#232323"/>
<path d="M236.885 101.13L237 101.045L235.897 94.9588L235.793 94.9082L235.774 94.7961L235.665 94.8467L190.681 73.165L193.784 114.054L193.001 114.414L189.369 129.097L193.993 132.813L195.144 131.964L195.144 131.983L236.845 101.16L236.885 101.13Z" fill="black"/>
<path d="M184.906 70.2793L189.369 129.097L235.774 94.7963L184.906 70.2793Z" fill="#2D2D2D"/>
<g opacity="0.3">
<path d="M54.3077 50.2912C53.8371 50.2912 53.4331 49.9355 53.3833 49.4576C53.2737 48.4125 53.2079 47.3471 53.1877 46.291C53.1776 45.7768 53.5866 45.3529 54.101 45.3428H54.1196C54.6256 45.3428 55.0405 45.7473 55.0498 46.2556C55.0692 47.2594 55.1316 48.2709 55.2353 49.2637C55.2893 49.7745 54.9182 50.233 54.4063 50.2861C54.3734 50.2895 54.3406 50.2912 54.3085 50.2912H54.3077ZM54.3675 42.1863C54.3313 42.1863 54.2942 42.1837 54.2571 42.1795C53.7468 42.1188 53.3817 41.657 53.4415 41.1462C53.5655 40.0977 53.7359 39.0449 53.9475 38.0158C54.0513 37.5126 54.5413 37.189 55.0473 37.2918C55.5508 37.3955 55.8755 37.8877 55.7717 38.39C55.571 39.3678 55.4091 40.3682 55.291 41.3645C55.2353 41.8373 54.8331 42.1854 54.3675 42.1854V42.1863ZM56.212 34.2954C56.1082 34.2954 56.0028 34.2777 55.8999 34.2415C55.4158 34.0687 55.1628 33.5369 55.3357 33.0531C55.6891 32.061 56.0905 31.0715 56.5282 30.1132C56.7424 29.6454 57.294 29.4406 57.762 29.653C58.2293 29.8662 58.4359 30.4183 58.2225 30.8861C57.8067 31.7964 57.4255 32.7353 57.0899 33.6776C56.9541 34.0586 56.5957 34.2963 56.2128 34.2963L56.212 34.2954ZM59.776 27.014C59.6048 27.014 59.431 26.9668 59.2767 26.8682C58.8432 26.5917 58.7159 26.0169 58.9925 25.5837C59.5601 24.6953 60.1723 23.8204 60.8124 22.9835C61.1253 22.5764 61.7089 22.498 62.118 22.8098C62.5261 23.1217 62.6037 23.7058 62.2917 24.1146C61.6836 24.9094 61.1017 25.7396 60.5628 26.5841C60.3849 26.8623 60.0846 27.014 59.7768 27.014H59.776ZM64.8749 20.7094C64.6345 20.7094 64.395 20.6167 64.2128 20.433C63.851 20.0672 63.8553 19.478 64.2204 19.1173C64.9685 18.3781 65.7596 17.6608 66.5709 16.9857C66.9655 16.6561 67.5525 16.7092 67.8823 17.1045C68.2112 17.499 68.1581 18.0856 67.7634 18.4152C66.9925 19.0566 66.2411 19.7385 65.5293 20.4406C65.348 20.6201 65.1119 20.7094 64.8749 20.7094ZM71.2422 15.6894C70.931 15.6894 70.6274 15.5334 70.4511 15.2502C70.1796 14.8136 70.3137 14.2405 70.7497 13.9691C71.6445 13.4128 72.5747 12.8886 73.5133 12.4098C73.9713 12.1763 74.5321 12.3584 74.7657 12.8169C74.9993 13.2746 74.8172 13.8351 74.3592 14.0686C73.467 14.5229 72.5831 15.0218 71.733 15.5495C71.5795 15.6447 71.41 15.6894 71.2422 15.6894ZM105.355 13.4743C105.226 13.4743 105.095 13.4474 104.97 13.3909C104.06 12.9771 103.119 12.5978 102.174 12.2632C101.689 12.0921 101.435 11.5602 101.607 11.0756C101.778 10.5909 102.31 10.3372 102.795 10.5092C103.791 10.8615 104.782 11.261 105.74 11.6959C106.208 11.9083 106.416 12.4604 106.203 12.9282C106.047 13.2712 105.708 13.4743 105.354 13.4743H105.355ZM78.5591 12.2067C78.1729 12.2067 77.8119 11.9648 77.6795 11.5796C77.5117 11.0933 77.7697 10.564 78.2564 10.3962C79.2524 10.0532 80.2762 9.74891 81.2975 9.49184C81.7968 9.36878 82.3019 9.66884 82.4276 10.1678C82.5532 10.6659 82.2505 11.1717 81.7512 11.2972C80.7805 11.5408 79.809 11.8299 78.8627 12.1561C78.7624 12.1907 78.6595 12.2075 78.5591 12.2075V12.2067ZM97.6408 10.9744C97.5793 10.9744 97.5169 10.9685 97.4545 10.9559C96.4736 10.7561 95.4717 10.5968 94.4757 10.4805C93.9647 10.4207 93.5995 9.95878 93.6585 9.44885C93.7184 8.93892 94.1797 8.5706 94.6908 8.63212C95.7391 8.75434 96.7933 8.92207 97.8255 9.13194C98.329 9.23477 98.6545 9.72615 98.5525 10.2293C98.4631 10.6702 98.0743 10.9744 97.6408 10.9744ZM86.4715 10.4451C86.0017 10.4451 85.5978 10.0911 85.5472 9.61321C85.4923 9.10244 85.8626 8.64392 86.3745 8.58914C87.4211 8.47788 88.4871 8.40961 89.5421 8.3877C89.5489 8.3877 89.5556 8.3877 89.5615 8.3877C90.0667 8.3877 90.4808 8.79142 90.4917 9.29882C90.5027 9.81297 90.0945 10.2378 89.5801 10.2487C88.5782 10.2698 87.5661 10.3347 86.571 10.4409C86.5373 10.4443 86.5044 10.446 86.4715 10.446V10.4451Z" fill="black"/>
<path d="M111.038 16.7045C110.855 16.7045 110.67 16.6506 110.508 16.5385C110.114 16.2645 109.708 15.9948 109.3 15.7352C108.867 15.4596 108.739 14.8839 109.015 14.4507C109.291 14.0175 109.867 13.8885 110.3 14.1658C110.729 14.4381 111.156 14.723 111.571 15.0112C111.993 15.3045 112.098 15.8844 111.804 16.3058C111.623 16.5663 111.334 16.7054 111.039 16.7054L111.038 16.7045Z" fill="black"/>
</g>
<g opacity="0.3">
<path d="M126.163 40.7074C125.713 40.7074 125.318 40.3821 125.244 39.9244C125.169 39.4507 125.082 38.9712 124.986 38.4983C124.883 37.9943 125.209 37.5037 125.712 37.4018C126.218 37.2989 126.708 37.6251 126.81 38.1283C126.911 38.6264 127.003 39.1313 127.082 39.6303C127.163 40.1377 126.818 40.6147 126.31 40.6965C126.261 40.7041 126.211 40.7083 126.162 40.7083L126.163 40.7074Z" fill="black"/>
<path d="M90.4009 82.7035C89.9725 82.7035 89.5424 82.696 89.1114 82.6816C88.5978 82.6639 88.1947 82.2341 88.2124 81.7208C88.2292 81.2075 88.6627 80.8029 89.1738 80.8223C90.1698 80.856 91.165 80.8484 92.1424 80.8012C92.6569 80.7768 93.0929 81.1712 93.1182 81.6845C93.1435 82.1978 92.7471 82.6344 92.2343 82.6597C91.6297 82.6892 91.0132 82.7044 90.4017 82.7044L90.4009 82.7035ZM84.2216 82.181C84.1693 82.181 84.1171 82.1768 84.0639 82.1675C83.0401 81.993 82.012 81.7722 81.0093 81.5126C80.5117 81.3836 80.2123 80.8762 80.3414 80.3789C80.4704 79.8817 80.9789 79.5816 81.4757 79.7114C82.4287 79.9575 83.4044 80.1665 84.3777 80.3334C84.8845 80.4202 85.2252 80.9007 85.1384 81.4072C85.0608 81.8607 84.6669 82.181 84.2216 82.181ZM97.0979 82.0798C96.6594 82.0798 96.2681 81.768 96.1838 81.3221C96.0885 80.8172 96.4216 80.3309 96.9268 80.2357C97.8932 80.0536 98.8648 79.8286 99.8161 79.5647C100.312 79.4282 100.825 79.7173 100.962 80.2121C101.1 80.7077 100.81 81.2201 100.314 81.3575C99.3126 81.6348 98.2888 81.8725 97.2708 82.0647C97.2127 82.0756 97.1545 82.0807 97.0979 82.0807V82.0798ZM76.5488 79.9786C76.4307 79.9786 76.311 79.9558 76.1946 79.9078C75.2349 79.5125 74.281 79.0717 73.3584 78.598C72.9013 78.3628 72.7217 77.8023 72.957 77.3455C73.1923 76.8887 73.7531 76.7083 74.211 76.9443C75.0864 77.3944 75.993 77.8133 76.9039 78.1884C77.3795 78.3839 77.6055 78.9276 77.4099 79.4029C77.2623 79.762 76.9148 79.9794 76.5488 79.9794V79.9786ZM104.724 79.746C104.364 79.746 104.021 79.5361 103.869 79.1846C103.665 78.7126 103.883 78.1656 104.354 77.9616C105.257 77.5722 106.155 77.1382 107.024 76.6721C107.477 76.4293 108.041 76.5996 108.284 77.0522C108.527 77.5048 108.357 78.0687 107.904 78.3114C106.988 78.802 106.043 79.2588 105.092 79.6693C104.972 79.7215 104.847 79.746 104.724 79.746H104.724ZM111.654 75.7963C111.367 75.7963 111.082 75.6632 110.9 75.4128C110.598 74.9973 110.69 74.4149 111.106 74.1131C111.904 73.5341 112.686 72.9146 113.432 72.2715C113.821 71.9352 114.409 71.9782 114.745 72.3684C115.081 72.7578 115.038 73.3453 114.648 73.6808C113.864 74.3567 113.04 75.0091 112.201 75.6185C112.035 75.7382 111.844 75.7963 111.654 75.7963ZM117.558 70.4307C117.338 70.4307 117.119 70.354 116.942 70.1981C116.557 69.8584 116.52 69.2701 116.86 68.8849C117.513 68.1457 118.142 67.3703 118.73 66.5814C119.037 66.1692 119.62 66.0833 120.032 66.39C120.445 66.6968 120.531 67.2793 120.224 67.6923C119.605 68.5225 118.943 69.3384 118.256 70.1163C118.072 70.3245 117.816 70.4307 117.558 70.4307ZM122.15 63.907C121.998 63.907 121.844 63.8699 121.702 63.7915C121.252 63.5437 121.087 62.9782 121.335 62.5281C121.811 61.6642 122.253 60.7707 122.653 59.8714C122.862 59.4019 123.413 59.1904 123.882 59.3986C124.352 59.6067 124.563 60.1571 124.355 60.6266C123.934 61.574 123.467 62.5146 122.967 63.424C122.797 63.7325 122.479 63.9061 122.151 63.9061L122.15 63.907ZM125.198 56.532C125.112 56.532 125.026 56.5202 124.94 56.4949C124.445 56.3525 124.16 55.8375 124.303 55.3436C124.575 54.3987 124.811 53.4294 125.003 52.4627C125.103 51.9587 125.595 51.6316 126.097 51.7311C126.602 51.8314 126.93 52.3211 126.83 52.8251C126.627 53.8424 126.379 54.8631 126.092 55.8577C125.975 56.2656 125.602 56.5311 125.198 56.5311L125.198 56.532ZM126.55 48.6732C126.53 48.6732 126.512 48.6732 126.492 48.6715C125.979 48.6403 125.588 48.1987 125.62 47.6862C125.664 46.9622 125.687 46.2281 125.687 45.5049C125.687 45.2428 125.683 44.9815 125.678 44.721C125.667 44.2069 126.075 43.7813 126.589 43.7703C127.11 43.7492 127.529 44.1664 127.54 44.6797C127.546 44.9545 127.55 45.2293 127.55 45.5049C127.55 46.266 127.526 47.0389 127.48 47.8C127.449 48.2939 127.04 48.674 126.551 48.674L126.55 48.6732Z" fill="black"/>
<path d="M69.5324 76.1293C69.3477 76.1293 69.1605 76.0745 68.9978 75.9599C68.5854 75.6699 68.1713 75.3665 67.7673 75.0572C67.3591 74.7445 67.2815 74.1604 67.5944 73.7524C67.9073 73.3445 68.4909 73.267 68.8999 73.5797C69.2837 73.8738 69.6775 74.1621 70.0688 74.4377C70.4897 74.7327 70.5909 75.3134 70.2948 75.734C70.1135 75.9919 69.8251 76.1293 69.5324 76.1293Z" fill="black"/>
</g>
<path d="M70.7887 65.3381C70.9059 65.4814 71.1016 65.5353 71.2761 65.4713L76.246 63.6448C78.2051 65.1527 80.4198 66.3596 82.8267 67.1865L84.0386 72.3347C84.0808 72.515 84.2334 72.649 84.4181 72.6676L90.7382 73.3073C90.9229 73.3259 91.0991 73.2256 91.1767 73.057L93.3973 68.2561C95.9214 67.9282 98.3326 67.1898 100.555 66.1051L105.057 68.8907C105.215 68.9885 105.418 68.975 105.562 68.8579L110.483 64.8442C110.627 64.727 110.68 64.5315 110.616 64.357L108.788 59.3901C110.297 57.4321 111.505 55.2188 112.332 52.8132L117.483 51.6021C117.664 51.5599 117.798 51.4074 117.817 51.2228L118.457 44.9064C118.475 44.7218 118.375 44.5457 118.206 44.4681L113.402 42.2489C113.074 39.7262 112.336 37.3165 111.25 35.0955L114.038 30.5955C114.135 30.4379 114.122 30.2356 114.005 30.0915L109.989 25.1734C109.871 25.0293 109.676 24.9762 109.501 25.0403L104.531 26.8667C102.572 25.3589 100.357 24.1519 97.9506 23.325L96.7387 18.176C96.6965 17.9957 96.5438 17.8616 96.3591 17.8431L90.0391 17.2034C89.8544 17.1848 89.6781 17.2851 89.6005 17.4537L87.38 22.2546C84.8558 22.5825 82.4447 23.3208 80.2224 24.4056L75.7198 21.6199C75.562 21.5222 75.3596 21.5357 75.2154 21.6528L70.2945 25.6665C70.1502 25.7837 70.0971 25.9792 70.1612 26.1537L71.9888 31.1206C70.48 33.0786 69.2723 35.2919 68.445 37.6974L63.2938 38.9086C63.1133 38.9508 62.9792 39.1033 62.9607 39.2879L62.3206 45.6034C62.302 45.788 62.4024 45.9642 62.571 46.0417L67.3748 48.261C67.7028 50.7836 68.4416 53.1934 69.527 55.4143L66.7397 59.9143C66.6419 60.0719 66.6554 60.2742 66.7726 60.4183L70.7887 65.3372V65.3381Z" fill="#262626"/>
<path d="M90.3852 51.6378C87.2724 51.6378 84.54 49.3537 84.0727 46.1871C83.5591 42.7061 85.9753 39.4569 89.4584 38.9436C91.1459 38.6949 92.8293 39.118 94.1972 40.1345C95.566 41.151 96.4574 42.6395 96.7053 44.326C97.2189 47.807 94.8027 51.0563 91.3197 51.5696C91.006 51.6159 90.6931 51.6387 90.3844 51.6387L90.3852 51.6378ZM90.3996 40.3629C90.1592 40.3629 89.9172 40.3806 89.6751 40.416C87.0051 40.8096 85.1522 43.3011 85.5461 45.9696C85.9399 48.6389 88.432 50.4907 91.1029 50.0971C93.773 49.7035 95.6258 47.212 95.232 44.5435C95.0414 43.2506 94.3583 42.1093 93.3083 41.3297C92.4548 40.6959 91.4428 40.3629 90.3987 40.3629H90.3996Z" fill="#EDBB0A"/>
<path d="M90.5154 60.8548C89.9807 60.8548 89.4435 60.8278 88.9037 60.773C88.7342 60.7562 88.5647 60.7359 88.3952 60.7132C87.5611 60.6019 86.738 60.4241 85.9377 60.183C85.9267 60.1797 85.9157 60.1763 85.9048 60.1729C85.8736 60.1636 85.8432 60.1544 85.812 60.1443C85.7521 60.1257 85.6922 60.1063 85.6324 60.0869C85.4747 60.0364 85.3751 59.8906 85.3743 59.7329C85.3743 59.695 85.3802 59.6562 85.3929 59.6175C85.4561 59.4219 85.6661 59.3157 85.8618 59.3781C86.8687 59.7043 87.917 59.9234 88.9788 60.0305C94.2514 60.5648 99.1707 58.2799 102.234 54.4027C103.938 52.2467 105.067 49.5976 105.365 46.667C105.417 46.1528 105.444 45.6404 105.443 45.1304C105.443 41.7009 104.271 38.4036 102.073 35.7107C99.5469 32.6174 95.9677 30.6923 91.9929 30.2903C83.7854 29.46 76.4381 35.4553 75.6066 43.6538C75.5551 44.1595 75.5298 44.6652 75.5298 45.1701C75.5298 47.3573 76.0097 49.5209 76.9408 51.5024C76.9644 51.5539 76.9762 51.6078 76.9762 51.6609C76.9762 51.8008 76.8969 51.9348 76.762 51.998C76.5756 52.0849 76.3538 52.0056 76.2669 51.8194C75.2895 49.7383 74.786 47.4677 74.7852 45.1709C74.7852 44.6407 74.8113 44.1097 74.8653 43.5787C75.7373 34.9706 83.4574 28.6779 92.0672 29.5494C96.2392 29.9717 99.9972 31.9928 102.649 35.2404C104.957 38.0673 106.186 41.5289 106.187 45.1288C106.187 45.664 106.16 46.2017 106.105 46.7411C105.682 50.9108 103.66 54.6665 100.411 57.3165C97.5818 59.6242 94.1173 60.8523 90.5145 60.8523L90.5154 60.8548Z" fill="#EDBB0A"/>
<g opacity="0.3">
<path d="M22.5397 74.81C22.2909 74.81 22.0615 74.6482 21.9881 74.397C21.8507 73.9292 21.725 73.4505 21.6162 72.9743C21.5454 72.6649 21.7385 72.3573 22.048 72.2857C22.3575 72.2132 22.6662 72.4079 22.737 72.7172C22.8407 73.1707 22.9605 73.6266 23.0912 74.0734C23.1806 74.3776 23.006 74.6971 22.7016 74.7864C22.6476 74.8024 22.5928 74.8092 22.5397 74.8092V74.81Z" fill="black"/>
<path d="M21.6883 70.4718C21.3965 70.4718 21.1468 70.251 21.1173 69.9551C21.0321 69.1199 20.9883 68.2703 20.9883 67.4308C20.9883 67.2538 20.99 67.0768 20.9942 66.8989C21.0009 66.5812 21.2809 66.3418 21.5812 66.3359C21.8983 66.3427 22.1504 66.6056 22.1437 66.9225C22.1403 67.0928 22.1378 67.2622 22.1378 67.4308C22.1378 68.2315 22.1791 69.0423 22.2601 69.8388C22.2921 70.1549 22.0627 70.4364 21.7465 70.4693C21.7262 70.471 21.7068 70.4718 21.6874 70.4718H21.6883ZM21.8148 64.5069C21.7878 64.5069 21.7599 64.5052 21.7321 64.501C21.4175 64.4555 21.1991 64.1639 21.2447 63.8503C21.3897 62.8423 21.598 61.8342 21.8654 60.8557C21.9489 60.5489 22.266 60.3693 22.5713 60.4519C22.8782 60.5354 23.0587 60.8506 22.9752 61.1574C22.7205 62.0921 22.5215 63.053 22.3832 64.0147C22.3419 64.3013 22.0964 64.5078 21.8148 64.5078V64.5069ZM23.3851 58.7502C23.3117 58.7502 23.2383 58.7359 23.1667 58.7072C22.8732 58.5867 22.7332 58.2504 22.8538 57.9571C23.2409 57.0173 23.6912 56.091 24.193 55.2043C24.349 54.9278 24.699 54.8309 24.9765 54.9869C25.2531 55.1428 25.3501 55.4934 25.1941 55.7699C24.7159 56.6152 24.2866 57.4977 23.9172 58.3945C23.8253 58.6162 23.6111 58.7502 23.3851 58.7502ZM26.3233 53.5557C26.2044 53.5557 26.0847 53.5186 25.9818 53.4427C25.7271 53.2539 25.6731 52.8932 25.862 52.6387C26.4692 51.8202 27.1321 51.033 27.8338 50.298C28.0531 50.0688 28.4174 50.0604 28.6468 50.2787C28.877 50.4978 28.8854 50.8611 28.6662 51.0912C27.9974 51.7916 27.3649 52.5426 26.7863 53.3231C26.6733 53.4748 26.4996 53.5557 26.3242 53.5557H26.3233ZM30.4414 49.236C30.2753 49.236 30.11 49.1644 29.9961 49.0253C29.7946 48.78 29.8308 48.4185 30.0763 48.217C30.8631 47.5722 31.698 46.9696 32.5566 46.426C32.8247 46.2557 33.1798 46.3358 33.3502 46.6038C33.5197 46.8718 33.4404 47.2275 33.1722 47.3969C32.3533 47.9153 31.5572 48.4901 30.8058 49.1054C30.6987 49.193 30.5696 49.2352 30.4414 49.2352V49.236ZM35.4838 46.0467C35.2688 46.0467 35.0622 45.9244 34.9635 45.7171C34.8277 45.4305 34.9508 45.0883 35.2376 44.9526C36.1577 44.5186 37.114 44.1376 38.0797 43.8207C38.3824 43.7221 38.7063 43.8864 38.8058 44.1873C38.9045 44.4891 38.74 44.8136 38.4389 44.9122C37.518 45.2139 36.6072 45.5772 35.7301 45.991C35.6508 46.029 35.5673 46.0458 35.4847 46.0458L35.4838 46.0467ZM41.152 44.1865C40.8821 44.1865 40.6418 43.996 40.5887 43.7221C40.5279 43.4102 40.7312 43.1085 41.0424 43.0478C42.0375 42.8531 43.0588 42.7182 44.0768 42.6474C44.3947 42.6306 44.6688 42.8649 44.6907 43.181C44.7127 43.4979 44.474 43.7718 44.1577 43.7945C43.1862 43.862 42.213 43.9901 41.2633 44.1764C41.2262 44.1839 41.1891 44.1873 41.152 44.1873V44.1865ZM50.0789 44.1131C50.046 44.1131 50.0114 44.1106 49.9777 44.1039C49.1521 43.9572 48.3045 43.8535 47.4578 43.7954C47.3296 43.7861 47.2031 43.7777 47.0774 43.7718C46.7603 43.7549 46.5166 43.4852 46.5326 43.1683C46.5486 42.8505 46.8219 42.5985 47.1364 42.6238C47.2705 42.6314 47.4046 42.639 47.5387 42.6491C48.4234 42.7106 49.3123 42.8194 50.1784 42.9728C50.4913 43.0284 50.6996 43.3259 50.644 43.6386C50.5942 43.9168 50.3522 44.1131 50.0789 44.1131Z" fill="black"/>
</g>
<g opacity="0.3">
<path d="M46.1618 92.2255C45.8481 92.2255 45.5917 91.9726 45.5875 91.6582C45.5832 91.3413 45.8371 91.08 46.155 91.0767C47.1114 91.064 48.0745 90.9932 49.0182 90.8659C49.3311 90.8263 49.6229 91.0438 49.6651 91.359C49.7072 91.6734 49.4863 91.9625 49.1717 92.0055C48.1816 92.1387 47.1721 92.2128 46.1702 92.2263H46.1626L46.1618 92.2255ZM43.2235 92.0873C43.2024 92.0873 43.1822 92.0864 43.1611 92.0839C42.166 91.9777 41.1666 91.8091 40.1925 91.5841C39.883 91.5124 39.6899 91.2039 39.7616 90.8946C39.8333 90.5844 40.1436 90.3931 40.4514 90.4639C41.3816 90.6788 42.3346 90.839 43.2843 90.9418C43.5997 90.9755 43.8282 91.2587 43.7945 91.5739C43.7624 91.8689 43.5136 92.0873 43.2235 92.0873ZM51.9801 91.4399C51.7254 91.4399 51.4918 91.2697 51.4243 91.0109C51.3433 90.7041 51.5272 90.3906 51.8342 90.3097C52.7593 90.0661 53.6769 89.7652 54.5624 89.4129C54.8584 89.2965 55.1916 89.4398 55.3088 89.7348C55.426 90.0298 55.2818 90.3636 54.9866 90.4808C54.0581 90.8491 53.0958 91.1652 52.126 91.4206C52.0771 91.4332 52.0273 91.4399 51.9792 91.4399H51.9801ZM37.5014 90.7614C37.4356 90.7614 37.3698 90.7505 37.304 90.7269C36.3629 90.3838 35.4335 89.9793 34.5421 89.5241C34.2587 89.38 34.1474 89.0336 34.2916 88.7512C34.4358 88.4697 34.7824 88.3576 35.0649 88.5009C35.915 88.935 36.8006 89.3202 37.6979 89.6472C37.9964 89.7559 38.1499 90.0863 38.0411 90.3838C37.9559 90.6165 37.7358 90.7614 37.5005 90.7614H37.5014ZM57.4357 89.2721C57.2325 89.2721 57.0351 89.1642 56.9306 88.9729C56.7779 88.6939 56.8808 88.345 57.1591 88.1933C57.9966 87.7364 58.8146 87.224 59.5913 86.6677C59.8502 86.4823 60.2087 86.5421 60.3934 86.8008C60.5781 87.0588 60.5182 87.4178 60.2601 87.6024C59.4463 88.184 58.5886 88.7226 57.7107 89.2021C57.623 89.2502 57.5285 89.2721 57.4357 89.2721ZM62.2116 85.8594C62.0556 85.8594 61.9004 85.7962 61.7874 85.6731C61.5732 85.4388 61.5884 85.0755 61.8228 84.8614C62.5279 84.2158 63.2 83.5213 63.8208 82.7981C64.0274 82.5571 64.3909 82.5293 64.6312 82.7358C64.8724 82.9423 64.9002 83.3047 64.6936 83.5457C64.0434 84.3035 63.3392 85.0317 62.6004 85.7085C62.4899 85.8097 62.3508 85.8594 62.2125 85.8594H62.2116ZM66.032 81.4015C65.9224 81.4015 65.8119 81.3703 65.7141 81.3054C65.4493 81.1301 65.3784 80.7727 65.5538 80.5089C66.0843 79.7141 66.5701 78.8788 66.9977 78.0276C67.1402 77.7444 67.486 77.6297 67.7693 77.7722C68.0535 77.9146 68.1674 78.2602 68.0249 78.5434C67.5762 79.436 67.0668 80.3117 66.5111 81.1461C66.3997 81.3122 66.2176 81.4023 66.032 81.4023V81.4015Z" fill="black"/>
<path d="M32.2461 88.0778C32.1348 88.0778 32.0235 88.0457 31.9239 87.9792C31.5166 87.7035 31.1152 87.4144 30.7314 87.1203C30.4793 86.9273 30.4312 86.5665 30.6243 86.3145C30.8175 86.0633 31.1784 86.0153 31.4306 86.2083C31.7966 86.489 32.1795 86.7646 32.5683 87.0276C32.8314 87.2054 32.8997 87.5628 32.7218 87.8258C32.6104 87.9893 32.4291 88.0786 32.2453 88.0786L32.2461 88.0778Z" fill="black"/>
</g>
<path d="M32.7224 80.6545C32.8009 80.7506 32.9316 80.7869 33.0488 80.7439L36.375 79.5217C37.6864 80.5306 39.1673 81.3381 40.7781 81.8918L41.5894 85.3366C41.6181 85.4571 41.7202 85.5473 41.8433 85.5591L46.0719 85.9873C46.1958 85.9999 46.3131 85.9325 46.3654 85.8196L47.8513 82.6066C49.5406 82.3874 51.1539 81.8935 52.6407 81.167L55.654 83.0314C55.7595 83.0963 55.8952 83.0879 55.9914 83.0095L59.2847 80.3241C59.3808 80.2457 59.4171 80.1151 59.3741 79.9979L58.1512 76.6737C59.1607 75.3631 59.9686 73.883 60.5227 72.2732L63.9695 71.4623C64.0901 71.4337 64.1804 71.3317 64.1922 71.2086L64.6206 66.9825C64.6332 66.8586 64.5658 66.7415 64.4528 66.6892L61.2379 65.2041C61.0186 63.5159 60.5244 61.9035 59.7974 60.4175L61.6629 57.406C61.7279 57.3006 61.7195 57.1649 61.641 57.0689L58.9533 53.7775C58.8748 53.6814 58.7441 53.6452 58.6269 53.6882L55.3007 54.9103C53.9893 53.9014 52.5083 53.0939 50.8975 52.5402L50.0862 49.0946C50.0576 48.9741 49.9555 48.8839 49.8324 48.8721L45.6038 48.4439C45.4798 48.4313 45.3626 48.4987 45.3103 48.6116L43.8243 51.8246C42.1351 52.0437 40.5218 52.5377 39.0349 53.2642L36.0216 51.3998C35.9162 51.3341 35.7804 51.3433 35.6843 51.4217L32.391 54.1079C32.2948 54.1863 32.2586 54.3169 32.3016 54.4341L33.5245 57.7583C32.515 59.069 31.707 60.549 31.1529 62.1589L27.7053 62.9697C27.5847 62.9984 27.4945 63.1003 27.4827 63.2234L27.0542 67.4495C27.0416 67.5734 27.1091 67.6905 27.2221 67.7428L30.4369 69.2279C30.6562 70.9162 31.1504 72.5285 31.8774 74.0145L30.0119 77.026C29.9461 77.1314 29.9554 77.2671 30.0338 77.3632L32.7216 80.6545H32.7224Z" fill="#262626"/>
<path d="M45.8287 71.5636C44.901 71.5636 44.002 71.2678 43.2439 70.7048C42.3111 70.0119 41.7047 68.998 41.5352 67.8492C41.1852 65.4791 42.8306 63.2657 45.2038 62.9151C47.5804 62.5695 49.7916 64.2106 50.1408 66.5815C50.3103 67.7303 50.0219 68.8758 49.3295 69.808C48.6363 70.7402 47.6217 71.347 46.4722 71.5156C46.2572 71.5468 46.0421 71.5628 45.8296 71.5628L45.8287 71.5636ZM45.8397 64.0184C45.6854 64.0184 45.5285 64.0293 45.3708 64.0529C43.6259 64.3109 42.4157 65.9384 42.6729 67.6823C42.7977 68.5268 43.2439 69.2736 43.9295 69.7818C44.616 70.2918 45.4585 70.5025 46.3044 70.3786C47.1494 70.2538 47.8966 69.808 48.406 69.1227C48.9162 68.4366 49.1279 67.5938 49.0031 66.7492C48.7695 65.163 47.3991 64.0184 45.8397 64.0184Z" fill="#EDBB0A"/>
<path d="M45.911 77.9796C45.5476 77.9796 45.1807 77.961 44.8113 77.924C44.0776 77.8498 43.3506 77.7014 42.649 77.4815C42.6177 77.4713 42.5857 77.4612 42.5545 77.4511C42.3116 77.3727 42.1564 77.1477 42.1564 76.9049C42.1564 76.8459 42.1657 76.7861 42.1851 76.7271C42.2829 76.4254 42.6076 76.261 42.9095 76.3579C43.5623 76.5695 44.2412 76.7111 44.9268 76.7802C44.9648 76.7844 45.0028 76.7878 45.0399 76.7912C46.6642 76.9395 48.264 76.6782 49.723 76.0494C50.5149 75.7081 51.2655 75.258 51.9562 74.7051C51.9621 74.7009 51.9672 74.6958 51.9731 74.6916C51.9899 74.6773 52.0076 74.6638 52.0245 74.6503C54.0283 73.016 55.2748 70.6998 55.5354 68.1291C55.5691 67.7962 55.586 67.4649 55.586 67.1345C55.586 64.9145 54.8278 62.7795 53.4042 61.0365C51.769 59.0338 49.4514 57.7881 46.8792 57.5277C44.3078 57.2681 41.7862 58.0241 39.7824 59.6576C37.7786 61.2919 36.5321 63.608 36.2715 66.1787C36.2378 66.5058 36.2218 66.8336 36.2218 67.1598C36.2218 68.5767 36.5321 69.9767 37.1351 71.2595C37.1722 71.3387 37.1899 71.4213 37.1899 71.5039C37.1899 71.7197 37.0676 71.9262 36.8593 72.024C36.5717 72.158 36.2293 72.0358 36.0944 71.7475C35.4197 70.3121 35.0723 68.7452 35.0723 67.1607C35.0723 66.7949 35.0908 66.4282 35.1279 66.0624C35.4197 63.1849 36.8146 60.594 39.0563 58.7658C41.2979 56.9377 44.1164 56.0897 46.9956 56.3831C49.874 56.6747 52.4664 58.0679 54.2957 60.3091C55.8888 62.2595 56.7363 64.6473 56.7363 67.1312C56.7363 67.4995 56.7178 67.8712 56.6798 68.2437C56.1148 73.8133 51.3971 77.9787 45.9119 77.9787L45.911 77.9796Z" fill="#EDBB0A"/>
<path d="M77.7627 229.882C75.1711 230.106 70.6727 230.469 67.1264 230.625C64.9944 230.719 63.7673 230.511 63.0605 230.227C63.0614 230.307 63.0639 230.382 63.0673 230.452C63.0842 230.825 63.3869 231.123 63.7639 231.144C70.4643 231.518 75.7935 231.273 77.691 231.159C78.0832 231.135 78.3168 230.709 78.1161 230.375C78.0157 230.208 77.8943 230.044 77.7619 229.882H77.7627Z" fill="#F0F0F0"/>
<path d="M67.1253 230.626C70.6716 230.47 75.1692 230.106 77.7617 229.882C75.2139 226.758 67.1253 224.652 67.1253 224.652H64.8407C63.2695 226.915 63.0418 229.071 63.0595 230.229C63.7662 230.512 64.9933 230.72 67.1253 230.627V230.626Z" fill="url(#paint0_linear_103_3221)"/>
<path d="M64.457 220.925L64.6704 225.152C64.6932 225.61 65.0364 225.995 65.4952 226.06C65.9515 226.125 66.5629 226.134 67.2114 225.918C67.6103 225.785 67.9063 225.449 67.9797 225.04L68.7185 220.924H64.457V220.925Z" fill="#FFB29B"/>
<path d="M37.9449 234.758C36.8207 234.556 36.3122 233.802 36.0988 232.995C36.0971 233.003 36.0963 233.009 36.0946 233.017C35.9293 233.867 36.3122 234.749 37.0788 235.168C38.0048 235.675 39.0177 235.761 39.8045 235.719C40.6479 235.675 41.4221 235.224 41.848 234.502L41.8547 234.491C41.008 235.032 39.8197 235.096 37.9449 234.758Z" fill="url(#paint1_linear_103_3221)"/>
<path d="M43.2445 222.227H41.3604C38.4914 222.151 36.6891 229.969 36.0996 232.996C36.313 233.803 36.8215 234.556 37.9457 234.76C39.8205 235.098 41.0088 235.033 41.8555 234.492C43.4056 231.858 44.1739 227.998 44.5441 225.746C44.9641 223.185 43.2453 222.228 43.2453 222.228L43.2445 222.227Z" fill="url(#paint2_linear_103_3221)"/>
<path d="M41.6031 218.303L40.5573 222.461C40.4292 222.97 40.6729 223.498 41.1452 223.739C41.7305 224.039 42.5544 224.354 43.3117 224.263C43.6676 224.22 43.9636 223.97 44.0809 223.635L45.6166 219.26L41.6039 218.303H41.6031Z" fill="#FFB29B"/>
<path d="M78.4004 163.54C78.4004 163.54 69.0527 221.938 69.2062 222.26C69.2062 222.26 66.6247 223.432 63.8095 222.409C63.8095 222.409 64.6546 191.19 66.6356 179.221C66.6356 179.221 50.6819 207.124 45.615 221.027C45.615 221.027 42.9728 220.712 40.7852 219.273C40.7852 219.273 57.9626 169.049 62.5462 162.359L78.3996 163.539L78.4004 163.54Z" fill="url(#paint3_linear_103_3221)"/>
<path d="M67.0081 178.917C66.9583 178.917 66.9077 178.903 66.8622 178.875C66.7331 178.794 66.6935 178.623 66.7745 178.495L70.2676 172.918C70.3081 172.854 70.373 172.809 70.4473 172.794L73.0178 172.277C73.1679 172.247 73.313 172.344 73.3433 172.493C73.3728 172.642 73.2767 172.788 73.1274 172.818L70.6733 173.312L67.2425 178.788C67.1902 178.871 67.1 178.918 67.0081 178.918V178.917Z" fill="url(#paint4_linear_103_3221)"/>
<path d="M121.299 106.354C121.299 106.354 114.99 107.745 111.154 109.515C110.392 109.867 109.784 110.482 109.438 111.24C108.29 113.751 104.857 120.051 98.1992 123.057C99.1581 124.329 100.701 126.975 101.374 131.421C105.373 128.447 108.825 123.479 110.483 115.333C110.483 115.333 111.744 116.019 113.319 115.254C114.15 114.85 115.111 114.278 115.832 113.827C116.551 113.379 117.085 112.681 117.294 111.866C117.568 110.79 117.407 109.844 117.407 108.829L120.649 107.825C120.649 107.825 121.624 107.458 121.299 106.354Z" fill="#FFB29B"/>
<path d="M101.374 131.421C100.702 126.975 99.1576 124.33 98.1987 123.058C94.0629 124.926 88.6832 125.522 81.8318 123.15C81.2001 122.931 80.5414 122.803 79.8735 122.764C76.226 122.55 64.2082 122.16 54.2634 125.444C52.1702 126.135 50.475 127.682 49.6013 129.685C46.911 135.855 42.556 149.906 54.6471 157C55.5765 154.695 56.6484 152.843 57.5651 151.481C55.6178 148.199 55.041 143.716 58.4962 137.878C61.0161 144.677 62.1977 154.598 62.4448 158.989C62.5257 160.434 62.2727 161.877 61.7051 163.212L61.6436 163.357C61.5221 163.643 61.6891 163.971 61.9944 164.04C68.8011 165.568 75.8811 165.153 77.9962 164.978C78.374 164.947 78.6877 164.677 78.7738 164.312C82.0839 150.374 82.0915 140.866 81.2811 134.855C84.377 135.547 93.8453 137.023 101.374 131.422V131.421Z" fill="white"/>
<path d="M81.295 135.229C81.1584 135.229 81.0403 135.128 81.0218 134.99C80.2442 129.121 78.6612 126.56 78.646 126.535C78.5651 126.406 78.603 126.236 78.732 126.154C78.8602 126.073 79.0306 126.111 79.1124 126.239C79.1799 126.345 80.7738 128.91 81.5699 134.917C81.5902 135.068 81.4839 135.207 81.3321 135.226C81.3195 135.228 81.3076 135.229 81.2958 135.229H81.295Z" fill="black"/>
<path d="M64.4961 114.644C64.4961 114.644 63.808 121.92 63.2016 124.073C63.1097 124.399 63.2513 124.744 63.5482 124.913C64.5771 125.5 67.0456 126.459 70.4207 124.806C70.9672 124.538 71.2961 123.968 71.2708 123.365L70.9731 116.334L64.4953 114.644L64.4961 114.644Z" fill="#CB8670"/>
<path d="M71.1218 105.335C71.1218 105.335 73.3247 110.391 73.4723 113.045C73.6198 115.7 74.1925 117.422 71.1218 117.956C68.0512 118.49 65.4646 116.961 64.0638 114.318C64.0638 114.318 61.8686 110.245 62.3611 108.577C62.8536 106.909 71.1227 105.336 71.1227 105.336L71.1218 105.335Z" fill="#FFB29B"/>
<path d="M65.1135 112.417L65.288 112.34C65.5107 112.242 65.606 111.978 65.4938 111.762C65.0612 110.926 64.217 109.01 65.3074 108.563C66.7125 107.987 72.2794 106.853 73.4804 104.879C74.6349 102.982 73.6119 100.533 72.0745 99.8362C71.9716 99.7898 71.8502 99.8269 71.7979 99.9264L71.6697 100.168C71.582 100.334 71.3366 100.309 71.2851 100.129C71.2354 99.9559 71.0051 99.9222 70.9098 100.075C70.5404 100.666 69.5436 101.623 66.8786 102.114C63.0902 102.813 60.5863 104.345 60.5239 106.961C60.5197 107.127 60.3434 107.22 60.2009 107.133C59.9209 106.963 59.4739 106.882 58.8752 107.385C57.8353 108.259 58.2604 110.527 60.5408 112.392C60.6487 112.481 60.6479 112.65 60.5307 112.726C60.1174 112.995 59.5009 113.635 61.0983 114.488C62.7504 115.371 63.9834 115.298 64.4582 115.22C64.5762 115.201 64.6521 115.086 64.6268 114.97L64.12 112.67C64.0913 112.541 64.1908 112.417 64.3241 112.417H65.1135Z" fill="url(#paint5_linear_103_3221)"/>
<path d="M65.2078 112.903C65.2078 112.903 64.3679 109.673 62.919 110.578C61.4701 111.483 63.6713 114.197 64.8359 114.318L65.2087 112.902L65.2078 112.903Z" fill="#FFB29B"/>
<path d="M112.164 114.581C112.104 114.581 112.041 114.561 111.991 114.52C111.873 114.424 111.855 114.25 111.951 114.132C112.19 113.839 114.306 111.252 115.122 110.792C115.419 110.624 115.596 110.451 115.633 110.291C115.651 110.214 115.639 110.129 115.596 110.032L113.109 110.53L111.7 111.738C111.584 111.838 111.41 111.824 111.311 111.709C111.211 111.593 111.225 111.419 111.34 111.319L112.804 110.064C112.841 110.033 112.884 110.012 112.93 110.003L115.684 109.452C115.794 109.43 115.905 109.476 115.967 109.568C116.169 109.867 116.236 110.145 116.171 110.418C116.095 110.74 115.841 111.02 115.394 111.272C114.781 111.619 113.011 113.706 112.38 114.48C112.326 114.548 112.246 114.582 112.166 114.582L112.164 114.581Z" fill="black"/>
<path d="M65.1026 160.497L74.8383 160.617L71.4312 157.412C70.5844 156.615 69.2916 156.486 68.3141 157.119C67.7415 157.49 67.1208 157.994 66.5836 158.661C66.5836 158.661 60.5106 156.442 57.5664 151.48C56.6497 152.842 55.5778 154.694 54.6484 156.999C57.2873 158.548 60.7088 159.766 65.1035 160.497H65.1026Z" fill="#FFB29B"/>
<path d="M66.1504 161.752C66.169 161.753 66.1884 161.753 66.2069 161.753L90.9189 161.726C91.5295 161.726 92.0245 161.236 92.0237 160.632C92.0237 160.027 91.5252 159.528 90.9163 159.539L66.2044 159.566C65.5938 159.566 65.0988 160.057 65.0996 160.661C65.0996 161.246 65.566 161.724 66.1504 161.753V161.752Z" fill="#606060"/>
<path d="M113.134 139.564H92.554C91.036 139.564 89.6538 140.431 89.0061 141.789L79.4922 161.738H105.068C106.046 161.738 106.925 161.147 107.285 160.247L114.663 141.787C115.088 140.721 114.294 139.564 113.134 139.564Z" fill="url(#paint6_linear_103_3221)"/>
<path d="M101.715 150.784C102.166 149.416 101.843 148.08 100.993 147.8C100.143 147.52 99.0885 148.402 98.6373 149.77C98.1861 151.139 98.5092 152.475 99.359 152.755C100.209 153.035 101.263 152.152 101.715 150.784Z" fill="#EDBB0A"/>
<path d="M128.102 201.42L128.939 227.453C129.085 231.993 132.813 235.605 137.378 235.632L199.756 236C202.808 236.018 205.408 233.802 205.853 230.799C206.829 224.224 208.071 212.461 206.672 201.42H128.102Z" fill="url(#paint7_linear_103_3221)"/>
<path d="M198.466 234.51C198.366 234.51 198.284 234.431 198.28 234.332C198.277 234.229 198.356 234.143 198.459 234.139C198.82 234.125 199.18 234.077 199.529 233.996C199.629 233.973 199.729 234.036 199.753 234.135C199.776 234.235 199.714 234.336 199.614 234.359C199.242 234.445 198.858 234.496 198.473 234.511H198.466V234.51ZM195.86 234.5H195.859L194.743 234.493C194.64 234.493 194.557 234.409 194.558 234.306C194.558 234.203 194.641 234.122 194.744 234.122H194.745L195.862 234.128C195.965 234.128 196.047 234.213 196.046 234.316C196.046 234.418 195.963 234.5 195.86 234.5ZM192.137 234.478H192.137L191.02 234.471C190.917 234.471 190.834 234.387 190.835 234.284C190.835 234.182 190.919 234.1 191.022 234.1H191.022L192.139 234.107C192.242 234.107 192.325 234.191 192.324 234.294C192.324 234.396 192.24 234.478 192.137 234.478ZM188.415 234.456L187.297 234.45C187.195 234.45 187.112 234.365 187.113 234.262C187.113 234.16 187.196 234.078 187.299 234.078H187.3L188.417 234.085C188.519 234.085 188.602 234.169 188.601 234.272C188.601 234.375 188.518 234.456 188.415 234.456ZM184.692 234.434H184.691L183.575 234.428C183.472 234.428 183.389 234.343 183.39 234.241C183.39 234.138 183.49 234.054 183.577 234.056L184.694 234.063C184.797 234.063 184.879 234.147 184.879 234.25C184.879 234.353 184.795 234.434 184.692 234.434ZM180.97 234.412H180.969L179.852 234.406C179.749 234.406 179.667 234.321 179.668 234.219C179.668 234.116 179.751 234.034 179.854 234.034H179.855L180.971 234.041C181.074 234.041 181.157 234.125 181.156 234.228C181.156 234.331 181.073 234.412 180.97 234.412ZM177.247 234.391H177.246L176.13 234.384C176.027 234.384 175.944 234.3 175.945 234.197C175.945 234.094 176.028 234.012 176.131 234.012H176.132L177.249 234.019C177.352 234.019 177.434 234.103 177.434 234.206C177.434 234.309 177.35 234.391 177.247 234.391ZM173.525 234.369H173.524L172.407 234.362C172.304 234.362 172.222 234.278 172.222 234.175C172.222 234.072 172.306 233.99 172.409 233.99H172.41L173.526 233.997C173.629 233.997 173.712 234.081 173.711 234.184C173.711 234.287 173.627 234.369 173.525 234.369ZM169.802 234.347H169.801L168.685 234.34C168.582 234.34 168.499 234.256 168.5 234.153C168.5 234.05 168.583 233.968 168.686 233.968H168.687L169.804 233.975C169.907 233.975 169.989 234.059 169.988 234.162C169.988 234.265 169.905 234.347 169.802 234.347ZM166.079 234.325H166.079L164.962 234.318C164.859 234.318 164.776 234.234 164.777 234.131C164.777 234.028 164.861 233.946 164.964 233.946H164.965L166.081 233.953C166.184 233.953 166.267 234.037 166.266 234.14C166.266 234.243 166.182 234.325 166.079 234.325ZM162.357 234.303H162.356L161.239 234.296C161.137 234.296 161.054 234.212 161.055 234.109C161.055 234.006 161.138 233.924 161.241 233.924L162.359 233.931C162.461 233.931 162.544 234.015 162.543 234.118C162.543 234.221 162.46 234.303 162.357 234.303ZM158.634 234.281L157.517 234.274C157.414 234.274 157.331 234.19 157.332 234.087C157.332 233.984 157.416 233.903 157.519 233.903H157.519L158.636 233.909C158.739 233.909 158.822 233.994 158.821 234.096C158.821 234.199 158.737 234.281 158.634 234.281ZM154.912 234.259H154.911L153.794 234.252C153.691 234.252 153.609 234.168 153.61 234.065C153.61 233.962 153.693 233.881 153.796 233.881H153.797L154.913 233.887C155.016 233.887 155.099 233.972 155.098 234.074C155.098 234.177 155.015 234.259 154.912 234.259ZM151.189 234.237H151.188L150.072 234.23C149.969 234.23 149.886 234.146 149.887 234.043C149.887 233.94 149.971 233.859 150.073 233.859H150.074L151.191 233.865C151.294 233.865 151.376 233.95 151.376 234.053C151.376 234.155 151.292 234.237 151.189 234.237ZM147.467 234.215H147.466L146.349 234.209C146.246 234.209 146.164 234.124 146.165 234.021C146.165 233.919 146.261 233.849 146.352 233.837L147.468 233.844C147.571 233.844 147.654 233.928 147.653 234.031C147.653 234.133 147.57 234.215 147.467 234.215ZM143.744 234.193H143.743L142.627 234.187C142.524 234.187 142.441 234.102 142.442 233.999C142.442 233.897 142.525 233.815 142.628 233.815H142.629L143.746 233.822C143.849 233.822 143.931 233.906 143.93 234.009C143.93 234.112 143.847 234.193 143.744 234.193ZM140.022 234.171H140.021L138.904 234.165C138.801 234.165 138.719 234.08 138.719 233.978C138.719 233.875 138.803 233.793 138.906 233.793H138.907L140.023 233.8C140.126 233.8 140.209 233.884 140.208 233.987C140.208 234.09 140.124 234.171 140.022 234.171ZM136.343 233.756C136.323 233.756 136.304 233.753 136.285 233.747C135.925 233.628 135.57 233.483 135.228 233.314C135.136 233.269 135.098 233.157 135.144 233.066C135.189 232.974 135.3 232.936 135.393 232.981C135.72 233.142 136.059 233.281 136.402 233.394C136.5 233.426 136.553 233.532 136.52 233.629C136.494 233.708 136.421 233.757 136.343 233.757V233.756ZM201.898 233.236C201.844 233.236 201.79 233.212 201.753 233.166C201.689 233.086 201.702 232.969 201.782 232.905C202.064 232.68 202.324 232.427 202.556 232.154C202.623 232.075 202.739 232.065 202.818 232.133C202.897 232.199 202.906 232.316 202.84 232.395C202.592 232.685 202.314 232.955 202.014 233.195C201.979 233.222 201.939 233.236 201.898 233.236H201.898ZM133.198 231.83C133.151 231.83 133.103 231.812 133.067 231.776C132.797 231.508 132.543 231.22 132.312 230.92C132.25 230.838 132.265 230.722 132.347 230.659C132.429 230.597 132.546 230.612 132.608 230.694C132.828 230.98 133.07 231.256 133.329 231.511C133.402 231.584 133.403 231.701 133.33 231.774C133.294 231.811 133.246 231.83 133.198 231.83ZM203.889 230.169C203.874 230.169 203.857 230.167 203.841 230.163C203.742 230.137 203.682 230.036 203.708 229.936C203.758 229.744 203.798 229.548 203.827 229.351L203.9 228.857C203.914 228.755 204.007 228.684 204.11 228.7C204.213 228.715 204.283 228.809 204.268 228.91L204.196 229.406C204.164 229.615 204.122 229.825 204.069 230.029C204.047 230.113 203.972 230.169 203.89 230.169H203.889ZM131.236 228.705C131.159 228.705 131.086 228.657 131.06 228.579C130.938 228.221 130.84 227.85 130.769 227.476C130.75 227.375 130.816 227.278 130.918 227.258C131.018 227.24 131.116 227.306 131.135 227.406C131.203 227.763 131.296 228.117 131.413 228.459C131.446 228.555 131.395 228.662 131.297 228.695C131.277 228.701 131.257 228.705 131.237 228.705L131.236 228.705ZM204.43 226.488C204.423 226.488 204.415 226.488 204.407 226.486C204.305 226.474 204.233 226.381 204.245 226.279C204.29 225.919 204.334 225.55 204.378 225.172C204.39 225.07 204.483 224.997 204.584 225.009C204.687 225.021 204.76 225.113 204.748 225.215C204.704 225.594 204.66 225.964 204.615 226.325C204.603 226.42 204.523 226.489 204.43 226.489V226.488ZM130.771 225.033C130.67 225.033 130.588 224.954 130.585 224.853L130.549 223.737C130.546 223.634 130.627 223.548 130.729 223.545C130.823 223.54 130.918 223.621 130.921 223.725L130.957 224.841C130.961 224.944 130.88 225.03 130.778 225.033H130.772H130.771ZM204.837 222.789C204.831 222.789 204.825 222.789 204.819 222.789C204.717 222.779 204.642 222.688 204.651 222.586C204.686 222.221 204.719 221.851 204.752 221.475C204.762 221.373 204.85 221.303 204.954 221.306C205.056 221.314 205.132 221.406 205.123 221.507C205.09 221.884 205.057 222.255 205.021 222.621C205.012 222.717 204.931 222.789 204.837 222.789V222.789ZM130.651 221.314C130.551 221.314 130.468 221.235 130.465 221.134L130.43 220.019C130.427 219.916 130.508 219.83 130.61 219.827C130.71 219.825 130.799 219.904 130.802 220.007L130.837 221.122C130.841 221.225 130.76 221.311 130.658 221.314H130.652H130.651ZM205.138 219.08C205.138 219.08 205.129 219.08 205.125 219.08C205.022 219.073 204.945 218.985 204.951 218.882C204.976 218.515 204.999 218.144 205.02 217.769C205.026 217.667 205.113 217.586 205.216 217.594C205.319 217.6 205.397 217.688 205.392 217.79C205.37 218.166 205.348 218.538 205.323 218.906C205.316 219.004 205.235 219.08 205.138 219.08ZM130.531 217.596C130.431 217.596 130.348 217.517 130.346 217.415L130.31 216.3C130.307 216.197 130.388 216.112 130.49 216.108C130.589 216.101 130.679 216.186 130.682 216.289L130.718 217.404C130.721 217.506 130.64 217.592 130.538 217.596H130.532H130.531ZM205.325 215.364H205.318C205.215 215.361 205.135 215.275 205.139 215.172C205.151 214.803 205.162 214.431 205.171 214.057C205.173 213.955 205.272 213.88 205.361 213.875C205.464 213.878 205.545 213.963 205.543 214.066C205.534 214.441 205.524 214.814 205.51 215.184C205.507 215.284 205.424 215.363 205.325 215.363V215.364ZM130.412 213.877C130.312 213.877 130.229 213.798 130.227 213.697L130.191 212.581C130.188 212.478 130.269 212.392 130.371 212.389C130.47 212.394 130.56 212.466 130.563 212.569L130.599 213.685C130.602 213.788 130.521 213.874 130.419 213.877H130.413H130.412ZM205.387 211.643C205.284 211.643 205.201 211.559 205.201 211.457C205.201 211.087 205.198 210.716 205.193 210.343C205.192 210.24 205.274 210.156 205.377 210.155C205.468 210.156 205.564 210.236 205.566 210.339C205.571 210.713 205.574 211.086 205.574 211.456C205.574 211.559 205.49 211.643 205.387 211.643ZM130.293 210.158C130.192 210.158 130.11 210.079 130.107 209.978L130.071 208.862C130.067 208.759 130.148 208.673 130.25 208.67C130.338 208.667 130.439 208.747 130.443 208.85L130.479 209.966C130.482 210.069 130.401 210.155 130.299 210.158H130.293H130.293ZM205.309 207.924C205.209 207.924 205.128 207.846 205.123 207.745C205.108 207.375 205.09 207.004 205.069 206.633C205.063 206.53 205.142 206.442 205.245 206.437C205.347 206.429 205.435 206.51 205.44 206.613C205.462 206.985 205.479 207.358 205.494 207.73C205.499 207.833 205.419 207.92 205.316 207.924H205.309ZM130.173 206.44C130.072 206.44 129.99 206.36 129.987 206.259L129.951 205.144C129.948 205.041 130.029 204.955 130.131 204.952C130.218 204.941 130.32 205.029 130.323 205.132L130.359 206.248C130.363 206.35 130.282 206.436 130.18 206.44H130.174H130.173ZM205.069 204.211C204.974 204.211 204.893 204.139 204.884 204.042C204.851 203.673 204.816 203.303 204.777 202.933C204.766 202.831 204.84 202.74 204.943 202.729C205.045 202.719 205.137 202.793 205.147 202.896C205.186 203.266 205.221 203.638 205.254 204.01C205.263 204.112 205.187 204.202 205.085 204.211C205.079 204.211 205.074 204.211 205.069 204.211H205.069ZM130.053 202.721C129.953 202.721 129.87 202.642 129.868 202.541L129.832 201.426C129.829 201.323 129.91 201.237 130.012 201.233C130.1 201.233 130.201 201.31 130.204 201.414L130.239 202.529C130.243 202.632 130.162 202.718 130.06 202.721H130.054H130.053ZM203.69 201.606H202.573C202.47 201.606 202.387 201.523 202.387 201.42C202.387 201.317 202.47 201.233 202.573 201.233H203.69C203.793 201.233 203.876 201.317 203.876 201.42C203.876 201.523 203.793 201.606 203.69 201.606ZM199.967 201.606H198.85C198.748 201.606 198.664 201.523 198.664 201.42C198.664 201.317 198.748 201.233 198.85 201.233H199.967C200.07 201.233 200.153 201.317 200.153 201.42C200.153 201.523 200.07 201.606 199.967 201.606ZM196.245 201.606H195.128C195.025 201.606 194.942 201.523 194.942 201.42C194.942 201.317 195.025 201.233 195.128 201.233H196.245C196.347 201.233 196.431 201.317 196.431 201.42C196.431 201.523 196.347 201.606 196.245 201.606ZM192.522 201.606H191.405C191.302 201.606 191.219 201.523 191.219 201.42C191.219 201.317 191.302 201.233 191.405 201.233H192.522C192.625 201.233 192.708 201.317 192.708 201.42C192.708 201.523 192.625 201.606 192.522 201.606ZM188.799 201.606H187.683C187.58 201.606 187.496 201.523 187.496 201.42C187.496 201.317 187.58 201.233 187.683 201.233H188.799C188.902 201.233 188.986 201.317 188.986 201.42C188.986 201.523 188.902 201.606 188.799 201.606ZM185.077 201.606H183.96C183.857 201.606 183.774 201.523 183.774 201.42C183.774 201.317 183.857 201.233 183.96 201.233H185.077C185.18 201.233 185.263 201.317 185.263 201.42C185.263 201.523 185.18 201.606 185.077 201.606ZM181.354 201.606H180.238C180.135 201.606 180.051 201.523 180.051 201.42C180.051 201.317 180.135 201.233 180.238 201.233H181.354C181.457 201.233 181.541 201.317 181.541 201.42C181.541 201.523 181.457 201.606 181.354 201.606ZM177.632 201.606H176.515C176.412 201.606 176.329 201.523 176.329 201.42C176.329 201.317 176.412 201.233 176.515 201.233H177.632C177.735 201.233 177.818 201.317 177.818 201.42C177.818 201.523 177.735 201.606 177.632 201.606ZM173.909 201.606H172.793C172.69 201.606 172.606 201.523 172.606 201.42C172.606 201.317 172.69 201.233 172.793 201.233H173.909C174.012 201.233 174.096 201.317 174.096 201.42C174.096 201.523 174.012 201.606 173.909 201.606ZM170.187 201.606H169.07C168.967 201.606 168.884 201.523 168.884 201.42C168.884 201.317 168.967 201.233 169.07 201.233H170.187C170.289 201.233 170.373 201.317 170.373 201.42C170.373 201.523 170.289 201.606 170.187 201.606ZM166.464 201.606H165.347C165.245 201.606 165.161 201.523 165.161 201.42C165.161 201.317 165.245 201.233 165.347 201.233H166.464C166.567 201.233 166.65 201.317 166.65 201.42C166.65 201.523 166.567 201.606 166.464 201.606ZM162.741 201.606H161.625C161.522 201.606 161.438 201.523 161.438 201.42C161.438 201.317 161.522 201.233 161.625 201.233H162.741C162.844 201.233 162.928 201.317 162.928 201.42C162.928 201.523 162.844 201.606 162.741 201.606ZM159.019 201.606H157.902C157.799 201.606 157.716 201.523 157.716 201.42C157.716 201.317 157.799 201.233 157.902 201.233H159.019C159.122 201.233 159.205 201.317 159.205 201.42C159.205 201.523 159.122 201.606 159.019 201.606ZM155.296 201.606H154.18C154.077 201.606 153.993 201.523 153.993 201.42C153.993 201.317 154.077 201.233 154.18 201.233H155.296C155.399 201.233 155.483 201.317 155.483 201.42C155.483 201.523 155.399 201.606 155.296 201.606ZM151.574 201.606H150.457C150.354 201.606 150.271 201.523 150.271 201.42C150.271 201.317 150.354 201.233 150.457 201.233H151.574C151.677 201.233 151.76 201.317 151.76 201.42C151.76 201.523 151.677 201.606 151.574 201.606ZM147.851 201.606H146.735C146.632 201.606 146.548 201.523 146.548 201.42C146.548 201.317 146.632 201.233 146.735 201.233H147.851C147.954 201.233 148.038 201.317 148.038 201.42C148.038 201.523 147.954 201.606 147.851 201.606ZM144.129 201.606H143.012C142.909 201.606 142.826 201.523 142.826 201.42C142.826 201.317 142.909 201.233 143.012 201.233H144.129C144.232 201.233 144.315 201.317 144.315 201.42C144.315 201.523 144.232 201.606 144.129 201.606ZM140.406 201.606H139.289C139.187 201.606 139.103 201.523 139.103 201.42C139.103 201.317 139.187 201.233 139.289 201.233H140.406C140.509 201.233 140.592 201.317 140.592 201.42C140.592 201.523 140.509 201.606 140.406 201.606ZM136.684 201.606H135.567C135.464 201.606 135.381 201.523 135.381 201.42C135.381 201.317 135.464 201.233 135.567 201.233H136.684C136.786 201.233 136.87 201.317 136.87 201.42C136.87 201.523 136.786 201.606 136.684 201.606ZM132.961 201.606H131.844C131.741 201.606 131.658 201.523 131.658 201.42C131.658 201.317 131.741 201.233 131.844 201.233H132.961C133.064 201.233 133.147 201.317 133.147 201.42C133.147 201.523 133.064 201.606 132.961 201.606Z" fill="white"/>
<path d="M146.383 182.521L146.571 180.513C146.783 180.034 147.223 179.695 147.742 179.612C149.685 179.303 154.505 178.759 156.826 180.493L157.173 182.826L146.384 182.522L146.383 182.521Z" fill="url(#paint8_linear_103_3221)"/>
<path d="M152.453 180.589C152.005 180.698 151.557 180.698 151.108 180.588C150.565 180.454 150.182 179.968 150.182 179.412V173.125H153.383V179.407C153.383 179.966 152.999 180.456 152.453 180.589Z" fill="url(#paint9_linear_103_3221)"/>
<path d="M177.391 182.521L177.579 180.513C177.79 180.034 178.231 179.695 178.75 179.612C180.693 179.303 185.513 178.759 187.834 180.493L188.181 182.826L177.391 182.522L177.391 182.521Z" fill="url(#paint10_linear_103_3221)"/>
<path d="M183.46 180.589C183.012 180.697 182.564 180.697 182.114 180.587C181.571 180.454 181.188 179.968 181.188 179.411V172.462H184.389V179.406C184.389 179.965 184.005 180.456 183.459 180.589H183.46Z" fill="url(#paint11_linear_103_3221)"/>
<path d="M149.857 174.666L184.285 173.527C185.07 173.501 185.735 172.935 185.87 172.166C186.059 171.088 186.225 169.476 185.977 167.805C185.696 165.904 184.059 164.491 182.128 164.446C175.705 164.293 159.355 164.298 150.344 167.86C149.391 168.237 148.684 169.051 148.443 170.043C148.213 170.988 148.06 172.251 148.36 173.536C148.52 174.219 149.152 174.689 149.856 174.666L149.857 174.666Z" fill="url(#paint12_linear_103_3221)"/>
<path d="M149.26 173.099C149.071 173.099 148.909 172.956 148.89 172.764C148.884 172.708 148.755 171.375 149.102 170.092C149.379 169.072 150.185 168.252 151.208 167.952C153.136 167.386 156.821 166.425 159.841 166.34C160.048 166.335 160.218 166.497 160.224 166.702C160.23 166.907 160.068 167.078 159.862 167.084C156.926 167.166 153.311 168.11 151.418 168.666C150.642 168.894 150.03 169.514 149.821 170.286C149.509 171.438 149.629 172.677 149.63 172.69C149.65 172.895 149.502 173.077 149.297 173.098C149.284 173.099 149.272 173.1 149.259 173.1L149.26 173.099Z" fill="black"/>
<path d="M130.409 181.739C141.531 181.596 189.647 181.092 203.623 182.776C204.826 182.921 205.808 183.801 206.069 184.979C206.894 188.71 208.556 197.378 208.359 205.971C208.332 207.14 207.475 208.127 206.319 208.345L174.416 214.378H163.083L129.089 207.625C127.891 207.387 127.008 206.372 126.945 205.158C126.724 200.835 126.379 190.693 127.548 184.164C127.797 182.776 128.991 181.757 130.407 181.739H130.409Z" fill="url(#paint13_linear_103_3221)"/>
<path d="M163.354 211.816C163.343 211.816 163.33 211.816 163.318 211.813L162.223 211.596C162.122 211.575 162.056 211.478 162.077 211.376C162.097 211.276 162.194 211.208 162.296 211.231L163.381 211.446C163.39 211.446 163.398 211.445 163.407 211.445H164.523C164.626 211.445 164.71 211.528 164.71 211.631C164.71 211.734 164.626 211.817 164.523 211.817H163.407C163.398 211.817 163.39 211.817 163.381 211.816C163.373 211.816 163.364 211.817 163.356 211.817L163.354 211.816ZM171.968 211.816H170.852C170.749 211.816 170.665 211.733 170.665 211.63C170.665 211.527 170.749 211.444 170.852 211.444H171.968C172.071 211.444 172.155 211.527 172.155 211.63C172.155 211.733 172.071 211.816 171.968 211.816ZM168.246 211.816H167.129C167.026 211.816 166.943 211.733 166.943 211.63C166.943 211.527 167.026 211.444 167.129 211.444H168.246C168.349 211.444 168.432 211.527 168.432 211.63C168.432 211.733 168.349 211.816 168.246 211.816ZM174.567 211.74C174.479 211.74 174.401 211.677 174.384 211.588C174.364 211.487 174.431 211.39 174.532 211.371L175.629 211.163C175.731 211.145 175.828 211.21 175.847 211.312C175.866 211.413 175.8 211.51 175.699 211.529L174.601 211.736C174.59 211.739 174.578 211.74 174.567 211.74ZM159.703 211.092C159.692 211.092 159.679 211.091 159.667 211.088L158.572 210.871C158.471 210.85 158.406 210.753 158.426 210.652C158.446 210.551 158.542 210.486 158.645 210.506L159.741 210.723C159.841 210.743 159.907 210.841 159.886 210.942C159.869 211.031 159.791 211.092 159.704 211.092L159.703 211.092ZM178.225 211.048C178.138 211.048 178.059 210.985 178.042 210.896C178.023 210.795 178.089 210.698 178.191 210.679L179.288 210.471C179.388 210.452 179.486 210.518 179.505 210.62C179.525 210.721 179.458 210.818 179.357 210.837L178.26 211.044C178.248 211.047 178.236 211.048 178.225 211.048ZM156.053 210.366C156.041 210.366 156.028 210.365 156.016 210.362L154.921 210.145C154.82 210.125 154.755 210.027 154.775 209.926C154.795 209.826 154.892 209.759 154.994 209.78L156.09 209.998C156.19 210.018 156.256 210.116 156.236 210.217C156.218 210.305 156.14 210.367 156.053 210.367L156.053 210.366ZM181.884 210.357C181.796 210.357 181.718 210.294 181.701 210.205C181.681 210.104 181.748 210.007 181.849 209.987L182.946 209.78C183.048 209.762 183.145 209.827 183.164 209.928C183.183 210.03 183.117 210.126 183.015 210.146L181.918 210.353C181.906 210.356 181.895 210.357 181.884 210.357ZM185.541 209.665C185.454 209.665 185.375 209.602 185.358 209.513C185.339 209.412 185.406 209.315 185.507 209.295L186.604 209.088C186.705 209.07 186.802 209.135 186.822 209.236C186.841 209.338 186.774 209.434 186.673 209.454L185.576 209.661C185.564 209.664 185.552 209.665 185.541 209.665ZM152.402 209.641C152.39 209.641 152.377 209.64 152.365 209.638L151.27 209.42C151.17 209.4 151.104 209.302 151.124 209.201C151.144 209.101 151.24 209.033 151.342 209.055L152.438 209.273C152.538 209.293 152.604 209.391 152.584 209.492C152.566 209.58 152.489 209.642 152.402 209.642V209.641ZM189.2 208.973C189.112 208.973 189.034 208.911 189.017 208.822C188.997 208.721 189.064 208.624 189.165 208.604L190.262 208.397C190.364 208.378 190.461 208.444 190.48 208.545C190.499 208.646 190.433 208.743 190.332 208.763L189.234 208.97C189.223 208.973 189.211 208.973 189.2 208.973ZM148.751 208.915C148.739 208.915 148.726 208.914 148.715 208.912L147.619 208.694C147.518 208.674 147.453 208.576 147.473 208.475C147.493 208.375 147.592 208.307 147.692 208.329L148.787 208.547C148.888 208.567 148.953 208.665 148.934 208.765C148.916 208.854 148.839 208.915 148.752 208.915H148.751ZM192.858 208.281C192.771 208.281 192.692 208.219 192.675 208.13C192.656 208.029 192.722 207.932 192.824 207.912L193.921 207.705C194.022 207.687 194.119 207.752 194.138 207.853C194.158 207.954 194.091 208.051 193.99 208.071L192.893 208.278C192.881 208.281 192.869 208.281 192.858 208.281ZM145.1 208.19C145.088 208.19 145.076 208.189 145.064 208.186L143.968 207.969C143.868 207.949 143.802 207.851 143.822 207.75C143.843 207.65 143.939 207.584 144.042 207.605L145.137 207.822C145.237 207.842 145.303 207.94 145.283 208.041C145.265 208.13 145.188 208.191 145.101 208.191L145.1 208.19ZM196.517 207.589C196.429 207.589 196.351 207.527 196.334 207.438C196.314 207.337 196.381 207.24 196.482 207.22L197.579 207.013C197.681 206.994 197.778 207.06 197.797 207.161C197.816 207.262 197.75 207.359 197.648 207.379L196.551 207.586C196.539 207.589 196.528 207.589 196.517 207.589ZM141.449 207.464C141.437 207.464 141.425 207.463 141.413 207.461L140.317 207.243C140.217 207.223 140.151 207.125 140.171 207.024C140.192 206.924 140.289 206.857 140.391 206.878L141.486 207.096C141.587 207.116 141.652 207.214 141.632 207.315C141.614 207.403 141.537 207.465 141.45 207.465L141.449 207.464ZM200.174 206.897C200.087 206.897 200.008 206.835 199.991 206.746C199.972 206.645 200.039 206.548 200.14 206.528L201.237 206.321C201.339 206.304 201.435 206.368 201.455 206.469C201.474 206.57 201.407 206.667 201.306 206.687L200.209 206.894C200.197 206.897 200.185 206.897 200.174 206.897ZM137.797 206.738C137.786 206.738 137.773 206.737 137.761 206.735L136.666 206.517C136.565 206.497 136.499 206.399 136.52 206.298C136.54 206.198 136.636 206.131 136.739 206.152L137.834 206.37C137.935 206.39 138.001 206.488 137.98 206.589C137.963 206.678 137.885 206.739 137.798 206.739L137.797 206.738ZM203.832 206.206C203.744 206.206 203.666 206.143 203.649 206.054C203.63 205.953 203.696 205.856 203.797 205.836L204.895 205.629C204.997 205.611 205.093 205.676 205.112 205.777C205.132 205.878 205.065 205.975 204.964 205.995L203.867 206.202C203.855 206.205 203.843 206.206 203.832 206.206ZM134.146 206.012C134.134 206.012 134.121 206.012 134.109 206.009L133.014 205.792C132.914 205.771 132.848 205.674 132.868 205.573C132.888 205.472 132.985 205.404 133.087 205.427L134.183 205.644C134.283 205.664 134.349 205.762 134.329 205.863C134.311 205.952 134.233 206.013 134.147 206.013L134.146 206.012ZM130.494 205.288C130.482 205.288 130.469 205.287 130.458 205.284L129.511 205.096L129.49 204.654C129.484 204.551 129.564 204.464 129.667 204.459C129.767 204.438 129.856 204.532 129.861 204.636L129.869 204.788L130.531 204.919C130.631 204.94 130.697 205.037 130.677 205.138C130.659 205.227 130.582 205.288 130.495 205.288L130.494 205.288ZM205.624 203.964C205.522 203.964 205.439 203.883 205.438 203.781C205.433 203.409 205.425 203.038 205.414 202.668C205.412 202.565 205.492 202.48 205.595 202.477C205.692 202.479 205.783 202.554 205.786 202.657C205.797 203.029 205.805 203.402 205.81 203.776C205.811 203.879 205.729 203.963 205.626 203.964H205.623H205.624ZM129.568 202.229C129.468 202.229 129.386 202.15 129.382 202.049C129.371 201.691 129.359 201.318 129.348 200.933C129.345 200.83 129.426 200.745 129.529 200.741C129.63 200.75 129.717 200.82 129.721 200.922C129.731 201.307 129.743 201.679 129.754 202.038C129.758 202.14 129.678 202.226 129.575 202.23H129.568V202.229ZM205.477 200.248C205.38 200.248 205.299 200.172 205.292 200.075C205.267 199.701 205.241 199.331 205.213 198.963C205.205 198.86 205.281 198.771 205.384 198.763C205.485 198.75 205.576 198.831 205.584 198.934C205.612 199.303 205.639 199.676 205.664 200.051C205.67 200.154 205.593 200.242 205.49 200.249C205.486 200.249 205.482 200.249 205.478 200.249L205.477 200.248ZM129.483 198.509C129.381 198.509 129.298 198.427 129.296 198.325C129.292 197.958 129.289 197.585 129.287 197.207C129.287 197.104 129.37 197.021 129.473 197.02C129.576 197.02 129.658 197.103 129.659 197.205C129.661 197.582 129.664 197.954 129.668 198.321C129.669 198.423 129.587 198.508 129.484 198.509H129.482H129.483ZM205.154 196.54C205.061 196.54 204.98 196.469 204.97 196.374C204.929 195.999 204.887 195.63 204.843 195.266C204.831 195.164 204.904 195.071 205.006 195.06C205.11 195.045 205.201 195.12 205.213 195.222C205.257 195.588 205.3 195.958 205.341 196.334C205.352 196.436 205.277 196.528 205.175 196.539C205.169 196.539 205.162 196.54 205.155 196.54H205.154ZM129.487 194.788H129.484C129.382 194.786 129.3 194.702 129.301 194.599C129.307 194.228 129.315 193.855 129.324 193.482C129.327 193.379 129.413 193.304 129.515 193.301C129.618 193.303 129.699 193.388 129.696 193.491C129.687 193.863 129.679 194.235 129.673 194.605C129.672 194.707 129.589 194.788 129.487 194.788ZM204.682 192.848C204.591 192.848 204.512 192.781 204.498 192.689C204.443 192.313 204.387 191.945 204.33 191.586C204.314 191.485 204.383 191.389 204.485 191.373C204.585 191.358 204.681 191.426 204.697 191.528C204.754 191.888 204.811 192.257 204.866 192.635C204.881 192.736 204.81 192.83 204.709 192.845C204.7 192.846 204.69 192.847 204.682 192.847V192.848ZM129.609 191.069C129.609 191.069 129.603 191.069 129.599 191.069C129.496 191.064 129.418 190.976 129.423 190.873C129.442 190.499 129.464 190.125 129.489 189.756C129.495 189.653 129.584 189.573 129.687 189.583C129.79 189.589 129.867 189.678 129.861 189.781C129.836 190.149 129.814 190.519 129.795 190.892C129.79 190.992 129.707 191.069 129.609 191.069ZM204.076 189.176C203.987 189.176 203.91 189.112 203.893 189.023C203.822 188.639 203.753 188.274 203.685 187.928C203.666 187.827 203.732 187.729 203.832 187.71C203.932 187.69 204.031 187.756 204.05 187.857C204.118 188.205 204.188 188.571 204.258 188.956C204.276 189.058 204.21 189.154 204.109 189.173C204.097 189.175 204.086 189.176 204.075 189.176H204.076ZM129.901 187.359C129.894 187.359 129.888 187.359 129.881 187.358C129.779 187.347 129.705 187.256 129.716 187.153C129.759 186.774 129.803 186.403 129.853 186.04C129.867 185.938 129.961 185.862 130.062 185.881C130.164 185.894 130.236 185.988 130.222 186.09C130.173 186.45 130.128 186.817 130.087 187.193C130.076 187.288 129.996 187.359 129.902 187.359H129.901ZM203.18 185.677C203.173 185.677 203.166 185.677 203.158 185.676C202.813 185.636 202.445 185.596 202.051 185.557C201.949 185.547 201.874 185.456 201.884 185.354C201.894 185.251 201.982 185.183 202.087 185.187C202.483 185.227 202.854 185.266 203.201 185.307C203.303 185.319 203.377 185.411 203.365 185.513C203.354 185.609 203.274 185.678 203.18 185.678V185.677ZM199.473 185.342C199.468 185.342 199.463 185.342 199.459 185.342C199.102 185.316 198.73 185.292 198.347 185.267C198.244 185.261 198.166 185.172 198.173 185.07C198.18 184.967 198.268 184.889 198.37 184.896C198.755 184.92 199.128 184.945 199.486 184.971C199.589 184.978 199.666 185.067 199.658 185.169C199.651 185.267 199.57 185.342 199.473 185.342ZM195.756 185.121C195.756 185.121 195.749 185.121 195.747 185.121C195.384 185.102 195.012 185.084 194.632 185.067C194.529 185.062 194.45 184.975 194.455 184.873C194.46 184.77 194.548 184.688 194.65 184.696C195.031 184.713 195.403 184.731 195.766 184.75C195.869 184.755 195.948 184.842 195.942 184.944C195.937 185.044 195.855 185.121 195.757 185.121H195.756ZM192.037 184.958H192.029L190.913 184.917C190.811 184.914 190.73 184.828 190.734 184.725C190.737 184.623 190.829 184.547 190.926 184.546L192.044 184.586C192.146 184.59 192.227 184.676 192.222 184.779C192.218 184.88 192.136 184.958 192.037 184.958ZM188.316 184.834H188.31L187.194 184.803C187.091 184.8 187.01 184.714 187.013 184.612C187.015 184.509 187.087 184.433 187.204 184.43L188.321 184.461C188.424 184.465 188.505 184.551 188.501 184.653C188.498 184.754 188.415 184.833 188.316 184.833V184.834ZM184.594 184.738H184.59L183.473 184.713C183.371 184.711 183.289 184.627 183.291 184.524C183.294 184.423 183.376 184.342 183.478 184.342H183.482L184.598 184.366C184.701 184.369 184.783 184.454 184.781 184.557C184.778 184.658 184.695 184.739 184.595 184.739L184.594 184.738ZM180.872 184.663H180.868L179.752 184.644C179.649 184.642 179.567 184.557 179.569 184.455C179.57 184.353 179.653 184.272 179.755 184.272H179.758L180.876 184.291C180.979 184.293 181.061 184.378 181.059 184.481C181.057 184.582 180.974 184.663 180.872 184.663H180.872ZM131.35 184.663C131.248 184.663 131.165 184.581 131.164 184.479C131.163 184.376 131.245 184.292 131.347 184.29L132.465 184.277H132.467C132.569 184.277 132.652 184.359 132.654 184.461C132.655 184.563 132.573 184.648 132.47 184.649L131.352 184.662H131.35V184.663ZM135.074 184.621C134.972 184.621 134.89 184.539 134.888 184.436C134.887 184.333 134.97 184.249 135.073 184.248L136.19 184.237H136.192C136.294 184.237 136.377 184.319 136.378 184.422C136.379 184.525 136.296 184.609 136.193 184.61L135.076 184.621H135.074ZM177.149 184.605H177.147L176.03 184.59C175.927 184.589 175.845 184.504 175.846 184.402C175.848 184.3 175.93 184.219 176.033 184.219H176.035L177.152 184.233C177.255 184.235 177.336 184.319 177.335 184.422C177.334 184.524 177.251 184.606 177.149 184.606V184.605ZM138.799 184.585C138.697 184.585 138.614 184.503 138.613 184.4C138.612 184.297 138.695 184.213 138.798 184.212L139.915 184.202H139.917C140.019 184.202 140.102 184.284 140.103 184.386C140.104 184.489 140.021 184.574 139.918 184.574L138.801 184.584H138.799V184.585ZM173.427 184.561H173.425L172.308 184.551C172.205 184.551 172.123 184.466 172.124 184.364C172.124 184.261 172.208 184.179 172.31 184.179H172.311L173.428 184.189C173.531 184.19 173.614 184.274 173.613 184.377C173.612 184.479 173.529 184.562 173.427 184.562V184.561ZM142.523 184.554C142.421 184.554 142.337 184.472 142.336 184.37C142.336 184.267 142.418 184.182 142.521 184.182L143.638 184.175H143.639C143.741 184.175 143.825 184.258 143.826 184.359C143.826 184.462 143.744 184.547 143.641 184.547L142.524 184.554H142.522H142.523ZM169.703 184.529H169.702L168.586 184.521C168.483 184.521 168.4 184.437 168.401 184.334C168.401 184.231 168.484 184.15 168.587 184.15H168.588L169.705 184.157C169.808 184.157 169.89 184.241 169.89 184.344C169.89 184.446 169.805 184.529 169.703 184.529ZM146.246 184.529C146.144 184.529 146.061 184.446 146.06 184.344C146.06 184.241 146.142 184.158 146.244 184.157L147.362 184.151H147.363C147.465 184.151 147.548 184.234 147.549 184.337C147.549 184.44 147.466 184.523 147.364 184.524L146.247 184.53H146.246V184.529ZM149.97 184.51C149.867 184.51 149.785 184.428 149.784 184.325C149.784 184.222 149.867 184.139 149.97 184.138L151.087 184.134C151.19 184.134 151.272 184.216 151.273 184.319C151.273 184.422 151.191 184.505 151.088 184.506L149.97 184.51ZM165.98 184.508L164.863 184.504C164.76 184.504 164.678 184.419 164.678 184.317C164.678 184.214 164.761 184.131 164.864 184.131L165.981 184.135C166.083 184.135 166.166 184.22 166.166 184.322C166.166 184.425 166.083 184.508 165.98 184.508ZM153.694 184.498C153.591 184.498 153.508 184.415 153.507 184.312C153.507 184.209 153.59 184.126 153.693 184.125L154.81 184.123C154.906 184.115 154.997 184.206 154.997 184.308C154.997 184.411 154.914 184.494 154.811 184.494L153.695 184.497L153.694 184.498ZM162.256 184.495L161.14 184.493C161.037 184.493 160.953 184.41 160.954 184.307C160.954 184.204 161.038 184.122 161.141 184.122L162.257 184.123C162.36 184.123 162.444 184.207 162.443 184.31C162.443 184.413 162.359 184.495 162.256 184.495ZM157.416 184.492C157.313 184.492 157.231 184.408 157.23 184.306C157.23 184.204 157.313 184.12 157.415 184.12H158.529C158.632 184.12 158.717 184.204 158.717 184.306C158.717 184.409 158.635 184.493 158.533 184.493H157.416V184.492Z" fill="white"/>
<path d="M173.35 219.133H163.422C162.12 219.133 161.025 218.165 160.871 216.88L159.724 207.333C159.541 205.811 160.735 204.474 162.275 204.474H174.202C175.711 204.474 176.895 205.761 176.762 207.255L175.91 216.803C175.793 218.122 174.682 219.133 173.351 219.133H173.35Z" fill="#D9D9D9"/>
<path d="M172.827 218.013H164.42C163.319 218.013 162.391 217.194 162.261 216.106L161.289 208.021C161.135 206.733 162.145 205.601 163.449 205.601H173.548C174.826 205.601 175.828 206.69 175.715 207.956L174.994 216.041C174.895 217.158 173.955 218.014 172.827 218.014V218.013Z" fill="url(#paint14_linear_103_3221)"/>
</g>
<defs>
<linearGradient id="paint0_linear_103_3221" x1="63.0587" y1="227.65" x2="77.7617" y2="227.65" gradientUnits="userSpaceOnUse">
<stop/>
<stop offset="1" stop-color="#2D2D2D"/>
</linearGradient>
<linearGradient id="paint1_linear_103_3221" x1="49.8961" y1="168.472" x2="40.0234" y2="227.556" gradientUnits="userSpaceOnUse">
<stop stop-color="white"/>
<stop offset="0.0001" stop-color="#7F7665"/>
<stop offset="0.0002" stop-color="white"/>
<stop offset="1" stop-color="white"/>
</linearGradient>
<linearGradient id="paint2_linear_103_3221" x1="36.0996" y1="228.597" x2="44.6099" y2="228.597" gradientUnits="userSpaceOnUse">
<stop/>
<stop offset="1" stop-color="#2D2D2D"/>
</linearGradient>
<linearGradient id="paint3_linear_103_3221" x1="165.656" y1="74.8961" x2="112.654" y2="137.34" gradientUnits="userSpaceOnUse">
<stop/>
<stop offset="1" stop-color="#2D2D2D"/>
</linearGradient>
<linearGradient id="paint4_linear_103_3221" x1="68.688" y1="171.852" x2="84.2587" y2="214.983" gradientUnits="userSpaceOnUse">
<stop/>
<stop offset="1" stop-color="#2D2D2D"/>
</linearGradient>
<linearGradient id="paint5_linear_103_3221" x1="62.7209" y1="102.162" x2="74.4382" y2="117.257" gradientUnits="userSpaceOnUse">
<stop/>
<stop offset="1" stop-color="#2D2D2D"/>
</linearGradient>
<linearGradient id="paint6_linear_103_3221" x1="69.07" y1="170.842" x2="104.032" y2="146.886" gradientUnits="userSpaceOnUse">
<stop/>
<stop offset="1" stop-color="#2D2D2D"/>
</linearGradient>
<linearGradient id="paint7_linear_103_3221" x1="167.651" y1="202.694" x2="168.079" y2="235.465" gradientUnits="userSpaceOnUse">
<stop/>
<stop offset="1" stop-color="#2D2D2D"/>
</linearGradient>
<linearGradient id="paint8_linear_103_3221" x1="151.986" y1="187.727" x2="151.528" y2="176.624" gradientUnits="userSpaceOnUse">
<stop/>
<stop offset="1" stop-color="#2D2D2D"/>
</linearGradient>
<linearGradient id="paint9_linear_103_3221" x1="151.405" y1="171.056" x2="153.693" y2="202.881" gradientUnits="userSpaceOnUse">
<stop/>
<stop offset="1" stop-color="#2D2D2D"/>
</linearGradient>
<linearGradient id="paint10_linear_103_3221" x1="182.941" y1="186.451" x2="182.483" y2="175.348" gradientUnits="userSpaceOnUse">
<stop/>
<stop offset="1" stop-color="#2D2D2D"/>
</linearGradient>
<linearGradient id="paint11_linear_103_3221" x1="182.276" y1="168.836" x2="184.564" y2="200.66" gradientUnits="userSpaceOnUse">
<stop/>
<stop offset="1" stop-color="#2D2D2D"/>
</linearGradient>
<linearGradient id="paint12_linear_103_3221" x1="202.248" y1="95.6427" x2="183.448" y2="136.116" gradientUnits="userSpaceOnUse">
<stop/>
<stop offset="1" stop-color="#2D2D2D"/>
</linearGradient>
<linearGradient id="paint13_linear_103_3221" x1="172.15" y1="159.034" x2="168.448" y2="190.665" gradientUnits="userSpaceOnUse">
<stop/>
<stop offset="1" stop-color="#161616"/>
</linearGradient>
<linearGradient id="paint14_linear_103_3221" x1="171.106" y1="188.303" x2="167.328" y2="218.255" gradientUnits="userSpaceOnUse">
<stop/>
<stop offset="1" stop-color="#2D2D2D"/>
</linearGradient>
<clipPath id="clip0_103_3221">
<rect width="237" height="236" fill="white"/>
</clipPath>
</defs>
</svg>
