<svg width="284" height="236" viewBox="0 0 284 236" fill="none" xmlns="http://www.w3.org/2000/svg">
<path d="M10.5009 159.24C34.3443 214.587 97.2833 238.36 146.598 234.307C160.063 233.2 187.153 230.974 208.307 211.107C248.93 172.956 242.673 93.2092 203.786 46.259C198.778 40.2137 164.113 -0.295508 110.096 0.246602C70.5462 0.64302 42.7875 22.8297 39.4119 25.5936C35.1482 29.0852 25.7429 37.3828 17.2674 50.546C-2.64802 81.4759 -4.39871 124.653 10.5009 159.24Z" fill="white"/>
<g opacity="0.3">
<path d="M57.8167 20.4613C57.5014 20.8222 56.9524 20.8594 56.5912 20.5452C55.8883 19.9344 55.149 19.3458 54.3926 18.7943C54.0102 18.5156 53.9235 17.9829 54.1946 17.5983C54.198 17.5941 54.2014 17.589 54.2039 17.5847C54.4869 17.1985 55.0308 17.1146 55.4184 17.3975C56.2147 17.9778 56.9931 18.5978 57.7325 19.2407C58.0708 19.5346 58.1252 20.0319 57.8727 20.3902C57.8558 20.4147 57.8371 20.4393 57.8167 20.4622V20.4613ZM50.5266 16.3625C49.7023 15.9194 48.8516 15.5069 47.9966 15.1368C47.5573 14.9462 47.355 14.4363 47.5462 13.9975C47.74 13.5579 48.249 13.358 48.6893 13.5486C49.5884 13.9382 50.4841 14.3719 51.3518 14.8378C51.7742 15.0648 51.9314 15.5899 51.7037 16.0109C51.6875 16.0414 51.6688 16.0711 51.6493 16.0982C51.3994 16.4522 50.9184 16.5725 50.5266 16.3616V16.3625ZM43.6896 13.6172C42.7896 13.3681 41.8675 13.1564 40.9497 12.9853C40.478 12.898 40.167 12.4457 40.2553 11.9756C40.3437 11.5063 40.7967 11.1955 41.2684 11.2836C42.2355 11.4631 43.2069 11.6876 44.1545 11.9493C44.6168 12.0772 44.8879 12.5541 44.7596 13.0149C44.7324 13.1132 44.689 13.203 44.6338 13.2817C44.429 13.5731 44.0542 13.7188 43.6904 13.618L43.6896 13.6172ZM36.4081 12.4652C35.4741 12.4228 34.5274 12.4211 33.5942 12.4593C33.1149 12.4787 32.7104 12.1069 32.6908 11.6292C32.6721 11.1514 33.0444 10.7491 33.5237 10.7287C34.5061 10.6889 35.503 10.6906 36.4863 10.7347C36.9656 10.7558 37.337 11.1607 37.3149 11.6385C37.3072 11.8096 37.2503 11.9663 37.1585 12.0967C36.9936 12.3305 36.7166 12.4779 36.4081 12.4643V12.4652ZM29.0509 12.9582C28.1331 13.1233 27.2093 13.3309 26.3051 13.574C25.8419 13.6985 25.3651 13.4249 25.2402 12.9633C25.1153 12.5016 25.3898 12.0264 25.8529 11.9019C26.8039 11.6461 27.7761 11.4284 28.7416 11.2539C29.2132 11.1684 29.6654 11.4809 29.7512 11.9519C29.7945 12.1891 29.7359 12.4211 29.6076 12.6041C29.4809 12.7837 29.2855 12.9158 29.0518 12.9582H29.0509ZM21.9861 15.0614C21.1261 15.4256 20.272 15.8314 19.4459 16.2667C19.0218 16.4904 18.4958 16.3294 18.2723 15.9067C18.0479 15.4841 18.2094 14.9606 18.6335 14.7361C19.5029 14.277 20.402 13.851 21.3071 13.4672C21.749 13.28 22.2589 13.485 22.4467 13.9255C22.5683 14.211 22.5241 14.5261 22.3575 14.7624C22.2674 14.8903 22.1416 14.9953 21.987 15.0605L21.9861 15.0614ZM1.49367 39.8883C1.02201 39.8002 0.711811 39.3471 0.800196 38.8778C0.982064 37.9156 1.20897 36.9474 1.47328 36.0012C1.60245 35.5404 2.08177 35.2719 2.54324 35.4007C3.00471 35.5294 3.27496 36.0063 3.14578 36.4671C2.89423 37.365 2.67921 38.284 2.5067 39.198C2.4829 39.3234 2.43361 39.4369 2.36392 39.5351C2.1744 39.8045 1.83786 39.9536 1.49197 39.8883H1.49367ZM15.5706 18.6715C14.8142 19.217 14.0723 19.8015 13.3652 20.4096C13.0023 20.7222 12.4533 20.6815 12.1397 20.3199C11.8262 19.9582 11.8678 19.4127 12.2298 19.0984C12.9743 18.458 13.7553 17.8422 14.5525 17.2679C14.9409 16.9876 15.4839 17.0748 15.7652 17.4619C15.9879 17.7694 15.9794 18.1734 15.772 18.4674C15.7185 18.5436 15.6505 18.6131 15.5697 18.6707L15.5706 18.6715ZM3.53586 32.6232C3.09649 32.4318 2.89593 31.9219 3.08799 31.4831C3.48147 30.5861 3.91915 29.6933 4.38826 28.8301C4.61517 28.4083 5.14378 28.2541 5.56616 28.4812C5.98768 28.709 6.14405 29.2342 5.9163 29.6552C5.47012 30.4751 5.05455 31.323 4.68061 32.176C4.65682 32.2302 4.62792 32.281 4.59478 32.3276C4.36192 32.6571 3.9217 32.7901 3.53671 32.6224L3.53586 32.6232ZM10.1239 23.62C9.50946 24.3196 8.91712 25.0557 8.36301 25.807C8.07916 26.1924 7.53526 26.2754 7.14858 25.9925C6.76699 25.713 6.68116 25.1819 6.95226 24.7973C6.95566 24.7923 6.95906 24.7872 6.96331 24.7821C7.54546 23.991 8.16925 23.2168 8.81598 22.4798C9.13213 22.1198 9.68113 22.0834 10.0423 22.3985C10.3797 22.6924 10.4332 23.1896 10.1817 23.5471C10.1638 23.5725 10.1443 23.5962 10.1239 23.62Z" fill="#EDBB0A"/>
<path d="M1.78301 45.587C1.88159 45.4473 1.93938 45.2779 1.94023 45.0941C1.94193 44.6477 1.95383 44.1936 1.97423 43.7456C1.99632 43.2678 1.62494 42.8629 1.14647 42.8418C0.667156 42.8197 0.260077 43.189 0.239681 43.6676C0.217585 44.1394 0.205687 44.6163 0.203138 45.0864C0.200588 45.5642 0.58812 45.9538 1.06744 45.9563C1.36318 45.958 1.62494 45.8115 1.78301 45.5879V45.587Z" fill="#EDBB0A"/>
</g>
<g opacity="0.3">
<path d="M12.0054 69.9372C12.2468 69.595 12.2102 69.1198 11.9001 68.8191C11.5788 68.5082 11.2593 68.1846 10.9491 67.8585C10.6193 67.5112 10.0695 67.496 9.72104 67.8255C9.3709 68.1558 9.35815 68.7022 9.68789 69.0495C10.0142 69.3925 10.3508 69.733 10.689 70.0609C11.0332 70.3937 11.5831 70.3861 11.917 70.0439C11.9502 70.01 11.9791 69.9745 12.0054 69.9372Z" fill="#EDBB0A"/>
<path d="M62.2492 66.5643C61.9543 66.9412 61.4087 67.009 61.0297 66.715C60.6515 66.4211 60.5835 65.8782 60.8784 65.5004C61.4393 64.7821 61.9781 64.0291 62.4872 63.2532C62.7472 62.8542 63.2877 62.7407 63.6897 63.0024C64.0908 63.2642 64.2039 63.8004 63.9412 64.201C63.7211 64.5373 63.4959 64.8685 63.2656 65.1937C62.9376 65.6588 62.5959 66.1196 62.2483 66.5643H62.2492ZM65.0996 60.496C64.6662 60.291 64.4818 59.7743 64.6874 59.3432C65.0826 58.5139 65.4463 57.6593 65.7693 56.8021C65.9367 56.3548 66.439 56.1278 66.8877 56.2955C67.3364 56.4632 67.5642 56.963 67.395 57.4102C67.0551 58.3123 66.6718 59.2119 66.2562 60.0852C66.235 60.1301 66.2095 60.1733 66.1815 60.2123C65.9426 60.5511 65.4871 60.679 65.0987 60.496H65.0996ZM59.0928 70.0795C58.4002 70.7512 57.6702 71.4035 56.9206 72.0167C56.5501 72.32 56.0028 72.2666 55.6977 71.8973C55.3935 71.528 55.4478 70.9825 55.8175 70.6784C56.5289 70.0965 57.2232 69.4773 57.8801 68.8394C58.2243 68.5057 58.7742 68.5133 59.109 68.8555C59.4047 69.1588 59.4336 69.6221 59.1982 69.9567C59.1676 69.9999 59.1328 70.0414 59.0928 70.0804V70.0795ZM67.7146 53.5435C67.2463 53.4384 66.9523 52.9751 67.0585 52.5084C67.2608 51.6139 67.4273 50.7008 67.5531 49.7936C67.6186 49.3192 68.0571 48.9889 68.5321 49.0541C69.0072 49.1193 69.3395 49.5564 69.2732 50.0299C69.1406 50.9854 68.9656 51.9476 68.7531 52.8887C68.7276 53.0022 68.68 53.1064 68.6171 53.1962C68.4208 53.4749 68.069 53.6222 67.7146 53.5426V53.5435ZM53.0683 74.751C52.2448 75.2541 51.389 75.7302 50.523 76.1639C50.0946 76.379 49.5728 76.2071 49.357 75.7801C49.1411 75.3532 49.3136 74.8323 49.7428 74.6171C50.5655 74.2046 51.3788 73.7532 52.1606 73.2754C52.5694 73.0255 53.1048 73.1534 53.3555 73.5609C53.5425 73.865 53.5187 74.2377 53.3258 74.5121C53.2595 74.6061 53.1736 74.6883 53.0691 74.7518L53.0683 74.751ZM46.1615 77.9918C45.2454 78.3043 44.3055 78.5822 43.3681 78.8176C42.9024 78.9345 42.4307 78.6533 42.3134 78.1891C42.1961 77.725 42.4783 77.2548 42.944 77.1388C43.8346 76.9152 44.7278 76.6509 45.5981 76.3544C46.0519 76.1994 46.5457 76.4408 46.7012 76.8932C46.7947 77.1659 46.7437 77.4531 46.5899 77.6716C46.4879 77.8164 46.3408 77.9308 46.1607 77.9926L46.1615 77.9918ZM38.71 79.6554C37.7472 79.7621 36.769 79.829 35.8027 79.8553C35.3234 79.868 34.924 79.4911 34.9112 79.0133C34.8985 78.5347 35.2766 78.1375 35.756 78.1248C36.6738 78.1002 37.6035 78.0358 38.5188 77.935C38.9956 77.8825 39.4248 78.2247 39.4775 78.6999C39.5021 78.9184 39.4426 79.126 39.3253 79.2928C39.1868 79.4894 38.9684 79.6274 38.71 79.6562V79.6554ZM31.0716 79.6596C30.1087 79.5537 29.139 79.4055 28.1897 79.2192C27.7189 79.1268 27.413 78.672 27.5056 78.2027C27.5982 77.7343 28.0555 77.4285 28.5254 77.5208C29.4263 77.6979 30.3475 77.8385 31.262 77.9393C31.7387 77.9918 32.0829 78.4195 32.0302 78.8947C32.0132 79.0447 31.9597 79.1819 31.8781 79.2971C31.7022 79.547 31.3979 79.696 31.0716 79.6605V79.6596ZM23.615 77.9901C22.7014 77.6758 21.7895 77.3192 20.9031 76.9287C20.4646 76.7356 20.2657 76.224 20.4604 75.7869C20.6541 75.3507 21.1674 75.1516 21.606 75.3456C22.4473 75.7166 23.3142 76.0563 24.1819 76.3544C24.6348 76.5103 24.8762 77.0033 24.7198 77.4548C24.6926 77.5335 24.6552 77.6055 24.6093 77.6707C24.3926 77.9782 23.9898 78.1197 23.615 77.9909V77.9901ZM16.7159 74.7323C16.1091 74.3605 15.5066 73.9649 14.9253 73.5575C14.7145 73.4101 14.5063 73.2602 14.2998 73.1094C13.914 72.8265 13.8196 72.2835 14.1154 71.899C14.3992 71.5136 14.9431 71.4314 15.3298 71.7143C15.5261 71.8583 15.7241 72.0006 15.9239 72.1404C16.4771 72.5275 17.0491 72.9036 17.6261 73.2568C18.0349 73.5075 18.1624 74.0403 17.9108 74.4477C17.9015 74.463 17.8913 74.4782 17.8811 74.4926C17.6193 74.8645 17.1085 74.9729 16.7159 74.7315V74.7323Z" fill="#EDBB0A"/>
<path d="M69.4398 45.7976C69.5393 45.657 69.5971 45.4851 69.5979 45.3004C69.5979 44.832 69.5877 44.3543 69.5682 43.8808C69.5486 43.403 69.1441 43.032 68.6648 43.0515C68.1855 43.0718 67.8132 43.4742 67.8328 43.9519C67.8515 44.4017 67.8608 44.8549 67.8608 45.3004C67.8608 45.7782 68.2492 46.1661 68.7294 46.1661C69.0234 46.1661 69.2835 46.0204 69.4407 45.7976H69.4398Z" fill="#EDBB0A"/>
</g>
<path d="M58.9213 35.293C58.8746 35.127 58.7267 35.0084 58.5542 34.9982L53.6216 34.7119C52.5075 32.6976 51.0627 30.8468 49.312 29.2476L50.1933 24.405C50.2239 24.2348 50.1432 24.0645 49.9928 23.9798L44.8248 21.088C44.6736 21.0033 44.4857 21.0236 44.3566 21.1388L40.6674 24.4101C38.3864 23.7528 36.0484 23.4877 33.7428 23.5885L30.9289 19.5405C30.8303 19.399 30.6519 19.3346 30.4853 19.3812L24.7794 20.9787C24.6128 21.0253 24.4939 21.1727 24.4837 21.3447L24.1964 26.2609C22.1755 27.3714 20.3177 28.8114 18.714 30.5563L13.8554 29.6779C13.6846 29.6474 13.5138 29.727 13.4288 29.8778L10.5274 35.0287C10.4424 35.1795 10.4628 35.3667 10.5784 35.4954L13.8614 39.1725C13.2019 41.4459 12.9359 43.7762 13.037 46.0742L8.9756 48.8788C8.83368 48.977 8.76909 49.1549 8.81583 49.3209L10.4186 55.008C10.4654 55.174 10.6133 55.2926 10.7858 55.3028L15.7183 55.5891C16.8325 57.6034 18.2772 59.4542 20.0279 61.0534L19.1466 65.896C19.116 66.0662 19.1959 66.2365 19.3472 66.3212L24.5151 69.213C24.6664 69.2977 24.8542 69.2774 24.9834 69.1622L28.6726 65.8909C30.9536 66.5482 33.2915 66.8133 35.5972 66.7125L38.411 70.7605C38.5096 70.9028 38.6881 70.9664 38.8546 70.9198L44.5605 69.3223C44.7271 69.2757 44.8461 69.1283 44.8563 68.9563L45.1435 64.0401C47.1645 62.9296 49.0214 61.4896 50.6259 59.7447L55.4845 60.6231C55.6545 60.6536 55.8261 60.574 55.9111 60.4232L58.8125 55.2723C58.8975 55.1215 58.8771 54.9343 58.7615 54.8056L55.4794 51.1285C56.1389 48.8551 56.4049 46.5248 56.3038 44.2268L60.3652 41.4222C60.508 41.324 60.5717 41.1461 60.525 40.9801L58.9221 35.293H58.9213Z" fill="#919191"/>
<path d="M38.9912 49.2357C36.7306 51.6117 32.953 51.7116 30.5692 49.4585C29.4142 48.3675 28.7556 46.8928 28.7131 45.3071C28.6706 43.7223 29.2502 42.2145 30.3457 41.0643C32.6063 38.6883 36.3839 38.5883 38.7677 40.8415C40.9365 42.8913 41.2153 46.1931 39.5453 48.5606C39.3796 48.7953 39.1952 49.0214 38.9912 49.2357ZM30.1018 45.2707C30.1341 46.4862 30.6397 47.6162 31.5253 48.4539C33.3525 50.181 36.2496 50.1048 37.9824 48.2828C39.717 46.4616 39.6388 43.5741 37.8108 41.8461C35.9836 40.119 33.0864 40.1952 31.3536 42.0172C31.1964 42.1824 31.0536 42.3568 30.9244 42.5398C30.3644 43.3343 30.0754 44.283 30.1018 45.2707Z" fill="black"/>
<path d="M46.5165 53.5907C46.8029 53.1841 47.0714 52.7606 47.3188 52.321C47.3969 52.1829 47.4726 52.0432 47.5457 51.9025C47.9077 51.2088 48.2136 50.4871 48.4593 49.7485C48.4627 49.7383 48.4661 49.7282 48.4695 49.718C48.4788 49.6892 48.4881 49.6613 48.4975 49.6325C48.5153 49.5766 48.5332 49.5206 48.5502 49.4647C48.5961 49.3174 48.5383 49.1632 48.4185 49.0793C48.3896 49.059 48.3564 49.0429 48.3207 49.0319C48.1372 48.9751 47.9434 49.0785 47.8865 49.2606C47.5958 50.2008 47.2006 51.1165 46.7128 51.9813C44.2933 56.2792 39.9081 58.7992 35.3036 59.0567C32.7421 59.1999 30.1127 58.6425 27.7144 57.3008C27.2937 57.0653 26.8884 56.8112 26.4991 56.5384C23.8799 54.7037 21.989 52.0482 21.1119 48.9353C20.104 45.3591 20.5536 41.605 22.3782 38.3659C26.1473 31.6768 34.6679 29.2932 41.3766 33.0473C41.7905 33.2785 42.1908 33.5301 42.5757 33.8003C44.2465 34.9709 45.642 36.4931 46.6559 38.2617C46.6822 38.3074 46.7171 38.3447 46.7579 38.3735C46.8641 38.4481 47.0094 38.4599 47.1301 38.3905C47.2967 38.2947 47.3553 38.0847 47.2593 37.9178C46.1944 36.0602 44.7301 34.4627 42.976 33.2336C42.5715 32.9499 42.1508 32.6864 41.7174 32.4433C34.6738 28.502 25.7258 31.0093 21.7723 38.0271C19.8567 41.428 19.385 45.3684 20.4431 49.1225C21.3643 52.3913 23.3487 55.1781 26.0989 57.1051C26.5076 57.3914 26.9334 57.6582 27.3745 57.9056C30.7866 59.8148 34.7401 60.2858 38.5075 59.2312C41.7879 58.313 44.5848 56.3335 46.5173 53.5924L46.5165 53.5907Z" fill="black"/>
<g opacity="0.3">
<path d="M93.6395 9.33339C93.773 9.1445 93.7721 8.88276 93.62 8.69302C93.3361 8.33811 93.0378 7.98658 92.7327 7.64861C92.5347 7.42923 92.1956 7.41144 91.9747 7.6088C91.7537 7.80531 91.7367 8.14413 91.9347 8.36352C92.2254 8.6854 92.5101 9.01998 92.7803 9.3588C92.9648 9.59004 93.3022 9.62731 93.5342 9.4435C93.575 9.41047 93.6098 9.3732 93.6387 9.33254L93.6395 9.33339Z" fill="#EDBB0A"/>
<path d="M90.7511 6.40881C90.5565 6.63158 90.2182 6.65615 89.9939 6.46217C89.4287 5.97427 88.8321 5.50924 88.2202 5.08064C88.0911 4.99001 87.961 4.90107 87.8285 4.81297C87.5828 4.64865 87.5174 4.31576 87.6823 4.07096C87.848 3.84564 88.1811 3.76094 88.4268 3.92527C88.5644 4.0176 88.7013 4.11077 88.8364 4.20564C89.478 4.65457 90.1035 5.14247 90.6959 5.65409C90.9058 5.83536 90.9398 6.14368 90.7834 6.36476C90.7732 6.37916 90.7613 6.39356 90.7494 6.40796L90.7511 6.40881ZM85.4795 3.43906C84.6713 3.02994 83.8299 2.6674 82.9792 2.36077C82.7005 2.25997 82.556 1.95419 82.6571 1.67636C82.7574 1.40022 83.0651 1.25453 83.3438 1.35533C84.2353 1.67636 85.1166 2.05668 85.9647 2.48529C86.229 2.61912 86.3344 2.941 86.2001 3.20443C86.1882 3.2273 86.1747 3.24932 86.1602 3.2705C86.0089 3.4848 85.72 3.56104 85.4786 3.43906H85.4795ZM80.3642 1.59928C79.4812 1.40022 78.5761 1.25538 77.6744 1.16644C77.3795 1.13764 77.1645 0.875898 77.1934 0.581973C77.2223 0.287201 77.4841 0.0728978 77.7798 0.101697C78.7257 0.194026 79.675 0.347341 80.6005 0.554868C80.8894 0.62009 81.0713 0.906392 81.0059 1.19439C80.9897 1.26469 80.9608 1.32822 80.9217 1.38413C80.8002 1.55608 80.5826 1.64756 80.3642 1.59843V1.59928ZM74.9515 1.06903C74.0447 1.0919 73.132 1.17152 72.238 1.30535C71.9448 1.3494 71.6711 1.1478 71.6278 0.855569C71.5844 0.564185 71.785 0.291436 72.0782 0.247389C73.0156 0.10678 73.9734 0.0237691 74.9235 -0.000795291C75.2192 -0.00841871 75.4657 0.225366 75.4733 0.520139C75.4759 0.638725 75.4402 0.749688 75.3765 0.840322C75.2821 0.974156 75.1274 1.0631 74.9507 1.06818L74.9515 1.06903ZM69.5728 1.87203C68.7 2.11428 67.834 2.41244 66.9978 2.75804C66.7241 2.87154 66.4105 2.74194 66.2967 2.46919C66.1828 2.19644 66.312 1.88304 66.5865 1.77038C67.4618 1.40784 68.3703 1.09528 69.2847 0.841169C69.5703 0.762394 69.866 0.928415 69.9451 1.21302C69.9901 1.37396 69.9561 1.53744 69.8669 1.6645C69.798 1.76191 69.6961 1.8373 69.572 1.87203H69.5728ZM64.5528 3.95153C63.7658 4.39792 62.9992 4.89683 62.2752 5.43555C62.0381 5.61174 61.7015 5.56346 61.5247 5.32713C61.348 5.0908 61.3964 4.75622 61.6335 4.57834C62.3933 4.01336 63.1972 3.48989 64.0225 3.02147C64.28 2.87578 64.6072 2.96556 64.7542 3.22222C64.8604 3.40772 64.8426 3.6305 64.727 3.79398C64.6828 3.85666 64.625 3.91087 64.5536 3.95153H64.5528ZM60.1973 7.19063C59.5463 7.81321 58.9259 8.48577 58.3531 9.18882C58.1661 9.41752 57.8279 9.4531 57.5984 9.26675C57.3681 9.08124 57.3367 8.74666 57.5203 8.51457C58.1211 7.77848 58.7712 7.07374 59.4545 6.41982C59.6687 6.21568 60.0078 6.22246 60.2134 6.43507C60.3936 6.62226 60.4097 6.90687 60.2653 7.11271C60.2457 7.14066 60.2236 7.16692 60.1973 7.19148V7.19063ZM54.7548 14.0424C54.4863 13.9179 54.3707 13.5994 54.4956 13.3317C54.8424 12.5906 55.2359 11.8562 55.6642 11.1506C55.7288 11.043 55.7942 10.9371 55.8605 10.8304C56.0101 10.5771 56.3492 10.5043 56.5999 10.6618C56.8506 10.8185 56.9262 11.1489 56.769 11.3988C56.7061 11.4979 56.6449 11.5978 56.5829 11.7003C56.1732 12.3763 55.7976 13.0768 55.467 13.7832C55.4534 13.812 55.4373 13.84 55.4194 13.8645C55.2724 14.0729 54.9928 14.1525 54.754 14.0407L54.7548 14.0424Z" fill="#EDBB0A"/>
</g>
<g opacity="0.3">
<path d="M94.2668 36.6298C93.7195 37.3854 93.1203 38.1139 92.488 38.7957C92.2866 39.0126 91.9475 39.0253 91.73 38.8254C91.5124 38.6246 91.5031 38.2867 91.7002 38.0698C92.3036 37.4201 92.8747 36.7247 93.3965 36.0039C93.5699 35.7642 93.9056 35.7108 94.1452 35.8836C94.3832 36.0555 94.4384 36.3859 94.2702 36.6248C94.2685 36.6265 94.2676 36.629 94.2659 36.6307L94.2668 36.6298ZM95.0427 34.4733C94.7835 34.3301 94.69 34.0048 94.8336 33.7465C95.2654 32.9689 95.6537 32.1583 95.9886 31.335C96.0999 31.0631 96.4126 30.9292 96.688 31.041C96.9625 31.152 97.0942 31.4637 96.9837 31.7373C96.6328 32.5996 96.2257 33.4492 95.7727 34.264C95.7634 34.281 95.7532 34.2971 95.7421 34.3132C95.5866 34.5334 95.2866 34.6062 95.0435 34.4724L95.0427 34.4733ZM90.456 40.7312C89.7413 41.3326 88.9833 41.8959 88.2039 42.405C87.9558 42.5668 87.6235 42.4973 87.4612 42.2508C87.2989 42.0035 87.3677 41.674 87.6158 41.5105C88.3595 41.0252 89.0818 40.4881 89.7643 39.9147C89.9912 39.7241 90.3294 39.7529 90.5198 39.9782C90.6804 40.168 90.6855 40.4365 90.5487 40.6304C90.5232 40.6669 90.4917 40.7016 90.4552 40.7321L90.456 40.7312ZM97.22 29.4587C96.9336 29.3825 96.7645 29.0886 96.841 28.8031C97.0721 27.9451 97.2531 27.065 97.3781 26.1866C97.4197 25.8944 97.6917 25.6911 97.984 25.7317C98.2772 25.7732 98.482 26.0435 98.4404 26.3365C98.3095 27.2581 98.12 28.1822 97.8778 29.081C97.8608 29.1428 97.8336 29.1995 97.7988 29.2495C97.673 29.4283 97.4444 29.518 97.2209 29.4587H97.22ZM85.7657 43.7925C84.9286 44.2041 84.0575 44.5692 83.1762 44.8767C82.8966 44.9741 82.5907 44.8276 82.4921 44.5489C82.3944 44.2702 82.5405 43.9644 82.821 43.867C83.6615 43.5739 84.4926 43.2258 85.2907 42.8328C85.5567 42.7023 85.8779 42.8107 86.0096 43.0759C86.0997 43.2571 86.0768 43.4655 85.9671 43.6205C85.917 43.6908 85.849 43.751 85.7657 43.7925ZM80.4746 45.6433C79.561 45.8432 78.627 45.9897 77.6989 46.0795C77.404 46.1083 77.1423 45.8932 77.1134 45.5992C77.0845 45.3053 77.3004 45.0436 77.5961 45.0156C78.4808 44.9301 79.3714 44.7903 80.2434 44.5997C80.5323 44.5362 80.8187 44.7191 80.8825 45.0071C80.9156 45.1596 80.8808 45.3112 80.7975 45.4298C80.7227 45.5357 80.6105 45.6145 80.4737 45.6441L80.4746 45.6433ZM74.891 46.1786C73.9554 46.1549 73.0129 46.0744 72.0908 45.938C71.7976 45.8948 71.5953 45.6229 71.6387 45.3307C71.682 45.0385 71.9548 44.8369 72.248 44.8801C73.1276 45.0105 74.0259 45.0876 74.9182 45.1088C75.2148 45.1164 75.4485 45.3621 75.4409 45.6568C75.4383 45.7661 75.4026 45.8669 75.344 45.9507C75.2446 46.0922 75.078 46.1828 74.891 46.1786Z" fill="#EDBB0A"/>
<path d="M98.5664 23.817C98.6259 23.7323 98.6616 23.6307 98.6633 23.5197C98.6718 23.0623 98.6659 22.6023 98.6472 22.1526C98.6344 21.8578 98.3846 21.6282 98.0888 21.6401C97.7931 21.6528 97.5628 21.9018 97.5747 22.1966C97.5925 22.6252 97.5976 23.064 97.59 23.5011C97.5849 23.7967 97.8211 24.0398 98.1169 24.0449C98.3013 24.0482 98.4662 23.9576 98.5656 23.817H98.5664Z" fill="#EDBB0A"/>
</g>
<path d="M91.5714 16.4036C91.5399 16.2926 91.4413 16.213 91.3258 16.2062L88.025 16.0148C87.2796 14.6671 86.3125 13.4279 85.1414 12.3581L85.7312 9.11728C85.7516 9.00378 85.6981 8.88943 85.5969 8.83268L82.1389 6.89802C82.0378 6.84127 81.912 6.85482 81.8253 6.9319L79.3565 9.12152C77.8302 8.6819 76.2656 8.50402 74.7231 8.57178L72.8398 5.86293C72.7735 5.76806 72.6546 5.72486 72.5432 5.7562L68.7249 6.82517C68.6135 6.85651 68.5336 6.95477 68.5268 7.06997L68.3348 10.3599C66.9827 11.1028 65.7393 12.0667 64.666 13.2339L61.4144 12.6461C61.3006 12.6258 61.1858 12.6791 61.1289 12.7799L59.187 16.2266C59.13 16.3273 59.1436 16.4527 59.221 16.5391L61.4178 18.9998C60.9768 20.5211 60.7983 22.0805 60.8663 23.6179L58.1485 25.4949C58.0533 25.561 58.0099 25.6796 58.0414 25.7906L59.1139 29.5963C59.1453 29.7073 59.2439 29.7869 59.3595 29.7937L62.6603 29.9851C63.4056 31.3328 64.3719 32.572 65.5439 33.6418L64.9541 36.8826C64.9337 36.9961 64.9872 37.1105 65.0883 37.1672L68.5464 39.1028C68.6475 39.1595 68.7733 39.146 68.86 39.0689L71.3288 36.8793C72.8551 37.3189 74.4197 37.4967 75.9622 37.429L77.8454 40.1378C77.9117 40.2327 78.0307 40.2759 78.142 40.2446L81.9604 39.1756C82.0718 39.1443 82.1516 39.046 82.1584 38.9308L82.3505 35.6409C83.7026 34.898 84.9459 33.9341 86.0193 32.7668L89.2708 33.3547C89.3847 33.375 89.4994 33.3217 89.5564 33.2209L91.4983 29.7742C91.5552 29.6734 91.5416 29.5481 91.4643 29.4617L89.2674 27.001C89.7085 25.4797 89.887 23.9203 89.819 22.3829L92.5368 20.5058C92.632 20.4398 92.6753 20.3212 92.6439 20.2102L91.5714 16.4044V16.4036Z" fill="#909090"/>
<path d="M78.2889 25.782C77.5427 26.5664 76.5357 27.0136 75.4521 27.0424C74.3686 27.0712 73.3385 26.6774 72.5524 25.9337C70.9292 24.3997 70.8612 21.8382 72.4003 20.2152C73.9402 18.5974 76.5136 18.5296 78.1368 20.0636C78.9237 20.8073 79.3725 21.8111 79.4014 22.8911C79.4243 23.7686 79.1677 24.6114 78.6705 25.317C78.5558 25.4788 78.4291 25.6347 78.2898 25.7812L78.2889 25.782ZM73.2901 25.1578C73.8688 25.705 74.6261 25.9946 75.4241 25.9735C76.2212 25.9523 76.9623 25.6228 77.5104 25.0468C78.0586 24.4691 78.3492 23.7152 78.328 22.9199C78.3068 22.1253 77.9762 21.3867 77.3983 20.8404C76.2042 19.7113 74.3108 19.7612 73.1779 20.9513C73.0759 21.0589 72.9833 21.1716 72.9 21.2893C72.0638 22.476 72.2031 24.1311 73.2892 25.1578H73.2901Z" fill="black"/>
<path d="M83.5247 28.8133C83.7202 28.5363 83.902 28.2475 84.072 27.9468C84.4094 27.3488 84.6856 26.716 84.8938 26.0646L84.921 25.9765C84.9916 25.7495 84.9023 25.5115 84.7179 25.3811C84.6729 25.3497 84.6219 25.3243 84.5666 25.3074C84.2836 25.2201 83.9845 25.3794 83.8961 25.6606C83.7074 26.2705 83.4516 26.8634 83.1363 27.4216C83.1193 27.4529 83.1015 27.4834 83.0836 27.5131C82.3256 28.8285 81.2684 29.906 80.0055 30.6793C79.3197 31.0995 78.5735 31.4298 77.7806 31.6594C77.7738 31.6611 77.7678 31.6628 77.761 31.6653C77.7415 31.6704 77.7219 31.6763 77.7015 31.6822C75.3789 32.3328 72.9407 32.0422 70.8365 30.8648C70.5637 30.7124 70.3019 30.548 70.0495 30.371C68.354 29.1835 67.1303 27.464 66.5617 25.4488C65.909 23.1338 66.2005 20.7037 67.3818 18.6072C68.5631 16.5125 70.4931 14.9971 72.8158 14.3466C75.1384 13.696 77.5766 13.9866 79.6808 15.164C79.9485 15.3139 80.2077 15.4765 80.4576 15.651C81.5395 16.4091 82.4429 17.3943 83.0989 18.5395C83.1397 18.6098 83.1933 18.6682 83.2562 18.7114C83.421 18.8266 83.6445 18.8444 83.8307 18.7385C84.0873 18.5911 84.1774 18.2659 84.0304 18.0084C83.2961 16.7268 82.2856 15.6248 81.0754 14.7769C80.7958 14.5812 80.506 14.3991 80.2069 14.2314C77.8528 12.9142 75.1248 12.5898 72.526 13.3174C69.9271 14.045 67.7676 15.7357 66.447 18.0837C65.1255 20.4301 64.7991 23.1482 65.53 25.7385C66.1648 27.9934 67.5348 29.9162 69.4316 31.246C69.7129 31.4434 70.007 31.628 70.3112 31.7983C74.869 34.3479 80.5808 32.9867 83.5239 28.8133H83.5247Z" fill="black"/>
<path d="M164.598 17.8223V230.441C164.598 231.846 164.028 233.114 163.057 233.896C162.321 234.492 161.391 234.87 160.367 234.832L158.031 234.746C155.669 234.657 153.539 232.503 153.539 230.042V18.1831L164.598 17.8231V17.8223Z" fill="black"/>
<path d="M169.045 10.1945C169.045 13.7826 167.216 16.9946 164.461 18.8835C162.911 19.9474 161.068 20.5912 159.096 20.6496C158.117 20.6784 157.169 20.5632 156.277 20.3184C155.605 20.1355 154.964 19.8805 154.361 19.5612C154.209 19.4781 154.056 19.396 153.906 19.3037C151.089 17.6121 149.215 14.4865 149.215 10.8552C149.215 5.2791 153.632 0.600013 159.095 0.399263C164.58 0.197666 169.044 4.58029 169.044 10.1954L169.045 10.1945Z" fill="black"/>
<path d="M164.491 9.82692C164.491 12.6162 163.07 15.1133 160.928 16.5821C159.723 17.4097 158.29 17.9094 156.757 17.9552C155.995 17.9781 155.259 17.8883 154.565 17.6977C154.042 17.5554 153.544 17.3572 153.074 17.109C152.955 17.0446 152.837 16.9802 152.721 16.9082C150.53 15.5936 149.074 13.1634 149.074 10.3394C149.074 6.0042 152.508 2.36613 156.756 2.21027C161.021 2.05357 164.491 5.46124 164.491 9.82607V9.82692Z" fill="url(#paint0_linear_281_1666)"/>
<path d="M84.6592 25.421L85.5082 25.858L101.597 16.0264L180.387 27.6351L191.408 28.8922L190.758 30.9429C190.67 31.1631 178.132 40.2697 178.132 40.2697L187.891 53.0355L187.421 54.3485C187.365 54.5043 187.213 54.5992 187.056 54.5746L176.924 53.0101L98.0894 40.8381C97.8684 40.8042 97.6653 40.6975 97.509 40.534L84.8309 27.3056C84.6643 27.132 84.5776 26.8923 84.5912 26.6458L84.6601 25.421H84.6592Z" fill="black"/>
<path d="M102.485 15.1623L191.406 28.8913C191.489 28.904 191.512 29.0158 191.444 29.0658L178.913 38.202C178.743 38.3257 178.698 38.5671 178.811 38.745L187.772 52.8534C187.816 52.9228 187.76 53.0152 187.68 53.0033L98.702 39.265C98.4479 39.2261 98.2134 39.1058 98.0306 38.9203L84.7696 25.5336C84.7135 25.4768 84.7262 25.3794 84.7951 25.3388L101.682 15.3199C101.926 15.175 102.208 15.12 102.485 15.1623Z" fill="url(#paint1_linear_281_1666)"/>
<path d="M92.3945 108.301L93.2971 108.522L106.222 95.533L183.266 88.4982L193.548 87.2175C193.761 87.1912 193.947 87.3632 193.935 87.5775L193.846 89.2529C193.814 89.4816 184.042 100.974 184.042 100.974L196.191 110.827L196.05 112.177C196.033 112.338 195.911 112.462 195.757 112.476L185.833 113.312L108.617 119.825C108.401 119.843 108.185 119.788 107.999 119.67L92.9886 110.046C92.7914 109.92 92.6546 109.713 92.6112 109.476L92.3945 108.301V108.301Z" fill="black"/>
<path d="M106.862 94.5119L193.699 87.1883C193.877 87.173 193.984 87.3806 193.87 87.5169L184.308 98.8377C184.177 98.9927 184.19 99.235 184.335 99.3756L196.044 110.686C196.101 110.741 196.067 110.839 195.987 110.845L108.837 118.195C108.589 118.216 108.339 118.156 108.124 118.022L92.5267 108.383C92.4595 108.342 92.4485 108.248 92.5054 108.193L106.141 94.8448C106.338 94.6516 106.592 94.5347 106.862 94.5119Z" fill="#EDBB0A"/>
<path opacity="0.56" d="M158.211 97.1106L109.809 100.882C109.63 100.896 109.496 101.052 109.51 101.231L109.684 103.453C109.698 103.632 109.855 103.765 110.034 103.751L158.436 99.9801C158.615 99.9662 158.749 99.81 158.735 99.6314L158.56 97.4088C158.546 97.2301 158.39 97.0967 158.211 97.1106Z" fill="white"/>
<path opacity="0.56" d="M158.47 107.596L110.455 111.336C110.276 111.35 110.118 111.216 110.105 111.038L109.942 108.965C109.929 108.787 110.063 108.629 110.241 108.616L158.256 104.875C158.435 104.861 158.593 104.995 158.606 105.173L158.769 107.247C158.782 107.425 158.648 107.582 158.47 107.596Z" fill="white"/>
<path d="M232.574 64.9214L231.638 65.2924L215.419 54.8271L131.007 61.2825L119.254 61.9517L119.733 63.7847C119.808 64.0032 132.344 73.6197 132.344 73.6197L120.945 85.3581L121.333 86.6541C121.379 86.8083 121.532 86.9082 121.701 86.8946L132.561 85.9951L217.066 78.9985C217.302 78.979 217.526 78.8884 217.707 78.7401L232.236 66.7307C232.426 66.5731 232.538 66.347 232.544 66.1081L232.573 64.9214H232.574Z" fill="url(#paint2_linear_281_1666)"/>
<path d="M214.547 53.9402L119.427 61.8152C119.271 61.8279 119.212 62.0261 119.337 62.1218L131.683 71.5765C131.851 71.7053 131.879 71.9442 131.745 72.1076L121.083 85.1852C121.03 85.2504 121.081 85.347 121.165 85.3394L216.542 77.4432C216.814 77.4203 217.073 77.3187 217.283 77.151L232.442 65.0238C232.505 64.9738 232.499 64.8772 232.431 64.834L215.382 54.1401C215.135 53.9859 214.841 53.9148 214.545 53.9393L214.547 53.9402Z" fill="url(#paint3_linear_281_1666)"/>
<path d="M162.388 37.2326C162.687 35.3975 161.437 33.6684 159.596 33.3706C157.754 33.0727 156.02 34.3188 155.721 36.1539C155.422 37.989 156.672 39.718 158.513 40.0159C160.354 40.3138 162.089 39.0676 162.388 37.2326Z" fill="url(#paint4_linear_281_1666)"/>
<path d="M159.279 38.22C160.423 38.22 161.351 37.2955 161.351 36.1549C161.351 35.0144 160.423 34.0898 159.279 34.0898C158.135 34.0898 157.207 35.0144 157.207 36.1549C157.207 37.2955 158.135 38.22 159.279 38.22Z" fill="url(#paint5_linear_281_1666)"/>
<path d="M161.672 65.0443C162.084 63.3018 161.002 61.5559 159.253 61.1447C157.505 60.7334 155.753 61.8126 155.341 63.555C154.928 65.2974 156.011 67.0433 157.759 67.4546C159.507 67.8659 161.259 66.7867 161.672 65.0443Z" fill="url(#paint6_linear_281_1666)"/>
<path d="M158.735 65.7783C159.837 65.7783 160.731 64.8874 160.731 63.7885C160.731 62.6897 159.837 61.7988 158.735 61.7988C157.632 61.7988 156.738 62.6897 156.738 63.7885C156.738 64.8874 157.632 65.7783 158.735 65.7783Z" fill="#363636"/>
<path d="M161.102 103.923C162.421 102.608 162.421 100.476 161.102 99.1606C159.782 97.8453 157.642 97.8453 156.323 99.1606C155.003 100.476 155.003 102.608 156.323 103.923C157.642 105.239 159.782 105.239 161.102 103.923Z" fill="url(#paint7_linear_281_1666)"/>
<path d="M160.954 101.474C161.217 100.363 160.527 99.25 159.412 98.9878C158.298 98.7256 157.181 99.4137 156.918 100.525C156.655 101.636 157.345 102.749 158.46 103.011C159.574 103.273 160.691 102.585 160.954 101.474Z" fill="url(#paint8_linear_281_1666)"/>
<path d="M163.432 234.504C163.115 234.451 162.835 234.275 162.653 234.011C159.984 230.177 140.649 200.218 168.494 174.285C194.926 149.667 206.705 144.814 208.729 129.918C208.965 128.179 211.346 127.836 212.074 129.434C217.517 141.378 225.706 169.105 195.117 186.158C161.374 204.969 163.389 226.833 164.791 233.073C164.976 233.898 164.268 234.645 163.432 234.504Z" fill="#EDBB0A"/>
<path d="M167.518 235.192C166.767 235.066 166.19 234.468 166.098 233.716C165.471 228.594 164.141 209.485 178.381 204.883C194.058 199.817 206.108 214.602 217.861 203.705C218.48 203.132 219.471 203.681 219.302 204.505C218.098 210.355 213.145 223.834 192.964 225.934C171.363 228.182 168.863 230.565 169.2 233.629C169.303 234.573 168.459 235.35 167.518 235.192V235.192Z" fill="#EDBB0A"/>
<path opacity="0.47" d="M207.322 145.08C207.001 146.149 206.59 147.164 206.119 148.161C205.651 149.156 205.134 150.129 204.578 151.079C204.023 152.029 203.429 152.959 202.787 153.854C202.148 154.751 201.482 155.633 200.774 156.477C197.955 159.874 194.61 162.828 190.965 165.32C189.144 166.564 187.22 167.688 185.293 168.716C183.394 169.734 181.563 170.88 179.805 172.13C176.291 174.63 173.067 177.543 170.232 180.791C167.394 184.038 164.963 187.636 163.032 191.483C161.097 195.328 159.699 199.447 158.947 203.687C158.192 207.928 158.082 212.281 158.575 216.571C159.059 220.866 160.184 225.083 161.721 229.139C161.766 229.256 161.708 229.386 161.591 229.43C161.477 229.473 161.349 229.417 161.302 229.306C159.618 225.271 158.394 221.022 157.804 216.668C157.499 214.493 157.36 212.293 157.381 210.094C157.416 207.895 157.597 205.693 157.961 203.521C158.673 199.172 160.047 194.932 161.977 190.966C163.908 186.997 166.406 183.315 169.287 179.978C172.175 176.642 175.459 173.651 179.046 171.074C180.841 169.788 182.713 168.604 184.659 167.551L186.091 166.771C186.568 166.519 187.032 166.245 187.497 165.971L188.195 165.562L188.879 165.131L189.563 164.7L190.235 164.25C192.023 163.046 193.751 161.752 195.378 160.338C197.006 158.928 198.557 157.423 199.977 155.8C201.414 154.193 202.722 152.471 203.911 150.669C205.087 148.866 206.148 146.955 206.926 144.959L206.931 144.946C206.972 144.84 207.091 144.787 207.198 144.829C207.298 144.868 207.351 144.978 207.32 145.079L207.322 145.08Z" fill="white"/>
<path opacity="0.47" d="M166.87 231.703C166.906 231.524 166.9 231.351 166.898 231.176L166.9 230.651C166.905 230.302 166.914 229.953 166.926 229.604C166.952 228.906 166.993 228.208 167.049 227.511C167.162 226.119 167.332 224.731 167.569 223.352C168.051 220.599 168.78 217.868 169.989 215.322C170.591 214.052 171.327 212.836 172.22 211.737C173.109 210.635 174.183 209.672 175.397 208.924C176.616 208.185 177.979 207.675 179.386 207.439C180.088 207.318 180.8 207.249 181.511 207.247C182.222 207.232 182.933 207.282 183.637 207.364C184.345 207.45 185.029 207.574 185.72 207.69L187.788 208.054C189.165 208.304 190.539 208.568 191.911 208.841C194.655 209.383 197.387 209.977 200.13 210.481C201.501 210.729 202.876 210.952 204.257 211.09C205.637 211.224 207.026 211.273 208.392 211.116C209.757 210.969 211.094 210.583 212.299 209.932C213.51 209.286 214.579 208.394 215.529 207.394C215.599 207.32 215.715 207.317 215.789 207.386C215.862 207.455 215.865 207.57 215.797 207.644C214.84 208.675 213.75 209.609 212.498 210.295C211.252 210.988 209.858 211.406 208.447 211.575C207.034 211.743 205.612 211.694 204.211 211.561C202.81 211.425 201.423 211.204 200.044 210.958C197.286 210.46 194.554 209.873 191.812 209.34C189.075 208.806 186.318 208.292 183.574 207.884C182.891 207.801 182.204 207.746 181.518 207.757C180.831 207.754 180.146 207.815 179.471 207.927C178.119 208.144 176.815 208.622 175.641 209.321C174.472 210.029 173.431 210.948 172.56 212.012C171.686 213.073 170.958 214.254 170.356 215.497C169.144 217.984 168.393 220.681 167.889 223.407C167.64 224.772 167.457 226.15 167.331 227.533C167.268 228.225 167.222 228.918 167.189 229.612C167.172 229.959 167.16 230.306 167.153 230.653L167.145 231.174C167.143 231.347 167.139 231.522 167.183 231.692C167.205 231.777 167.153 231.863 167.067 231.886C166.981 231.908 166.894 231.856 166.872 231.77C166.866 231.747 166.866 231.722 166.87 231.7V231.703Z" fill="white"/>
<path d="M100.707 29.9785L101.672 24.0557L103.119 24.2899L102.155 30.2127L100.707 29.9785Z" fill="white"/>
<path d="M108.037 25.0854L109.484 25.3196L108.52 31.2425L107.072 31.0083L105.246 26.9633L104.651 30.6166L103.204 30.3824L104.168 24.4596L105.616 24.6938L107.439 28.7556L108.037 25.0854Z" fill="white"/>
<path d="M110.024 26.5932L110.212 25.4374L114.808 26.181L114.62 27.3369L113.046 27.0822L112.269 31.8491L110.822 31.6149L111.598 26.848L110.024 26.5932Z" fill="white"/>
<path d="M119.175 26.8875L118.987 28.0433L116.794 27.6886L116.599 28.8867L118.537 29.2003L118.356 30.314L116.418 30.0004L116.206 31.2997L118.398 31.6544L118.21 32.8103L114.57 32.2214L115.535 26.2985L119.175 26.8875Z" fill="white"/>
<path d="M122.942 29.4713C123.013 29.0325 122.806 28.7046 122.264 28.6169L121.367 28.4718L121.128 29.9398L122.025 30.085C122.567 30.1726 122.866 29.9353 122.942 29.4713ZM120.115 27.0395L122.544 27.4325C124 27.6681 124.592 28.6212 124.424 29.6505C124.303 30.393 123.783 31.0275 122.825 31.1496L123.814 33.717L122.18 33.4526L121.309 31.0169L120.962 30.9607L120.597 33.1965L119.15 32.9623L120.115 27.0395Z" fill="white"/>
<path d="M129.505 28.5588L130.953 28.793L129.988 34.7158L128.541 34.4816L126.715 30.4367L126.12 34.0899L124.672 33.8558L125.637 27.9329L127.084 28.1671L128.907 32.2289L129.505 28.5588Z" fill="white"/>
<path d="M135.642 33.8207C135.48 34.8163 134.566 35.5171 133.178 35.2925C131.9 35.0857 131.004 34.2913 131.157 33.0864L132.697 33.3357C132.665 33.7981 132.917 34.064 133.324 34.1298C133.747 34.1983 134.052 34.0312 134.109 33.6852C134.287 32.5884 131.22 32.6983 131.579 30.6002C131.762 29.4781 132.786 29.003 134.03 29.2043C135.326 29.4138 136.093 30.1961 135.968 31.3363L134.402 31.0829C134.439 30.6991 134.205 30.4275 133.817 30.3561C133.471 30.2915 133.18 30.4262 133.119 30.7975C132.952 31.8268 135.965 31.838 135.642 33.8207Z" fill="white"/>
<path d="M139.945 36.3267L140.342 33.8883L138.09 33.524L137.693 35.9624L136.245 35.7282L137.21 29.8053L138.657 30.0395L138.28 32.3597L140.531 32.724L140.909 30.4038L142.357 30.638L141.392 36.5609L139.945 36.3267Z" fill="white"/>
<path d="M142.437 36.7299L143.402 30.8071L144.849 31.0412L143.885 36.9641L142.437 36.7299Z" fill="white"/>
<path d="M146.914 34.0944L147.701 34.2218C148.277 34.3149 148.569 34.0678 148.644 33.6122C148.718 33.1566 148.519 32.83 147.943 32.7368L147.156 32.6095L146.914 34.0944ZM150.116 33.8505C149.957 34.8292 149.14 35.6322 147.625 35.387L146.727 35.2419L146.381 37.368L144.934 37.1338L145.898 31.211L148.243 31.5903C149.699 31.8259 150.294 32.7621 150.116 33.8505Z" fill="white"/>
<path d="M154.82 36.9236C154.658 37.9191 153.745 38.62 152.356 38.3954C151.078 38.1886 150.182 37.3942 150.335 36.1893L151.876 36.4385C151.844 36.901 152.096 37.1669 152.502 37.2326C152.926 37.3011 153.231 37.134 153.287 36.7881C153.466 35.6913 150.398 35.8012 150.757 33.703C150.94 32.5809 151.965 32.1058 153.209 32.3072C154.504 32.5167 155.272 33.299 155.147 34.4391L153.581 34.1858C153.617 33.802 153.383 33.5304 152.995 33.4589C152.65 33.3944 152.358 33.5291 152.298 33.9003C152.13 34.9296 155.143 34.9408 154.82 36.9236Z" fill="white"/>
<path d="M145.483 77.0411L144.977 70.5876L149.192 70.2592L149.29 71.5186L146.653 71.7242L146.759 73.0847L148.733 72.9309L148.829 74.1536L146.855 74.3074L147.06 76.9182L145.483 77.0411Z" fill="white"/>
<path d="M153.607 72.024C153.569 71.546 153.268 71.255 152.678 71.301L151.7 71.3771L151.826 72.9767L152.803 72.9005C153.394 72.8545 153.646 72.5296 153.607 72.024ZM150.021 70.1946L152.668 69.9884C154.254 69.8648 155.119 70.7131 155.207 71.8346C155.27 72.6436 154.887 73.4411 153.914 73.8129L155.609 76.2521L153.829 76.3908L152.291 74.0596L151.913 74.089L152.104 76.5252L150.527 76.648L150.021 70.1946Z" fill="white"/>
<path d="M160.003 69.4168L160.102 70.6762L157.713 70.8624L157.816 72.1678L159.928 72.0032L160.023 73.2166L157.911 73.3812L158.022 74.7969L160.411 74.6108L160.51 75.8702L156.544 76.1792L156.037 69.7258L160.003 69.4168Z" fill="white"/>
<path d="M164.993 69.028L165.092 70.2874L162.703 70.4736L162.806 71.7789L164.918 71.6144L165.013 72.8278L162.901 72.9924L163.012 74.4081L165.401 74.222L165.5 75.4814L161.533 75.7904L161.027 69.337L164.993 69.028Z" fill="white"/>
<path d="M166.017 68.9482L167.594 68.8253L168.005 74.0653L170.071 73.9043L170.167 75.1178L166.523 75.4016L166.017 68.9482Z" fill="white"/>
<path d="M175.337 74.7149L174.86 73.6052L172.444 73.7935L172.146 74.9636L170.495 75.0922L172.331 68.4562L174.157 68.314L177.006 74.5848L175.337 74.7149ZM174.359 72.4233L173.371 70.1233L172.763 72.5477L174.359 72.4233Z" fill="white"/>
<path d="M181.428 67.7474L183.005 67.6245L183.512 74.078L181.934 74.2009L178.984 70.4259L179.297 74.4064L177.719 74.5293L177.213 68.0759L178.79 67.953L181.742 71.7464L181.428 67.7474Z" fill="white"/>
<path d="M184.134 70.7738C183.982 68.8433 185.222 67.3778 187.131 67.2291C188.672 67.1091 189.901 67.8826 190.38 69.2512L188.646 69.3863C188.335 68.8556 187.825 68.6179 187.225 68.6646C186.257 68.7401 185.649 69.5089 185.738 70.6488C185.828 71.7887 186.548 72.454 187.517 72.3785C188.116 72.3318 188.583 72.018 188.808 71.4455L190.542 71.3104C190.282 72.7365 189.187 73.682 187.647 73.802C185.738 73.9508 184.285 72.7043 184.134 70.7738Z" fill="white"/>
<path d="M191.68 73.4415L191.174 66.9881L192.751 66.8652L193.258 73.3186L191.68 73.4415Z" fill="white"/>
<path d="M198.109 66.4477L199.687 66.3248L200.193 72.7782L198.616 72.9011L195.666 69.1261L195.978 73.1066L194.401 73.2295L193.894 66.7761L195.472 66.6532L198.423 70.4466L198.109 66.4477Z" fill="white"/>
<path d="M203.849 65.9265C205.399 65.8057 206.586 66.5086 207.031 67.8058L205.288 67.9416C205.014 67.5283 204.554 67.3329 203.963 67.3789C202.949 67.458 202.332 68.2275 202.42 69.349C202.513 70.5441 203.251 71.1896 204.385 71.1012C205.169 71.0401 205.681 70.584 205.864 69.8391L203.862 69.995L203.771 68.8367L207.203 68.5694L207.317 70.0311C207.072 71.1693 206.081 72.3657 204.374 72.4987C202.437 72.6496 200.966 71.4046 200.815 69.4741C200.663 67.5436 201.913 66.0774 203.849 65.9265Z" fill="white"/>
<path d="M86.5303 127.239C59.7507 126.543 30.1274 133.713 30.1274 133.713C23.0745 172.502 26.1773 216.376 27.3782 229.665C27.6034 232.153 29.4705 234.173 31.9359 234.626C45.774 237.161 60.3677 235.623 67.7095 234.509C70.5659 234.075 72.8494 231.926 73.4562 229.111C78.3072 206.605 92.1665 156.952 92.1665 156.952C105.269 155.458 116.085 151.797 125.01 146.906C118.313 139.019 115.216 129.033 113.886 123.135C104.388 125.978 94.7908 127.454 86.5312 127.239H86.5303Z" fill="#171717"/>
<path d="M166.022 88.6706C163.421 85.478 160.979 85.6161 160.979 85.6161C156.878 102.172 135.181 116.759 113.887 123.134C115.217 129.032 118.314 139.017 125.01 146.906C160.436 127.494 166.022 88.6706 166.022 88.6706Z" fill="#FFA083"/>
<path d="M165.375 89.4698C165.642 90.3448 162.441 91.6425 160.598 88.0569C160.548 86.3467 159.575 79.0113 160.614 77.6281C166.145 70.2613 176.819 61.0615 176.819 61.0615C178.591 62.8378 177.101 64.5522 177.101 64.5522L171.915 69.8352C172.971 71.7801 174.265 73.425 174.856 75.7713C175.304 77.5476 175.002 79.4391 174.088 81.0425C173.171 82.6528 171.921 84.745 170.743 86.3798C168.513 89.4749 165.375 89.4689 165.375 89.4689V89.4698Z" fill="#FFA083"/>
<path d="M169.634 73.2734L164.917 77.1826L163.41 81.1052L167.538 85.7581C167.538 85.7581 169.016 77.961 170.074 76.2805C171.133 74.5999 170.6 73.7774 169.634 73.2743L169.634 73.2734Z" fill="url(#paint9_linear_281_1666)"/>
<path d="M40.1537 159.659L30.1281 133.712C30.1281 133.712 4.94869 150.417 0.628906 171.858C5.35237 172.25 13.9427 173.557 22.3213 177.874C24.2683 167.749 40.1537 159.659 40.1537 159.659Z" fill="#171717"/>
<path d="M61.782 184.19C61.782 184.19 33.5424 199.744 24.194 186.144C22.2529 183.32 21.8093 180.528 22.3201 177.874C13.9414 173.557 5.35112 172.25 0.627653 171.857C-0.674317 178.321 -0.0845211 185.215 3.66587 192.212C19.977 222.638 65.433 191.126 65.433 191.126L61.782 184.188V184.19Z" fill="#FFB29B"/>
<path d="M59.6071 105.308L50.8494 129.791C50.7041 130.196 50.8681 130.649 51.2438 130.86C53.5545 132.162 61.8881 135.943 72.0353 129.664C73.0926 129.011 73.8183 127.935 73.9891 126.707L76.9526 105.473L59.6063 105.308H59.6071Z" fill="#FFB29B"/>
<path d="M78.3706 82.7373C78.3706 82.7373 87.5609 100.384 86.2937 107.465C85.0266 114.546 73.433 113.926 63.3605 108.07L56.4648 89.0444L78.3706 82.7373Z" fill="#FFB29B"/>
<path d="M63.8959 98.7647C64.3089 98.5868 64.4661 98.0862 64.2231 97.7084C63.4837 96.5598 62.101 94.2177 61.6718 92.1738C61.6718 92.1738 60.0002 91.0836 65.9771 89.7182C71.955 88.3519 80.8699 86.2284 82.788 81.1859C84.6577 76.2696 79.9878 63.818 72.2524 73.6302C71.9584 74.0038 71.389 74.0063 71.1017 73.6269C69.8652 71.9904 66.6043 68.5861 62.0126 70.5877C57.7158 72.4605 57.2041 75.5801 57.2475 77.1557C57.2602 77.619 56.8413 77.9756 56.3849 77.8841C54.2254 77.4521 49.0388 77.0498 46.5649 82.3345C44.5278 86.6866 45.8009 89.1744 46.9702 90.395C47.3493 90.7906 47.1751 91.4352 46.649 91.5902C45.223 92.0103 43.3762 93.1945 43.5284 96.5158C43.7383 101.108 48.8901 100.752 50.3577 100.557C50.5983 100.525 50.8396 100.61 51.0002 100.791C52.2436 102.189 57.8492 108.129 63.9715 108.896C64.5018 108.963 64.9182 108.445 64.7491 107.939L62.1707 100.23C62.0508 99.8718 62.2259 99.4821 62.5735 99.3322L63.8942 98.7638L63.8959 98.7647Z" fill="url(#paint10_linear_281_1666)"/>
<path d="M64.9503 99.8645C64.9503 99.8645 58.3308 95.2447 57.8073 99.0776C57.2838 102.91 63.7545 104.693 66.9814 103.293L64.9511 99.8645H64.9503Z" fill="#FFA083"/>
<path d="M56.0116 208.772L71.3948 155.228C71.5698 154.62 72.0899 154.177 72.7197 154.104C75.5072 153.78 83.5833 152.87 92.9079 152.084C104.139 151.137 117.184 150.369 124.978 151.022C126.086 151.115 126.756 152.284 126.263 153.277C121.831 162.215 103.598 198.571 94.4682 210.482C94.1656 210.876 93.6982 211.107 93.1994 211.103L57.5073 210.771C56.4688 210.762 55.7252 209.769 56.0108 208.773L56.0116 208.772Z" fill="url(#paint11_linear_281_1666)"/>
<path d="M59.7261 195.835C59.7261 195.835 57.5828 187.053 58.4479 183.937C59.3122 180.821 60.9873 176.815 66.5691 177.705C72.1517 178.595 78.7364 180.939 78.7364 180.939C78.7364 180.939 78.4041 184.997 74.1608 183.689L76.7919 185.717C76.7919 185.717 76.4154 188.967 72.8325 187.231L75.2792 189.922C75.2792 189.922 73.7401 192.591 71.103 190.879C68.4668 189.167 67.2022 196.893 59.7252 195.835H59.7261Z" fill="#FFB29B"/>
<path d="M91.8828 168.067C91.8828 170.553 93.9046 172.567 96.3989 172.567C98.8932 172.567 100.914 170.552 100.914 168.067C100.914 165.581 98.8924 163.565 96.3989 163.565C93.9055 163.565 91.8828 165.581 91.8828 168.067Z" fill="#EDBB0A"/>
<path d="M73.1359 171.034L76.2676 160.444C76.6517 159.144 77.7013 158.167 79.005 157.895C88.8216 155.854 115.69 155.421 115.961 155.417L115.943 154.221C114.835 154.238 88.6882 154.66 78.7602 156.725C77.0231 157.085 75.6268 158.381 75.1161 160.105L71.9844 170.695L73.1359 171.034Z" fill="white"/>
<defs>
<linearGradient id="paint0_linear_281_1666" x1="147.686" y1="-5.09466" x2="166.592" y2="26.6585" gradientUnits="userSpaceOnUse">
<stop stop-color="#EDBB0A"/>
<stop offset="1" stop-color="#EDBB0A"/>
</linearGradient>
<linearGradient id="paint1_linear_281_1666" x1="142.658" y1="15.5699" x2="138.361" y2="77.3785" gradientUnits="userSpaceOnUse">
<stop stop-color="#EDBB0A"/>
<stop offset="1" stop-color="#EDBB0A"/>
</linearGradient>
<linearGradient id="paint2_linear_281_1666" x1="174.682" y1="-75.2335" x2="175.248" y2="-11.107" gradientUnits="userSpaceOnUse">
<stop stop-color="#EDBB0A"/>
<stop offset="1"/>
</linearGradient>
<linearGradient id="paint3_linear_281_1666" x1="233.457" y1="19.3095" x2="338.53" y2="-62.1778" gradientUnits="userSpaceOnUse">
<stop stop-color="#EDBB0A"/>
<stop offset="1" stop-color="#5E5C46"/>
</linearGradient>
<linearGradient id="paint4_linear_281_1666" x1="161.198" y1="26.845" x2="151.436" y2="71.9916" gradientUnits="userSpaceOnUse">
<stop stop-color="#282828"/>
<stop offset="1" stop-color="#C47C41"/>
</linearGradient>
<linearGradient id="paint5_linear_281_1666" x1="159.109" y1="28.4511" x2="159.327" y2="38.3827" gradientUnits="userSpaceOnUse">
<stop/>
<stop offset="1"/>
</linearGradient>
<linearGradient id="paint6_linear_281_1666" x1="160.566" y1="54.8288" x2="151.163" y2="98.3129" gradientUnits="userSpaceOnUse">
<stop/>
<stop offset="1" stop-color="#C47C41"/>
</linearGradient>
<linearGradient id="paint7_linear_281_1666" x1="160.855" y1="91.6949" x2="151.087" y2="136.869" gradientUnits="userSpaceOnUse">
<stop stop-color="#4F4F4F"/>
<stop offset="1"/>
</linearGradient>
<linearGradient id="paint8_linear_281_1666" x1="158.762" y1="93.2978" x2="158.98" y2="103.235" gradientUnits="userSpaceOnUse">
<stop stop-color="#AC713D"/>
<stop offset="1" stop-color="#C47C41"/>
</linearGradient>
<linearGradient id="paint9_linear_281_1666" x1="165.792" y1="81.9748" x2="180.438" y2="59.8409" gradientUnits="userSpaceOnUse">
<stop stop-color="#F2C82E"/>
<stop offset="1" stop-color="#D7AC00"/>
</linearGradient>
<linearGradient id="paint10_linear_281_1666" x1="39.9058" y1="67.0236" x2="76.3501" y2="96.4709" gradientUnits="userSpaceOnUse">
<stop stop-color="#383838"/>
<stop offset="1"/>
</linearGradient>
<linearGradient id="paint11_linear_281_1666" x1="83.0309" y1="147.016" x2="118.978" y2="297.292" gradientUnits="userSpaceOnUse">
<stop stop-color="#464646"/>
<stop offset="1"/>
</linearGradient>
</defs>
</svg>
