<svg width="147" height="155" viewBox="0 0 147 155" fill="none" xmlns="http://www.w3.org/2000/svg">
<path d="M63.4823 0.5H135.509H135.511C141.29 0.5 146.002 5.14001 146.002 10.8584V64.2228C146.002 69.9411 141.29 74.5812 135.511 74.5812H80.3868L71.5179 82.3252L63.4823 0.5ZM63.4823 0.5C57.7035 0.5 52.9915 5.14001 52.9915 10.8584M63.4823 0.5L52.9915 10.8584M52.9915 10.8584V61.1679M52.9915 10.8584V61.1679M52.9915 61.1679C50.4801 60.1581 47.7346 59.6022 44.8624 59.6022C32.9493 59.6022 23.2461 69.1673 23.2461 80.9387C23.2461 92.7102 32.9493 102.275 44.8624 102.275C56.7756 102.275 66.4788 92.7102 66.4788 80.9387C66.4788 78.7272 66.1359 76.5905 65.4989 74.5812H66.9615V80.2935C66.9615 81.3609 67.5977 82.3313 68.5811 82.7673C68.9415 82.9279 69.3238 83.0047 69.7024 83.0047C70.3577 83.0047 71.0067 82.7724 71.5174 82.3256L52.9915 61.1679ZM27.4251 80.9387C27.4251 90.4152 35.2407 98.1367 44.8608 98.1367C54.4809 98.1367 62.2965 90.4152 62.2965 80.9387C62.2965 78.4889 61.7755 76.1577 60.8368 74.049C59.3 70.5971 56.6465 67.7344 53.328 65.9067L27.4251 80.9387ZM27.4251 80.9387C27.4251 71.4623 35.2407 63.7407 44.8608 63.7407M27.4251 80.9387L44.8608 63.7407M44.8608 63.7407C47.9314 63.7407 50.8191 64.5279 53.3277 65.9065L44.8608 63.7407ZM141.819 63.7244H141.818V64.2244C141.818 67.6462 138.993 70.4427 135.509 70.4427H78.9922H78.8046L78.6633 70.5661L71.1422 77.1344V70.9427V70.4427H70.6422H63.6766C62.0698 67.6439 59.8376 65.2389 57.1739 63.4086V10.8584C57.1739 7.43499 59.9983 4.6385 63.484 4.6385H135.511C138.995 4.6385 141.819 7.43491 141.819 10.8584V63.7244Z" fill="black" stroke="black"/>
<path d="M115.319 47.1504C116.163 46.8501 117.093 46.9696 117.983 47.0624C118.874 47.1553 119.824 47.2117 120.623 46.807C121.514 46.3541 122.04 45.4086 122.331 44.4614C122.622 43.5142 122.731 42.5173 123.067 41.585C123.304 40.9314 123.797 40.2281 124.501 40.2546C125.116 40.2779 125.543 40.8452 125.865 41.3644C126.572 42.5106 127.221 43.7033 128.102 44.7252C128.983 45.747 130.14 46.6046 131.478 46.8402C132.32 46.9878 133.194 46.8833 134.035 47.0409C134.875 47.1985 135.748 47.7392 135.869 48.5753C135.983 49.3699 135.393 50.0832 134.805 50.6389C134.068 51.3339 133.271 51.9709 132.604 52.7307C131.937 53.4904 131.395 54.4027 131.294 55.403C131.187 56.4796 131.592 57.5313 131.898 58.5697C132.204 59.6081 132.401 60.7693 131.91 61.7381C129.639 61.831 128.147 58.8484 125.875 58.9446C124.834 58.9877 123.96 59.6828 123.109 60.2766C122.085 60.9916 120.986 61.6004 119.836 62.0897C119.322 62.3087 118.718 62.5028 118.217 62.2523C117.63 61.9604 117.474 61.2039 117.496 60.5553C117.54 59.2764 117.997 58.0522 118.306 56.8097C118.616 55.5672 118.765 54.207 118.221 53.0458C117.59 51.7005 116.218 50.9491 115.097 50.0533C114.641 49.6884 113.971 49.3085 113.957 48.7014C113.942 48.0063 114.726 47.3627 115.319 47.152V47.1504Z" fill="#EDBB0A"/>
<path d="M135.539 45.5442H129.452L127.608 39.6537C127.238 38.4743 126.149 37.6813 124.898 37.6797H124.896C123.646 37.6797 122.555 38.4709 122.183 39.6537L120.339 45.5442H114.253C113.016 45.5442 111.96 46.2923 111.565 47.4485C111.168 48.6047 111.548 49.8306 112.532 50.5704L117.577 54.3724L115.674 60.4504C115.307 61.6198 115.746 62.8756 116.763 63.5739C117.254 63.9107 117.821 64.0799 118.387 64.0799C118.994 64.0799 119.601 63.8875 120.11 63.5026L124.9 59.8913L129.689 63.5026C130.674 64.2441 132.019 64.2723 133.036 63.5723C134.052 62.8723 134.489 61.6182 134.124 60.4487L132.221 54.3708L137.264 50.5688C138.248 49.8289 138.628 48.603 138.231 47.4452C137.834 46.289 136.78 45.5409 135.543 45.5409L135.539 45.5442ZM130.098 52.0202C129.156 52.7302 128.758 53.9561 129.107 55.0741L130.765 60.3674L126.618 57.2405C126.11 56.859 125.503 56.6682 124.896 56.6682C124.289 56.6682 123.681 56.859 123.173 57.2422L119.028 60.3674L120.683 55.0758C121.033 53.9594 120.636 52.7335 119.695 52.0219L115.265 48.6827H120.591C121.843 48.6827 122.933 47.8897 123.303 46.7087L124.896 41.6211L126.488 46.707C126.856 47.8881 127.948 48.681 129.2 48.681H134.526L130.098 52.0186V52.0202Z" fill="black"/>
<path d="M67.9927 16.5379H130.995C131.873 16.5379 132.586 15.8346 132.586 14.9687C132.586 14.1028 131.873 13.3994 130.995 13.3994H67.9927C67.1151 13.3994 66.4023 14.1028 66.4023 14.9687C66.4023 15.8346 67.1151 16.5379 67.9927 16.5379Z" fill="black"/>
<path d="M67.9927 31.3387H130.995C131.873 31.3387 132.586 30.6353 132.586 29.7694C132.586 28.9035 131.873 28.2002 130.995 28.2002H67.9927C67.1151 28.2002 66.4023 28.9035 66.4023 29.7694C66.4023 30.6353 67.1151 31.3387 67.9927 31.3387Z" fill="black"/>
<path d="M106.376 42.583H67.9927C67.1151 42.583 66.4023 43.2864 66.4023 44.1523C66.4023 45.0182 67.1151 45.7215 67.9927 45.7215H106.376C107.253 45.7215 107.966 45.0182 107.966 44.1523C107.966 43.2864 107.253 42.583 106.376 42.583Z" fill="black"/>
<path d="M106.376 56.9688H67.9927C67.1151 56.9688 66.4023 57.6721 66.4023 58.538C66.4023 59.4039 67.1151 60.1072 67.9927 60.1072H106.376C107.253 60.1072 107.966 59.4039 107.966 58.538C107.966 57.6721 107.253 56.9688 106.376 56.9688Z" fill="black"/>
<path d="M61.9338 107.606L61.9337 107.606C56.5245 105.349 50.7803 104.205 44.8629 104.205C38.9456 104.205 33.1997 105.349 27.7921 107.606C22.5686 109.786 17.8783 112.907 13.8519 116.88C9.82355 120.853 6.6614 125.484 4.45195 130.638L4.45192 130.638C2.16401 135.977 1.00391 141.648 1.00391 147.489V153.999V154.499H1.50391H88.227H88.727V153.999V147.489C88.727 141.646 87.5669 135.976 85.279 130.638C83.0695 125.482 79.9056 120.853 75.8791 116.88L75.7331 116.736H75.7274C71.7322 112.83 67.0923 109.759 61.9338 107.606ZM84.5413 150.36H5.18119V147.489C5.18119 125.91 22.9758 108.342 44.8613 108.342C66.7467 108.342 84.5413 125.91 84.5413 147.489V150.36Z" fill="black" stroke="black"/>
</svg>
