<svg width="315" height="211" viewBox="0 0 315 211" fill="none" xmlns="http://www.w3.org/2000/svg">
<path d="M6.82011 150.801C0.534465 136.629 -3.95887 119.029 5.19112 106.504C15.5597 92.3114 38.018 92.3156 49.4335 78.9466C55.8783 71.3986 57.545 61.0404 60.9998 51.7444C67.2561 34.9129 80.0536 20.8038 95.6777 11.9259C111.306 3.04811 129.61 -0.71963 147.567 0.112535C154.983 0.455437 162.471 1.59287 169.238 4.64972C187.747 13.0132 196.964 33.3281 207.203 50.8495C219.674 72.1931 235.771 91.4207 254.59 107.466C262.61 114.303 271.42 120.71 281.659 123.231C286.542 124.431 291.71 124.741 296.257 126.89C302.911 130.039 307.221 136.671 310.169 143.408C316.425 157.705 316.974 176.774 304.838 186.601C299.553 190.879 292.723 192.677 286.077 194.128C241.047 203.951 194.443 202.847 148.547 207.079C125.515 209.204 102.34 212.683 79.3626 210.061C66.0166 208.539 52.7292 204.717 41.0876 197.925C30.765 191.904 23.9811 184.778 18.7591 174.294C14.8353 166.416 10.3964 158.868 6.82011 150.801Z" fill="white"/>
<path d="M231.726 190.431H52.7418C51.4939 190.431 50.4805 189.419 50.4805 188.173C50.4805 186.927 51.4939 185.915 52.7418 185.915H231.726C232.974 185.915 233.987 186.927 233.987 188.173C233.987 189.419 232.974 190.431 231.726 190.431Z" fill="black"/>
<path d="M196.998 176.838C197.923 180.204 198.258 184.256 197.132 185.707C196.005 187.158 184.967 187.907 183.375 186.268C181.78 184.629 188.622 184.286 189.234 181.731C189.845 179.176 191.524 174.776 191.524 174.776L196.998 176.834V176.838Z" fill="#EDBB0A"/>
<path d="M178.349 176.838C179.275 180.204 179.61 184.256 178.483 185.707C177.357 187.158 166.318 187.907 164.727 186.268C163.131 184.629 169.974 184.286 170.585 181.731C171.197 179.176 172.876 174.776 172.876 174.776L178.349 176.834V176.838Z" fill="#EDBB0A"/>
<path d="M198.224 97.6776C200.657 109.073 199.397 178.715 199.397 178.715H189.254L182.592 95.6494L198.224 97.6776Z" fill="#464646"/>
<path d="M173.676 97.6776L169.777 178.715H179.438C179.438 178.715 188.056 125.223 188.58 124.595C189.103 123.968 182.587 95.6494 182.587 95.6494L173.672 97.6776H173.676Z" fill="#464646"/>
<path opacity="0.47" d="M184.166 118.51C180.213 135.467 183.965 150.993 183.965 150.993L186.172 137.829L184.166 118.51Z" fill="#292929"/>
<path d="M183.057 97.6772V111.736L184.342 112.464V97.418" stroke="white" stroke-miterlimit="10"/>
<path opacity="0.47" d="M173.611 100.429C183.059 100.45 199.118 106.864 199.118 106.864C199.118 106.864 199.24 100.295 198.226 97.6771C197.213 95.0594 173.678 97.6771 173.678 97.6771L173.616 100.425L173.611 100.429Z" fill="#292929"/>
<path d="M153.703 73.1834C152.941 70.7538 152.707 68.8804 151.643 68.4246C150.709 68.0232 151.635 70.3315 151.635 70.3315C151.635 70.3315 148.276 67.6343 146.903 67.8935C145.529 68.1528 147.824 69.0142 147.824 69.0142C147.824 69.0142 145.676 68.0064 145.29 68.6044C145.081 68.9306 146.986 70.0388 146.986 70.0388C146.986 70.0388 145.399 69.3822 145.127 69.7711C144.855 70.16 146.702 71.7198 146.702 71.7198C146.702 71.7198 145.428 70.9504 145.32 71.4146C145.215 71.8746 152.141 75.935 152.141 75.935L153.699 73.1876L153.703 73.1834Z" fill="#FFA083"/>
<path d="M148.998 71.3428C150.702 71.6146 151.741 72.6349 151.741 72.6349" stroke="#E56A85" stroke-miterlimit="10" stroke-linecap="round"/>
<path d="M200.813 79.2659L198.225 97.6781H173.673L173.573 81.4404C173.573 81.4404 169.942 87.228 166.349 87.1276C163.991 87.0607 158.15 82.7661 154.393 79.8054C154.393 79.8054 154.391 79.8054 154.385 79.8054C152.404 78.2372 151.01 77.0538 151.01 77.0538L153.585 71.4586L165.671 75.7324C169.138 70.4843 175.855 63.5468 181.085 64.0653L186.693 63.2959L200.818 79.2743L200.813 79.2659Z" fill="#EDBB0A"/>
<path opacity="0.36" d="M192.309 71.9893C195.416 80.7542 188.511 80.428 184.998 82.5941C181.484 84.7603 180.374 93.4332 177.012 93.6172C173.649 93.8012 173.611 87.5035 173.611 87.5035L173.674 97.6777H198.222L200.81 79.2655L192.305 71.9893H192.309Z" fill="black"/>
<path d="M185.23 91.7314H181.909C181.536 91.7314 181.226 91.447 181.193 91.0749L180.447 82.749H186.695L185.95 91.0749C185.916 91.447 185.606 91.7314 185.234 91.7314H185.23Z" fill="white"/>
<path d="M186.662 82.5947C186.662 83.0464 185.276 83.4102 183.567 83.4102C181.859 83.4102 180.473 83.0464 180.473 82.5947C180.473 82.1431 181.859 81.7793 183.567 81.7793C185.276 81.7793 186.662 82.1431 186.662 82.5947Z" fill="#999999"/>
<path d="M187.537 90.7579H184.342V84.2637H187.537C188.337 84.2637 188.986 84.9118 188.986 85.7106V89.3152C188.986 90.1139 188.337 90.7621 187.537 90.7621V90.7579ZM185.146 89.955H187.537C187.893 89.955 188.178 89.6665 188.178 89.3152V85.7106C188.178 85.3551 187.889 85.0707 187.537 85.0707H185.146V89.9592V89.955Z" fill="white"/>
<path d="M193.046 83.4213C192.011 83.5008 190.604 83.1621 189.817 82.8275C189.03 82.4888 187.451 83.3879 187.17 83.8395C186.89 84.2911 188.632 84.3998 188.632 84.3998C188.632 84.3998 186.266 85.186 186.379 85.8593C186.492 86.5325 187.505 86.5325 187.505 86.5325C187.505 86.5325 187.899 89.2883 189.026 89.903C190.152 90.5219 193.079 89.2297 193.414 88.8367C193.753 88.4436 194.369 87.2643 195.273 87.0385C196.174 86.8127 193.041 83.4171 193.041 83.4171L193.046 83.4213Z" fill="#FFA083"/>
<path d="M186.688 63.2866C190.314 62.4294 198.727 63.4455 202.651 68.8985C206.575 74.3515 213.091 83.4259 211.897 85.6422C210.704 87.8585 194.87 88.4941 194.87 88.4941L192.789 82.7024L197.144 79.4658L186.688 63.2866Z" fill="#EDBB0A"/>
<path d="M182.643 63.5159C179.632 64.139 180.737 69.1989 180.737 69.1989L184.87 66.7818L189.456 67.5722C189.456 67.5722 189.18 63.7919 186.688 63.2901C184.196 62.7883 182.647 63.5201 182.647 63.5201L182.643 63.5159Z" fill="black"/>
<path d="M195.811 54.0451C194.802 59.657 186.975 61.6642 186.975 61.6642L182.49 55.7638L179.153 51.3729C179.153 51.3729 176.129 52.1466 175.275 50.6788C174.425 49.2068 176.205 48.2032 176.205 48.2032C176.205 48.2032 172.406 46.1876 173.336 43.482C174.249 40.8224 178.973 42.6373 179.144 42.7042C179.006 42.5327 175.455 38.1001 177.624 35.9758C179.839 33.8055 185.656 36.7494 187.741 41.7759C187.741 41.7759 187.821 39.0703 189.446 39.1455C191.075 39.225 193.072 43.7915 192.616 45.2592C192.616 45.2592 196.808 48.429 195.803 54.0451H195.811Z" fill="#212121"/>
<path d="M195.811 54.0449C194.802 59.6568 186.975 61.664 186.975 61.664L182.49 55.7636C182.783 54.0407 182.741 50.8793 184.898 49.3112C187.356 47.5297 190.158 49.0101 192.624 45.2549C192.624 45.2549 196.816 48.4246 195.811 54.0407V54.0449Z" fill="#353535"/>
<path d="M177.883 52.049C177.041 56.8538 178.255 62.3778 182.343 62.5535L182.435 64.2178C182.506 65.4514 183.561 66.3965 184.796 66.3254C186.032 66.2543 186.978 65.2005 186.907 63.9669L186.815 62.3026C186.815 62.3026 189.989 60.7386 190.525 58.6728C191.061 56.607 190.508 58.3466 190.508 58.3466L190.328 50.0459L179.202 50.6732L177.883 52.0531V52.049Z" fill="#FFA083"/>
<path d="M190.132 55.2432C191.049 53.3238 192.297 54.0347 192.599 55.1053C192.9 56.1716 190.882 58.9274 190.291 58.0325C189.697 57.1376 190.132 55.2432 190.132 55.2432Z" fill="#FFA083"/>
<path d="M185.155 56.0053C185.402 55.9927 185.511 55.6791 185.478 55.0727C185.444 54.4664 185.302 54.1695 185.055 54.182C184.808 54.1946 184.699 54.5082 184.732 55.1145C184.766 55.7209 184.908 56.0178 185.155 56.0053Z" fill="black"/>
<path d="M180.759 56.2514C181.006 56.2388 181.115 55.9252 181.081 55.3188C181.048 54.7125 180.906 54.4156 180.658 54.4281C180.411 54.4407 180.302 54.7543 180.336 55.3606C180.369 55.967 180.512 56.2639 180.759 56.2514Z" fill="black"/>
<path d="M182.543 59.1124C184.649 59.0413 186.199 57.4355 186.199 57.4355C186.199 57.4355 186.68 59.978 185.102 60.4088C183.523 60.8395 182.543 59.1124 182.543 59.1124Z" fill="#E56A85"/>
<path opacity="0.53" d="M182.346 62.5542C184.155 62.6127 186.24 62.4287 186.24 62.4287L182.438 64.2185L182.346 62.5542Z" fill="#7A3722"/>
<path opacity="0.53" d="M190.269 55.737C191.128 54.7292 191.597 55.0972 191.592 56.0925C191.588 57.0877 190.428 57.8697 190.026 57.6063C189.62 57.3428 190.269 55.737 190.269 55.737Z" fill="#7A3722"/>
<path d="M191.303 51.3939C188.46 56.2782 180.407 53.1712 178.795 51.1012C177.187 49.0313 180.533 46.033 184.197 46.4386C187.861 46.84 192.208 49.8383 191.299 51.3939H191.303Z" fill="#212121"/>
<path opacity="0.36" d="M174.271 78.0029L173.572 81.4403C173.572 81.4403 169.941 87.2278 166.348 87.1275C163.991 87.0606 158.149 82.7659 154.393 79.8053C154.656 79.9642 158.991 82.5485 165.666 84.217C172.169 85.8395 174.079 78.8016 174.276 78.0029H174.271Z" fill="black"/>
<path d="M134.379 185.593H119.434V187.633H134.379V185.593Z" fill="black"/>
<path d="M128.459 155.686H125.348V186.003H128.459V155.686Z" fill="#464646"/>
<path d="M112.95 144.186H140.864V151.57C140.864 153.841 139.018 155.69 136.739 155.69H117.07C114.796 155.69 112.945 153.845 112.945 151.57V144.186H112.95Z" fill="#464646"/>
<path d="M131.758 155.686H122.051V157.726H131.758V155.686Z" fill="black"/>
<path d="M161.953 176.398C162.414 179.856 163.691 183.72 165.291 184.619C166.895 185.518 177.351 181.914 178.18 179.781C179.009 177.653 172.573 179.999 171.015 177.883C169.453 175.767 166.191 172.371 166.191 172.371L161.953 176.398Z" fill="#EDBB0A"/>
<path d="M168.831 175.929L161.892 178.567C161.892 178.567 151.197 165.7 148.818 160.063C146.444 154.426 126.092 128.554 126.092 128.554L138.885 130.059C141.996 132.133 145.543 134.132 148.818 136.231C152.88 138.832 156.515 141.58 158.324 144.783C160.824 149.203 165.636 165.035 167.767 172.27C168.429 174.507 168.835 175.924 168.835 175.924L168.831 175.929Z" fill="#696969"/>
<path d="M168.831 175.929L161.892 178.567C161.892 178.567 151.197 165.7 148.818 160.063C146.444 154.426 126.092 128.554 126.092 128.554L138.885 130.059C141.996 132.133 145.543 134.132 148.818 136.231C147.893 139.907 156.008 145.686 156.607 154.393C157.181 162.698 156.829 171.22 167.767 172.27C168.429 174.507 168.835 175.924 168.835 175.924L168.831 175.929Z" fill="#585858"/>
<path d="M153.792 151.486C155.12 157.219 151.87 165.336 151.87 165.336L149.383 161.577L153.792 151.486Z" fill="#333333"/>
<path d="M134.532 177.995C133.56 181.349 132.362 186.426 133.468 187.889C134.573 189.357 142.174 190.256 143.79 188.638C145.407 187.02 142.773 186.279 141.42 184.021C139.703 181.148 139.766 178.56 139.766 178.56L134.532 177.991V177.995Z" fill="#EDBB0A"/>
<path d="M153.804 151.909C153.44 159.324 140.952 180.241 140.952 180.241L133.523 178.568C134.269 163.1 138.892 154.28 138.892 154.28C138.892 154.28 127.589 153.243 119.926 151.165C112.267 149.087 104.118 140.188 107.526 130.984L126.094 128.559C126.094 128.559 129.001 130.206 132.924 132.694C140.605 137.545 152.2 145.591 153.653 150.747C153.771 151.153 153.821 151.541 153.804 151.914V151.909Z" fill="#696969"/>
<path d="M153.804 151.909C153.44 159.324 140.952 180.241 140.952 180.241L133.523 178.568C134.269 163.1 138.892 154.28 138.892 154.28C138.892 154.28 127.589 153.243 119.926 151.165C112.267 149.087 104.118 140.188 107.526 130.984L126.094 128.559C126.094 128.559 129.001 130.206 132.924 132.694L133.025 132.874C133.025 132.874 119.076 137.194 120.504 145.649C121.932 154.101 136.095 153.611 141.786 153.565C146.626 153.528 151.149 152.248 153.653 150.751C153.771 151.157 153.821 151.546 153.804 151.918V151.909Z" fill="#585858"/>
<path d="M129.736 103.677C127.99 109.26 124.263 125.322 106.432 131.377C90.9165 136.638 83.8729 127.02 82.6083 117.991C82.424 116.641 82.3612 115.302 82.424 114.035C82.8888 104.263 89.8822 107.052 98.5087 102.36C107.131 97.6681 102.47 93.6704 106.084 85.8798C109.698 78.0934 114.589 77.8425 120.184 78.2314C125.779 78.6203 125.398 83.0613 125.398 83.0613C125.398 83.0613 127.177 85.9885 125.398 88.8028C125.557 89.0579 131.461 98.1657 129.736 103.677Z" fill="#212121"/>
<path d="M129.737 103.677C127.991 109.26 124.264 125.322 106.433 131.377C90.9177 136.638 83.874 127.02 82.6094 117.992C86.1647 121.467 95.076 120.605 96.8055 113.237C98.87 104.434 103.242 102.753 106.722 99.111C110.206 95.4729 106.768 90.3796 109.318 87.0927L111.969 84.0693L125.399 88.8072C125.558 89.0623 131.462 98.1702 129.737 103.682V103.677Z" fill="#353535"/>
<path d="M123.463 97.0781C130.151 97.881 133.413 103.292 134.213 110.857C135.013 118.422 135.762 128.558 135.762 128.558L106.951 131.025C106.951 131.025 107.215 106.784 107.349 106.253C107.479 105.722 115.272 97.5298 115.272 97.5298L123.463 97.0823V97.0781Z" fill="#EDBB0A"/>
<path opacity="0.38" d="M113.15 105.496C113.669 116.783 122.743 117.841 126.094 117.958C129.448 118.075 134.364 112.312 134.364 112.312L137.924 124.661L135.214 126.543L106.722 127.003C106.722 127.003 105.851 114.57 106.227 114.207C106.6 113.843 113.15 105.496 113.15 105.496Z" fill="#2C2C2C"/>
<path d="M121.161 121.445C124.616 119.701 129.47 121.822 128.862 125.761H120.504L121.161 121.445Z" fill="#FFA083"/>
<path d="M115.271 97.5257C107.812 97.4462 105.283 100.838 103.386 106.249C101.489 111.656 99.3827 121.868 101.698 125.338C104.014 128.809 121.967 126.074 121.967 126.074L122.226 120.107L110.342 118.706L112.946 106.245L115.271 97.5215V97.5257Z" fill="#EDBB0A"/>
<path d="M129.661 122.628L132.994 108.151C133.652 105.291 136.181 103.246 139.121 103.2L163.849 102.807C165.583 102.778 166.877 104.392 166.475 106.073L161.872 123.992C161.629 124.945 160.763 125.61 159.774 125.597L131.713 125.238C130.352 125.221 129.351 123.95 129.657 122.624L129.661 122.628Z" fill="black"/>
<path d="M131.546 122.436L134.82 108.226C135.495 105.303 138.074 103.217 141.077 103.171L165.7 102.782C167.434 102.752 168.728 104.367 168.326 106.048L163.753 123.862C163.493 124.878 162.572 125.58 161.521 125.568L133.732 125.212C132.283 125.196 131.219 123.845 131.546 122.436Z" fill="#414141"/>
<path d="M150.619 110.915H150.786C152.461 110.861 153.709 112.442 153.265 114.056L152.378 117.276C152.101 118.284 151.218 119.011 150.175 119.095C148.504 119.229 147.181 117.707 147.545 116.072L148.265 112.856C148.513 111.748 149.484 110.949 150.619 110.915Z" fill="black"/>
<path d="M155.695 126.643L122.106 127.174C121.591 127.182 121.173 126.772 121.164 126.262C121.156 125.748 121.566 125.33 122.077 125.321L155.666 124.79C156.181 124.782 156.6 125.192 156.608 125.702C156.617 126.216 156.206 126.634 155.695 126.643Z" fill="black"/>
<path d="M163.613 126.517L130.024 127.048C129.509 127.056 129.091 126.646 129.082 126.136C129.074 125.622 129.484 125.204 129.995 125.195L163.584 124.664C164.099 124.656 164.518 125.066 164.526 125.576C164.535 126.09 164.124 126.508 163.613 126.517Z" fill="#101010"/>
<path d="M123.463 97.0784C125.41 98.6967 124.523 99.8174 124.523 99.8174C124.523 99.8174 125.109 102.092 123.526 102.444C121.943 102.795 120.884 101.741 120.884 101.741C120.884 101.741 120.201 103.732 118.547 103.439C116.893 103.146 117.203 100.566 117.203 100.566C117.203 100.566 116.704 101.386 115.272 100.566C113.84 99.7464 115.544 97.5217 115.544 97.5217L123.463 97.0742V97.0784Z" fill="#383838"/>
<path d="M123.691 84.4328C125.462 88.9825 125.358 94.6362 121.379 95.6106L121.614 97.2624C121.79 98.4876 120.936 99.6209 119.709 99.7923C118.482 99.968 117.347 99.1149 117.175 97.8896L116.941 96.2378C116.941 96.2378 113.519 95.3262 112.585 93.4026C111.652 91.479 112.539 93.0806 112.539 93.0806L111.082 84.9012L122.121 83.333L123.687 84.4244L123.691 84.4328Z" fill="#FFA083"/>
<path d="M112.303 89.9695C111.026 88.2675 109.941 89.2084 109.858 90.3165C109.77 91.4247 112.291 93.7288 112.697 92.7336C113.103 91.7383 112.303 89.9695 112.303 89.9695Z" fill="#FFA083"/>
<path d="M117.333 89.7401C117.086 89.7735 116.919 89.4892 116.835 88.887C116.751 88.289 116.831 87.967 117.078 87.9294C117.325 87.8959 117.492 88.1803 117.576 88.7825C117.66 89.3805 117.58 89.7025 117.333 89.7401Z" fill="black"/>
<path d="M121.691 89.12C121.444 89.1534 121.276 88.8691 121.192 88.2669C121.109 87.6689 121.188 87.3469 121.435 87.3093C121.682 87.2758 121.85 87.5602 121.934 88.1624C122.017 88.7603 121.938 89.0823 121.691 89.12Z" fill="black"/>
<path d="M120.507 92.2731C118.426 92.616 116.592 91.3447 116.592 91.3447" stroke="#E56A85" stroke-miterlimit="10" stroke-linecap="round"/>
<path opacity="0.53" d="M121.377 95.6152C119.614 96.0292 117.533 96.2592 117.533 96.2592L121.616 97.267L121.382 95.6152H121.377Z" fill="#7A3722"/>
<path opacity="0.53" d="M112.268 90.4803C111.23 89.6607 110.84 90.1124 111.041 91.0909C111.242 92.0694 112.532 92.6047 112.875 92.2659C113.219 91.9272 112.268 90.4803 112.268 90.4803Z" fill="#7A3722"/>
<path d="M121.611 81.6271C123.123 86.7247 112.942 90.0324 110.547 89.125C108.148 88.2176 107.988 84.7007 111.33 82.4426C114.676 80.1886 121.104 79.9126 121.611 81.6271Z" fill="#212121"/>
<path d="M85.3765 130.064H81.3438V187.049H85.3765V130.064Z" fill="black"/>
<path d="M193.605 130.064H189.572V187.049H193.605V130.064Z" fill="black"/>
<path d="M85.3765 130.064H81.3438V137.679H85.3765V130.064Z" fill="#515151"/>
<path d="M193.605 130.064H189.572V137.679H193.605V130.064Z" fill="#515151"/>
<path d="M199.878 127.05H75.0781V131.278H199.878V127.05Z" fill="black"/>
<path d="M162.036 27.9971H113.945V61.0579H162.036V27.9971Z" fill="black"/>
<path d="M125.954 28.2021H113.844V60.8573H125.954V28.2021Z" fill="#EDBB0A"/>
<path d="M160.6 29.6035H114.867V31.9495H160.6V29.6035Z" fill="white"/>
<path d="M116.254 31.3263C116.529 31.3263 116.753 31.1035 116.753 30.8287C116.753 30.5539 116.529 30.3311 116.254 30.3311C115.979 30.3311 115.756 30.5539 115.756 30.8287C115.756 31.1035 115.979 31.3263 116.254 31.3263Z" fill="#EDBB0A"/>
<path d="M118.121 31.3263C118.397 31.3263 118.62 31.1035 118.62 30.8287C118.62 30.5539 118.397 30.3311 118.121 30.3311C117.846 30.3311 117.623 30.5539 117.623 30.8287C117.623 31.1035 117.846 31.3263 118.121 31.3263Z" fill="#696969"/>
<path d="M119.987 31.3263C120.262 31.3263 120.485 31.1035 120.485 30.8287C120.485 30.5539 120.262 30.3311 119.987 30.3311C119.711 30.3311 119.488 30.5539 119.488 30.8287C119.488 31.1035 119.711 31.3263 119.987 31.3263Z" fill="white"/>
<path d="M158.418 30.2598H159.942" stroke="#EDBB0A" stroke-width="0.5" stroke-miterlimit="10" stroke-linecap="round"/>
<path d="M158.418 30.7744H159.942" stroke="#EDBB0A" stroke-width="0.5" stroke-miterlimit="10" stroke-linecap="round"/>
<path d="M158.418 31.293H159.942" stroke="#EDBB0A" stroke-width="0.5" stroke-miterlimit="10" stroke-linecap="round"/>
<path d="M117.943 36.9082H121.147" stroke="white" stroke-width="2" stroke-miterlimit="10" stroke-linecap="round"/>
<path d="M117.943 39.7344H121.147" stroke="white" stroke-width="2" stroke-miterlimit="10" stroke-linecap="round"/>
<path d="M117.943 42.5625H121.147" stroke="white" stroke-width="2" stroke-miterlimit="10" stroke-linecap="round"/>
<path d="M119.645 45.3936H122.852" stroke="white" stroke-width="2" stroke-miterlimit="10" stroke-linecap="round"/>
<path d="M117.943 48.2197H121.147" stroke="white" stroke-width="2" stroke-miterlimit="10" stroke-linecap="round"/>
<path d="M119.645 51.0479H122.852" stroke="white" stroke-width="2" stroke-miterlimit="10" stroke-linecap="round"/>
<path d="M119.645 53.874H122.852" stroke="white" stroke-width="2" stroke-miterlimit="10" stroke-linecap="round"/>
<path d="M137.289 34.3496H140.266" stroke="white" stroke-width="1.5" stroke-miterlimit="10" stroke-linecap="round"/>
<path d="M141.334 34.3496H148.177" stroke="black" stroke-width="1.5" stroke-miterlimit="10" stroke-linecap="round"/>
<path d="M149.102 34.3496H151.413" stroke="#EDBB0A" stroke-width="1.5" stroke-miterlimit="10" stroke-linecap="round"/>
<path d="M152.1 34.3496H156.53" stroke="#696969" stroke-width="1.5" stroke-miterlimit="10" stroke-linecap="round"/>
<path d="M134.611 36.8584H138.46" stroke="#696969" stroke-width="1.5" stroke-miterlimit="10" stroke-linecap="round"/>
<path d="M139.529 36.8584H148.562" stroke="black" stroke-width="1.5" stroke-miterlimit="10" stroke-linecap="round"/>
<path d="M149.484 36.8584H152.847" stroke="white" stroke-width="1.5" stroke-miterlimit="10" stroke-linecap="round"/>
<path d="M153.896 36.8584H157.255" stroke="#EDBB0A" stroke-width="1.5" stroke-miterlimit="10" stroke-linecap="round"/>
<path d="M135.316 39.3643H139.86" stroke="black" stroke-width="1.5" stroke-miterlimit="10" stroke-linecap="round"/>
<path d="M140.924 39.3643H144.488" stroke="#EDBB0A" stroke-width="1.5" stroke-miterlimit="10" stroke-linecap="round"/>
<path d="M145.414 39.3643H151.867" stroke="#696969" stroke-width="1.5" stroke-miterlimit="10" stroke-linecap="round"/>
<path d="M152.732 39.3643H154.738" stroke="black" stroke-width="1.5" stroke-miterlimit="10" stroke-linecap="round"/>
<path d="M133.172 44.373H136.752" stroke="#696969" stroke-width="1.5" stroke-miterlimit="10" stroke-linecap="round"/>
<path d="M137.82 44.373H138.532" stroke="black" stroke-width="1.5" stroke-miterlimit="10" stroke-linecap="round"/>
<path d="M139.457 44.373H145.412" stroke="#EDBB0A" stroke-width="1.5" stroke-miterlimit="10" stroke-linecap="round"/>
<path d="M146.127 44.373H154.448" stroke="white" stroke-width="1.5" stroke-miterlimit="10" stroke-linecap="round"/>
<path d="M148.799 49.3867H155.394" stroke="black" stroke-width="1.5" stroke-miterlimit="10" stroke-linecap="round"/>
<path d="M135.316 46.8828H138.001" stroke="white" stroke-width="1.5" stroke-miterlimit="10" stroke-linecap="round"/>
<path d="M139.062 46.8828H145.662" stroke="#EDBB0A" stroke-width="1.5" stroke-miterlimit="10" stroke-linecap="round"/>
<path d="M146.59 46.8828H150.133" stroke="#696969" stroke-width="1.5" stroke-miterlimit="10" stroke-linecap="round"/>
<path d="M151.283 46.8828H155.291" stroke="#EDBB0A" stroke-width="1.5" stroke-miterlimit="10" stroke-linecap="round"/>
<path d="M135.535 49.3867H138.994" stroke="#696969" stroke-width="1.5" stroke-miterlimit="10" stroke-linecap="round"/>
<path d="M140.059 49.3867H143.476" stroke="black" stroke-width="1.5" stroke-miterlimit="10" stroke-linecap="round"/>
<path d="M144.404 49.3867H147.708" stroke="white" stroke-width="1.5" stroke-miterlimit="10" stroke-linecap="round"/>
<path d="M140.924 54.0967H142.946" stroke="#EDBB0A" stroke-width="1.5" stroke-miterlimit="10" stroke-linecap="round"/>
<path d="M144.01 54.0967H150.672" stroke="black" stroke-width="1.5" stroke-miterlimit="10" stroke-linecap="round"/>
<path d="M151.598 54.0967H156.313" stroke="#696969" stroke-width="1.5" stroke-miterlimit="10" stroke-linecap="round"/>
<path d="M137.854 56.6006H140.391" stroke="#EDBB0A" stroke-width="1.5" stroke-miterlimit="10" stroke-linecap="round"/>
<path d="M141.459 56.6006H143.582" stroke="black" stroke-width="1.5" stroke-miterlimit="10" stroke-linecap="round"/>
<path d="M144.506 56.6006H150.084" stroke="#696969" stroke-width="1.5" stroke-miterlimit="10" stroke-linecap="round"/>
<path d="M151.135 56.6006H156.813" stroke="white" stroke-width="1.5" stroke-miterlimit="10" stroke-linecap="round"/>
<path opacity="0.21" d="M134.045 34.3496H135.184" stroke="black" stroke-width="1.5" stroke-miterlimit="10" stroke-linecap="round"/>
<path opacity="0.21" d="M131.053 36.8584H132.192" stroke="black" stroke-width="1.5" stroke-miterlimit="10" stroke-linecap="round"/>
<path opacity="0.21" d="M132.436 39.3643H133.575" stroke="black" stroke-width="1.5" stroke-miterlimit="10" stroke-linecap="round"/>
<path opacity="0.21" d="M129.717 41.8682H130.856" stroke="black" stroke-width="1.5" stroke-miterlimit="10" stroke-linecap="round"/>
<path opacity="0.21" d="M129.717 44.373H130.856" stroke="black" stroke-width="1.5" stroke-miterlimit="10" stroke-linecap="round"/>
<path opacity="0.21" d="M132.293 46.8828H133.432" stroke="black" stroke-width="1.5" stroke-miterlimit="10" stroke-linecap="round"/>
<path opacity="0.21" d="M132.602 49.3867H133.745" stroke="black" stroke-width="1.5" stroke-miterlimit="10" stroke-linecap="round"/>
<path opacity="0.21" d="M129.717 51.8916H130.856" stroke="black" stroke-width="1.5" stroke-miterlimit="10" stroke-linecap="round"/>
<path opacity="0.21" d="M137.018 54.0967H138.161" stroke="black" stroke-width="1.5" stroke-miterlimit="10" stroke-linecap="round"/>
<path opacity="0.21" d="M134.336 56.6006H135.475" stroke="black" stroke-width="1.5" stroke-miterlimit="10" stroke-linecap="round"/>
<path d="M115.207 56.6621H92.6191V72.2893H115.207V56.6621Z" fill="white"/>
<path d="M99.6569 71.0434C99.5609 71.0914 99.4569 71.1334 99.3449 71.1694C99.2369 71.2054 99.1229 71.2394 99.0029 71.2714C99.2429 71.3274 99.4609 71.4034 99.6569 71.4994L101.619 72.5254C101.723 72.5734 101.795 72.6334 101.835 72.7054C101.879 72.7774 101.901 72.8574 101.901 72.9454V74.1094L97.0949 71.5954V70.9414L101.901 68.4334V69.5974C101.901 69.6814 101.879 69.7594 101.835 69.8314C101.795 69.9034 101.723 69.9634 101.619 70.0114L99.6569 71.0434ZM98.1149 89.2914C98.0389 89.4914 97.9169 89.6414 97.7489 89.7414C97.5849 89.8454 97.4169 89.8974 97.2449 89.8974H96.5429L100.005 80.9394C100.073 80.7594 100.181 80.6194 100.329 80.5194C100.477 80.4194 100.647 80.3694 100.839 80.3694H101.547L98.1149 89.2914ZM102.291 98.9414V99.5954L97.4849 102.109V100.945C97.4849 100.857 97.5049 100.777 97.5449 100.705C97.5889 100.633 97.6629 100.573 97.7669 100.525L99.7289 99.4994C99.8289 99.4514 99.9329 99.4094 100.041 99.3734C100.149 99.3334 100.265 99.2994 100.389 99.2714C100.265 99.2434 100.149 99.2114 100.041 99.1754C99.9329 99.1354 99.8289 99.0914 99.7289 99.0434L97.7669 98.0114C97.6629 97.9634 97.5889 97.9034 97.5449 97.8314C97.5049 97.7594 97.4849 97.6814 97.4849 97.5974V96.4334L102.291 98.9414Z" fill="white"/>
<path d="M173.958 55.9258H157.258V65.7863H173.958V55.9258Z" fill="#EDBB0A"/>
<path d="M162.607 60.855C162.607 61.3276 162.226 61.7081 161.753 61.7081C161.28 61.7081 160.898 61.3276 160.898 60.855C160.898 60.3825 161.28 60.002 161.753 60.002C162.226 60.002 162.607 60.3825 162.607 60.855Z" fill="white"/>
<path d="M166.47 60.855C166.47 61.3276 166.089 61.7081 165.616 61.7081C165.143 61.7081 164.762 61.3276 164.762 60.855C164.762 60.3825 165.143 60.002 165.616 60.002C166.089 60.002 166.47 60.3825 166.47 60.855Z" fill="white"/>
<path d="M170.324 60.855C170.324 61.3276 169.943 61.7081 169.47 61.7081C168.996 61.7081 168.615 61.3276 168.615 60.855C168.615 60.3825 168.996 60.002 169.47 60.002C169.943 60.002 170.324 60.3825 170.324 60.855Z" fill="white"/>
<path d="M82.9579 120.375C79.6204 115.328 77.0408 110.816 78.5441 105.442C78.5441 105.442 79.6204 108.236 81.6639 110.276C83.7075 112.317 86.7728 115.771 86.2117 119.577C85.6464 123.386 82.9579 120.371 82.9579 120.371V120.375Z" fill="black"/>
<path d="M83.3898 115.329C80.5339 108.951 83.6034 99.4839 85.3287 97.7861C85.3287 97.7861 87.4812 102.946 87.8036 106.555C88.126 110.168 89.4158 115.111 87.8036 118.548C86.1914 121.986 84.4661 118.979 84.4661 118.979L83.3898 115.329Z" fill="white"/>
<path d="M86.8324 120.2C86.4011 115.006 90.4924 110.494 92.1047 108.345C92.1047 108.345 93.4405 112.819 91.912 116.177C90.3877 119.539 87.7998 120.376 87.7998 120.376L86.8324 120.2Z" fill="#0B0B0B"/>
<path d="M91.9602 118.507C91.9518 121.66 91.3027 124.512 90.8923 126.009C90.7039 126.704 90.5615 127.105 90.5615 127.105H82.0564C82.0564 127.105 79.7992 122.697 80.2306 119.256C81.5329 118.934 82.9107 118.725 84.2465 118.595C88.3002 118.198 91.9602 118.507 91.9602 118.507Z" fill="#696969"/>
<path d="M90.8923 126.004C90.7039 126.698 90.5615 127.1 90.5615 127.1H82.0564C82.0564 127.1 79.7992 122.692 80.2306 119.251C81.5329 118.929 82.9107 118.719 84.2465 118.59C83.074 124.039 87.8814 125.736 90.8923 126V126.004Z" fill="#585858"/>
<path d="M153.454 82.2002H136.754V95.6152H153.454V82.2002Z" fill="#696969"/>
<path d="M136.754 88.8375L142.964 92.3376L149.401 86.4121L153.45 89.1261V95.6161H136.754V88.8375Z" fill="#585858"/>
<path d="M142.576 88.8364C143.46 88.8364 144.176 88.1213 144.176 87.239C144.176 86.3568 143.46 85.6416 142.576 85.6416C141.693 85.6416 140.977 86.3568 140.977 87.239C140.977 88.1213 141.693 88.8364 142.576 88.8364Z" fill="white"/>
</svg>
