<svg width="380" height="250" viewBox="0 0 380 250" fill="none" xmlns="http://www.w3.org/2000/svg">
<g clip-path="url(#clip0_570_4276)">
<path d="M12.5911 212.69C-0.558949 199.28 -4.76895 176.31 6.57105 161.34C17.0511 147.51 36.061 144.35 52.101 137.72C57.941 135.3 63.9011 131.96 66.701 126.3C70.291 119.05 67.4911 109.99 62.231 103.84C56.971 97.6897 49.681 93.7398 42.761 89.5498C31.751 82.8898 20.4611 74.0498 18.0911 61.3997C16.4111 52.4497 19.7411 43.0798 25.4011 35.9498C31.0611 28.8198 38.8811 23.6998 46.981 19.5598C60.141 12.8398 74.4711 8.38975 89.1411 6.58975C105.731 4.55975 122.941 5.99975 138.391 12.3597C157.201 20.0997 172.411 34.5897 190.421 44.0497C208.431 53.5097 232.621 56.8597 247.611 43.1097C256.031 35.3897 259.881 23.7298 268.011 15.7098C280.461 3.41975 300.961 2.32975 317.021 9.26975C333.071 16.2097 345.351 29.7197 355.491 43.9697C361.561 52.4997 367.061 61.4297 371.941 70.6797C376.981 80.2397 381.471 91.1597 378.671 101.6C374.921 115.6 360.051 122.95 347.021 129.29C333.991 135.64 319.651 145.16 318.961 159.64C318.721 164.57 320.191 169.42 321.981 174.02C328.041 189.66 338.151 205.59 334.171 221.89C330.951 235.1 318.671 244.69 305.491 248.03C292.311 251.37 278.371 249.43 265.161 246.23C220.191 235.34 177.911 210.09 131.661 210.82C118.221 211.03 25.361 225.71 12.5811 212.69H12.5911Z" fill="#EDBB0A"/>
</g>
<g clip-path="url(#clip1_570_4276)">
<path d="M180.5 112.671C182.86 111.701 185.8 110.691 186.64 110.821C187.48 110.951 192.24 114.941 192.66 115.411C193.08 115.871 190.43 116.841 190.01 116.921C189.59 117.001 186.98 114.061 186.64 114.141C186.3 114.221 182.52 115.571 182.22 115.781C181.93 115.991 179.9 112.911 180.49 112.671H180.5Z" fill="#FFC46A"/>
<path d="M85.2306 147.491L81.1706 132.361L77.6406 129.841L82.7706 150.221L85.2306 147.491Z" fill="#363636"/>
<path d="M89.3306 160.141L87.3706 153.381L82.6406 152.261L84.7606 161.361L89.3306 160.141Z" fill="#363636"/>
<path d="M90.39 149.91C90.39 152.81 88.34 155.17 85.82 155.17C83.3 155.17 81.25 152.82 81.25 149.91C81.25 147 83.3 144.65 85.82 144.65C88.34 144.65 90.39 147 90.39 149.91Z" fill="#363636"/>
<path d="M86.6184 149.911C86.6184 152.361 84.8884 154.351 82.7584 154.351C80.6284 154.351 78.8984 152.361 78.8984 149.911C78.8984 147.461 80.6284 145.471 82.7584 145.471C84.8884 145.471 86.6184 147.461 86.6184 149.911Z" fill="#363636"/>
<path d="M82.4788 149.911C82.4788 151.011 81.8588 151.911 81.0988 151.911C80.3388 151.911 79.7188 151.021 79.7188 149.911C79.7188 148.801 80.3388 147.911 81.0988 147.911C81.8588 147.911 82.4788 148.801 82.4788 149.911Z" fill="#8A8A8A"/>
<path d="M107.669 202.881H111.639L127.779 209.301H91.5391L107.669 202.881Z" fill="#363636"/>
<path d="M136.18 213.78C136.18 215.77 134.57 217.37 132.59 217.37C130.61 217.37 129 215.76 129 213.78C129 211.8 130.61 210.19 132.59 210.19C134.57 210.19 136.18 211.8 136.18 213.78Z" fill="#363636"/>
<path d="M113.008 213.78C113.008 215.77 111.398 217.37 109.418 217.37C107.438 217.37 105.828 215.76 105.828 213.78C105.828 211.8 107.438 210.19 109.418 210.19C111.398 210.19 113.008 211.8 113.008 213.78Z" fill="#363636"/>
<path d="M89.9612 213.78C89.9612 215.77 88.3512 217.37 86.3712 217.37C84.3912 217.37 82.7812 215.76 82.7812 213.78C82.7812 211.8 84.3912 210.19 86.3712 210.19C88.3512 210.19 89.9612 211.8 89.9612 213.78Z" fill="#363636"/>
<path d="M108.599 203.341H110.719V174.931H108.599V203.341Z" fill="#363636"/>
<path d="M104.5 172.041H114.81L111.78 186.521H107.53L104.5 172.041Z" fill="#363636"/>
<path d="M83.6719 168.841C83.6719 163.751 88.4219 163.531 109.662 163.531C130.902 163.531 135.652 163.751 135.652 168.841C135.652 173.931 130.902 174.151 109.662 174.151C88.4219 174.151 83.6719 173.931 83.6719 168.841Z" fill="#363636"/>
<path d="M87.7603 213.781C87.7603 214.971 86.8803 215.941 85.7903 215.941C84.7003 215.941 83.8203 214.971 83.8203 213.781C83.8203 212.591 84.7003 211.621 85.7903 211.621C86.8803 211.621 87.7603 212.591 87.7603 213.781Z" fill="#8A8A8A"/>
<path d="M133.799 213.781C133.799 214.971 132.919 215.941 131.829 215.941C130.739 215.941 129.859 214.971 129.859 213.781C129.859 212.591 130.739 211.621 131.829 211.621C132.919 211.621 133.799 212.591 133.799 213.781Z" fill="#8A8A8A"/>
<path d="M86.2886 134.943C98.4361 132.172 104.061 111.414 98.8516 88.5779C93.6425 65.7421 79.5722 49.4763 67.4247 52.2473C55.2772 55.0183 49.6525 75.7767 54.8616 98.6125C60.0708 121.448 74.1411 137.714 86.2886 134.943Z" fill="#2C2C2C"/>
<path d="M111.021 171.301C128.965 171.301 143.511 168.856 143.511 165.841C143.511 162.825 128.965 160.381 111.021 160.381C93.0775 160.381 78.5312 162.825 78.5312 165.841C78.5312 168.856 93.0775 171.301 111.021 171.301Z" fill="#2C2C2C"/>
<path d="M95.2812 160.521C109.851 160.901 112.031 162.151 112.031 165.831C112.031 169.511 109.861 170.771 95.2812 171.141C80.7112 170.761 78.5312 169.511 78.5312 165.831C78.5312 162.151 80.7012 160.891 95.2812 160.521Z" fill="black"/>
<path d="M63.731 52.1904C55.081 54.4304 53.351 66.2204 57.441 91.6004C63.421 128.66 71.111 133.25 91.051 133.25C93.441 133.25 95.571 133.18 97.461 133C94.391 134.79 89.861 135.25 83.571 135.25C63.641 135.25 59.861 130.66 53.891 93.6004C48.631 60.9704 49.791 53.5104 63.731 52.1904Z" fill="black"/>
<path d="M131.559 170.701C138.539 170.031 139.799 168.631 139.799 165.831C139.799 163.031 138.539 161.641 131.559 160.961V160.841C139.729 161.461 141.139 162.861 141.139 165.831C141.139 168.801 139.729 170.191 131.559 170.821V170.701Z" fill="black"/>
<path d="M122.922 170.981C129.902 170.271 131.162 168.791 131.162 165.831C131.162 162.871 129.902 161.401 122.922 160.681V160.561C131.092 161.221 132.502 162.691 132.502 165.831C132.502 168.971 131.092 170.441 122.922 171.101V170.981Z" fill="black"/>
<path d="M112.52 171.15C119.5 170.41 120.76 168.89 120.76 165.84C120.76 162.79 119.5 161.26 112.52 160.53V160.4C120.69 161.08 122.1 162.6 122.1 165.84C122.1 169.08 120.69 170.6 112.52 171.28V171.15Z" fill="black"/>
<path d="M89.1894 134.221C95.7894 132.031 95.9994 123.411 92.5594 93.6206C88.3594 57.3006 86.0094 52.4506 74.3594 52.3506C74.4894 52.3506 74.6194 52.3506 74.7494 52.3506C86.7394 52.3506 89.0894 56.9006 93.3394 93.6306C96.9194 124.601 96.5594 132.691 89.1694 134.471V134.231L89.1894 134.221Z" fill="black"/>
<path d="M61.8789 53.0008C61.9589 52.9508 62.0289 52.8908 62.1089 52.8408C70.7489 54.6408 73.2589 62.6708 77.2989 93.0508C81.3589 123.571 80.9589 131.541 72.6989 133.291L72.7189 133.051C80.0989 130.891 80.3189 122.401 76.4189 93.0508C72.4889 63.4608 69.9989 55.0808 61.8889 53.0008H61.8789Z" fill="black"/>
<path d="M91.6394 61.1406C76.9494 62.7106 63.0594 80.0606 59.1494 103.111C58.4494 107.231 58.1194 111.281 58.1094 115.191C62.6494 132.601 68.4694 135.251 83.5794 135.251C103.509 135.251 105.809 130.661 99.8294 93.6006C97.1994 77.2706 94.9894 67.2506 91.6394 61.1506V61.1406Z" fill="black"/>
<path d="M89.4883 161.721L131.988 161.041L164.758 217.381H166.028L144.778 144.881L114.278 136.581L89.4883 161.721Z" fill="#3A3838"/>
<path d="M159.848 196.281L144.778 144.881L114.278 136.581L89.4883 161.711L131.988 161.041L159.848 208.941V196.281Z" fill="#373737"/>
<path d="M103.73 159.691L145.71 161.041L184.09 217.381H185.88L156.7 144.881L125.28 136.581L103.73 159.691Z" fill="#3A3838"/>
<path d="M163.44 161.611L156.7 144.881L125.28 136.581L103.73 159.701L145.71 161.041L163.44 187.071V161.611Z" fill="#373737"/>
<path d="M184.48 214.01C182.91 215.13 184.09 217.38 184.09 217.38H197.11C197.11 217.38 186.06 212.89 184.48 214.01Z" fill="#E2D5B0"/>
<path d="M165.038 214.01C163.468 215.13 164.648 217.38 164.648 217.38H177.668C177.668 217.38 166.618 212.89 165.038 214.01Z" fill="#E2D5B0"/>
<path d="M105.98 52.6308C106.2 46.0108 105.31 29.1808 105.31 29.1808C105.31 29.1808 103.4 23.3408 105.31 19.4208C107.22 15.4908 112.6 17.5108 112.6 17.5108C112.6 17.5108 117.09 11.2308 120.12 10.2208C123.15 9.21076 121.8 12.0208 121.8 12.0208C121.8 12.0208 130.33 4.39076 134.26 4.73076C138.19 5.07076 135.94 11.3508 135.94 11.3508C135.94 11.3508 140.65 6.30076 143.23 8.21076C145.81 10.1208 139.98 19.5408 139.98 19.5408C139.98 19.5408 142.56 16.7308 143.8 21.2208C145.03 25.7108 130.33 53.3208 130.33 53.3208L105.98 52.6508V52.6308Z" fill="#2F2F2F"/>
<path d="M126.08 35.671C118.45 32.991 115.25 22.331 118.92 11.861C119.08 11.391 119.27 10.951 119.46 10.501C116.48 12.071 112.6 17.501 112.6 17.501C112.6 17.501 107.21 15.481 105.31 19.411C103.4 23.341 105.31 29.171 105.31 29.171C105.31 29.171 106.21 46.001 105.98 52.621L130.33 53.291C130.33 53.291 137.35 40.101 141.28 30.471C136.91 35.231 131.16 37.441 126.08 35.661V35.671Z" fill="#2F2F2F"/>
<path d="M158.328 111.891C158.328 111.891 180.268 110.541 182.958 113.691C185.648 116.831 186.158 122.891 186.158 122.891L158.328 122.671V111.901V111.891Z" fill="#FFC46A"/>
<path d="M169.21 108.591L160.27 108.721L161.55 122.631L170.49 122.501L169.21 108.591Z" fill="#F2EEDB"/>
<path d="M168.801 115.871C167.641 115.871 166.701 113.011 166.701 109.471C166.701 109.181 166.721 108.901 166.731 108.621L160.281 108.721L161.551 122.631L170.491 122.501L169.811 115.061C169.511 115.561 169.171 115.871 168.801 115.871Z" fill="#9B9B9B"/>
<path d="M136.341 106.86C143.591 104.86 164.621 106.95 164.621 106.95L166.191 124.13L126.461 124.9C126.461 124.9 130.721 108.4 136.341 106.85V106.86Z" fill="#585858"/>
<path d="M149.431 116.561C141.881 116.561 135.121 115.481 130.491 113.781C128.021 118.891 126.461 124.911 126.461 124.911L166.191 124.141L165.331 114.731C160.991 115.871 155.461 116.561 149.431 116.561Z" fill="#494D47"/>
<path d="M128.451 74.5508C134.661 81.5208 147.421 115.841 147.421 115.841L136.751 128.811C136.751 128.811 125.071 116.771 124.341 112.941C123.591 109.041 124.581 70.2108 128.451 74.5508Z" fill="#585858"/>
<path d="M125.2 89.9503C125.03 89.0803 125.02 87.2704 125.14 84.8604C124.07 95.4904 123.89 110.59 124.34 112.94C125.08 116.77 136.75 128.81 136.75 128.81L144.18 119.78C138.29 111.6 126.01 94.1903 125.2 89.9503Z" fill="#494D47"/>
<path d="M83.1992 168.67L118.999 138.15L132.689 139.05C132.689 139.05 128.199 112.79 129.769 106.95C131.339 101.11 132.459 81.8104 131.119 77.5504C129.769 73.2904 113.839 64.3104 110.699 62.7404C107.559 61.1704 88.2592 62.9604 86.0092 67.9004C83.7692 72.8404 87.8092 134.11 87.8092 134.11L83.2092 168.68L83.1992 168.67Z" fill="#585858"/>
<path d="M130.561 107.171C131.201 104.791 131.621 100.131 131.801 95.1606C130.331 100.221 124.831 123.331 116.531 123.331C108.231 123.331 91.0409 86.6705 89.6909 65.0605C87.8609 65.8505 86.5109 66.7905 86.0109 67.8905C83.7709 72.8305 86.8009 133.991 86.8009 133.991L83.2109 168.671L119.011 138.151L132.701 139.051C132.701 139.051 129.001 113.011 130.571 107.181L130.561 107.171Z" fill="#424242"/>
<path d="M125.551 108.031C131.401 106.951 135.631 102.221 136.081 102.011C136.551 101.791 138.301 103.591 138.041 103.971C137.781 104.351 131.171 111.361 131.171 111.361L125.551 108.041V108.031Z" fill="#FFC46A"/>
<path d="M124.949 118.791L163.939 68.1211L183.979 83.7811L154.849 119.631L124.949 118.791Z" fill="#E4E4E4"/>
<path d="M124.112 70.8507C118.952 67.2307 112.562 63.6707 110.692 62.7407C109.252 62.0207 104.392 62.0107 99.3516 62.6907C102.312 72.1007 108.832 93.2607 113.072 110.511L124.112 70.8607V70.8507Z" fill="#F2EEDB"/>
<path d="M116.632 69.9508L101.712 62.3008L99.3516 62.6808L111.942 77.2808L112.782 76.1008L113.392 76.4808L110.472 100.451L113.202 108.591L115.982 100.061L117.202 77.1108L118.172 75.9808L119.772 78.3308L123.642 70.5108L122.042 69.2808L116.632 69.9508Z" fill="#9B9B9B"/>
<path d="M101.602 62.0608L108.452 43.0908L124.052 48.7108L122.592 69.6908L115.972 74.2908L101.602 62.0608Z" fill="#FFC46A"/>
<path d="M113.071 110.501L110.801 101.901L114.521 73.0605H116.531L115.551 101.731L113.071 110.501Z" fill="#6E6C6A"/>
<path d="M119.449 119.07C124.569 121.13 129.329 121.01 131.349 120.56C133.369 120.11 137.749 109.86 137.749 109.86C137.749 109.86 130.229 108.85 128.769 107.84C127.309 106.83 120.909 109.75 120.909 109.75L119.449 119.06V119.07Z" fill="#FFC46A"/>
<path d="M128.121 117.11C132.581 117.47 139.341 117.85 139.451 118.23C139.561 118.61 138.301 120.23 137.821 120.35C137.341 120.47 126.941 120.65 126.941 120.65L128.111 117.11H128.121Z" fill="#FFC46A"/>
<path d="M123.621 107.82L114.701 107.19L111.191 120.59L120.111 121.22L123.621 107.82Z" fill="#F2EEDB"/>
<path d="M120.101 109.551C120.211 108.871 120.361 108.221 120.531 107.611L114.701 107.201L111.191 120.601L120.111 121.231L121.181 117.161C119.961 116.541 119.481 113.311 120.111 109.551H120.101Z" fill="#9B9B9B"/>
<path d="M85.9993 67.9011C76.6493 84.8411 73.6893 113.921 77.0593 117.731C80.4293 121.551 116.339 121.551 116.339 121.551L119.929 105.611C119.929 105.611 98.1593 104.711 97.0393 102.471C95.9193 100.231 100.209 94.5011 100.209 85.7411C100.209 69.7411 88.8493 62.7611 86.0093 67.9011H85.9993Z" fill="#585858"/>
<path d="M82.5191 112.79C79.4791 109.35 79.9191 84.5204 86.9491 66.8604C86.5791 67.1304 86.2491 67.4504 85.9891 67.9004C76.6391 84.8404 73.0791 114.33 76.4491 118.15C79.8191 121.97 116.319 121.55 116.319 121.55L117.859 114.72C108.079 114.57 85.1291 115.76 82.5091 112.79H82.5191Z" fill="#424242"/>
<path d="M115.27 76.991L112.57 72.951L114.48 70.251L118.41 70.811L118.86 73.391L115.27 76.991Z" fill="#6E6C6A"/>
<path d="M99.4688 62.0607L101.999 59.4307L117.199 70.3607L112.819 75.4107L99.4688 62.0607Z" fill="#F2EEDB"/>
<path d="M119.56 76.3105L115.52 70.4805L123.37 66.7705V69.5805L119.56 76.3105Z" fill="#F2EEDB"/>
<path d="M132.199 109.07C136.889 109.52 143.949 110.01 144.199 110.44C144.449 110.87 143.769 112.71 143.329 112.85C142.889 112.99 132.329 113.11 132.329 113.11L132.199 109.07Z" fill="#FFC46A"/>
<path d="M131.57 113.11C136.26 113.56 143.32 114.05 143.57 114.48C143.82 114.91 143.14 116.75 142.7 116.89C142.26 117.03 131.7 117.15 131.7 117.15L131.57 113.11Z" fill="#FFC46A"/>
<g style="mix-blend-mode:multiply" opacity="0.6">
<path d="M121.989 81.471C124.559 79.311 125.939 76.101 126.209 72.381C125.549 71.871 124.849 71.361 124.119 70.841C123.959 70.731 123.799 70.621 123.639 70.511L123.089 70.081L123.379 69.571V66.761L122.779 67.041L123.319 59.321C122.029 56.661 120.339 54.011 118.239 51.511C115.269 47.981 111.869 45.201 108.399 43.251L102.449 59.741L102.009 59.421L99.4787 62.051L99.9987 62.571L99.3587 62.671C95.8687 63.141 92.2987 63.931 89.6987 65.051C89.5187 65.131 89.3587 65.201 89.1887 65.281C89.1287 65.311 89.0587 65.341 88.9987 65.371C88.8587 65.441 88.7187 65.511 88.5887 65.581C88.5487 65.601 88.5087 65.621 88.4688 65.651C89.6988 68.041 91.2487 70.401 93.1387 72.641C102.149 83.341 115.079 87.291 122.009 81.451L121.989 81.471Z" fill="#727272"/>
</g>
<path d="M126.968 67.7811C126.968 67.7811 115.858 65.9811 113.948 64.8611C112.038 63.7411 108.558 47.5811 108.788 44.3211C109.008 41.0711 114.398 23.9011 117.768 22.8911C121.138 21.8811 134.268 21.2111 136.058 25.7011C137.858 30.1911 132.018 62.1711 126.968 67.7811Z" fill="#FFC46A"/>
<path d="M111.73 49.2107C113.92 40.0407 119.22 27.3307 116.86 22.0207C114.5 16.7207 108.27 39.3607 108.27 39.3607L108.44 46.9407L111.72 49.2107H111.73Z" fill="#2F2F2F"/>
<path d="M139.231 45.2709L132.671 43.4209L131.281 50.8109L136.601 52.5709L139.231 45.2709Z" fill="#FFC46A"/>
<path d="M106.211 36.3311L106.691 38.5611L141.501 46.1911L141.791 45.4211L106.211 36.3311Z" fill="#393939"/>
<path d="M116.959 39.3809L115.809 48.2409L126.829 50.7709L129.529 42.3909L116.959 39.3809ZM126.269 50.0009L116.779 47.8109L117.799 40.3309L128.559 42.8609L126.279 50.0009H126.269Z" fill="#393939"/>
<path d="M132.148 42.9912L130.398 51.2212L138.858 53.3112L141.788 45.4112L132.148 42.9912ZM138.428 52.5712L131.278 50.7912L132.778 43.8812L140.878 45.8912L138.428 52.5712Z" fill="#393939"/>
<path d="M133.6 42.9307C133.83 41.7907 133.43 40.7407 132.71 40.6007C131.99 40.4607 131.22 41.2707 131 42.4107C130.77 43.5507 131.36 43.7607 132.08 43.9107C132.8 44.0607 133.37 44.0807 133.6 42.9307Z" fill="#393939"/>
<path d="M124.021 40.5506C124.271 39.2706 123.771 38.0906 122.881 37.9106C122.001 37.7306 121.081 38.6306 120.821 39.9106C120.571 41.1906 121.041 41.2306 121.921 41.4006C122.801 41.5806 123.751 41.8206 124.011 40.5406L124.021 40.5506Z" fill="#393939"/>
<path d="M111.069 42.441C110.829 37.071 103.289 34.001 102.499 37.601C101.709 41.191 104.859 46.021 107.549 47.701C110.239 49.381 111.179 44.911 111.069 42.441Z" fill="#FFC46A"/>
<path d="M109.479 42.301C109.329 38.891 104.539 36.951 104.039 39.231C103.539 41.511 105.539 44.571 107.239 45.641C108.949 46.711 109.539 43.871 109.469 42.311L109.479 42.301Z" fill="#E3921A"/>
<path d="M109.529 44.351C109.409 41.721 105.719 40.221 105.329 41.981C104.949 43.741 106.479 46.101 107.799 46.931C109.119 47.751 109.579 45.561 109.519 44.351H109.529Z" fill="#FFC46A"/>
<path d="M175.758 111.961C178.038 112.071 183.888 112.751 184.498 113.401C185.108 114.051 188.308 115.901 188.428 116.381C188.548 116.861 186.658 117.981 186.028 117.961C185.398 117.941 182.358 115.731 181.838 115.841C181.318 115.961 178.518 118.131 176.868 117.751C175.218 117.371 172.728 111.821 175.758 111.961Z" fill="#FFC46A"/>
<path d="M131.64 44.6104L125.68 58.3604C125.68 58.3604 132.92 59.7304 133.32 59.1304C133.72 58.5304 131.65 44.6203 131.65 44.6203L131.64 44.6104Z" fill="#E3921A"/>
<path d="M131.009 44.5508L125.039 57.8008C125.039 57.8008 132.149 58.7108 132.549 58.1108C132.949 57.5108 131.019 44.5508 131.019 44.5508H131.009Z" fill="#FFC46A"/>
<path d="M122.321 59.4002C121.491 57.7602 120.081 57.5802 119.441 58.2702C120.331 58.2402 121.411 58.5802 122.321 59.4002Z" fill="#E3921A"/>
<path d="M124.15 60.3806C124.32 60.3606 124.47 60.3206 124.61 60.2706C123.58 58.7006 121.93 56.9906 120.51 56.7906C118.82 56.5606 117.92 57.2606 117.43 58.4606C117.61 58.5806 117.79 58.7006 117.98 58.8106C118.47 57.5706 119.49 56.8406 120.67 57.1506C122.01 57.5106 123.23 58.9206 124.15 60.3706V60.3806Z" fill="#E3921A"/>
<path d="M134.741 44.1006C134.661 44.9506 135.291 45.7206 136.251 45.8806C137.121 46.0206 137.971 45.6106 138.371 44.9206L134.751 44.1006H134.741Z" fill="#393939"/>
<path d="M121.632 41.3508C121.552 42.0908 122.182 42.7708 123.142 42.9008C124.012 43.0208 124.862 42.6608 125.262 42.0608L121.642 41.3408L121.632 41.3508Z" fill="#393939"/>
<path d="M126.731 35.9507C124.521 36.6807 119.501 37.6307 118.771 37.2807C118.051 36.9307 117.621 34.9007 118.291 33.9607C118.951 33.0207 125.581 30.9907 126.791 31.2907C128.001 31.6007 128.001 35.5307 126.731 35.9507Z" fill="#2F2F2F"/>
<path d="M131.04 37.1104C132.63 38.4004 136.52 40.6404 137.28 40.5104C138.04 40.3704 139.21 38.5704 139.03 37.5004C138.84 36.4304 134.01 32.7304 132.86 32.7004C131.71 32.6704 130.13 36.3804 131.04 37.1204V37.1104Z" fill="#2F2F2F"/>
<path d="M240.309 114.721L180.029 116.501L179.559 120.611H239.639L240.309 114.721Z" fill="#242424"/>
<path d="M258.299 77.1309H210.499L194.129 119.571H241.929L258.299 77.1309Z" fill="#242424"/>
<path d="M261.44 77.1309H213.65L197.27 119.571H245.07L261.44 77.1309Z" fill="#555555"/>
<path d="M261.438 77.1309H213.648L245.068 119.571L261.438 77.1309Z" fill="#555555"/>
<path d="M235.881 98.9506C236.621 95.7406 235.421 93.1406 233.191 93.1406C230.961 93.1406 228.551 95.7406 227.801 98.9506C227.061 102.161 228.261 104.761 230.491 104.761C232.721 104.761 235.131 102.161 235.881 98.9506Z" fill="white"/>
<path d="M288.837 121.58H243.297L249.057 217.38H294.597L288.837 121.58Z" fill="#111111"/>
<path d="M285.181 121.58H239.641L245.391 217.38H290.941L285.181 121.58Z" fill="#101010"/>
<path d="M286.171 138.1L285.181 121.58H239.641L242.011 161.09L286.171 138.1Z" fill="#101010"/>
<path d="M276.798 135.19L142.348 125.37V136.89H274.798L276.798 135.19Z" fill="#EDBB0A"/>
<path d="M276.799 123.67H144.359V135.19H276.799V123.67Z" fill="#4D4D4D"/>
<path d="M156.919 129.17H276.799V123.67H144.359V135.19H156.919V129.17Z" fill="#EDBB0A"/>
<path d="M151.95 121.58H106.41L112.17 217.38H157.71L151.95 121.58Z" fill="#111111"/>
<path d="M148.55 121.58H103L108.76 217.38H154.31L148.55 121.58Z" fill="#101010"/>
<path d="M108.76 217.38H131.52L151.53 171.18L149 129.13L105.07 155.88L108.76 217.38Z" fill="#101010"/>
<path d="M294.079 120.53H96.7188V124.72H294.079V120.53Z" fill="#101010"/>
<path d="M294.079 118.79H96.7188V122.98H294.079V118.79Z" fill="#111111"/>
<path d="M289.911 55.8904C287.441 44.6704 291.511 30.4504 296.151 24.4604C300.791 18.4704 294.871 17.5904 292.471 19.7804C290.071 21.9704 295.991 13.2004 293.591 9.84044C291.191 6.48044 286.231 13.3504 286.231 13.3504C286.231 13.3504 290.711 6.92044 288.311 4.43044C285.911 1.95044 279.021 9.11044 279.021 9.11044C279.021 9.11044 285.101 3.70044 283.021 0.930439C280.941 -1.84956 269.411 1.81044 265.411 9.70044C265.411 9.70044 266.371 5.46044 264.131 5.02044C260.701 4.35044 254.231 15.4604 258.691 31.0404C265.251 53.9904 289.911 55.9004 289.911 55.9004V55.8904Z" fill="#272727"/>
<path d="M292.469 19.7806C290.069 21.9706 295.989 13.2006 293.589 9.84059C291.189 6.48059 286.229 13.3506 286.229 13.3506C286.229 13.3506 289.799 8.21059 288.839 5.35059C286.809 10.5906 281.839 15.3806 277.909 20.7706C272.399 28.3206 268.009 35.0206 261.969 38.7606C271.099 54.4306 289.919 55.8906 289.919 55.8906C287.449 44.6706 291.519 30.4506 296.159 24.4606C300.799 18.4706 294.879 17.5906 292.479 19.7806H292.469Z" fill="#272727"/>
<path d="M311.719 147.49L315.779 132.36L319.319 129.84L314.189 150.22L311.719 147.49Z" fill="#363636"/>
<path d="M307.621 160.14L309.581 153.38L314.321 152.26L312.191 161.36L307.621 160.14Z" fill="#363636"/>
<path d="M306.559 149.91C306.559 152.81 308.609 155.17 311.129 155.17C313.649 155.17 315.699 152.82 315.699 149.91C315.699 147 313.649 144.65 311.129 144.65C308.609 144.65 306.559 147 306.559 149.91Z" fill="#363636"/>
<path d="M310.34 149.91C310.34 152.36 312.07 154.35 314.2 154.35C316.33 154.35 318.06 152.36 318.06 149.91C318.06 147.46 316.33 145.47 314.2 145.47C312.07 145.47 310.34 147.46 310.34 149.91Z" fill="#363636"/>
<path d="M314.48 149.91C314.48 151.01 315.1 151.91 315.86 151.91C316.62 151.91 317.24 151.02 317.24 149.91C317.24 148.8 316.62 147.91 315.86 147.91C315.1 147.91 314.48 148.8 314.48 149.91Z" fill="#8A8A8A"/>
<path d="M289.28 202.88H285.31L269.18 209.3H305.42L289.28 202.88Z" fill="#363636"/>
<path d="M260.77 213.78C260.77 215.77 262.38 217.37 264.36 217.37C266.34 217.37 267.95 215.76 267.95 213.78C267.95 211.8 266.34 210.19 264.36 210.19C262.38 210.19 260.77 211.8 260.77 213.78Z" fill="#363636"/>
<path d="M283.949 213.78C283.949 215.77 285.559 217.37 287.539 217.37C289.519 217.37 291.129 215.76 291.129 213.78C291.129 211.79 289.519 210.19 287.539 210.19C285.559 210.19 283.949 211.8 283.949 213.78Z" fill="#363636"/>
<path d="M307 213.78C307 215.77 308.61 217.37 310.59 217.37C312.57 217.37 314.18 215.76 314.18 213.78C314.18 211.8 312.57 210.19 310.59 210.19C308.61 210.19 307 211.8 307 213.78Z" fill="#363636"/>
<path d="M288.358 171.12H286.238V207.06H288.358V171.12Z" fill="#363636"/>
<path d="M292.451 168.22H282.141L285.181 182.71H289.421L292.451 168.22Z" fill="#363636"/>
<path d="M313.289 165.02C313.289 159.93 308.539 159.71 287.299 159.71C266.059 159.71 261.309 159.93 261.309 165.02C261.309 170.11 266.059 170.33 287.299 170.33C308.539 170.33 313.289 170.11 313.289 165.02Z" fill="#363636"/>
<path d="M309.188 213.78C309.188 214.97 310.068 215.94 311.158 215.94C312.248 215.94 313.128 214.97 313.128 213.78C313.128 212.59 312.248 211.62 311.158 211.62C310.068 211.62 309.188 212.59 309.188 213.78Z" fill="#8A8A8A"/>
<path d="M265.13 215.94C266.218 215.94 267.1 214.973 267.1 213.78C267.1 212.587 266.218 211.62 265.13 211.62C264.042 211.62 263.16 212.587 263.16 213.78C263.16 214.973 264.042 215.94 265.13 215.94Z" fill="#8A8A8A"/>
<path d="M313.38 135.25C293.45 135.25 291.15 130.66 297.13 93.6002C303.11 56.5402 306.88 51.9502 326.81 51.9502C346.74 51.9502 349.04 56.5402 343.06 93.6002C337.08 130.66 333.31 135.25 313.38 135.25Z" fill="#2C2C2C"/>
<path d="M253.449 162.021C253.449 157.281 257.029 156.561 285.939 156.561C314.849 156.561 318.429 157.281 318.429 162.021C318.429 166.761 314.849 167.481 285.939 167.481C257.029 167.481 253.449 166.761 253.449 162.021Z" fill="#2C2C2C"/>
<path d="M301.68 156.71C287.11 157.09 284.93 158.34 284.93 162.02C284.93 165.7 287.1 166.96 301.68 167.33C316.25 166.95 318.43 165.7 318.43 162.02C318.43 158.34 316.26 157.08 301.68 156.71Z" fill="black"/>
<path d="M333.218 52.1904C341.868 54.4304 343.598 66.2204 339.508 91.6004C333.528 128.66 325.838 133.25 305.898 133.25C303.508 133.25 301.378 133.18 299.488 133C302.558 134.79 307.088 135.25 313.378 135.25C333.308 135.25 337.088 130.66 343.058 93.6004C348.318 60.9804 347.168 53.5204 333.218 52.2004V52.1904Z" fill="black"/>
<path d="M265.389 166.89C258.409 166.22 257.149 164.82 257.149 162.02C257.149 159.22 258.409 157.83 265.389 157.15V157.03C257.219 157.65 255.809 159.05 255.809 162.02C255.809 164.99 257.219 166.38 265.389 167.01V166.89Z" fill="black"/>
<path d="M274.029 167.17C267.049 166.46 265.789 164.98 265.789 162.02C265.789 159.06 267.049 157.59 274.029 156.87V156.75C265.859 157.41 264.449 158.88 264.449 162.02C264.449 165.16 265.859 166.63 274.029 167.29V167.17Z" fill="black"/>
<path d="M284.428 167.33C277.448 166.59 276.188 165.07 276.188 162.02C276.188 158.97 277.448 157.44 284.428 156.71V156.58C276.258 157.26 274.848 158.78 274.848 162.02C274.848 165.26 276.258 166.78 284.428 167.46V167.33Z" fill="black"/>
<path d="M307.76 134.221C301.16 132.031 300.95 123.411 304.39 93.6206C308.59 57.3006 310.94 52.4506 322.59 52.3506C322.46 52.3506 322.33 52.3506 322.2 52.3506C310.21 52.3506 307.86 56.9006 303.61 93.6306C300.03 124.601 300.39 132.691 307.78 134.471V134.231L307.76 134.221Z" fill="black"/>
<path d="M335.071 52.9998C334.991 52.9498 334.921 52.8898 334.841 52.8398C326.201 54.6398 323.691 62.6698 319.651 93.0498C315.591 123.57 315.991 131.54 324.251 133.29L324.231 133.05C316.851 130.89 316.631 122.4 320.531 93.0498C324.461 63.4598 326.951 55.0798 335.061 52.9998H335.071Z" fill="black"/>
<path d="M305.309 61.1406C319.999 62.7106 333.889 80.0606 337.799 103.111C338.499 107.231 338.829 111.281 338.839 115.191C334.299 132.601 328.479 135.251 313.369 135.251C293.439 135.251 291.139 130.661 297.119 93.6006C299.749 77.2706 301.959 67.2506 305.309 61.1506V61.1406Z" fill="black"/>
<path d="M279.592 157.791L239.602 162.981L217.302 216.451H215.852L230.692 147.641L278.922 137.101L279.592 157.791Z" fill="#545454"/>
<path d="M236.941 157.11L216.281 216.45H217.301L240.541 163.74L279.591 157.79V145.33L236.941 157.11Z" fill="#3A3A3A"/>
<path d="M305.298 156.831L263.428 159.581L231.508 216.451H229.988L254.558 146.311L281.788 137.101L307.438 141.691L307.648 146.991L305.298 156.831Z" fill="#545454"/>
<path d="M307.441 141.691L276.341 137.811L271.911 138.631L298.301 147.981L297.771 149.821L259.611 153.921L230.801 216.451H231.511L264.231 161.301L305.301 156.831L307.651 146.991L307.441 141.691Z" fill="#3A3A3A"/>
<path d="M251.931 110.991C254.821 104.751 267.561 76.6609 271.401 73.4609C275.241 70.2609 281.111 96.5209 279.361 101.231C277.611 105.941 266.111 122.271 264.171 123.621C262.231 124.971 250.991 113.021 251.931 110.991Z" fill="#F2EEDB"/>
<path d="M275.711 77.4404C276.101 83.2704 274.991 90.7904 272.271 98.5804C268.821 108.46 263.631 116.37 258.641 120.22C261.061 122.51 263.391 124.16 264.181 123.61C266.121 122.26 279.721 106.27 281.471 101.56C282.681 98.2904 279.231 84.5304 275.721 77.4404H275.711Z" fill="#E2DCC4"/>
<path d="M232.638 119.84C230.488 118.18 227.948 116.59 226.738 116.65C223.368 116.81 219.698 120.41 216.398 121.45C214.628 122.01 206.728 120.41 210.508 116.11C212.168 114.21 217.018 113.44 217.928 110.35C218.638 107.97 218.958 104.88 222.448 103.97C224.758 103.36 228.488 107.26 235.238 107.5L232.648 119.85L232.638 119.84Z" fill="#FFC46A"/>
<path d="M213.75 114.07C210.55 115.8 208.52 117.02 206.58 116.8C204.65 116.58 204.3 111.87 203.21 111.36C202.12 110.85 200.16 111.67 199.99 112.75C199.83 113.83 203.23 119.87 204.04 120.61C204.85 121.35 212.39 122.57 215.49 121.56C220.74 119.86 217.92 111.82 213.75 114.07Z" fill="#FFC46A"/>
<path d="M226.291 105.85C225.861 103.55 219.301 103.42 218.601 102.96C217.281 102.09 215.281 99.2302 214.281 98.4002C213.281 97.5702 211.501 99.6602 211.311 100.26C211.041 101.1 213.361 103.98 214.441 104.93C215.451 105.83 217.821 107.94 217.891 110.42C218.021 114.91 227.561 112.64 226.281 105.84L226.291 105.85Z" fill="#FFC46A"/>
<path d="M222.011 112.05C218.661 113.37 216.521 114.33 214.621 113.86C212.731 113.4 212.861 108.67 211.841 108.02C210.821 107.37 208.781 107.94 208.511 108.99C208.241 110.05 210.981 116.49 211.711 117.33C212.441 118.16 216.701 119.47 219.881 118.86C225.261 117.83 226.371 110.33 222.001 112.05H222.011Z" fill="#FFC46A"/>
<path d="M218.241 114.48C214.871 115.87 212.711 116.88 210.811 116.47C208.911 116.06 209.031 111.36 208.001 110.74C206.971 110.12 204.921 110.74 204.651 111.79C204.381 112.85 207.151 119.18 207.891 119.99C208.621 120.8 212.921 121.99 216.121 121.3C221.531 120.14 222.641 112.66 218.251 114.48H218.241Z" fill="#FFC46A"/>
<path d="M227.859 104.74C227.859 104.74 256.859 104.7 258.799 105.68C260.739 106.65 267.839 121.45 263.269 123.08C258.689 124.71 226.469 119.93 226.469 119.93L227.859 104.74Z" fill="#F2EEDB"/>
<path d="M262.139 114.51C261.319 117.12 259.139 118.21 227.119 112.87L226.469 119.93C226.469 119.93 259.299 125.75 263.879 124.12C266.029 123.35 264.949 118.49 262.129 114.52L262.139 114.51Z" fill="#E2DCC4"/>
<path d="M309.331 146.68C309.331 146.68 277.681 139.05 274.321 137.93C274.321 137.93 275.891 119.53 275.891 114.14C275.891 108.75 267.581 78.2801 270.501 74.4601C273.421 70.6401 292.721 60.9501 305.971 69.4801C314.331 74.8601 314.741 100.12 316.091 108.65C317.441 117.18 311.201 142.67 309.561 146.02C307.921 149.36 309.341 146.69 309.341 146.69L309.331 146.68Z" fill="#F2EEDB"/>
<path d="M316.078 108.64C314.728 100.11 314.428 78.6704 306.078 73.2804C303.948 71.9104 292.898 88.6704 293.968 95.5004C295.108 102.75 299.268 127.88 296.648 135.74C296.648 135.74 285.488 138.52 274.578 138.01C279.008 139.37 309.328 146.68 309.328 146.68L309.548 146.01C311.188 142.67 317.418 117.17 316.078 108.64Z" fill="#DDD2BC"/>
<path d="M279.941 77.9102L284.321 83.0502L296.901 66.2701L294.341 65.9102L280.821 75.6802L279.941 77.9102Z" fill="#DDD2BC"/>
<path d="M276.148 79.47L278.638 76.48L279.268 74.33L277.288 69.75L276.428 70.33L276.148 79.47Z" fill="#DDD2BC"/>
<path d="M273.25 55.1L277.29 71.77L279.65 77.15L294.52 66.38L286.04 44.5L273.25 55.1Z" fill="#FFC46A"/>
<path d="M279.109 75.9404C281.219 90.2704 285.769 130.87 285.769 130.87L288.899 136.02L291.919 130.64L280.209 76.5504L279.109 75.9404Z" fill="#DDD2BC"/>
<path d="M278.781 75.4902C279.071 89.9002 278.461 130.73 278.461 130.73L280.941 135.91L284.641 130.5L279.801 76.1002L278.781 75.4902Z" fill="#EDBB0A"/>
<path d="M279.559 79.1703L277.959 76.9903L277.859 73.0803L280.319 73.0303L281.599 75.7403L279.559 79.1703Z" fill="#988200"/>
<path d="M217.148 214.01C218.688 215.13 217.538 217.38 217.538 217.38H204.738C204.738 217.38 215.608 212.89 217.148 214.01Z" fill="#E2D5B0"/>
<path d="M231.719 214.01C233.079 215.13 232.679 217.38 232.679 217.38H220.809C220.809 217.38 230.359 212.89 231.719 214.01Z" fill="#E2D5B0"/>
<path d="M317.77 115.79C317.23 109.7 315.72 83.1601 309.1 73.2901C306.54 69.4701 292.07 70.1101 294.03 92.7301C294.46 97.6601 300.23 117.5 301.04 122.34C301.39 124.45 317.96 117.97 317.77 115.8V115.79Z" fill="#F2EEDB"/>
<path d="M308.742 72.35C307.902 71.1 312.082 109.76 312.572 116.03C312.682 117.43 306.182 120.48 301.012 122.14C301.022 122.21 301.042 122.28 301.052 122.34C301.402 124.45 318.932 118.25 318.742 116.07C318.202 109.98 315.682 82.12 308.752 72.35H308.742Z" fill="#E2DCC4"/>
<path d="M286.618 136.9C284.188 137.98 279.808 139.74 279.038 143.28C278.778 144.45 275.148 148.76 274.378 149.1C273.548 149.47 270.398 150.98 267.648 148.08C265.218 145.53 265.558 142.95 267.068 141.34C268.578 139.74 267.548 135.95 267.918 135.16C269.218 132.4 275.778 130.31 279.928 127.36L286.618 136.89V136.9Z" fill="#FFC46A"/>
<path d="M275.788 132.2C274.658 131.67 266.968 132.65 265.538 133.59C264.108 134.53 260.188 135.48 259.278 135.81C258.368 136.14 258.588 138.48 259.448 138.4C260.308 138.32 265.208 137.14 266.278 137.26C268.408 137.51 267.608 139.98 267.598 140.79C269.198 140.71 278.968 133.69 275.798 132.19L275.788 132.2Z" fill="#FFC46A"/>
<path d="M267.929 139.951C266.299 141.911 264.649 144.771 263.899 144.931C263.149 145.091 257.969 145.221 257.629 145.741C257.289 146.261 256.579 148.341 257.549 148.491C258.519 148.641 263.869 148.161 264.959 147.581C266.039 146.991 268.479 144.911 268.709 144.521C268.939 144.131 268.509 139.261 267.929 139.951Z" fill="#FFC46A"/>
<path d="M269.141 142.63C267.831 144.95 266.281 148.66 265.501 149.01C264.721 149.36 259.521 150.66 259.041 150.97C258.441 151.36 258.761 153.67 259.851 153.57C260.951 153.47 266.421 152.08 267.461 151.23C268.501 150.38 270.911 147.26 271.061 146.82C271.221 146.39 269.591 141.81 269.131 142.62L269.141 142.63Z" fill="#FFC46A"/>
<path d="M272.849 143.471C272.079 146.071 270.609 150.581 269.949 151.111C269.279 151.641 265.379 153.661 264.989 154.081C264.509 154.601 265.259 156.821 266.269 156.461C267.279 156.101 272.169 153.461 272.979 152.371C273.789 151.291 275.129 148.571 276.419 147.061C276.749 146.681 273.109 142.551 272.839 143.461L272.849 143.471Z" fill="#FFC46A"/>
<path d="M272.969 128.701C272.969 128.701 299.399 110.421 302.029 106.701C303.279 104.931 320.329 112.241 317.299 116.041C312.779 121.701 282.479 141.791 282.479 141.791L272.979 128.701H272.969Z" fill="#F2EEDB"/>
<path d="M312.08 107.851C312.9 112.811 288.13 127.601 277.16 134.461L282.48 141.791C282.48 141.791 313.65 122.481 318.17 116.821C319.7 114.901 316.4 110.141 312.09 107.851H312.08Z" fill="#E2DCC4"/>
<path d="M278.68 72.9203L284.28 81.3203L296.48 66.0903L293.74 64.0703L278.68 72.9203Z" fill="#F2EEDB"/>
<path d="M276.661 69.4502L276.531 70.0402L276.661 76.9402L278.341 73.0702L276.661 69.4502Z" fill="#F2EEDB"/>
<g style="mix-blend-mode:multiply" opacity="0.6">
<path d="M280.149 90.5602C292.909 95.5702 293.039 73.4502 302.549 67.7102C300.719 66.9802 298.819 66.5102 296.899 66.2702L296.389 66.1902L296.479 66.0802L293.739 64.0602L293.639 64.1202L286.039 44.4902L274.369 54.1602C274.179 54.8902 274.089 55.3202 274.089 55.3202C273.889 55.6202 273.709 55.9402 273.529 56.2502L276.799 69.7602L276.649 69.4502L276.519 70.0402V70.2602L276.409 70.3402C274.379 71.3602 272.729 72.4102 271.629 73.3202C271.549 73.3602 271.469 73.4002 271.389 73.4602C271.299 73.5302 271.209 73.6302 271.109 73.7302C272.479 81.9602 276.559 89.1702 280.129 90.5702L280.149 90.5602Z" fill="#727272"/>
</g>
<path d="M262.532 27.2408C259.342 37.4508 266.562 64.6408 268.032 68.5708C268.032 68.5708 284.512 62.7608 286.532 57.3008C288.552 51.8308 285.632 34.9008 285.962 29.2708C286.292 23.6308 266.052 15.9708 262.532 27.2408Z" fill="#FFC46A"/>
<path d="M279.902 22.6101C273.592 26.9001 281.752 50.3901 281.752 50.3901L285.202 48.9601L289.582 29.6001C289.582 29.6001 286.212 18.3201 279.902 22.6101Z" fill="#272727"/>
<path d="M282.601 45.0108C282.451 39.5108 284.751 36.3908 287.131 39.2208C289.501 42.0508 288.311 47.2108 286.391 49.7508C284.481 52.3008 282.651 46.7608 282.601 45.0008V45.0108Z" fill="#FFC46A"/>
<path d="M283.7 44.7306C283.6 41.2706 285.06 39.3006 286.55 41.0906C288.04 42.8706 287.29 46.1206 286.09 47.7206C284.88 49.3206 283.74 45.8406 283.7 44.7306Z" fill="#E3921A"/>
<path d="M284.19 46.8805C284.13 44.5305 285.11 43.2005 286.12 44.4105C287.13 45.6205 286.62 47.8205 285.81 48.9005C284.99 49.9905 284.21 47.6205 284.19 46.8705V46.8805Z" fill="#FFC46A"/>
<path d="M263.9 39.0306C263.73 37.2906 264.17 35.8006 264.88 35.7006C265.59 35.6006 266.3 36.9306 266.47 38.6706C266.64 40.4006 266.2 41.9006 265.49 41.9906C264.78 42.0906 264.06 40.7706 263.89 39.0206L263.9 39.0306Z" fill="#443814"/>
<path d="M268.681 35.1905C267.651 34.3905 265.871 49.6405 266.581 52.0505C266.941 53.2805 272.391 50.5905 272.391 50.5905C272.391 50.5905 268.861 35.3405 268.681 35.2005V35.1905Z" fill="#FFC46A"/>
<path d="M268.352 35.5107C267.672 38.0507 266.232 49.6607 266.842 51.6407C267.122 52.5607 270.672 51.0907 271.972 50.4707C272.052 50.8607 272.112 51.0807 272.112 51.0807C272.112 51.0807 266.182 54.5007 265.832 53.2307C265.192 50.8407 267.442 35.8207 268.352 35.5107Z" fill="#E3921A"/>
<path d="M272.29 37.6703C272.12 35.9303 272.56 34.4403 273.27 34.3403C273.98 34.2303 274.7 35.5603 274.87 37.3003C275.04 39.0403 274.6 40.5303 273.89 40.6403C273.18 40.7403 272.46 39.4103 272.29 37.6703Z" fill="#443814"/>
<path d="M269.988 30.2005C270.968 32.2205 276.688 32.1005 277.338 31.0405C277.988 29.9805 278.408 28.8805 277.318 28.1805C276.228 27.4805 271.198 25.5405 270.298 26.3405C269.388 27.1405 269.548 29.2605 269.998 30.1905L269.988 30.2005Z" fill="#272727"/>
<path d="M265.85 30.6408C265.87 32.5908 260.4 34.2008 259.57 33.2408C258.74 32.2708 258.06 31.2408 258.58 30.5408C259.11 29.8308 263.37 26.3108 264.29 27.0208C265.21 27.7308 265.85 29.7408 265.85 30.6408Z" fill="#272727"/>
<path d="M267.691 55.5109L276.201 54.4609C276.201 54.4609 276.201 59.7709 274.801 60.3609C273.381 60.9409 269.991 60.8009 269.241 59.7009C268.491 58.5909 267.701 55.5209 267.701 55.5209L267.691 55.5109Z" fill="black"/>
<path d="M268.48 57.4601C268.01 55.8301 268.11 55.6601 268.11 55.6601L275.86 54.7001C275.86 54.7001 276.07 54.4901 275.83 56.4201L268.48 57.4601Z" fill="white"/>
</g>
<defs>
<clipPath id="clip0_570_4276">
<rect width="379.54" height="244.77" fill="white" transform="translate(0 5)"/>
</clipPath>
<clipPath id="clip1_570_4276">
<rect width="294.95" height="217.38" fill="white" transform="translate(51)"/>
</clipPath>
</defs>
</svg>
