<svg width="146" height="155" viewBox="0 0 146 155" fill="none" xmlns="http://www.w3.org/2000/svg">
<g clip-path="url(#clip0_559_667)">
<path d="M88.5136 108.774V124.02H51.0859V108.774C51.0859 102.829 55.7196 98.1912 61.6589 98.1912H77.915C83.8543 97.935 88.4879 102.855 88.4879 108.774H88.5136Z" fill="white"/>
<path d="M41.281 108.774V124.02H4.10938V108.774C4.10938 102.829 8.74303 98.1912 14.6823 98.1912H30.9385C36.6217 97.935 41.2554 102.855 41.2554 108.774H41.281Z" fill="white"/>
<path d="M135.746 108.774V124.02H98.5742V108.774C98.5742 102.829 103.233 98.1912 109.147 98.1912H125.403C130.831 97.935 135.72 102.855 135.72 108.774H135.746Z" fill="white"/>
<path d="M32.7546 123.994H12.6328V151.899H32.7546V123.994Z" fill="#EDBB0A"/>
<path d="M79.7312 123.994H59.6094V151.899H79.7312V123.994Z" fill="#EDBB0A"/>
<path d="M126.966 123.994H106.844V151.899H126.966V123.994Z" fill="#EDBB0A"/>
<path d="M13.1466 22.728C16.7095 22.728 19.5979 19.837 19.5979 16.2707C19.5979 12.7045 16.7095 9.81348 13.1466 9.81348C9.58364 9.81348 6.69531 12.7045 6.69531 16.2707C6.69531 19.837 9.58364 22.728 13.1466 22.728Z" fill="#EDBB0A"/>
<path d="M22.6971 72.0801C27.3563 72.0801 31.222 75.9493 31.222 80.6129C31.222 85.2765 27.3563 89.1457 22.6971 89.1457C18.0378 89.1457 14.1722 85.2765 14.1722 80.6129C13.9162 75.9749 17.7818 72.0801 22.6971 72.0801Z" fill="#EDBB0A"/>
<path d="M69.6733 72.0801C74.3838 72.0801 78.1982 75.8981 78.1982 80.6129C78.1982 85.3277 74.3838 89.1457 69.6733 89.1457C64.9629 89.1457 61.1484 85.3277 61.1484 80.6129C61.1484 75.8981 64.9629 72.0801 69.6733 72.0801Z" fill="#EDBB0A"/>
<path d="M96.783 11.8893C85.4165 0.512173 66.8307 0.512173 55.4897 11.8893C44.1232 23.2663 44.1232 41.8694 55.4897 53.2209C64.7826 62.5224 78.4532 64.0855 89.5637 58.397C94.735 55.8089 99.1126 51.4272 101.954 45.9949C107.894 34.8741 106.076 20.9346 96.783 11.8893Z" fill="white"/>
<path d="M123.357 67.1602C126.199 70.0045 126.711 74.13 124.893 77.4867C124.125 75.1549 122.051 73.105 119.466 72.3107C118.954 72.0544 117.93 72.0544 117.648 72.0544C114.551 71.7982 111.709 73.0794 110.173 75.1549C109.661 75.6674 109.405 76.4361 109.149 76.9743C109.149 77.2305 108.893 77.4867 108.893 77.4867L89.5391 58.1149C94.7103 55.5269 99.088 51.1452 101.93 45.7129L123.357 67.1602Z" fill="white"/>
<path d="M76.1217 64.8543C58.3039 64.8543 43.6094 50.3767 43.6094 32.568C43.6094 24.0351 46.963 15.7842 53.1583 9.58317C59.3535 3.38214 67.3664 0.0253906 76.1217 0.0253906C84.877 0.0253906 92.8899 3.38214 99.0852 9.58317C109.146 19.6534 111.476 35.156 105.024 47.558C105.024 47.8143 104.512 48.3268 104.512 48.583C103.488 50.1204 101.671 50.6586 100.135 49.608C98.5988 48.5574 98.0612 46.7637 99.1108 45.2262C99.1108 45.2262 99.3668 44.7138 99.6228 44.4575C104.794 34.3873 102.976 22.2415 94.9891 14.2211C89.5619 9.04506 83.1106 6.48266 76.1473 6.48266C69.1841 6.48266 62.7328 9.07069 57.8175 13.9649C52.9023 18.8847 50.3422 25.342 50.3422 32.3117C50.3422 39.2815 52.9279 45.7387 57.8175 50.6586C66.5984 59.4476 79.757 60.7288 89.8179 54.5278C90.0739 54.5278 89.8179 54.5278 90.0739 54.2715C90.2446 54.2715 90.3299 54.1861 90.3299 54.0153C91.8915 52.9903 93.6835 53.2466 94.7075 54.784C95.7315 56.3215 95.4755 58.1408 93.9395 59.1657C93.4275 59.422 92.1219 60.4469 90.8419 60.985C86.4643 63.5731 81.293 64.8543 76.1217 64.8543Z" fill="black"/>
<path d="M106.587 79.8182C84.1354 57.3459 87.745 60.9589 87.233 60.4464C85.6714 58.909 86.209 56.321 88.001 55.2704C92.3787 52.9386 96.5259 49.0694 99.1115 44.1752C100.136 42.3558 102.721 41.8434 104.283 43.4064C104.283 43.4064 103.515 42.6377 125.71 64.8538C129.576 68.723 130.344 74.1553 127.784 79.0751C127.272 80.1001 125.966 80.8944 124.686 80.8944C123.406 80.8944 122.357 80.1257 121.845 78.8189C121.589 78.3064 121.333 77.7939 120.821 76.9996C119.285 75.1803 120.053 72.336 122.382 71.5673C122.126 70.7986 121.614 70.0042 121.102 69.2355L102.772 51.1449C100.443 54.2454 97.8571 56.8334 95.0411 58.909L110.785 74.6678C112.347 75.4365 112.859 77.2558 112.065 78.7933C111.553 79.8182 110.785 80.6126 109.736 80.8688C108.456 80.8688 107.406 80.6126 106.638 79.8439L106.587 79.8182Z" fill="black"/>
<path d="M76.1222 18.0898C83.9559 18.0898 90.3048 24.4446 90.3048 32.2856C90.3048 40.1265 83.9559 46.4813 76.1222 46.4813C68.2885 46.4813 61.9141 40.1265 61.9141 32.2856C61.9141 24.4446 68.2629 18.0898 76.1222 18.0898Z" fill="#EDBB0A"/>
<path d="M28.121 44.4319L23.4618 49.0955L18.8281 44.4319L23.4618 39.7939L28.121 44.4319Z" fill="black"/>
<path d="M28.121 53.4774L23.4618 58.1154L18.8281 53.4774L23.4618 49.0957L28.121 53.4774Z" fill="black"/>
<path d="M14.2555 39.8436L9.69531 44.4111L14.2586 48.9755L18.8188 44.4079L14.2555 39.8436Z" fill="black"/>
<path d="M14.3773 49.0934L9.81641 53.6602L14.3789 58.2253L18.9399 53.6586L14.3773 49.0934Z" fill="black"/>
<path d="M76.1243 49.8642C71.465 49.8642 67.0874 48.0449 63.7338 44.6882C60.3801 41.3314 58.5625 36.9497 58.5625 32.2861C58.5625 27.6225 60.3801 23.2408 63.7338 19.8841C67.0874 16.5273 71.465 14.708 76.1243 14.708C80.7835 14.708 85.1612 16.5273 88.5148 19.8841C95.2221 26.5976 95.2221 37.7184 88.5148 44.6882C85.1612 48.0449 80.7835 49.8642 76.1243 49.8642ZM76.1243 21.4471C73.2827 21.4471 70.441 22.4721 68.393 24.5477C66.3194 26.6232 65.2954 29.4418 65.2954 32.2861C65.2954 35.1304 66.3194 37.9747 68.393 40.0246C70.4666 42.1001 73.3083 43.1251 76.1243 43.1251C78.9403 43.1251 81.8076 42.1001 83.8556 40.0246C88.2332 35.6429 88.2332 28.6475 83.8556 24.522C81.782 22.4465 79.2219 21.4215 76.1243 21.4215V21.4471Z" fill="black"/>
<path d="M22.6949 92.4764C16.2437 92.4764 10.8164 87.0441 10.8164 80.5868C10.8164 74.1296 16.2437 68.6973 22.6949 68.6973C29.1462 68.6973 34.5735 74.1296 34.5735 80.5868C34.5735 87.0441 29.1462 92.4764 22.6949 92.4764ZM22.6949 75.4364C19.5973 75.4364 17.2677 77.7682 17.2677 80.8687C17.2677 83.9692 19.5973 86.301 22.6949 86.301C25.7926 86.301 28.1222 83.9692 28.1222 80.8687C28.1222 77.7682 25.5366 75.4364 22.6949 75.4364Z" fill="black"/>
<path d="M32.756 155C30.9384 155 29.4023 153.437 29.4023 151.643V123.994C29.4023 122.175 30.9384 120.638 32.756 120.638C34.5736 120.638 36.1096 122.201 36.1096 123.994V151.899C35.8536 153.436 34.5736 155 32.756 155Z" fill="black"/>
<path d="M12.6349 155C10.8173 155 9.28125 153.437 9.28125 151.643V123.994C9.28125 122.175 10.8173 120.638 12.6349 120.638C14.4525 120.638 15.9885 122.201 15.9885 123.994V151.899C15.7325 153.436 14.4525 155 12.6349 155Z" fill="black"/>
<path d="M41.2812 127.095H3.85364C2.03602 127.095 0.5 125.558 0.5 123.739V108.492C0.5 100.754 6.69527 94.5527 14.4266 94.5527H30.6827C38.414 94.5527 44.6093 100.754 44.6093 108.492V123.739C44.6093 125.814 43.0477 127.095 41.2556 127.095H41.2812ZM7.20727 120.638H38.1836V108.492C38.1836 104.367 34.83 101.01 30.7083 101.01H14.4522C10.3305 101.01 6.97687 104.367 6.97687 108.492V120.638H7.23287H7.20727Z" fill="black"/>
<path d="M38.6959 155H6.43957C4.62195 155 3.08594 153.437 3.08594 151.643C3.08594 149.849 4.62195 148.286 6.43957 148.286H38.6959C40.5135 148.286 42.0496 149.849 42.0496 151.643C42.0496 153.437 40.5135 155 38.6959 155Z" fill="black"/>
<path d="M69.9293 92.4764C63.478 92.4764 58.0508 87.0441 58.0508 80.5868C58.0508 74.1296 63.478 68.6973 69.9293 68.6973C76.3806 68.6973 81.8078 74.1296 81.8078 80.5868C81.8078 87.0441 76.3806 92.4764 69.9293 92.4764ZM69.9293 75.4364C66.8317 75.4364 64.5021 77.7682 64.5021 80.8687C64.5021 83.9692 66.8317 86.301 69.9293 86.301C73.0269 86.301 75.3566 83.9692 75.3566 80.8687C75.1006 77.7682 72.7709 75.4364 69.9293 75.4364Z" fill="black"/>
<path d="M79.9904 155C78.1727 155 76.6367 153.437 76.6367 151.643V123.994C76.6367 122.175 78.1727 120.638 79.9904 120.638C81.808 120.638 83.344 122.201 83.344 123.994V151.899C83.088 153.436 81.5264 155 79.9904 155Z" fill="black"/>
<path d="M59.6114 155C57.7938 155 56.2578 153.437 56.2578 151.643V123.994C56.2578 122.175 57.8194 120.638 59.6114 120.638C61.4035 120.638 62.9651 122.201 62.9651 123.994V151.899C62.9651 153.436 61.4035 155 59.6114 155Z" fill="black"/>
<path d="M88.5156 127.095H51.088C49.2704 127.095 47.7344 125.558 47.7344 123.739V108.492C47.7344 100.754 53.9296 94.5527 61.6609 94.5527H77.9171C85.6484 94.5527 91.8437 100.754 91.8437 108.492V123.739C91.8437 125.814 90.282 127.095 88.49 127.095H88.5156ZM54.1856 120.638H85.162V108.492C85.162 104.367 81.8083 101.01 77.6867 101.01H61.4305C57.3089 101.01 53.9552 104.367 53.9552 108.492L54.2112 120.638H54.1856Z" fill="black"/>
<path d="M85.9264 154.999H53.67C51.8524 154.999 50.3164 153.436 50.3164 151.643C50.3164 149.849 51.878 148.542 53.67 148.542H85.9264C87.744 148.542 89.28 150.079 89.28 151.899C89.28 153.436 87.744 154.999 85.9264 154.999Z" fill="black"/>
<path d="M133.16 155H127.221C125.403 155 123.867 153.437 123.867 151.643C123.867 149.849 125.429 148.286 127.221 148.286H133.16C134.978 148.286 136.514 149.849 136.514 151.643C136.258 153.462 134.696 155 133.16 155Z" fill="black"/>
<path d="M106.844 155H100.904C99.0868 155 97.5508 153.437 97.5508 151.643C97.5508 149.849 99.1124 148.286 100.904 148.286H106.844C108.661 148.286 110.197 149.849 110.197 151.643C110.197 153.437 108.636 155 106.844 155Z" fill="black"/>
<path d="M126.964 155H106.842C105.024 155 103.488 153.437 103.488 151.643V123.994C103.488 122.175 105.024 120.638 106.842 120.638C108.66 120.638 110.196 122.201 110.196 123.994V148.542H123.866V123.994C123.866 122.175 125.428 120.638 127.22 120.638C129.012 120.638 130.573 122.201 130.573 123.994V151.899C130.317 153.436 128.756 155 126.964 155Z" fill="black"/>
<path d="M135.746 127.095H98.3185C96.5009 127.095 94.9648 125.558 94.9648 123.739V108.492C94.9648 100.754 101.16 94.5527 108.891 94.5527H125.148C132.879 94.5527 139.074 100.754 139.074 108.492V123.739C138.818 125.814 137.538 127.095 135.72 127.095H135.746ZM101.416 120.638H132.392V108.492C132.392 104.367 129.039 101.01 124.917 101.01H108.661C104.539 101.01 101.186 104.367 101.186 108.492L101.442 120.638H101.416Z" fill="black"/>
<path d="M142.196 58.1153C141.428 58.1153 140.66 57.8591 139.867 57.0903L117.159 34.3618C115.879 33.0806 115.879 31.005 117.159 29.6982C118.439 28.417 120.513 28.417 121.793 29.6982L144.5 52.4268C145.78 53.708 145.78 55.7835 144.5 57.0647C143.732 57.8334 142.964 58.0897 142.171 58.0897L142.196 58.1153Z" fill="black"/>
<path d="M119.233 44.4317C117.415 44.4317 115.879 42.8942 115.879 41.0749V32.0296C115.879 30.2103 117.441 28.6729 119.233 28.6729H128.525C130.343 28.6729 131.879 30.2359 131.879 32.0296C131.879 33.8233 130.343 35.3864 128.525 35.3864H122.586V41.3311C122.586 42.8942 121.025 44.4317 119.233 44.4317Z" fill="black"/>
<path d="M135.745 28.9293C134.977 28.9293 134.183 28.673 133.415 27.9043L117.159 11.633C115.879 10.3518 115.879 8.27629 117.159 6.99508C118.439 5.71388 120.513 5.71388 121.793 6.99508L138.049 23.2664C139.329 24.5476 139.329 26.6231 138.049 27.9299C137.281 28.6987 136.513 28.9549 135.719 28.9549L135.745 28.9293Z" fill="black"/>
<path d="M119.49 21.7031C117.673 21.7031 116.137 20.1401 116.137 18.3464V9.30109C116.137 7.48178 117.673 5.94434 119.49 5.94434H128.527C130.345 5.94434 131.881 7.5074 131.881 9.30109C131.881 11.0948 130.345 12.6578 128.527 12.6578H122.588V18.6026C122.844 20.4219 121.308 21.7031 119.49 21.7031Z" fill="black"/>
<path d="M13.1448 25.8282C7.71749 25.8282 3.33984 21.4465 3.33984 16.0142C3.33984 10.5819 7.71749 6.2002 13.1448 6.2002C18.572 6.2002 22.9497 10.5819 22.9497 16.0142C22.9497 21.4465 18.316 25.8282 13.1448 25.8282ZM13.1448 12.9137C11.3271 12.9137 9.79112 14.4511 9.79112 16.2705C9.79112 18.0898 11.3527 19.6272 13.1448 19.6272C14.9368 19.6272 16.4984 18.0898 16.4984 16.2705C16.2424 14.4511 14.9624 12.9137 13.1448 12.9137Z" fill="black"/>
<path d="M117.417 72.0801C117.673 72.0801 118.185 72.0801 118.441 72.3363C122.562 73.105 125.404 76.718 125.404 80.8691C125.404 85.5327 121.538 89.402 116.879 89.402C110.684 89.402 106.562 82.9447 108.866 77.5124C109.122 76.7437 109.89 75.4368 110.684 74.6681C110.94 74.4119 111.708 73.8994 112.245 73.3869C113.013 72.8744 114.063 72.3619 115.087 72.3619C115.343 72.3619 116.111 72.1057 116.111 72.1057H117.391L117.417 72.0801Z" fill="#EDBB0A"/>
<path d="M116.906 92.4764C110.455 92.4764 105.027 87.0441 105.027 80.5868C105.027 78.7675 105.539 76.7176 106.307 74.8983C107.587 72.5665 109.661 70.7728 111.735 69.7222C114.32 68.441 117.674 68.1592 120.26 69.2098C124.893 70.7728 128.528 75.1545 128.528 80.5868C128.784 87.3004 123.357 92.4764 116.906 92.4764ZM111.991 78.7932C110.429 82.4061 113.015 86.2754 116.906 86.2754C120.797 86.2754 123.357 82.4061 122.077 78.7932C121.821 78.0244 121.053 77.2557 120.541 76.7176C120.2 76.376 119.944 76.2051 119.773 76.2051C119.005 75.6926 118.237 75.4364 117.187 75.4364H115.907C115.651 75.4364 115.395 75.4364 114.883 75.6926C114.115 75.9489 113.603 76.4614 113.066 76.7176L112.81 76.9738C112.298 77.4863 112.042 77.7426 112.042 77.9988V78.7675L111.991 78.7932Z" fill="black"/>
</g>
<defs>
<clipPath id="clip0_559_667">
<rect width="145" height="155" fill="white" transform="translate(0.5)"/>
</clipPath>
</defs>
</svg>
