<svg width="448" height="353" viewBox="0 0 448 353" fill="none" xmlns="http://www.w3.org/2000/svg">
<path fill-rule="evenodd" clip-rule="evenodd" d="M20.1982 236.014C13.8036 222.234 9.722 206.112 15.3156 192.001C26.9123 162.733 70.8557 159.67 86.2741 132.214C94.0242 118.409 92.6678 101.09 87.2544 86.2102C84.8201 79.5138 81.5651 72.757 82.0822 65.6519C82.8318 55.3276 91.3154 47.258 100.127 41.7908C127.476 24.8067 161.446 22.9366 193.663 23.9057C223.349 24.8007 253.364 27.7841 281.239 38.0296C309.915 48.5717 335.254 66.3876 362.61 79.9735C398.821 97.9528 372.614 84.4569 405.911 101.321C417.01 106.943 434.883 115.159 434.883 149.32C434.883 173.968 410.821 191.265 405.911 205.103C401.154 218.508 399.857 219.805 396.397 237.967C395.1 249.642 391.856 261.32 388.614 267.804C385.587 273.858 378.236 280.458 351.503 282.681C315.045 285.713 280.264 288.314 250.671 309.749C242.573 315.617 230.78 318.83 221.267 321.856C206.132 326.672 198.417 325.649 183.646 321.856C170.744 318.54 154.722 312.89 141.701 310.237C130.233 307.907 112.699 304.743 101.486 301.1C77.8948 293.433 60.1139 288.697 43.3455 270.456C33.9424 260.23 26.0496 248.619 20.2035 236.02L20.1982 236.014Z" fill="#EDBB0A"/>
<g clip-path="url(#clip0_281_1397)">
<path d="M332.381 283.792C332.214 283.792 332.074 283.651 332.074 283.484V231.386C332.074 231.219 332.214 231.079 332.381 231.079C332.548 231.079 332.689 231.219 332.689 231.386V283.484C332.689 283.651 332.548 283.792 332.381 283.792Z" fill="black"/>
<path d="M374.042 284.306C373.875 284.306 373.734 284.166 373.734 283.999V231.593C373.734 231.426 373.875 231.286 374.042 231.286C374.209 231.286 374.349 231.426 374.349 231.593V283.999C374.349 284.166 374.209 284.306 374.042 284.306Z" fill="black"/>
<path d="M374.254 228.575H329.596C328.725 228.575 328.02 229.281 328.02 230.151V231.494C328.02 232.364 328.725 233.07 329.596 233.07H374.254C375.124 233.07 375.83 232.364 375.83 231.494V230.151C375.83 229.281 375.124 228.575 374.254 228.575Z" fill="#181818"/>
<path d="M159.78 285.608C159.613 285.608 159.473 285.468 159.473 285.301V230.518C159.473 230.351 159.613 230.211 159.78 230.211C159.947 230.211 160.087 230.351 160.087 230.518V285.301C160.087 285.468 159.947 285.608 159.78 285.608Z" fill="black"/>
<path d="M109.463 285.608C109.296 285.608 109.156 285.468 109.156 285.301V231.747C109.156 231.58 109.296 231.439 109.463 231.439C109.63 231.439 109.771 231.58 109.771 231.747V285.301C109.771 285.468 109.63 285.608 109.463 285.608Z" fill="black"/>
<path d="M161.66 230.519H106.056C105.322 230.519 104.727 231.114 104.727 231.848V232.963C104.727 233.697 105.322 234.292 106.056 234.292H161.66C162.394 234.292 162.989 233.697 162.989 232.963V231.848C162.989 231.114 162.394 230.519 161.66 230.519Z" fill="#181818"/>
<path d="M289.165 78.1182H175.058C173.468 78.1182 172.18 79.4069 172.18 80.9965V271.758C172.18 273.347 173.468 274.636 175.058 274.636H289.165C290.755 274.636 292.043 273.347 292.043 271.758V80.9965C292.043 79.4069 290.755 78.1182 289.165 78.1182Z" fill="#CACACA"/>
<path d="M289.165 78.1182H175.058C173.468 78.1182 172.18 79.4069 172.18 80.9965V271.758C172.18 273.347 173.468 274.636 175.058 274.636H289.165C290.755 274.636 292.043 273.347 292.043 271.758V80.9965C292.043 79.4069 290.755 78.1182 289.165 78.1182Z" fill="black"/>
<path d="M287.129 269.721V83.0264H177.096V269.721H287.129Z" fill="#DFDFDF"/>
<path d="M268.4 151.286H190.023C188.433 151.286 187.145 152.575 187.145 154.165V254.561C187.145 256.15 188.433 257.439 190.023 257.439H268.4C269.99 257.439 271.279 256.15 271.279 254.561V154.165C271.279 152.575 269.99 151.286 268.4 151.286Z" fill="white"/>
<path d="M196.57 216.193H215.202C216.792 216.193 218.081 217.482 218.081 219.072V249.532C218.081 251.121 216.792 252.41 215.202 252.41H196.57C194.98 252.41 193.691 251.121 193.691 249.532V219.072C193.691 217.482 194.98 216.193 196.57 216.193Z" fill="#EDBB0A"/>
<path d="M241.801 216.193H223.175C221.586 216.193 220.297 217.482 220.297 219.072V249.525C220.297 251.115 221.586 252.404 223.175 252.404H241.801C243.391 252.404 244.68 251.115 244.68 249.525V219.072C244.68 217.482 243.391 216.193 241.801 216.193Z" fill="#EDBB0A"/>
<path d="M268.395 216.193H249.769C248.179 216.193 246.891 217.482 246.891 219.072V249.525C246.891 251.115 248.179 252.404 249.769 252.404H268.395C269.985 252.404 271.273 251.115 271.273 249.525V219.072C271.273 217.482 269.985 216.193 268.395 216.193Z" fill="#EDBB0A"/>
<path d="M280.336 123.524C280.336 123.524 281.364 124.639 283.729 124.332C286.093 124.025 286.513 122.335 286.513 122.335H286.941L286.834 134.229L281.465 135.425L280.336 123.524Z" fill="#CACACA"/>
<path d="M286.479 122.715C286.399 123.256 285.557 123.871 284.102 124.252C282.639 124.639 281.03 124.178 280.489 123.717C280.128 123.403 280.148 122.842 280.275 121.847C280.335 121.373 280.415 120.805 280.489 120.118L286.479 114.588C286.479 114.588 286.499 116.351 286.506 118.234C286.519 120.265 286.526 122.442 286.479 122.715Z" fill="#E7A441"/>
<path d="M286.498 118.234C285.229 120.004 282.658 121.594 280.273 121.847C280.334 121.373 280.414 120.805 280.487 120.118L286.478 114.588C286.478 114.588 286.498 116.351 286.504 118.234H286.498Z" fill="#B07723"/>
<path d="M270.664 283.11C270.216 283.084 263.371 287.992 263.371 287.992H279.646L279.366 283.063L270.671 283.11H270.664Z" fill="#525252"/>
<path d="M304.671 286.39L318.715 283.224L318.368 278.188C315.663 279.497 312.578 280.346 310.434 280.76L304.664 286.39H304.671Z" fill="#525252"/>
<path d="M310.273 230.418C308.891 227.807 308.817 188.738 308.817 188.738C308.817 188.738 307.669 190.121 300.069 190.501C292.469 190.882 285.329 189.273 285.329 189.273C282.184 189.96 270.056 190.501 270.056 190.501C268.827 197.407 266.062 253.292 265.755 262.508C265.448 271.717 265.141 282.663 265.141 282.663C265.141 282.663 275.606 283.932 282.578 282.663C282.578 282.663 284.642 241.932 285.329 236.863C286.017 231.8 288.889 202.79 288.889 202.79C288.889 202.79 292.929 227.807 295.694 240.396C298.459 252.984 307.208 280.619 307.822 281.007C307.996 281.114 309.004 281.034 310.44 280.76C312.584 280.346 315.676 279.504 318.374 278.189C320.317 277.247 322.054 276.065 323.096 274.636C323.096 274.636 311.656 233.029 310.273 230.418Z" fill="#181818"/>
<path d="M289.011 108.518C289.732 107.222 290.701 106.407 291.696 106.962C292.691 107.523 291.923 111.283 291.235 112.051C290.547 112.819 288.857 113.046 288.397 112.511C287.936 111.977 288.503 109.426 289.011 108.518Z" fill="#E7A441"/>
<path d="M313.653 193.186C313.273 196.485 312.812 198.636 313.653 198.789C314.495 198.943 314.956 195.103 315.65 195.336C316.338 195.563 317.874 202.549 318.642 202.783C319.41 203.01 319.023 196.792 319.023 196.792C319.023 196.792 319.711 201.861 320.632 201.861C321.554 201.861 321.013 196.178 321.013 196.178C321.013 196.178 321.394 200.479 322.469 200.325C323.544 200.172 322.469 194.795 322.469 194.795C322.469 194.795 323.544 198.555 324.158 198.482C324.773 198.408 324.005 191.65 323.083 189.272L313.64 193.186H313.653Z" fill="#E7A441"/>
<path d="M344.054 195.102C343.594 191.984 342.004 188.651 341.597 187.89C341.189 187.122 337.296 179.295 336.481 177.452C335.66 175.608 333.716 170.693 332.027 170.546C330.337 170.392 328.447 173.772 328.293 174.74C328.293 174.74 326.55 175.047 327.472 175.916C328.394 176.784 330.591 177.198 330.591 177.198C330.591 177.198 330.744 179.809 331.205 181.599C331.666 183.389 336.014 196.852 337.91 200.178C339.807 203.504 341.911 205.414 342.879 204.539C343.854 203.671 344.509 198.228 344.048 195.109L344.054 195.102Z" fill="#E7A441"/>
<path d="M384.891 198.943C384.731 197.066 384.223 193.42 383.595 189.42C382.841 184.571 381.906 179.222 381.204 175.909C379.922 169.872 377.625 166.8 375.167 165.825C372.709 164.85 364.315 162.706 364.068 162.653C363.821 162.599 359.813 162.653 359.813 162.653C359.813 162.653 355.867 163.167 352.093 164.068C351.098 164.302 350.116 164.569 349.222 164.857C344.921 166.239 344.413 169.565 343.952 172.33C343.492 175.094 341.748 186.815 341.602 187.89C342.009 188.658 343.598 191.984 344.059 195.103C344.52 198.222 343.859 203.665 342.89 204.533C345.034 203.711 348.04 201.1 349.382 198.122C350.818 194.949 350.951 187.396 350.951 187.396C350.951 187.396 351.379 194.589 351.479 197.561C351.546 199.471 351.479 203.104 351.432 205.448C354.898 203.791 360.935 202.255 364.989 201.501C369.951 200.579 375.227 198.843 375.842 198.122C375.842 198.122 378.807 199.097 380.296 201.14C381.779 203.19 382.8 206.717 382.8 206.717C382.8 206.717 385.258 203.084 384.897 198.936L384.891 198.943Z" fill="#181818"/>
<path d="M348.656 212.066C348.95 211.866 349.17 211.686 349.17 211.686C349.17 211.686 348.897 211.853 348.656 212.066Z" fill="#E7A441"/>
<path d="M353.779 211.432C352.496 212.046 349.171 213.121 348.509 212.814C348.149 212.647 348.376 212.327 348.663 212.073C348.196 212.393 347.554 212.761 347.334 212.507C346.973 212.099 347.695 211.218 347.695 211.218C347.441 211.565 345.698 212.814 345.851 211.839C345.945 211.245 346.352 210.163 347.241 208.947C340.201 211.091 320.2 217.282 316.834 219.466C312.74 222.124 306.289 232.569 302.809 238.706C299.33 244.85 287.355 269.106 287.355 269.106L299.23 275.658L311.705 255.696L306.295 279.751C311.518 281.287 322.671 278.115 322.671 278.115C322.671 278.115 324.414 268.291 326.15 261.533C327.893 254.781 333.931 233.49 334.986 233.076C336.041 232.669 356.857 232.976 366.988 230.926C377.12 228.876 378.963 223.867 379.577 219.566C380.192 215.265 377.554 209.021 377.333 209.061C374.609 209.562 371.43 209.775 368.885 210.043C364.023 210.557 353.785 211.425 353.785 211.425L353.779 211.432Z" fill="#272727"/>
<path d="M348.656 212.066C348.95 211.866 349.17 211.686 349.17 211.686C349.17 211.686 348.897 211.853 348.656 212.066Z" fill="#272727"/>
<path d="M380.285 201.147C378.735 199.143 375.83 198.128 375.83 198.128C375.216 198.843 369.947 200.586 364.978 201.507C360.924 202.262 354.887 203.798 351.421 205.454C350.646 205.821 349.992 206.202 349.524 206.576C348.536 207.364 347.788 208.186 347.227 208.954C346.339 210.169 345.931 211.251 345.838 211.845C345.684 212.82 347.427 211.572 347.681 211.224C347.681 211.224 346.966 212.106 347.32 212.513C347.541 212.767 348.188 212.4 348.649 212.079C348.89 211.865 349.164 211.698 349.164 211.698C349.164 211.698 348.943 211.879 348.649 212.079C348.362 212.333 348.135 212.653 348.496 212.82C349.164 213.128 352.489 212.052 353.765 211.438C353.765 211.438 364.003 210.57 368.865 210.056C371.409 209.788 374.588 209.575 377.313 209.074C379.784 208.62 381.888 207.925 382.789 206.73C382.789 206.73 382.201 203.631 380.285 201.153V201.147Z" fill="#E7A441"/>
<path d="M153.111 141.322C152.343 139.733 149.424 137.535 147.534 136.407C145.638 135.278 145.998 134.256 141.651 132.774C137.303 131.291 134.892 132.52 132.949 134.67C131.005 136.821 130.237 138.918 129.469 139.886C128.701 140.855 127.319 141.482 127.012 143.987C126.704 146.491 128.294 149.463 128.922 150.084V150.077C128.922 149.991 128.862 146.959 129.623 146.805C130.391 146.651 131.466 147.78 131.466 147.78C131.466 147.78 131.927 146.297 133.002 144.708C134.077 143.119 136.275 140.668 138.665 140.254C141.05 139.846 143.447 141.583 144.876 143.018C145.083 143.225 145.317 143.412 145.558 143.593C146.96 144.608 148.87 145.009 150.967 144.661C153.425 144.254 153.885 142.918 153.117 141.335L153.111 141.322Z" fill="black"/>
<path d="M149.454 193.42C151.985 192.652 166.778 187.998 166.778 187.998C166.751 185.947 165.549 185.079 165.549 185.079C165.549 185.079 157.435 187.583 151.451 189.273C145.46 190.963 142.008 190.976 141.961 190.769L142.702 194.262C142.702 194.262 146.923 194.188 149.461 193.42H149.454Z" fill="#181818"/>
<path d="M174.992 188.077C174.865 187.937 174.738 187.803 174.604 187.683C172.661 185.94 169.228 187.222 166.777 187.99C170.591 192.545 169.489 196.278 169.489 196.278C172.147 196.332 172.915 194.281 172.915 194.281C173.275 194.488 175.78 197.046 176.14 196.739C176.501 196.432 176.194 194.028 176.194 194.028C176.194 194.028 176.448 196.024 176.755 196.078C177.062 196.131 177.523 195.871 177.576 194.902C177.623 193.994 176.695 190.027 174.992 188.084V188.077Z" fill="#E7A441"/>
<path d="M166.778 187.991C166.778 187.991 151.985 192.646 149.454 193.414C146.923 194.182 142.695 194.255 142.695 194.255L141.954 190.762L141.006 186.261C141.006 186.261 141.694 179.589 140.625 174.293C139.55 168.997 136.685 166.64 136.685 166.64L131.001 163.261C127.368 165.311 124.811 166.433 121.992 172.009C119.181 177.586 110.759 201.461 109.457 210.597C109.457 210.597 113.985 211.672 122.433 211.212C130.875 210.751 135.022 209.001 135.022 209.001L135.109 208.64L135.563 206.684C135.563 206.684 135.87 207.912 139.323 207.912C142.775 207.912 151.684 204.613 157.361 202.156C163.044 199.698 169.489 196.272 169.489 196.272C169.489 196.272 170.591 192.539 166.778 187.984V187.991Z" fill="#181818"/>
<path d="M182.716 220.648C182.616 216.875 181.975 215.345 180.312 213.996C177.854 211.999 160.197 210.771 153.518 210.236C146.84 209.702 135.099 208.66 135.099 208.66L135.012 209.021C135.012 209.021 130.865 210.771 122.424 211.231C113.982 211.692 109.447 210.617 109.447 210.617C109.447 210.617 106.916 217.756 107.911 222.284C108.907 226.812 111.598 230.572 120.039 232.034C128.481 233.49 164.871 231.574 164.871 231.574L156.196 279.705L177.38 281.007C177.38 281.007 179.036 265.513 180.479 250.974C181.46 241.084 182.335 231.634 182.522 227.807C182.669 224.755 182.749 222.444 182.703 220.641L182.716 220.648Z" fill="#525252"/>
<path d="M161.348 280.019V285.301H177.015L168.26 280.426L161.348 280.019Z" fill="black"/>
<path d="M218.078 283.845L207.867 277.781L207.666 273.921C205.562 275.297 203.452 276.372 202.043 277.026L204.34 283.838H218.084L218.078 283.845Z" fill="black"/>
<path d="M182.716 220.647C182.763 222.451 182.689 224.761 182.536 227.813C182.349 231.633 181.474 241.083 180.492 250.981C183.838 255.729 200.347 277.788 200.347 277.788C200.347 277.788 201.008 277.521 202.043 277.04C203.452 276.379 205.563 275.31 207.667 273.934C209.924 272.458 212.174 270.635 213.55 268.578L182.716 220.654V220.647Z" fill="#222222"/>
<path d="M274.044 110.769C276.195 109.486 278.753 110.361 280.195 111.283C281.638 112.205 283.768 113.333 285.404 112.305C287.041 111.283 287.862 108.465 287.862 106.421C287.862 104.378 287.348 100.437 285.712 99.2084C284.075 97.9796 280.416 98.0731 279.033 98.8478C277.844 99.5156 275.24 100.337 274.145 99.4288C273.417 101.606 272.281 108.565 272.662 111.937C272.969 111.537 273.41 111.143 274.044 110.769Z" fill="#E7A441"/>
<path d="M291.647 97.4118C290.626 94.7538 288.989 92.4297 285.864 91.8354C282.745 91.241 281.176 92.0023 280.194 92.0891C278.237 92.2628 276.728 91.4013 274.891 93.0108C273.048 94.6202 273.128 97.0779 273.743 98.8477C273.829 99.0948 273.97 99.2818 274.15 99.4287C275.245 100.337 277.85 99.5155 279.039 98.8477C280.421 98.073 284.081 97.9728 285.717 99.2083C287.353 100.437 287.867 104.377 287.867 106.421C287.867 108.465 287.046 111.283 285.41 112.305C283.774 113.326 281.643 112.204 280.201 111.283C278.758 110.361 276.2 109.493 274.05 110.769C273.415 111.143 272.975 111.537 272.667 111.937C271.933 112.899 272.006 113.934 272.26 115.016C272.621 116.552 273.489 118.803 276.608 120.285C279.726 121.768 283.62 119.571 285.663 117.06C287.714 114.555 290.011 106.568 290.732 104.985C291.447 103.396 292.676 100.07 291.654 97.4118H291.647Z" fill="black"/>
<path d="M285.385 186.829L285.211 186.815C285.284 188.358 285.324 189.273 285.324 189.273C285.324 189.273 285.344 188.371 285.385 186.829Z" fill="#181818"/>
<path d="M292.973 272.212C293.1 272.285 291.958 275.765 291.958 275.765C291.958 275.765 283.463 280.88 283.77 280.88C284.077 280.88 297.38 280.173 297.38 280.173L298.402 274.843L292.973 272.212Z" fill="black"/>
<path d="M313.96 279.751V284.299C313.96 284.299 308.537 289.782 308.845 289.682C309.152 289.581 321.226 284.72 321.226 284.72L320.665 278.629L313.96 279.758V279.751Z" fill="black"/>
<path d="M137.286 161.271C137.239 162.212 137.172 163.408 137.079 164.436C136.972 165.545 136.845 166.46 136.685 166.66C136.224 167.221 134.434 166.506 133.366 165.685C132.291 164.87 130.755 163.842 131.008 163.281C131.135 163 131.576 161.705 131.997 160.302C132.144 159.815 132.284 159.327 132.417 158.853C132.665 157.958 132.852 157.143 132.912 156.676C133.272 157.537 133.673 158.372 134.08 159.033C134.868 160.302 136.024 161.017 137.293 161.277L137.286 161.271Z" fill="#E7A441"/>
<path d="M148.456 154.932C148.148 154.932 145.591 155.446 145.591 155.446C145.337 156.241 144.956 157.043 144.462 157.797C144.348 157.971 144.235 158.138 144.115 158.305C143.233 159.487 142.078 160.475 140.735 160.969C139.627 161.377 138.411 161.497 137.289 161.263C136.027 161.003 134.865 160.295 134.077 159.019C133.67 158.358 133.276 157.523 132.908 156.662C131.96 154.405 131.265 151.96 131.265 151.96C129.776 152.728 129.115 151.573 128.935 150.064C128.935 149.977 128.875 146.945 129.629 146.791C130.397 146.638 131.473 147.766 131.473 147.766C131.473 147.766 131.933 146.277 133.009 144.694C134.084 143.105 136.288 140.647 138.672 140.24C141.056 139.826 143.447 141.569 144.889 143.005C145.096 143.212 145.33 143.399 145.571 143.579C145.985 144.454 146.285 145.576 146.472 146.404C146.519 146.638 146.566 146.845 146.592 147.012C146.646 147.292 146.673 147.479 146.673 147.506C146.673 147.659 148.469 154.925 148.469 154.925L148.456 154.932Z" fill="#E7A441"/>
<path d="M359.815 162.659C359.815 162.659 358.873 162.78 357.471 163.013C357.217 163.842 357.097 164.429 357.177 164.63C357.331 165.01 358.165 165.705 360.509 165.398C362.86 165.09 363.775 163.635 364.009 162.9C364.022 162.853 364.042 162.766 364.069 162.659C363.822 162.606 359.815 162.659 359.815 162.659Z" fill="#E7A441"/>
<path d="M352.802 157.944C353.022 160.602 352.668 162.586 352.094 164.075C354.024 163.614 356.001 163.254 357.47 163.013C357.657 162.399 357.917 161.651 358.231 160.809C356.294 160.743 354.204 159.734 352.802 157.944Z" fill="#282828"/>
<path d="M386.577 176.837C385.194 171.615 383.739 169.164 381.895 167.321C380.052 165.477 374.91 154.498 374.836 152.201C374.763 149.897 377.294 146.598 373.915 141.762C370.535 136.927 365.32 136.233 363.243 136.386C361.172 136.54 359.536 137.341 358.788 137.154C357.92 136.934 355.643 134.389 353.412 137.154C351.188 139.919 354.18 141.762 354.18 141.762C354.18 141.762 356.711 143.145 358.247 142.991C359.783 142.838 362.548 141.843 364.926 144.293C367.303 146.751 367.383 149.589 367.383 149.589C367.383 149.589 368.532 148.134 369.454 148.668C370.375 149.202 369.914 153.122 368.532 153.964C367.149 154.805 366.535 153.349 366.535 153.349C366.381 153.904 365.914 154.819 365.246 155.82C364.886 158.031 364.291 161.631 364.057 162.666C364.305 162.719 372.699 164.87 375.157 165.838C377.615 166.813 379.919 169.878 381.194 175.922C381.895 179.235 382.824 184.584 383.585 189.433C383.719 189.379 383.845 189.332 383.959 189.279C386.417 188.204 387.953 182.066 386.57 176.844L386.577 176.837Z" fill="#282828"/>
<path d="M359.479 160.716C359.078 160.797 358.658 160.823 358.23 160.81C357.916 161.658 357.656 162.399 357.469 163.014C358.871 162.787 359.813 162.66 359.813 162.66C359.813 162.66 363.82 162.606 364.067 162.66C364.294 161.625 364.895 158.025 365.256 155.814C363.88 157.871 361.649 160.302 359.479 160.71V160.716Z" fill="#B07723"/>
<path d="M369.458 148.661C368.536 148.127 367.387 149.583 367.387 149.583C367.387 149.583 367.314 146.745 364.93 144.287C362.552 141.829 359.787 142.831 358.251 142.985C356.715 143.138 354.184 141.756 354.184 141.756C351.88 144.901 350.578 149.737 351.266 154.345C351.48 155.767 352.04 156.969 352.802 157.944C354.204 159.734 356.288 160.742 358.231 160.809C358.659 160.823 359.08 160.796 359.48 160.716C361.651 160.302 363.881 157.877 365.257 155.821C365.925 154.819 366.392 153.904 366.546 153.35C366.546 153.35 367.16 154.805 368.543 153.964C369.925 153.122 370.386 149.202 369.464 148.668L369.458 148.661Z" fill="#E7A441"/>
<path d="M137.283 161.271C137.236 162.212 137.169 163.408 137.076 164.436C135.74 163.321 133.429 161.157 132.414 158.853C132.661 157.958 132.848 157.143 132.908 156.676C133.269 157.537 133.67 158.372 134.077 159.033C134.865 160.302 136.02 161.017 137.289 161.277L137.283 161.271Z" fill="#B07723"/>
<path d="M174.611 187.683C174.744 187.804 174.871 187.937 174.998 188.077C174.998 188.077 173.849 185.894 172.006 185.072C170.163 184.251 167.966 184.251 165.555 185.072C165.555 185.072 165.762 185.433 166.015 185.894C166.269 186.354 166.784 187.991 166.784 187.991C169.241 187.223 172.667 185.94 174.611 187.683Z" fill="#B07723"/>
<path d="M286.834 134.23L284.443 130.396L286.5 127.171L283.02 124.56L281.023 127.745L283.348 130.356L281.444 135.225L285.211 188.732L285.458 183.73C285.712 173.806 286.246 153.497 286.506 148.047C286.66 144.788 286.767 139.299 286.827 134.223L286.834 134.23Z" fill="#282828"/>
<path d="M315.11 154.038C312.271 144.214 310.809 131.391 305.132 127.324C299.449 123.257 290.166 122.182 286.94 122.335C286.94 122.335 286.914 127.965 286.834 134.229C286.767 139.298 286.667 144.788 286.513 148.054C286.253 153.503 285.324 189.273 285.324 189.273C285.324 189.273 292.463 190.882 300.063 190.502C307.663 190.121 308.812 188.738 308.812 188.738C308.505 186.515 306.127 171.315 306.127 171.315L313.647 193.193C320.553 193.039 323.09 189.279 323.09 189.279C323.09 189.279 317.948 163.868 315.11 154.044V154.038Z" fill="#404040"/>
<path d="M137.744 147.707C137.657 147.707 137.571 147.667 137.51 147.593C137.404 147.46 137.424 147.266 137.551 147.159C138.546 146.338 141.144 145.797 142.559 146.759C142.7 146.852 142.74 147.046 142.639 147.186C142.546 147.326 142.352 147.366 142.212 147.266C141.07 146.491 138.773 146.939 137.938 147.633C137.878 147.68 137.811 147.707 137.744 147.707Z" fill="black"/>
<path d="M130.571 150.853C130.457 150.853 130.344 150.786 130.291 150.679C130.277 150.646 129.89 149.831 129.469 148.368C129.422 148.208 129.516 148.034 129.676 147.988C129.836 147.941 130.01 148.034 130.057 148.195C130.464 149.61 130.838 150.405 130.845 150.412C130.918 150.565 130.852 150.746 130.698 150.819C130.658 150.839 130.611 150.846 130.564 150.846L130.571 150.853Z" fill="black"/>
<path d="M144.455 157.798C144.341 157.971 144.228 158.138 144.107 158.305C143.353 157.978 142.418 157.33 141.83 156.475C141.737 156.335 141.77 156.141 141.91 156.048C142.05 155.948 142.244 155.988 142.338 156.128C142.919 156.976 143.84 157.557 144.455 157.798Z" fill="black"/>
<path d="M146.579 147.012C146.272 147.032 145.904 147.092 145.55 147.252C145.51 147.272 145.464 147.286 145.424 147.286C145.31 147.286 145.197 147.219 145.15 147.099C145.076 146.945 145.15 146.758 145.303 146.691C145.711 146.504 146.105 146.424 146.465 146.404C146.512 146.638 146.559 146.845 146.586 147.012H146.579Z" fill="black"/>
<path d="M135.56 207.004C135.486 207.004 135.406 206.977 135.346 206.917C130.551 202.296 124.694 180.077 125.068 175.222C125.081 175.055 125.228 174.908 125.395 174.941C125.562 174.955 125.689 175.102 125.676 175.269C125.502 177.533 126.851 184.238 128.814 190.869C131.165 198.796 133.696 204.48 135.767 206.47C135.887 206.59 135.893 206.784 135.773 206.904C135.713 206.964 135.633 206.998 135.553 206.998L135.56 207.004Z" fill="black"/>
<path d="M142.7 194.569C142.54 194.569 142.406 194.449 142.393 194.289C142.393 194.269 142.206 192.111 141.391 189.554C141.111 188.679 140.724 187.056 140.269 185.173C139.368 181.439 138.139 176.324 137.01 173.953C136.937 173.799 137.004 173.619 137.157 173.546C137.311 173.472 137.491 173.539 137.565 173.692C138.72 176.123 139.909 181.065 140.864 185.032C141.311 186.902 141.705 188.518 141.972 189.373C142.807 192.005 142.994 194.155 143.001 194.242C143.014 194.409 142.887 194.562 142.72 194.576C142.714 194.576 142.7 194.576 142.694 194.576L142.7 194.569Z" fill="black"/>
<path d="M125.358 220.949C125.305 220.949 125.258 220.935 125.211 220.908C124.877 220.721 116.957 216.32 115.407 210.223C115.367 210.056 115.467 209.889 115.628 209.849C115.788 209.809 115.962 209.909 116.002 210.069C117.264 215.045 123.214 218.985 124.997 220.067C124.837 218.397 124.336 213.589 123.588 210.21C123.555 210.043 123.655 209.882 123.822 209.842C123.989 209.802 124.149 209.909 124.189 210.076C125.104 214.243 125.659 220.548 125.665 220.608C125.672 220.721 125.625 220.828 125.525 220.888C125.472 220.922 125.418 220.935 125.358 220.935V220.949Z" fill="black"/>
<path d="M165.548 282.97C165.548 282.97 165.515 282.97 165.495 282.97C165.328 282.944 165.215 282.783 165.248 282.617C168.1 266.068 175.466 222.792 175.286 221.289C175.058 220.795 173.716 220.815 172.868 220.962C172.561 221.015 136.424 220.975 125.358 220.962C125.191 220.962 125.051 220.821 125.051 220.655C125.051 220.488 125.191 220.347 125.358 220.347C141.493 220.367 172.167 220.387 172.788 220.347C173.369 220.247 175.372 219.993 175.86 221.089C176.274 222.024 168.307 268.498 165.849 282.717C165.822 282.864 165.695 282.97 165.548 282.97Z" fill="black"/>
<path d="M311.697 256.003C311.697 256.003 311.637 256.003 311.604 255.99C311.443 255.937 311.356 255.763 311.403 255.603C311.737 254.581 313.1 248.731 314.535 242.54C316.265 235.12 318.048 227.447 318.489 226.218C319.437 223.566 327.345 220.381 344.114 215.893C344.274 215.853 344.448 215.946 344.488 216.113C344.535 216.28 344.435 216.447 344.268 216.487C328.153 220.802 319.911 224.054 319.057 226.425C318.629 227.62 316.766 235.621 315.123 242.68C313.681 248.884 312.311 254.741 311.971 255.79C311.931 255.917 311.811 256.003 311.677 256.003H311.697Z" fill="black"/>
<path d="M352.595 187.122C352.595 187.122 352.548 187.122 352.522 187.116C346.164 185.62 347.847 177.906 348.568 174.607L348.615 174.387C348.648 174.22 348.815 174.119 348.982 174.153C349.149 174.186 349.249 174.353 349.216 174.52L349.169 174.741C348.435 178.12 346.898 185.159 352.669 186.515C352.836 186.555 352.936 186.722 352.896 186.882C352.862 187.022 352.735 187.116 352.595 187.116V187.122Z" fill="black"/>
<path d="M375.83 198.435C375.683 198.435 375.556 198.335 375.53 198.181L373.306 186.107C373.286 186 373.326 185.893 373.406 185.82C374.849 184.531 376.097 180.35 374.702 175.856C374.648 175.695 374.742 175.522 374.902 175.468C375.062 175.415 375.236 175.508 375.289 175.669C376.725 180.283 375.456 184.631 373.947 186.154L376.144 198.068C376.178 198.235 376.064 198.395 375.897 198.428C375.877 198.428 375.857 198.428 375.844 198.428L375.83 198.435Z" fill="black"/>
<path d="M355.226 157.671C354.651 157.671 354.07 157.577 353.63 157.284C353.489 157.19 353.449 157.003 353.543 156.856C353.636 156.716 353.83 156.676 353.97 156.769C354.832 157.33 356.635 156.923 357.196 156.736C357.356 156.683 357.53 156.769 357.583 156.93C357.637 157.09 357.55 157.264 357.39 157.317C357.376 157.317 356.314 157.671 355.226 157.671Z" fill="black"/>
<path d="M354.911 147.893C354.811 147.893 354.711 147.84 354.651 147.746C354.023 146.724 352.694 146.337 352.193 146.183C352.093 146.15 352.013 146.13 351.973 146.11C351.813 146.043 351.739 145.87 351.806 145.709C351.873 145.556 352.053 145.475 352.207 145.542C352.233 145.556 352.293 145.569 352.367 145.589C352.928 145.756 354.417 146.197 355.172 147.412C355.259 147.559 355.219 147.746 355.072 147.833C355.018 147.866 354.965 147.88 354.911 147.88V147.893Z" fill="black"/>
<path d="M362.779 149.276C362.712 149.276 362.652 149.256 362.599 149.215C360.962 148.007 358.498 148.534 358.471 148.541C358.304 148.581 358.144 148.474 358.104 148.307C358.071 148.14 358.171 147.98 358.338 147.94C358.451 147.913 361.103 147.352 362.959 148.721C363.093 148.821 363.126 149.015 363.026 149.149C362.966 149.229 362.872 149.276 362.779 149.276Z" fill="black"/>
<path d="M367.428 152.274C367.374 152.274 367.321 152.261 367.268 152.227C367.121 152.14 367.074 151.953 367.161 151.806C367.174 151.78 367.528 151.199 368.116 150.531C368.229 150.404 368.423 150.391 368.55 150.504C368.677 150.618 368.69 150.811 368.577 150.938C368.029 151.559 367.688 152.114 367.688 152.12C367.628 152.214 367.528 152.267 367.428 152.267V152.274Z" fill="black"/>
<path d="M352.801 154.572C352.721 154.572 352.648 154.538 352.588 154.485C352.501 154.405 352.474 154.278 352.514 154.164C352.514 154.164 354.317 148.948 354.431 148.601C354.484 148.441 354.658 148.354 354.818 148.407C354.979 148.461 355.065 148.634 355.012 148.795C354.919 149.069 353.79 152.348 353.309 153.743L354.611 153.249C354.772 153.189 354.945 153.269 355.005 153.43C355.065 153.59 354.985 153.763 354.825 153.824L352.908 154.551C352.875 154.565 352.835 154.572 352.801 154.572Z" fill="black"/>
<path d="M361.252 141.082C360.137 141.082 358.935 140.821 358.207 140.187C358.08 140.073 358.067 139.88 358.173 139.753C358.287 139.626 358.481 139.612 358.607 139.719C359.663 140.634 362.1 140.621 363.129 140.133C363.276 140.06 363.463 140.127 363.536 140.28C363.61 140.434 363.543 140.614 363.389 140.688C362.875 140.928 362.087 141.075 361.252 141.075V141.082Z" fill="white"/>
<path d="M370.228 147.706C370.068 147.706 369.934 147.586 369.921 147.426C369.754 145.542 368.939 143.071 367.683 141.99C367.556 141.876 367.543 141.682 367.65 141.555C367.763 141.429 367.957 141.415 368.084 141.522C369.527 142.764 370.361 145.429 370.528 147.372C370.542 147.539 370.415 147.693 370.248 147.706C370.241 147.706 370.228 147.706 370.221 147.706H370.228Z" fill="white"/>
<path d="M369.061 161.985C368.988 161.985 368.907 161.958 368.847 161.905C367.739 160.856 367.164 158.145 368.066 156.068C368.133 155.914 368.313 155.841 368.473 155.908C368.627 155.974 368.7 156.155 368.634 156.308C367.779 158.278 368.44 160.669 369.275 161.451C369.395 161.564 369.402 161.764 369.288 161.885C369.228 161.951 369.148 161.978 369.068 161.978L369.061 161.985Z" fill="white"/>
<path d="M376.294 164.897C376.18 164.897 376.067 164.83 376.02 164.723C376.007 164.69 374.551 161.638 372.894 159.1C372.801 158.96 372.841 158.766 372.981 158.673C373.121 158.579 373.315 158.619 373.409 158.76C375.092 161.337 376.561 164.429 376.574 164.456C376.648 164.61 376.581 164.79 376.427 164.864C376.387 164.884 376.34 164.89 376.294 164.89V164.897Z" fill="white"/>
<path d="M383.275 176.684C383.275 176.684 383.209 176.684 383.175 176.671C382.982 176.604 382.962 176.491 382.875 176.017C382.654 174.835 382.073 171.709 379.97 169.211C379.863 169.085 379.876 168.891 380.01 168.777C380.137 168.67 380.33 168.684 380.444 168.817C382.648 171.442 383.275 174.801 383.483 175.91C383.509 176.063 383.529 176.177 383.549 176.237C383.589 176.311 383.603 176.397 383.576 176.484C383.536 176.611 383.416 176.691 383.282 176.691L383.275 176.684Z" fill="white"/>
<path d="M384.238 185.7C384.238 185.7 384.211 185.7 384.204 185.7C384.037 185.68 383.917 185.527 383.937 185.36C383.937 185.326 384.311 182.061 383.937 179.336C383.911 179.169 384.031 179.015 384.198 178.989C384.365 178.969 384.518 179.082 384.545 179.249C384.932 182.054 384.565 185.293 384.545 185.427C384.525 185.58 384.391 185.7 384.238 185.7Z" fill="white"/>
<path d="M300.958 172.483C300.958 172.483 300.904 172.483 300.878 172.47L291.561 169.912C291.401 169.865 291.301 169.698 291.347 169.531C291.394 169.364 291.561 169.271 291.728 169.318L301.044 171.876C301.205 171.922 301.305 172.089 301.258 172.256C301.218 172.39 301.098 172.483 300.964 172.483H300.958Z" fill="black"/>
<path d="M271.28 172.998C271.139 172.998 271.012 172.898 270.979 172.757C270.946 172.59 271.046 172.43 271.213 172.39L279.3 170.6C279.474 170.567 279.628 170.667 279.668 170.834C279.701 171.001 279.601 171.161 279.434 171.201L271.346 172.991C271.346 172.991 271.3 172.998 271.28 172.998Z" fill="black"/>
<path d="M306.676 173.205C306.549 173.205 306.429 173.125 306.389 172.998C305.314 169.872 302.709 157.29 301.687 150.786C301.661 150.619 301.774 150.458 301.941 150.432C302.102 150.405 302.269 150.518 302.295 150.685C303.317 157.163 305.908 169.692 306.977 172.791C307.03 172.951 306.95 173.125 306.79 173.178C306.756 173.192 306.723 173.198 306.69 173.198L306.676 173.205Z" fill="black"/>
<path d="M267.465 149.971C267.465 149.971 267.438 149.971 267.425 149.971C267.258 149.951 267.137 149.797 267.164 149.623C267.164 149.597 267.478 147.152 266.576 142.658C266.543 142.491 266.65 142.331 266.817 142.297C266.977 142.264 267.144 142.371 267.177 142.538C268.099 147.139 267.785 149.603 267.772 149.703C267.752 149.857 267.618 149.971 267.471 149.971H267.465Z" fill="black"/>
<path d="M289.431 110.896C289.431 110.896 289.398 110.896 289.378 110.896C289.211 110.869 289.097 110.709 289.131 110.542C289.131 110.502 289.311 109.56 290.246 108.545C290.36 108.418 290.553 108.411 290.68 108.525C290.807 108.638 290.814 108.832 290.7 108.959C289.899 109.834 289.739 110.642 289.739 110.648C289.712 110.795 289.585 110.902 289.438 110.902L289.431 110.896Z" fill="black"/>
<path d="M277.209 113.934C276.714 113.934 276.2 113.721 275.826 113.48C275.486 113.26 275.299 113.046 275.272 112.839C275.252 112.672 275.365 112.519 275.532 112.492C275.686 112.472 275.833 112.572 275.873 112.726C276.006 112.933 276.888 113.453 277.442 113.287C277.603 113.24 277.776 113.327 277.823 113.494C277.87 113.654 277.783 113.827 277.616 113.874C277.482 113.914 277.342 113.934 277.202 113.934H277.209Z" fill="white"/>
<path d="M275.636 110.501C275.556 110.501 275.482 110.467 275.422 110.414C275.342 110.334 275.308 110.214 275.342 110.107C276.036 107.823 277.138 104.11 277.225 103.515C276.945 103.201 275.068 102.306 273.806 102.6C273.639 102.64 273.479 102.54 273.439 102.373C273.398 102.206 273.499 102.046 273.666 102.006C274.981 101.692 276.804 102.447 277.439 102.901C277.699 103.088 277.826 103.248 277.84 103.422C277.873 103.782 276.838 107.288 276.103 109.706L278.394 108.918C278.554 108.865 278.728 108.951 278.781 109.112C278.835 109.272 278.754 109.446 278.594 109.499L275.736 110.481C275.736 110.481 275.669 110.501 275.636 110.501Z" fill="black"/>
<path d="M285.322 104.063C285.269 104.063 285.216 104.05 285.162 104.017C283.072 102.741 280.641 103.87 280.621 103.876C280.467 103.95 280.287 103.883 280.213 103.73C280.14 103.576 280.207 103.396 280.36 103.322C280.474 103.269 283.112 102.04 285.489 103.489C285.636 103.576 285.676 103.77 285.59 103.91C285.529 104.003 285.429 104.057 285.329 104.057L285.322 104.063Z" fill="black"/>
<path d="M142.702 149.51C142.702 150.084 142.468 150.545 142.181 150.545C141.894 150.545 141.66 150.084 141.66 149.51C141.66 148.935 141.894 148.475 142.181 148.475C142.468 148.475 142.702 148.935 142.702 149.51Z" fill="black"/>
<path d="M281.366 106.227C281.312 106.715 281.072 107.089 280.831 107.062C280.591 107.035 280.437 106.615 280.497 106.127C280.551 105.64 280.791 105.266 281.032 105.292C281.272 105.319 281.426 105.74 281.366 106.227Z" fill="black"/>
<path d="M275.037 105.673C274.984 106.16 274.744 106.534 274.503 106.507C274.263 106.481 274.109 106.06 274.169 105.572C274.223 105.085 274.463 104.711 274.704 104.738C274.944 104.764 275.098 105.185 275.037 105.673Z" fill="black"/>
<path d="M358.354 150.645C358.3 151.133 358.06 151.507 357.82 151.48C357.579 151.453 357.426 151.033 357.486 150.545C357.539 150.058 357.78 149.684 358.02 149.71C358.26 149.737 358.414 150.158 358.354 150.645Z" fill="black"/>
<path d="M352.788 149.049C352.734 149.536 352.494 149.91 352.253 149.883C352.013 149.857 351.859 149.436 351.919 148.948C351.973 148.461 352.213 148.087 352.454 148.114C352.694 148.14 352.848 148.561 352.788 149.049Z" fill="black"/>
<path d="M330.234 175.108C330.428 174.954 337.293 169.351 337.414 169.311C337.527 169.271 338.295 169.504 338.255 170.847L332.305 175.415L330.234 175.108Z" fill="#525252"/>
<path d="M328.434 176.517C328.434 176.517 323.445 180.751 323.558 180.63L323.672 180.517L323.098 181.859L324.393 181.479L330.237 177.118L328.434 176.523V176.517Z" fill="#525252"/>
<path d="M130.973 134.156L129.444 127.645C129.865 127.451 130.165 127.024 130.165 126.529V104.33C130.165 103.656 129.611 103.102 128.936 103.102H97.9554C97.2809 103.102 96.7266 103.656 96.7266 104.33V126.529C96.7266 127.204 97.2809 127.758 97.9554 127.758H126.038C127.654 129.568 130.973 134.156 130.973 134.156Z" fill="white"/>
<path d="M385.874 93.4717H356.389C355.714 93.4717 355.16 94.026 355.16 94.7005V124.186L355.547 130.937L360.59 125.414H385.874C386.549 125.414 387.103 124.86 387.103 124.186V94.7005C387.103 94.026 386.549 93.4717 385.874 93.4717Z" fill="white"/>
<path d="M337.026 69.3223H307.541C306.867 69.3223 306.312 69.8766 306.312 70.5511V100.036L306.7 106.788L311.742 101.265H337.026C337.701 101.265 338.255 100.711 338.255 100.036V70.5511C338.255 69.8766 337.701 69.3223 337.026 69.3223Z" fill="white"/>
<path d="M266.211 162.125H192.362C192.195 162.125 192.055 161.985 192.055 161.818C192.055 161.651 192.195 161.511 192.362 161.511H266.211C266.378 161.511 266.519 161.651 266.519 161.818C266.519 161.985 266.378 162.125 266.211 162.125Z" fill="#EDBB0A"/>
<path d="M266.211 169.925H192.362C192.195 169.925 192.055 169.785 192.055 169.618C192.055 169.451 192.195 169.311 192.362 169.311H266.211C266.378 169.311 266.519 169.451 266.519 169.618C266.519 169.785 266.378 169.925 266.211 169.925Z" fill="#EDBB0A"/>
<path d="M234.433 181.593H192.366C192.199 181.593 192.059 181.453 192.059 181.286C192.059 181.119 192.199 180.979 192.366 180.979H234.433C234.6 180.979 234.74 181.119 234.74 181.286C234.74 181.453 234.6 181.593 234.433 181.593Z" fill="#EDBB0A"/>
<path d="M247.299 181.666C242.951 181.666 239.592 181.646 239.405 181.579C239.244 181.525 239.158 181.352 239.211 181.192C239.265 181.038 239.425 180.951 239.578 180.991C240.4 181.105 259.073 181.025 266.218 180.985C266.385 180.985 266.526 181.118 266.526 181.292C266.526 181.459 266.392 181.599 266.218 181.599C262.519 181.619 253.797 181.666 247.299 181.666Z" fill="#EDBB0A"/>
<path d="M266.212 188.384H239.499C239.332 188.384 239.191 188.244 239.191 188.077C239.191 187.91 239.332 187.77 239.499 187.77H266.212C266.379 187.77 266.519 187.91 266.519 188.077C266.519 188.244 266.379 188.384 266.212 188.384Z" fill="#EDBB0A"/>
<path d="M234.433 188.384H192.366C192.199 188.384 192.059 188.244 192.059 188.077C192.059 187.91 192.199 187.77 192.366 187.77H234.433C234.6 187.77 234.74 187.91 234.74 188.077C234.74 188.244 234.6 188.384 234.433 188.384Z" fill="#EDBB0A"/>
<path d="M251.627 196.338H213.553C213.386 196.338 213.246 196.198 213.246 196.031C213.246 195.864 213.386 195.724 213.553 195.724H251.627C251.794 195.724 251.934 195.864 251.934 196.031C251.934 196.198 251.794 196.338 251.627 196.338Z" fill="#EDBB0A"/>
<path d="M251.627 204.666H213.553C213.386 204.666 213.246 204.526 213.246 204.359C213.246 204.192 213.386 204.052 213.553 204.052H251.627C251.794 204.052 251.934 204.192 251.934 204.359C251.934 204.526 251.794 204.666 251.627 204.666Z" fill="#EDBB0A"/>
<path d="M333.507 75.4795H310.172C310.045 75.4795 309.945 75.3793 309.945 75.2525C309.945 75.1256 310.045 75.0254 310.172 75.0254H333.507C333.634 75.0254 333.734 75.1256 333.734 75.2525C333.734 75.3793 333.634 75.4795 333.507 75.4795Z" fill="black"/>
<path d="M333.507 79.7803H310.172C310.045 79.7803 309.945 79.6801 309.945 79.5532C309.945 79.4263 310.045 79.3262 310.172 79.3262H333.507C333.634 79.3262 333.734 79.4263 333.734 79.5532C333.734 79.6801 333.634 79.7803 333.507 79.7803Z" fill="black"/>
<path d="M333.507 85.2032H310.172C310.045 85.2032 309.945 85.103 309.945 84.9761C309.945 84.8492 310.045 84.749 310.172 84.749H333.507C333.634 84.749 333.734 84.8492 333.734 84.9761C333.734 85.103 333.634 85.2032 333.507 85.2032Z" fill="black"/>
<path d="M333.507 89.9112H310.172C310.045 89.9112 309.945 89.811 309.945 89.6841C309.945 89.5572 310.045 89.457 310.172 89.457H333.507C333.634 89.457 333.734 89.5572 333.734 89.6841C333.734 89.811 333.634 89.9112 333.507 89.9112Z" fill="black"/>
<path d="M333.507 95.1338H310.172C310.045 95.1338 309.945 95.0336 309.945 94.9068C309.945 94.7799 310.045 94.6797 310.172 94.6797H333.507C333.634 94.6797 333.734 94.7799 333.734 94.9068C333.734 95.0336 333.634 95.1338 333.507 95.1338Z" fill="black"/>
<path d="M382.534 99.2276H359.915C359.788 99.2276 359.688 99.1274 359.688 99.0005C359.688 98.8736 359.788 98.7734 359.915 98.7734H382.534C382.661 98.7734 382.761 98.8736 382.761 99.0005C382.761 99.1274 382.661 99.2276 382.534 99.2276Z" fill="black"/>
<path d="M382.534 104.55H359.915C359.788 104.55 359.688 104.45 359.688 104.323C359.688 104.196 359.788 104.096 359.915 104.096H382.534C382.661 104.096 382.761 104.196 382.761 104.323C382.761 104.45 382.661 104.55 382.534 104.55Z" fill="black"/>
<path d="M382.534 110.421H359.915C359.788 110.421 359.688 110.321 359.688 110.194C359.688 110.067 359.788 109.967 359.915 109.967H382.534C382.661 109.967 382.761 110.067 382.761 110.194C382.761 110.321 382.661 110.421 382.534 110.421Z" fill="black"/>
<path d="M382.534 116.011H359.915C359.788 116.011 359.688 115.911 359.688 115.784C359.688 115.657 359.788 115.557 359.915 115.557H382.534C382.661 115.557 382.761 115.657 382.761 115.784C382.761 115.911 382.661 116.011 382.534 116.011Z" fill="black"/>
<path d="M190.097 199.097H160.712C160.196 199.097 159.777 199.515 159.777 200.032V200.82C159.777 201.336 160.196 201.755 160.712 201.755H190.097C190.614 201.755 191.032 201.336 191.032 200.82V200.032C191.032 199.515 190.614 199.097 190.097 199.097Z" fill="black"/>
<path d="M189.44 201.11L188.619 200.705C188.086 200.442 187.864 199.789 188.127 199.256L201.278 172.576C201.541 172.043 202.194 171.821 202.727 172.084L203.548 172.489C204.081 172.751 204.303 173.404 204.04 173.937L190.888 200.617C190.626 201.151 189.973 201.372 189.44 201.11Z" fill="black"/>
<path d="M343.653 198.876H296.364C295.729 198.876 295.215 199.39 295.215 200.025V201C295.215 201.634 295.729 202.148 296.364 202.148H343.653C344.288 202.148 344.802 201.634 344.802 201V200.025C344.802 199.39 344.288 198.876 343.653 198.876Z" fill="black"/>
<path d="M331.125 199.03H296.11C295.436 199.03 294.734 198.475 294.554 197.801L288.27 174.36C288.089 173.685 288.49 173.131 289.171 173.131H324.186C324.861 173.131 325.562 173.685 325.742 174.36L332.026 197.801C332.207 198.475 331.806 199.03 331.125 199.03Z" fill="black"/>
<path d="M311.475 184.451C311.936 186.461 311.242 188.331 309.913 188.638C308.584 188.945 307.134 187.57 306.674 185.559C306.213 183.549 306.907 181.679 308.236 181.372C309.565 181.065 311.014 182.441 311.475 184.451Z" fill="#EDBB0A"/>
<path d="M119.412 114.788C119.873 111.302 118.123 108.183 115.258 107.368C113.622 106.907 110.984 106.821 108.913 108.09C107.484 108.971 106.576 110.333 106.222 112.15C105.32 116.738 107.631 119.803 110.309 120.879L110.93 126.088C110.944 126.201 111.044 126.288 111.157 126.288H114.476C114.597 126.288 114.697 126.195 114.703 126.068L115.011 120.611C116.66 119.743 119.031 117.7 119.418 114.775L119.412 114.788ZM114.249 125.841H111.358L110.79 121.059C110.79 121.059 110.817 121.072 110.83 121.072C110.837 121.072 110.85 121.072 110.857 121.072C110.897 121.079 111.578 121.193 112.439 121.193C112.887 121.193 113.374 121.166 113.855 121.072C113.862 121.072 113.875 121.072 113.889 121.066C114.069 121.032 114.289 120.959 114.537 120.852L114.256 125.841H114.249ZM112.286 116.324C112.6 116.344 112.894 116.331 113.167 116.284C113.054 117.86 113.228 119.616 113.515 120.665C113.034 120.732 112.553 120.745 112.132 120.732C112.239 120.03 112.486 118.047 112.286 116.331V116.324ZM114.71 120.271C114.71 120.271 114.697 120.278 114.69 120.284C114.423 120.418 114.183 120.511 113.969 120.571C113.682 119.543 113.515 117.713 113.642 116.15C114.076 115.983 114.43 115.71 114.657 115.342C115.231 114.427 115.525 113.232 115.044 112.905C114.75 112.704 114.376 112.905 113.929 113.499C113.541 114.013 113.314 114.855 113.208 115.796C112.88 115.877 112.526 115.89 112.212 115.856C112.119 115.329 111.972 114.841 111.752 114.447C110.984 113.058 110.376 113.145 110.149 113.245C109.708 113.446 109.581 114.12 109.848 114.888C110.102 115.629 110.97 116.09 111.805 116.257C112.032 117.967 111.758 120.051 111.665 120.698C111.277 120.672 111.004 120.632 110.937 120.618C108.245 119.803 105.761 116.838 106.656 112.237C106.983 110.554 107.818 109.292 109.14 108.477C111.084 107.281 113.575 107.368 115.118 107.802C117.809 108.564 119.378 111.409 118.944 114.714C118.584 117.426 116.28 119.456 114.703 120.258L114.71 120.271ZM113.702 115.609C113.809 114.835 113.996 114.174 114.303 113.766C114.623 113.339 114.784 113.292 114.79 113.279C114.897 113.406 114.844 114.187 114.269 115.095C114.129 115.322 113.929 115.489 113.702 115.609ZM111.732 115.763C111.017 115.583 110.449 115.189 110.289 114.728C110.089 114.14 110.189 113.719 110.342 113.653C110.356 113.646 110.376 113.639 110.403 113.639C110.583 113.639 110.937 113.893 111.358 114.654C111.531 114.962 111.651 115.342 111.732 115.756V115.763Z" fill="black"/>
<path d="M106.863 119.062L105.273 120.311C105.173 120.391 105.153 120.531 105.233 120.632C105.28 120.692 105.347 120.718 105.413 120.718C105.46 120.718 105.514 120.705 105.554 120.672L107.143 119.423C107.243 119.343 107.263 119.202 107.183 119.102C107.103 119.002 106.963 118.989 106.863 119.062Z" fill="black"/>
<path d="M105.286 115.543C105.266 115.416 105.152 115.33 105.025 115.35L102.568 115.71C102.441 115.73 102.354 115.844 102.374 115.971C102.394 116.084 102.488 116.164 102.601 116.164C102.614 116.164 102.621 116.164 102.634 116.164L105.092 115.804C105.219 115.784 105.306 115.67 105.286 115.543Z" fill="black"/>
<path d="M104.492 110.434C104.593 110.434 104.679 110.368 104.713 110.274C104.753 110.154 104.679 110.027 104.559 109.987L102.208 109.272C102.088 109.239 101.955 109.306 101.921 109.426C101.881 109.546 101.955 109.68 102.075 109.713L104.426 110.428C104.426 110.428 104.472 110.434 104.492 110.434Z" fill="black"/>
<path d="M107.579 107.422C107.626 107.489 107.699 107.522 107.773 107.522C107.82 107.522 107.86 107.509 107.9 107.482C108.007 107.409 108.033 107.269 107.966 107.162L106.838 105.465C106.771 105.359 106.624 105.332 106.517 105.399C106.41 105.472 106.384 105.612 106.45 105.719L107.579 107.416V107.422Z" fill="black"/>
<path d="M112.645 106.674C112.772 106.674 112.872 106.574 112.872 106.447V104.677C112.872 104.55 112.772 104.45 112.645 104.45C112.518 104.45 112.418 104.55 112.418 104.677V106.447C112.418 106.574 112.518 106.674 112.645 106.674Z" fill="black"/>
<path d="M118.056 107.522C118.056 107.522 118.123 107.515 118.156 107.502L119.946 106.654C120.06 106.6 120.113 106.46 120.053 106.347C120 106.233 119.859 106.18 119.746 106.24L117.956 107.088C117.843 107.141 117.789 107.282 117.849 107.395C117.889 107.475 117.969 107.529 118.056 107.529V107.522Z" fill="black"/>
<path d="M122.678 112.177L120.581 112.537C120.454 112.557 120.374 112.678 120.394 112.805C120.414 112.918 120.507 112.998 120.621 112.998C120.634 112.998 120.647 112.998 120.661 112.998L122.758 112.638C122.885 112.618 122.965 112.497 122.945 112.37C122.925 112.244 122.805 112.163 122.678 112.183V112.177Z" fill="black"/>
<path d="M119.665 118.328C119.545 118.288 119.405 118.348 119.365 118.468C119.325 118.588 119.378 118.715 119.498 118.755C119.605 118.815 120.073 119.31 120.447 119.724C120.493 119.777 120.553 119.797 120.62 119.797C120.674 119.797 120.727 119.777 120.774 119.737C120.867 119.65 120.874 119.51 120.794 119.41C119.886 118.395 119.725 118.341 119.672 118.321L119.665 118.328Z" fill="black"/>
<path d="M154.366 285.835C154.199 285.835 154.059 285.695 154.059 285.528V202.169C154.059 202.002 154.199 201.861 154.366 201.861H352.353C352.52 201.861 352.66 202.002 352.66 202.169V284.152C352.66 284.319 352.52 284.46 352.353 284.46C352.186 284.46 352.046 284.319 352.046 284.152V202.476H154.673V285.528C154.673 285.695 154.533 285.835 154.366 285.835Z" fill="black"/>
<path fill-rule="evenodd" clip-rule="evenodd" d="M230.14 112.727V112.672C230.14 112.672 230.112 112.706 230.105 112.727H230.14Z" fill="black"/>
<path fill-rule="evenodd" clip-rule="evenodd" d="M210.352 102.046V127.117C210.352 130.282 212.916 132.854 216.088 132.854H241.159C244.324 132.854 246.896 130.289 246.896 127.117V102.046C246.896 98.8807 244.331 96.3096 241.159 96.3096H216.088C212.923 96.3096 210.352 98.8741 210.352 102.046ZM221.718 126.669H216.295V110.361H221.718V126.669ZM219.007 108.13H218.973C217.157 108.13 215.975 106.875 215.975 105.312C215.975 103.749 217.19 102.494 219.047 102.494C220.903 102.494 222.045 103.709 222.079 105.312C222.079 106.881 220.903 108.13 219.013 108.13H219.007ZM241.272 126.669H235.85V117.941C235.85 115.75 235.068 114.254 233.105 114.254C231.609 114.254 230.714 115.263 230.32 116.238C230.18 116.585 230.14 117.073 230.14 117.56V126.669H224.717C224.717 126.669 224.79 111.89 224.717 110.361H230.14V112.672C230.861 111.563 232.143 109.98 235.028 109.98C238.594 109.98 241.272 112.311 241.272 117.32V126.676V126.669Z" fill="#EDBB0A"/>
<path d="M285.218 186.815C284.904 179.963 283.989 160.729 283.354 154.652C282.58 147.205 280.222 122.335 280.222 122.335H279.728C276.042 122.796 271.44 123.257 267.366 126.329C263.299 129.401 250.323 141.295 249.635 141.602C248.947 141.909 238.656 133.728 236.045 131.638C233.434 129.548 228.699 125.941 228.699 125.941L224.531 130.008C224.531 130.008 230.675 140.6 234.128 145.435C237.581 150.271 240.272 154.264 245.334 156.027C250.403 157.79 257.696 153.343 259.766 151.88C261.837 150.424 267.286 147.045 267.286 147.045C267.286 147.045 268.822 169.384 269.283 175.295C269.744 181.205 270.051 190.495 270.051 190.495C270.051 190.495 282.179 189.96 285.325 189.266C285.325 189.266 285.284 188.351 285.211 186.808L285.218 186.815Z" fill="#404040"/>
<path d="M228.699 125.941C229.006 124.712 226.221 120.952 224.992 119.643C223.763 118.341 221.693 116.264 221.306 116.879C220.925 117.493 223.683 122.021 223.683 122.021C223.683 122.021 221.993 124.171 222.608 125.247C222.608 125.247 221.533 126.475 222.227 127.778C222.915 129.08 224.531 130.002 224.531 130.002L228.699 125.934V125.941Z" fill="#E7A441"/>
</g>
<defs>
<clipPath id="clip0_281_1397">
<rect width="290.376" height="220.36" fill="white" transform="translate(96.7266 69.3223)"/>
</clipPath>
</defs>
</svg>
