<svg width="400" height="54" viewBox="0 0 400 54" fill="none" xmlns="http://www.w3.org/2000/svg">
<path d="M0 53.4018V1.48535H15.8737L20.2362 33.1564L24.5987 1.48535H40.593V53.4018H31.0821V15.989L25.0854 53.4018H15.7532L9.39028 15.989V53.4018H0Z" fill="#EDBB0A"/>
<path d="M46.5313 50.0474C44.3523 47.4906 43.2583 43.8914 43.2583 39.2588V14.5367C43.2583 10.0644 44.3478 6.68795 46.5313 4.41173C48.7103 2.13551 51.9029 0.995178 56.1046 0.995178C60.3064 0.995178 63.4945 2.13551 65.678 4.41173C67.857 6.68795 68.951 10.0644 68.951 14.5367V39.2588C68.951 43.936 67.8615 47.5396 65.678 50.0786C63.499 52.6177 60.3064 53.8872 56.1046 53.8872C51.9029 53.8872 48.7148 52.6087 46.5313 50.0474ZM57.98 43.1253C58.3015 42.319 58.4667 41.192 58.4667 39.7399V14.3585C58.4667 13.2315 58.3149 12.3139 58.0113 11.6101C57.7076 10.9063 57.0914 10.5499 56.1627 10.5499C54.4257 10.5499 53.5595 11.8596 53.5595 14.4788V39.8022C53.5595 41.2945 53.7425 42.4215 54.1042 43.1876C54.4659 43.9538 55.1357 44.3369 56.1046 44.3369C57.0736 44.3369 57.6585 43.936 57.9845 43.1297L57.98 43.1253Z" fill="#EDBB0A"/>
<path d="M75.0323 50.3193C72.7506 47.9406 71.6075 44.68 71.6075 40.5284V16.5947C71.6075 11.4365 72.6389 7.54778 74.6974 4.92857C76.7558 2.30936 79.9886 0.999756 84.3913 0.999756C88.2269 0.999756 91.3168 2.04655 93.661 4.14459C96.0052 6.24263 97.1751 9.26274 97.1751 13.2094V22.1539H86.8159V14.4789C86.8159 12.9866 86.6328 11.9621 86.2711 11.3964C85.9095 10.8307 85.2799 10.5501 84.3913 10.5501C83.5027 10.5501 82.824 10.8752 82.4847 11.5167C82.1408 12.1626 81.9712 13.1114 81.9712 14.3586V40.4082C81.9712 41.7801 82.1721 42.7779 82.5784 43.4015C82.9803 44.0252 83.5876 44.337 84.3958 44.337C86.0122 44.337 86.8204 43.0274 86.8204 40.4082V31.0405H97.3001V40.8313C97.3001 49.5353 92.9153 53.8873 84.1546 53.8873C80.3592 53.8873 77.3185 52.698 75.0367 50.3193H75.0323Z" fill="#EDBB0A"/>
<path d="M99.9666 53.4018V1.48535H110.268V22.2787L115.112 1.48535H125.592L119.774 25.2409L126.802 53.4063H116.019L110.326 28.261V53.4063H99.9666V53.4018Z" fill="#EDBB0A"/>
<path d="M138.559 1.48535H152.312C156.474 1.48535 159.439 2.82614 161.22 5.50325C162.997 8.18483 163.886 12.1003 163.886 17.2585C163.886 22.4168 163.1 26.3055 161.524 28.9247C159.948 31.5439 157.121 32.8535 153.04 32.8535H148.798V53.4018H138.559V1.48535ZM149.405 23.4858C150.656 23.4858 151.575 23.2542 152.16 22.7909C152.745 22.3277 153.129 21.664 153.312 20.7953C153.495 19.9312 153.585 18.6884 153.585 17.0803C153.585 14.9066 153.344 13.3342 152.857 12.3675C152.37 11.4009 151.401 10.9154 149.95 10.9154H148.798V23.4858H149.405Z" fill="#EDBB0A"/>
<path d="M165.663 53.4018V1.48535H176.085V44.5776H186.81V53.4018H165.667H165.663Z" fill="#EDBB0A"/>
<path d="M189.025 53.4018L194.057 1.48535H211.685L216.655 53.4018H206.778L206.05 45.0008H199.75L199.143 53.4018H189.025ZM200.536 36.72H205.26L202.956 10.3096H202.469L200.531 36.72H200.536Z" fill="#EDBB0A"/>
<path d="M221.848 50.3193C219.566 47.9406 218.423 44.68 218.423 40.5284V16.5947C218.423 11.4365 219.455 7.54778 221.513 4.92857C223.572 2.30936 226.804 0.999756 231.207 0.999756C235.043 0.999756 238.133 2.04655 240.477 4.14459C242.821 6.24263 243.991 9.26274 243.991 13.2094V22.1539H233.632V14.4789C233.632 12.9866 233.449 11.9621 233.087 11.3964C232.725 10.8307 232.096 10.5501 231.207 10.5501C230.318 10.5501 229.64 10.8752 229.3 11.5167C228.957 12.1626 228.787 13.1114 228.787 14.3586V40.4082C228.787 41.7801 228.988 42.7779 229.394 43.4015C229.796 44.0252 230.403 44.337 231.211 44.337C232.828 44.337 233.636 43.0274 233.636 40.4082V31.0405H244.116V40.8313C244.116 49.5353 239.731 53.8873 230.97 53.8873C227.175 53.8873 224.134 52.698 221.852 50.3193H221.848Z" fill="#EDBB0A"/>
<path d="M246.777 53.4018V1.48535H267.62V11.5167H257.382V21.6105H267.196V31.4014H257.382V43.3081H268.286V53.4018H246.777Z" fill="#EDBB0A"/>
<path d="M270.952 53.4018V1.48535H286.825L291.188 33.1564L295.55 1.48535H311.545V53.4018H302.034V15.989L296.037 53.4018H286.705L280.342 15.989V53.4018H270.952Z" fill="#EDBB0A"/>
<path d="M314.21 53.4018V1.48535H335.053V11.5167H324.815V21.6105H334.629V31.4014H324.815V43.3081H335.719V53.4018H314.21Z" fill="#EDBB0A"/>
<path d="M338.385 53.4018V1.48535H349.11L353.897 26.3278V1.48535H363.952V53.4018H353.772L348.561 27.4102V53.4018H338.38H338.385Z" fill="#EDBB0A"/>
<path d="M372.794 53.4018V11.4544H366.614V1.48535H389.395V11.4588H383.215V53.4063H372.794V53.4018Z" fill="#EDBB0A"/>
<path d="M389.395 53.2149V44.3907H399.999V53.2149H389.395Z" fill="#EDBB0A"/>
</svg>
