<svg width="522" height="293" viewBox="0 0 522 293" fill="none" xmlns="http://www.w3.org/2000/svg">
<g clip-path="url(#clip0_281_1788)">
<path d="M75.6984 27.1619C146.999 0.685191 219.466 24.0926 268.613 75.0771C317.761 126.06 420.906 39.887 475.611 90.7874C512.943 125.524 495.844 214.835 444.654 253.517C375.076 306.094 163.483 279.417 117.711 270.468C64.9778 260.16 26.4271 228.884 10.7642 190.923C-26.9766 99.4562 44.1906 38.8622 75.6984 27.1619Z" fill="white"/>
<path d="M319.403 63.9448C319.645 61.787 319.772 59.5932 319.772 57.3719C319.772 56.1995 319.734 55.0357 319.666 53.8804L308.806 50.3665C308.139 45.7867 306.824 41.4179 304.962 37.3513L312.163 28.4886C310.498 25.5566 308.588 22.7826 306.458 20.1957L295.597 23.7405C292.431 20.5064 288.815 17.7169 284.846 15.4734L285.464 4.05974C282.433 2.6796 279.263 1.55008 275.984 0.698653L269.277 9.95624C266.664 9.51679 263.98 9.28333 261.241 9.28333C259.374 9.28333 257.532 9.39319 255.72 9.6009L249.513 0C246.187 0.676337 242.962 1.63591 239.866 2.85126L239.88 14.282C235.791 16.3145 232.032 18.91 228.707 21.9707L218.051 17.8577C215.788 20.333 213.732 23.0006 211.916 25.8381L218.64 35.0717C216.558 39.0422 215.015 43.3371 214.108 47.8637L203.08 50.7991C202.838 52.9569 202.711 55.1507 202.711 57.3719C202.711 58.5444 202.749 59.7082 202.817 60.8635L213.677 64.3774C214.344 68.9572 215.659 73.326 217.521 77.3926L210.32 86.2553C211.985 89.1873 213.895 91.9613 216.025 94.5482L226.886 91.0034C230.05 94.2375 233.668 97.0287 237.637 99.2705L237.019 110.684C240.05 112.064 243.22 113.194 246.499 114.045L253.206 104.788C255.819 105.227 258.503 105.461 261.242 105.461C263.11 105.461 264.951 105.351 266.763 105.143L272.972 114.742C276.298 114.066 279.522 113.106 282.618 111.891L282.605 100.46C286.694 98.4277 290.452 95.8322 293.778 92.7715L304.433 96.8845C306.697 94.4091 308.753 91.7416 310.569 88.904L303.845 79.6705C305.926 75.7 307.471 71.4051 308.377 66.8784L319.405 63.9431L319.403 63.9448ZM261.241 80.3348C248.562 80.3348 238.283 70.0541 238.283 57.3719C238.283 44.6898 248.56 34.4074 261.241 34.4074C273.921 34.4074 284.199 44.688 284.199 57.3719C284.199 70.0558 273.921 80.3348 261.241 80.3348Z" fill="black"/>
<path d="M292.552 83.5623C292.358 83.5623 292.164 83.4971 292.004 83.3632C291.641 83.0594 291.591 82.5186 291.893 82.1547C297.662 75.2145 300.841 66.4136 300.841 57.3723C300.841 53.043 300.134 48.791 298.737 44.7364C298.582 44.2884 298.821 43.7992 299.269 43.6447C299.717 43.4902 300.206 43.7288 300.36 44.1768C301.819 48.4117 302.559 52.8525 302.559 57.3723C302.559 66.8135 299.24 76.0059 293.214 83.2533C293.044 83.4576 292.801 83.5623 292.554 83.5623H292.552Z" fill="white"/>
<path d="M289.229 29.3625C289.018 29.3625 288.807 29.2852 288.641 29.129C284.764 25.4778 280.273 22.709 275.293 20.9014C274.847 20.74 274.617 20.2474 274.778 19.8011C274.939 19.3547 275.432 19.1247 275.878 19.2878C281.08 21.176 285.77 24.0651 289.818 27.8776C290.163 28.2021 290.18 28.7462 289.854 29.0912C289.686 29.2715 289.458 29.3608 289.229 29.3608V29.3625Z" fill="white"/>
<path d="M252.338 19.791C251.953 19.791 251.605 19.5318 251.507 19.1421C251.39 18.6821 251.67 18.2152 252.128 18.1002C255.36 17.2848 258.704 16.8711 262.068 16.8711C262.542 16.8711 262.926 17.2556 262.926 17.7294C262.926 18.2032 262.542 18.5877 262.068 18.5877C258.845 18.5877 255.643 18.9842 252.549 19.7653C252.478 19.7824 252.408 19.791 252.338 19.791Z" fill="white"/>
<path d="M134.89 209.347C135.056 207.852 135.145 206.334 135.145 204.795C135.145 203.983 135.118 203.176 135.072 202.376L127.55 199.942C127.086 196.769 126.177 193.743 124.886 190.928L129.873 184.789C128.72 182.759 127.397 180.838 125.923 179.046L118.401 181.5C116.208 179.26 113.703 177.327 110.955 175.776L111.382 167.871C109.284 166.914 107.089 166.133 104.817 165.543L100.171 171.954C98.3605 171.649 96.5019 171.489 94.6039 171.489C93.31 171.489 92.0349 171.565 90.7804 171.709L86.4799 165.061C84.1751 165.529 81.9425 166.193 79.799 167.035L79.8093 174.952C76.9777 176.359 74.3744 178.156 72.0697 180.276L64.6904 177.429C63.1219 179.143 61.6992 180.991 60.4396 182.956L65.0971 189.35C63.6556 192.1 62.5864 195.075 61.9566 198.21L54.3182 200.242C54.1517 201.737 54.0625 203.256 54.0625 204.795C54.0625 205.606 54.09 206.413 54.1363 207.213L61.658 209.647C62.1214 212.82 63.0309 215.846 64.3214 218.661L59.3344 224.8C60.4876 226.83 61.8107 228.751 63.2849 230.543L70.8066 228.089C72.9998 230.329 75.5053 232.262 78.2528 233.813L77.8255 241.718C79.9243 242.675 82.1192 243.456 84.3913 244.046L89.0369 237.635C90.8474 237.94 92.7059 238.1 94.6039 238.1C95.8979 238.1 97.1729 238.023 98.4274 237.88L102.728 244.528C105.033 244.06 107.265 243.396 109.409 242.554L109.399 234.637C112.23 233.23 114.833 231.433 117.138 229.313L124.517 232.16C126.086 230.446 127.509 228.598 128.768 226.633L124.111 220.239C125.552 217.489 126.621 214.514 127.251 211.379L134.89 209.347ZM94.6039 220.699C85.8226 220.699 78.7024 213.578 78.7024 204.793C78.7024 196.007 85.8209 188.887 94.6039 188.887C103.387 188.887 110.505 196.007 110.505 204.793C110.505 213.578 103.387 220.699 94.6039 220.699Z" fill="black"/>
<path d="M116.294 223.198C116.1 223.198 115.906 223.133 115.747 222.999C115.383 222.695 115.333 222.155 115.635 221.791C119.592 217.031 121.772 210.995 121.772 204.793C121.772 201.823 121.286 198.907 120.329 196.126C120.174 195.678 120.413 195.189 120.861 195.034C121.309 194.88 121.798 195.118 121.952 195.566C122.971 198.528 123.488 201.631 123.488 204.791C123.488 211.393 121.168 217.819 116.955 222.886C116.785 223.09 116.541 223.195 116.294 223.195V223.198Z" fill="white"/>
<path d="M113.99 185.656C113.779 185.656 113.568 185.579 113.402 185.423C110.742 182.918 107.663 181.02 104.246 179.78C103.8 179.619 103.57 179.126 103.731 178.68C103.893 178.233 104.385 178.003 104.831 178.165C108.468 179.485 111.747 181.505 114.577 184.171C114.922 184.496 114.939 185.04 114.613 185.385C114.445 185.563 114.217 185.654 113.988 185.654L113.99 185.656Z" fill="white"/>
<path d="M88.4352 179.026C88.0508 179.026 87.7024 178.767 87.6046 178.378C87.4879 177.918 87.7677 177.451 88.2259 177.336C90.486 176.766 92.8233 176.476 95.1761 176.476C95.6498 176.476 96.0342 176.86 96.0342 177.334C96.0342 177.808 95.6498 178.192 95.1761 178.192C92.9658 178.192 90.7691 178.463 88.6463 178.999C88.576 179.016 88.5056 179.025 88.4352 179.025V179.026Z" fill="white"/>
<path d="M354.457 107.678C354.457 107.235 354.443 106.794 354.421 106.356L360.056 101.83C359.615 99.5707 358.924 97.4027 358.009 95.3548L350.733 94.8038C349.078 92.1928 346.937 89.9218 344.435 88.1176L344.411 80.865C342.384 79.8025 340.223 78.9596 337.958 78.376L332.985 83.73C332.127 83.6373 331.257 83.5893 330.375 83.5893C328.183 83.5893 326.06 83.8845 324.042 84.4321L318.339 79.914C316.187 80.8496 314.164 82.0255 312.307 83.4125L313.387 90.6033C311.26 92.7198 309.529 95.2312 308.307 98.0189L301.213 99.6634C300.614 101.854 300.253 104.144 300.164 106.504L306.412 110.117C306.73 113.283 307.662 116.266 309.084 118.949L305.956 125.503C307.298 127.338 308.841 129.019 310.553 130.507L317.253 127.883C319.887 129.597 322.877 130.811 326.088 131.388L329.245 137.892C329.621 137.906 329.999 137.916 330.38 137.916C332.273 137.916 334.124 137.741 335.921 137.408L338.051 130.519C341.153 129.477 343.971 127.819 346.365 125.692L353.406 127.275C354.851 125.579 356.111 123.721 357.158 121.732L353.077 115.736C353.971 113.216 354.458 110.505 354.458 107.68L354.457 107.678ZM330.11 118.292C324.509 118.292 319.966 113.75 319.966 108.145C319.966 102.54 324.507 97.9984 330.11 97.9984C335.713 97.9984 340.254 102.54 340.254 108.145C340.254 113.75 335.713 118.292 330.11 118.292Z" fill="black"/>
<path d="M477.039 274.432C441.349 272.686 319.936 275.644 283.01 276.795C246.085 277.947 203.223 275.274 180.958 271.343C158.694 267.412 29.9973 271.678 35.8372 282.249C41.6771 292.82 93.1776 286.978 151.58 291.227C209.983 295.475 341.331 290.696 370.958 291.227C400.586 291.757 427.754 290.164 465.936 288.041C504.118 285.916 497.727 275.444 477.039 274.433V274.432Z" fill="#CFCFCF"/>
<path d="M112.239 53.3916H37.6328V175.711H112.239V53.3916Z" fill="#BDBDBD"/>
<path d="M109.785 55.8838H41.5391V171.048H109.785V55.8838Z" fill="white"/>
<path d="M61.9548 102.066C64.5239 96.5384 68.8708 94.7686 76.0098 94.7686C84.5097 94.7686 88.9235 97.8481 90.1746 102.334C74.9527 102.543 61.9531 102.066 61.9531 102.066H61.9548Z" fill="#EDBB0A"/>
<path d="M73.0407 67.8848C69.4421 68.8959 69.5999 70.9181 68.4004 72.7943C67.2008 74.6723 64.594 75.9236 64.2817 77.175C63.9694 78.4264 65.0848 81.0339 63.76 82.4948C62.4369 83.9556 61.9873 84.6851 62.509 86.1442C63.0307 87.6051 64.177 89.8984 64.2817 90.2108C64.3864 90.5233 65.8451 92.7136 67.6178 93.0261C69.3906 93.3385 72.7267 93.8603 74.3948 94.5899C76.0628 95.3194 81.4274 93.656 84.4048 93.759C87.3823 93.8638 89.409 91.67 89.2014 90.2091C88.9937 88.7483 91.3963 85.8284 91.3911 83.3256C91.3843 80.6374 88.2627 78.6324 87.4286 76.8592C86.5946 75.0859 87.5333 71.9566 84.4048 70.1044C82.4279 68.9337 81.0687 69.0367 79.5036 68.5166C77.9402 67.9947 75.3335 67.2377 73.039 67.8831L73.0407 67.8848Z" fill="#303030"/>
<path d="M77.4186 99.1796C76.6051 100.381 76.0079 100.431 75.1241 99.1796C74.4222 98.184 73.0391 95.9232 73.0391 94.7765V83.3269C73.0391 82.1802 73.9778 81.2412 75.1241 81.2412H77.4186C78.5649 81.2412 79.5037 82.1802 79.5037 83.3269V94.7765C79.5037 95.9232 78.1479 98.1016 77.4186 99.1796Z" fill="#F09959"/>
<path d="M77.4186 81.2412H75.1241C73.9778 81.2412 73.0391 82.1802 73.0391 83.3269V93.5423C75.6149 94.3628 77.966 92.7321 79.5037 90.8953V83.3269C79.5037 82.1802 78.5649 81.2412 77.4186 81.2412Z" fill="#E38540"/>
<path d="M76.2729 90.8079C80.102 90.8079 83.206 86.577 83.206 81.358C83.206 76.139 80.102 71.9082 76.2729 71.9082C72.4439 71.9082 69.3398 76.139 69.3398 81.358C69.3398 86.577 72.4439 90.8079 76.2729 90.8079Z" fill="#F09959"/>
<path d="M79.5043 73.838C75.1247 81.2434 68.6602 80.5121 68.6602 80.5121C68.6602 80.5121 68.8163 70.7087 73.9509 70.1868C79.0855 69.665 82.1093 71.7266 83.1527 75.1289C84.1961 78.5312 83.1527 80.7731 83.1527 80.7731C83.1527 80.7731 81.4847 79.4702 80.6506 77.3828C79.8166 75.2971 79.5043 73.8363 79.5043 73.8363V73.838Z" fill="#303030"/>
<path d="M70.0512 81.2122C70.6999 82.5786 70.4871 84.036 69.5776 84.4686C68.668 84.9012 67.4032 84.1442 66.7546 82.7795C66.1059 81.4131 66.3187 79.9557 67.2282 79.5231C68.1377 79.0905 69.4025 79.8475 70.0512 81.2122Z" fill="#F09959"/>
<path d="M82.1842 81.2122C81.5355 82.5786 81.7483 84.036 82.6579 84.4686C83.5674 84.9012 84.8322 84.1442 85.4809 82.7795C86.1296 81.4131 85.9168 79.9557 85.0072 79.5231C84.0977 79.0905 82.8329 79.8475 82.1842 81.2122Z" fill="#F09959"/>
<path d="M78.8815 86.4844C78.8815 86.4844 77.7146 87.9984 76.2747 87.9984C74.8349 87.9984 73.668 86.4844 73.668 86.4844H78.8815Z" fill="white"/>
<path d="M84.5292 117.059H67.0197C65.9008 117.059 64.9844 116.142 64.9844 115.023C64.9844 113.904 65.9008 112.987 67.0197 112.987H84.5292C85.6481 112.987 86.5645 113.904 86.5645 115.023C86.5645 116.142 85.6481 117.059 84.5292 117.059Z" fill="#D3A500"/>
<path d="M87.7335 123.316H63.8126C62.6937 123.316 61.7773 122.399 61.7773 121.28C61.7773 120.161 62.6937 119.244 63.8126 119.244H87.7335C88.8524 119.244 89.7688 120.161 89.7688 121.28C89.7688 122.399 88.8524 123.316 87.7335 123.316Z" fill="#D3A500"/>
<path d="M104.867 145.818H46.6768C46.0264 145.818 45.4961 145.286 45.4961 144.637C45.4961 143.988 46.0281 143.456 46.6768 143.456H104.867C105.517 143.456 106.047 143.988 106.047 144.637C106.047 145.286 105.515 145.818 104.867 145.818Z" fill="#D3A500"/>
<path d="M104.867 151.311H46.6768C46.0264 151.311 45.4961 150.779 45.4961 150.13C45.4961 149.481 46.0281 148.949 46.6768 148.949H104.867C105.517 148.949 106.047 149.481 106.047 150.13C106.047 150.779 105.515 151.311 104.867 151.311Z" fill="#D3A500"/>
<path d="M104.867 156.804H46.6768C46.0264 156.804 45.4961 156.272 45.4961 155.623C45.4961 154.975 46.0281 154.442 46.6768 154.442H104.867C105.517 154.442 106.047 154.975 106.047 155.623C106.047 156.272 105.515 156.804 104.867 156.804Z" fill="#D3A500"/>
<path d="M96.7287 103.426H54.8161C53.6526 103.426 52.707 102.48 52.707 101.316V62.6771C52.707 61.5132 53.6526 60.5674 54.8161 60.5674H96.7287C97.8923 60.5674 98.8378 61.5132 98.8378 62.6771V101.316C98.8378 102.48 97.8923 103.426 96.7287 103.426ZM54.8161 62.284C54.6033 62.284 54.4231 62.4642 54.4231 62.6771V101.316C54.4231 101.529 54.6033 101.709 54.8161 101.709H96.7287C96.9415 101.709 97.1217 101.529 97.1217 101.316V62.6771C97.1217 62.4642 96.9415 62.284 96.7287 62.284H54.8161Z" fill="#FFD74B"/>
<path d="M60.864 128.629L62.0773 131.089L64.7904 131.482L62.8272 133.398L63.2905 136.1L60.864 134.824L58.4374 136.1L58.9007 133.398L56.9375 131.482L59.6507 131.089L60.864 128.629Z" fill="#EDBB0A"/>
<path d="M70.8015 128.629L72.0148 131.089L74.7279 131.482L72.7647 133.398L73.228 136.1L70.8015 134.824L68.3749 136.1L68.8382 133.398L66.875 131.482L69.5882 131.089L70.8015 128.629Z" fill="#EDBB0A"/>
<path d="M80.7429 128.629L81.9562 131.089L84.6693 131.482L82.7061 133.398L83.1694 136.1L80.7429 134.824L78.3163 136.1L78.7796 133.398L76.8164 131.482L79.5296 131.089L80.7429 128.629Z" fill="#EDBB0A"/>
<path d="M90.6804 128.629L91.8937 131.089L94.6068 131.482L92.6436 133.398L93.107 136.1L90.6804 134.824L88.2538 136.1L88.7171 133.398L86.7539 131.482L89.4671 131.089L90.6804 128.629Z" fill="#EDBB0A"/>
<path d="M278.567 53.3916H203.961V175.711H278.567V53.3916Z" fill="#BDBDBD"/>
<path d="M276.114 55.8838H207.867V171.048H276.114V55.8838Z" fill="white"/>
<path d="M231.523 80.7344C231.523 86.2137 234.822 95.0525 242.601 94.7692C250.38 94.486 252.101 86.0592 252.402 83.6818C252.704 81.3043 231.523 80.7344 231.523 80.7344Z" fill="#1B1B1B"/>
<path d="M228.283 102.066C230.852 96.5384 235.199 94.7686 242.338 94.7686C250.838 94.7686 255.252 97.8481 256.503 102.334C241.281 102.543 228.281 102.066 228.281 102.066H228.283Z" fill="#EDBB0A"/>
<path d="M243.747 99.1806C242.933 100.382 242.336 100.432 241.452 99.1806C240.75 98.185 239.367 95.9242 239.367 94.7775V83.3279C239.367 82.1812 240.306 81.2422 241.452 81.2422H243.747C244.893 81.2422 245.832 82.1812 245.832 83.3279V94.7775C245.832 95.9242 244.476 98.1026 243.747 99.1806Z" fill="#F09959"/>
<path d="M243.747 81.2422H241.452C240.306 81.2422 239.367 82.1812 239.367 83.3279V93.5433C241.943 94.3638 244.294 92.7331 245.832 90.8963V83.3279C245.832 82.1812 244.893 81.2422 243.747 81.2422Z" fill="#E38540"/>
<path d="M242.601 90.8089C246.43 90.8089 249.534 86.578 249.534 81.359C249.534 76.14 246.43 71.9092 242.601 71.9092C238.772 71.9092 235.668 76.14 235.668 81.359C235.668 86.578 238.772 90.8089 242.601 90.8089Z" fill="#F09959"/>
<path d="M246.411 74.1749C245.587 77.0811 243.782 77.0468 241.264 78.0012C238.747 78.9556 237.544 79.9152 236.72 81.7742C235.67 84.1449 237.197 91.0576 237.197 91.0576C237.197 91.0576 230.822 86.2855 231.559 78.7822C232.297 71.2773 236.72 68.3711 240.883 68.3711C245.046 68.3711 246.629 70.9082 246.629 70.9082C246.629 70.9082 248.846 70.9168 250.943 73.4024C253.763 76.7429 252.894 84.8538 250.943 87.76C248.992 90.6662 247.691 91.5777 247.734 91.4472C247.777 91.3168 249.555 84.6427 248.6 80.516C247.646 76.3893 246.411 74.1732 246.411 74.1732V74.1749Z" fill="#1B1B1B"/>
<path d="M245.206 86.4844C245.206 86.4844 244.039 87.9984 242.599 87.9984C241.159 87.9984 239.992 86.4844 239.992 86.4844H245.206Z" fill="white"/>
<path d="M250.857 117.059H233.348C232.227 117.059 231.312 116.142 231.312 115.023C231.312 113.904 232.229 112.987 233.348 112.987H250.857C251.978 112.987 252.893 113.904 252.893 115.023C252.893 116.142 251.976 117.059 250.857 117.059Z" fill="#D3A500"/>
<path d="M254.062 123.316H230.141C229.02 123.316 228.105 122.399 228.105 121.28C228.105 120.161 229.022 119.244 230.141 119.244H254.062C255.182 119.244 256.097 120.161 256.097 121.28C256.097 122.399 255.181 123.316 254.062 123.316Z" fill="#D3A500"/>
<path d="M271.195 145.818H213.005C212.354 145.818 211.824 145.286 211.824 144.637C211.824 143.988 212.356 143.456 213.005 143.456H271.195C271.845 143.456 272.375 143.988 272.375 144.637C272.375 145.286 271.844 145.818 271.195 145.818Z" fill="#D3A500"/>
<path d="M271.195 151.311H213.005C212.354 151.311 211.824 150.779 211.824 150.13C211.824 149.481 212.356 148.949 213.005 148.949H271.195C271.845 148.949 272.375 149.481 272.375 150.13C272.375 150.779 271.844 151.311 271.195 151.311Z" fill="#D3A500"/>
<path d="M271.195 156.804H213.005C212.354 156.804 211.824 156.272 211.824 155.623C211.824 154.975 212.356 154.442 213.005 154.442H271.195C271.845 154.442 272.375 154.975 272.375 155.623C272.375 156.272 271.844 156.804 271.195 156.804Z" fill="#D3A500"/>
<path d="M263.057 103.426H221.144C219.981 103.426 219.035 102.48 219.035 101.316V62.6771C219.035 61.5132 219.981 60.5674 221.144 60.5674H263.057C264.22 60.5674 265.166 61.5132 265.166 62.6771V101.316C265.166 102.48 264.22 103.426 263.057 103.426ZM221.144 62.284C220.931 62.284 220.751 62.4642 220.751 62.6771V101.316C220.751 101.529 220.931 101.709 221.144 101.709H263.057C263.27 101.709 263.45 101.529 263.45 101.316V62.6771C263.45 62.4642 263.27 62.284 263.057 62.284H221.144Z" fill="#FFD74B"/>
<path d="M227.192 128.629L228.405 131.089L231.119 131.482L229.155 133.398L229.619 136.1L227.192 134.824L224.766 136.1L225.229 133.398L223.266 131.482L225.979 131.089L227.192 128.629Z" fill="#EDBB0A"/>
<path d="M237.131 128.629L238.345 131.089L241.058 131.482L239.095 133.398L239.558 136.1L237.131 134.824L234.703 136.1L235.168 133.398L233.203 131.482L235.918 131.089L237.131 128.629Z" fill="#EDBB0A"/>
<path d="M247.071 128.629L248.284 131.089L250.997 131.482L249.034 133.398L249.498 136.1L247.071 134.824L244.644 136.1L245.108 133.398L243.145 131.482L245.858 131.089L247.071 128.629Z" fill="#EDBB0A"/>
<path d="M257.008 128.629L258.224 131.089L260.937 131.482L258.973 133.398L259.437 136.1L257.008 134.824L254.582 136.1L255.045 133.398L253.082 131.482L255.795 131.089L257.008 128.629Z" fill="#EDBB0A"/>
<path opacity="0.2" d="M212.348 174.486H94.6055L102.934 53.8457H216.592L212.348 174.486Z" fill="#99BBEB"/>
<path d="M208.874 31.0176H106.973V198.087H208.874V31.0176Z" fill="#BDBDBD"/>
<path d="M205.524 34.4219H112.309V191.72H205.524V34.4219Z" fill="white"/>
<path d="M150.23 67.4608C150.164 67.2651 148.532 57.8959 148.337 54.2516C148.141 50.6073 154.19 50.0872 154.19 50.0872C154.19 50.0872 159.134 47.4196 162.713 48.786C166.291 50.1524 168.726 52.4509 170.351 55.3142C171.978 58.1775 168.92 67.1003 168.92 67.1003L150.228 67.4608H150.23Z" fill="#383838"/>
<path d="M139.013 97.5645C138.99 97.41 139.43 93.7227 139.447 93.5734C140.27 85.8092 149.839 83.624 159.388 83.624C170.606 83.624 178.217 85.6771 179.43 93.7468C179.466 93.9837 180.113 97.6795 180.081 97.9284C159.288 98.2133 139.013 97.5645 139.013 97.5645Z" fill="#393939"/>
<path d="M161.313 89.653C160.2 91.2941 159.385 91.3628 158.179 89.653C157.22 88.2935 154.016 85.1933 154.016 83.6261L155.33 67.9999C155.33 66.4327 156.612 65.1504 158.179 65.1504H161.313C162.879 65.1504 164.161 66.4327 164.161 67.9999L164.772 83.6261C164.772 85.1933 162.31 88.1802 161.313 89.653Z" fill="#F09959"/>
<path d="M161.315 65.1523H158.181C156.615 65.1523 155.333 66.4346 155.333 68.0019L154.191 81.8634C157.709 82.9843 162.46 80.7064 164.56 78.1984L164.162 68.0019C164.162 66.4346 162.88 65.1523 161.313 65.1523H161.315Z" fill="#E38540"/>
<path d="M148.996 84.7662L154.019 94.053C154.019 94.053 156.708 91.8403 156.967 92.2746C157.228 92.7089 156.49 98.1831 156.49 98.1831C156.49 98.1831 162.474 98.2638 162.735 98.0046C162.996 97.7437 161.52 92.0583 162.128 92.0583C162.735 92.0583 164.561 93.7062 164.561 93.7062L170.169 84.7662L168.937 84.4658L159.749 89.4113L149.921 84.574L148.996 84.7662Z" fill="#2F2F2F"/>
<path d="M154.738 89.0456L158.469 91.5484L157.312 98.1933L162.342 97.9135L161.086 91.8694L164.179 89.0456L162.725 87.6758H156.19L154.738 89.0456Z" fill="#EDBB0A"/>
<path d="M154.277 80.2136L149.664 84.6046C149.664 84.6046 154.364 92.9662 154.625 92.9662C154.886 92.9662 158.614 88.3554 158.614 88.3554L161.001 88.3142L164.773 92.2727L169.156 84.5171L164.687 79.7793C164.687 79.7793 160.87 87.1538 160.177 87.3272C159.484 87.5005 159.479 87.5881 158.917 87.1538C158.356 86.7195 154.28 80.2136 154.28 80.2136H154.277Z" fill="#3E3E3E"/>
<path d="M159.747 78.2174C164.977 78.2174 169.216 72.4388 169.216 65.3104C169.216 58.182 164.977 52.4033 159.747 52.4033C154.517 52.4033 150.277 58.182 150.277 65.3104C150.277 72.4388 154.517 78.2174 159.747 78.2174Z" fill="#F09959"/>
<path d="M151.249 65.1107C152.134 66.9766 151.844 68.9679 150.602 69.5584C149.359 70.1489 147.633 69.1155 146.747 67.2496C145.862 65.3836 146.152 63.3924 147.394 62.8019C148.637 62.2114 150.363 63.2448 151.249 65.1107Z" fill="#F09959"/>
<path d="M167.821 65.1107C166.936 66.9766 167.226 68.9679 168.468 69.5584C169.711 70.1489 171.437 69.1155 172.323 67.2496C173.208 65.3836 172.918 63.3924 171.676 62.8019C170.433 62.2114 168.707 63.2448 167.821 65.1107Z" fill="#F09959"/>
<path d="M163.949 70.6055C163.949 70.6055 162.068 73.6524 159.748 73.6524C157.428 73.6524 155.547 70.6055 155.547 70.6055H163.949Z" fill="white"/>
<path d="M154.191 56.5292C158.093 53.7964 159.851 54.2513 162.777 58.7419C165.704 63.2308 169.217 63.3114 169.217 63.3114L169.672 58.656C169.672 58.656 165.311 50.219 159.458 51.3245C153.604 52.43 150.275 57.7016 150.275 57.7016C150.275 57.7016 149.99 67.5806 150.807 67.9171C151.624 68.2535 151.718 64.7293 152.303 64.0135C152.888 63.2977 151.718 59.9143 152.499 58.3522C153.28 56.7901 154.191 56.5309 154.191 56.5309V56.5292Z" fill="#383838"/>
<path d="M166.746 61.6055C168.109 63.0972 167.592 69.0229 168.308 68.9576C169.023 68.8924 169.284 63.2963 169.089 62.711C168.893 62.1256 166.746 61.6055 166.746 61.6055Z" fill="#383838"/>
<path d="M180.811 117.975H137.311C135.782 117.975 134.531 116.723 134.531 115.194C134.531 113.664 135.782 112.413 137.311 112.413H180.811C182.34 112.413 183.591 113.664 183.591 115.194C183.591 116.723 182.34 117.975 180.811 117.975Z" fill="#D3A500"/>
<path d="M175.398 126.52H142.725C141.196 126.52 139.945 125.268 139.945 123.739C139.945 122.209 141.196 120.958 142.725 120.958H175.398C176.928 120.958 178.179 122.209 178.179 123.739C178.179 125.268 176.928 126.52 175.398 126.52Z" fill="#D3A500"/>
<path d="M198.802 157.257H119.324C118.437 157.257 117.711 156.531 117.711 155.644C117.711 154.756 118.437 154.03 119.324 154.03H198.802C199.69 154.03 200.416 154.756 200.416 155.644C200.416 156.531 199.69 157.257 198.802 157.257Z" fill="#D3A500"/>
<path d="M198.802 164.758H119.324C118.437 164.758 117.711 164.032 117.711 163.145C117.711 162.257 118.437 161.531 119.324 161.531H198.802C199.69 161.531 200.416 162.257 200.416 163.145C200.416 164.032 199.69 164.758 198.802 164.758Z" fill="#D3A500"/>
<path d="M198.802 172.26H119.324C118.437 172.26 117.711 171.534 117.711 170.647C117.711 169.759 118.437 169.033 119.324 169.033H198.802C199.69 169.033 200.416 169.759 200.416 170.647C200.416 171.534 199.69 172.26 198.802 172.26Z" fill="#D3A500"/>
<path d="M187.684 99.0391H130.438C129.023 99.0391 127.871 97.8873 127.871 96.4711V43.6979C127.871 42.2817 129.023 41.1299 130.438 41.1299H187.684C189.1 41.1299 190.252 42.2817 190.252 43.6979V96.4728C190.252 97.889 189.1 99.0408 187.684 99.0408V99.0391ZM130.438 42.8448C129.97 42.8448 129.587 43.2258 129.587 43.6962V96.4711C129.587 96.9397 129.968 97.3225 130.438 97.3225H187.684C188.153 97.3225 188.536 96.9414 188.536 96.4711V43.6979C188.536 43.2293 188.155 42.8465 187.684 42.8465H130.438V42.8448Z" fill="#FFD74B"/>
<path d="M131.804 133.777L133.462 137.137L137.167 137.674L134.487 140.29L135.12 143.981L131.804 142.238L128.49 143.981L129.122 140.29L126.441 137.674L130.146 137.137L131.804 133.777Z" fill="#EDBB0A"/>
<path d="M145.378 133.777L147.036 137.137L150.743 137.674L148.061 140.29L148.694 143.981L145.378 142.238L142.065 143.981L142.698 140.29L140.016 137.674L143.722 137.137L145.378 133.777Z" fill="#EDBB0A"/>
<path d="M158.953 133.777L160.61 137.137L164.317 137.674L161.635 140.29L162.268 143.981L158.953 142.238L155.639 143.981L156.272 140.29L153.59 137.674L157.297 137.137L158.953 133.777Z" fill="#EDBB0A"/>
<path d="M172.529 133.777L174.185 137.137L177.891 137.674L175.209 140.29L175.842 143.981L172.529 142.238L169.213 143.981L169.846 140.29L167.164 137.674L170.871 137.137L172.529 133.777Z" fill="#EDBB0A"/>
<path d="M186.322 133.777L187.978 137.137L191.684 137.674L189.002 140.29L189.635 143.981L186.322 142.238L183.006 143.981L183.639 140.29L180.957 137.674L184.664 137.137L186.322 133.777Z" fill="#EDBB0A"/>
<path d="M372.533 187.737H241.77C240.985 187.737 240.348 188.374 240.348 189.16V191.294C240.348 192.08 240.985 192.717 241.77 192.717H372.533C373.319 192.717 373.956 192.08 373.956 191.294V189.16C373.956 188.374 373.319 187.737 372.533 187.737Z" fill="black"/>
<path d="M406.205 120.992C407.976 127.241 403.65 133.68 398.882 135.033C394.115 136.385 390.714 132.14 388.942 125.892C387.171 119.643 389.598 113.482 394.365 112.13C399.133 110.777 404.434 114.746 406.205 120.994V120.992Z" fill="#F09959"/>
<path d="M379.478 242.065C379.478 242.065 391.695 261.046 393.344 261.871C394.995 262.697 399.119 262.903 397.572 265.998C396.026 269.093 395.407 281.266 393.963 281.883C392.52 282.503 380.145 283.947 382 281.883C383.857 279.82 384.998 280.852 385.935 277.139C386.872 273.426 388.189 266.41 386.435 264.966C384.683 263.523 373.957 250.525 373.957 250.525L379.478 242.067V242.065Z" fill="#F09959"/>
<path d="M317.987 250.216C317.987 250.216 303.136 274.698 300.387 276.9C297.636 279.101 288.561 282.402 295.987 282.953C303.412 283.502 306.987 280.478 311.662 279.101C316.336 277.726 322.113 276.9 319.913 273.325C317.713 269.749 318.626 261.942 323.369 256.989C328.112 252.037 317.987 250.218 317.987 250.218V250.216Z" fill="#F09959"/>
<path d="M393.774 193.442C393.774 193.442 357.011 192.481 342.436 204.446C333.911 217.375 313.286 255.523 311.684 259.727C312.784 260.827 318.972 262.813 321.721 262.537C329.833 252.86 340.557 244.495 344.822 236.905C350.076 227.551 351.696 222.875 360.222 222.049C368.748 221.224 387.999 218.474 393.774 218.474C399.549 218.474 393.774 193.441 393.774 193.441V193.442Z" fill="#272727"/>
<path d="M425.831 283.017H423.904L410.086 225.347H414.325L425.831 283.017Z" fill="black"/>
<path d="M368.105 283.018H370.033L385.89 223.308H381.651L368.105 283.018Z" fill="black"/>
<path d="M414.716 190.925L393.342 194.615C393.342 194.615 364.939 194.876 351.956 197.295C340.144 199.496 338.404 212.921 351.956 231.405C359.655 241.906 366.164 250.283 379.476 259.727C382.862 257.24 384.157 256.299 385.093 250.317C384.13 248.995 381.635 240.726 380.861 239.108C373.499 223.713 363.671 218.114 363.535 216.6C365.186 213.918 407.241 230.58 415.603 220.778C423.587 211.421 414.716 190.923 414.716 190.923V190.925Z" fill="#383838"/>
<path d="M415.603 142.523C409.974 141.734 404.241 142.803 398.88 146.686C394.195 151.463 388.892 159.343 389.218 172.337C389.63 188.842 386.664 189.901 389.759 194.44C402.662 199.77 424.731 222.669 419.533 198.119C415.77 180.342 427.786 167.091 418.093 147.373C417.304 145.768 416.319 144.211 415.605 142.522L415.603 142.523Z" fill="#EDBB0A"/>
<path d="M389.214 178.547C388.963 187.151 387.748 189.686 388.676 192.383C393.936 192.92 403.559 195.027 405.963 198.393C408.714 202.243 411.463 202.794 410.179 199.951C408.896 197.109 405.505 193.075 410.73 179.229C415.956 165.383 418.43 156.029 413.298 146.402L389.214 178.547Z" fill="#B88F00"/>
<path d="M415.604 142.523C412.138 134.314 411.286 125.093 411.286 125.093L402.212 127.774C402.212 127.774 407.368 139.327 402.418 143.453C401.366 144.331 400.145 145.395 398.879 146.686C404.24 142.803 409.974 141.732 415.602 142.523H415.604Z" fill="#F09959"/>
<path d="M411.56 127.279C411.023 126.8 410.351 126.202 409.644 125.579L402.242 127.766C402.237 127.78 402.232 127.794 402.227 127.806C402.405 128.214 404.291 132.615 404.538 136.849C406.743 135.51 409.16 133.328 411.921 129.515C411.772 128.669 411.653 127.915 411.56 127.279Z" fill="#E38540"/>
<path d="M409.224 145.103C399.878 148.373 400.915 158.223 392.312 172.749C387.86 180.266 383.725 180.154 383.725 180.154C383.725 180.154 373.284 180.238 360.655 178.693C352.747 177.727 352.244 180.08 357.744 182.048C368.837 186.015 380.347 190.284 389.63 189.252C398.91 188.22 414.785 164.533 415.603 158.367C416.736 149.839 413.93 143.455 409.223 145.103H409.224Z" fill="#F09959"/>
<path d="M404.413 227.751C403.831 227.751 403.237 227.744 402.627 227.728C395.009 227.54 389.824 226.486 385.658 225.639C380.792 224.65 378.114 224.106 374.994 225.596C373.796 226.168 372.363 225.662 371.79 224.463C371.218 223.265 371.725 221.832 372.922 221.259C377.492 219.073 381.319 219.851 386.614 220.929C390.595 221.739 395.551 222.745 402.745 222.924C410.797 223.124 415.707 221.93 418.195 219.169C420.412 216.71 421.061 212.578 420.237 206.166C419.956 203.972 419.673 202.146 419.424 200.536C418.722 195.992 418.257 192.991 418.832 188.351C419.366 184.043 420.792 178.303 424.095 167.174C424.473 165.902 425.809 165.177 427.083 165.553C428.354 165.931 429.08 167.268 428.703 168.542C422.547 189.28 422.859 191.301 424.172 199.801C424.426 201.44 424.713 203.298 425.003 205.553C426.019 213.462 424.991 218.811 421.765 222.39C418.442 226.074 413.05 227.752 404.415 227.752L404.413 227.751Z" fill="black"/>
<path d="M318.997 270.851C309.143 275.671 303.84 278.433 300.681 278.17C299.935 278.108 299.317 278.031 298.799 277.95C295.284 280.027 289.676 282.482 295.986 282.951C303.411 283.5 306.986 280.476 311.661 279.099C316.335 277.724 322.112 276.898 319.912 273.322C319.49 272.638 319.184 271.796 318.997 270.851Z" fill="#505050"/>
<path d="M394.42 262.272C394.179 270.076 393.107 277.809 388.334 279.27C387.07 279.658 385.916 279.713 384.897 279.577C384.147 280.506 383.231 280.516 382.002 281.881C380.145 283.944 392.52 282.501 393.965 281.881C395.408 281.261 396.028 269.091 397.574 265.996C398.846 263.453 396.289 262.861 394.42 262.272Z" fill="#505050"/>
<path d="M356.46 188.418H325.156C324.221 188.418 323.372 187.876 322.977 187.028L310.326 159.794C309.766 158.591 310.29 157.161 311.493 156.601C312.698 156.042 314.125 156.565 314.685 157.769L326.689 183.612H356.46C357.787 183.612 358.863 184.688 358.863 186.015C358.863 187.342 357.787 188.418 356.46 188.418Z" fill="#383838"/>
<path d="M363.013 178.966C356.687 178.875 350.415 175.104 347.296 175.653C344.18 176.204 334.003 183.265 335.287 183.539C336.571 183.814 344.638 179.632 344.913 179.569C345.187 179.505 346.929 182.465 351.238 183.553C355.548 184.64 351.269 180.322 364.624 184.358C373.308 186.981 363.011 178.966 363.011 178.966H363.013Z" fill="#F09959"/>
<path d="M414.674 135.032L415.604 142.523C415.604 142.523 407.418 143.011 403.346 145.303C399.273 147.594 393.262 154.219 393.262 154.219L398.173 145.761L398.88 140.35L414.674 135.032Z" fill="#FFEEB1"/>
<path d="M411.191 144.202C405.111 143.062 402.3 148.512 398.358 157.406C394.416 166.301 387.687 177.104 386.348 178.496C385.01 179.888 363.797 178.496 363.797 178.496C363.797 178.496 363.155 184.639 363.797 185.372C364.439 186.105 368.106 186.014 368.106 186.014C368.106 186.014 369.573 187.185 370.948 188.114C372.323 189.041 383.965 190.783 389.374 190.509C394.783 190.234 399.732 189.776 400.465 188.95C401.198 188.124 415.958 165.384 416.875 157.222C417.791 149.061 414.294 144.784 411.191 144.202Z" fill="#EDBB0A"/>
<path d="M393.262 106.789C381.764 107.34 383.568 124.641 383.568 124.641C383.568 124.641 386.554 125.563 392.811 124.532C392.33 122.674 392.536 117.93 392.536 117.93C392.536 117.93 393.264 121.782 394.187 124.12C395.51 124.726 397.007 124.188 399.55 123.574C400.856 129.072 404.547 131.395 407.075 132.189C409.867 133.068 412.824 134.115 416.124 132.464C419.424 130.813 417.61 113.942 415.856 110.548C413.226 105.455 408.855 100.898 401.292 103.304C397.499 104.511 393.264 106.789 393.264 106.789H393.262Z" fill="#202020"/>
<path d="M413.258 127.338L417.958 134.207C417.958 134.207 412.748 147.227 427.901 153.127C439.768 157.746 438.37 165.888 433.009 174.074C427.646 182.261 436.218 189.41 436.218 189.41C436.218 189.41 437.525 180.342 449.054 178.63C464.775 176.296 469.227 155.183 457.484 144.626C447.767 135.891 444.81 143.124 438.232 135.285C431.654 127.445 419.238 132.741 419.238 132.741L414.687 126.103L413.258 127.34V127.338Z" fill="#202020"/>
<path d="M462.895 165.893C462.826 165.893 462.757 165.876 462.694 165.841C462.491 165.73 462.417 165.476 462.527 165.273C466.481 158.046 463.255 149.292 461.633 146.921C461.462 146.67 461.299 146.415 461.125 146.145C459.531 143.656 457.547 140.559 446.962 138.652C444.412 138.194 442.349 136.678 440.163 135.073C435.65 131.758 430.532 128.001 419.417 133.12C419.206 133.216 418.959 133.125 418.863 132.915C418.766 132.706 418.857 132.457 419.067 132.361C430.63 127.038 435.958 130.948 440.657 134.4C442.763 135.945 444.75 137.406 447.11 137.832C458.055 139.802 460.147 143.071 461.829 145.695C461.999 145.96 462.158 146.209 462.323 146.451C464.022 148.935 467.403 158.108 463.262 165.678C463.186 165.817 463.042 165.896 462.895 165.896V165.893Z" fill="#202020"/>
<path d="M410.749 134.376C409.997 134.376 409.184 134.311 408.307 134.178C404.284 133.576 398.887 131.289 398.465 118.448C398.458 118.218 398.638 118.024 398.868 118.017C399.103 118.012 399.292 118.19 399.299 118.42C399.474 123.712 400.523 127.63 402.419 130.06C403.859 131.907 405.769 132.953 408.431 133.351C412.153 133.909 414.621 133.221 415.763 131.307C415.882 131.109 416.139 131.044 416.337 131.162C416.534 131.281 416.599 131.538 416.481 131.736C415.432 133.49 413.508 134.374 410.747 134.374L410.749 134.376Z" fill="#202020"/>
<path d="M254.363 283.018H257.452L269.47 191.127H262.674L254.363 283.018Z" fill="black"/>
<path d="M359.193 283.018H356.104L344.086 191.127H350.883L359.193 283.018Z" fill="black"/>
</g>
<defs>
<clipPath id="clip0_281_1788">
<rect width="522" height="293" fill="white"/>
</clipPath>
</defs>
</svg>
