<svg width="156" height="155" viewBox="0 0 156 155" fill="none" xmlns="http://www.w3.org/2000/svg">
<path d="M128.135 3.10059C141.537 3.10059 152.427 13.9652 152.427 27.3922C152.427 40.8192 141.562 51.6838 128.135 51.6838C114.708 51.6838 103.844 40.8192 103.844 27.3922C103.844 13.9652 114.708 3.10059 128.135 3.10059Z" fill="white"/>
<path d="M128.135 103.342C141.537 103.342 152.427 114.206 152.427 127.633C152.427 141.06 141.562 151.925 128.135 151.925C114.708 151.925 103.844 141.06 103.844 127.633C103.844 114.206 114.708 103.342 128.135 103.342Z" fill="white"/>
<path d="M27.8932 3.10059C41.2946 3.10059 52.1848 13.9652 52.1848 27.3922C52.1848 40.8192 41.3202 51.6838 27.8932 51.6838C14.4662 51.6838 3.60156 40.7936 3.60156 27.3922C3.60156 13.9908 14.4662 3.10059 27.8932 3.10059Z" fill="white"/>
<path d="M27.8932 103.342C41.2946 103.342 52.1848 114.206 52.1848 127.633C52.1848 141.06 41.3202 151.925 27.8932 151.925C14.4662 151.925 3.60156 141.035 3.60156 127.633C3.60156 114.232 14.4662 103.342 27.8932 103.342Z" fill="white"/>
<path d="M34.0945 117.025C37.4513 117.025 40.2955 119.87 40.2955 123.226C40.2955 129.427 34.0945 132.784 28.1497 138.985C21.9487 132.784 16.0039 129.427 16.0039 123.226C16.0039 119.87 18.8482 117.025 22.2049 117.025C25.3054 117.025 26.8429 118.588 28.406 121.689C29.4309 118.588 30.994 117.025 34.0945 117.025Z" fill="white"/>
<path d="M129.671 25.8287H113.4C111.58 25.8287 110.043 24.2913 110.043 22.472C110.043 20.6527 111.58 19.1152 113.4 19.1152H129.671C131.49 19.1152 133.028 20.6527 133.028 22.472C133.028 24.2913 131.49 25.8287 129.671 25.8287Z" fill="#EDBB0A"/>
<path d="M142.585 25.8287H139.228C137.409 25.8287 135.871 24.2913 135.871 22.472C135.871 20.6527 137.434 19.1152 139.228 19.1152H142.585C144.404 19.1152 145.941 20.6527 145.941 22.472C145.941 24.2913 144.378 25.8287 142.585 25.8287Z" fill="#EDBB0A"/>
<path d="M139.487 35.6432H113.658C111.838 35.6432 110.301 34.1058 110.301 32.2864C110.301 30.4671 111.864 28.9297 113.658 28.9297H139.487C141.306 28.9297 142.843 30.4928 142.843 32.2864C142.587 34.1058 141.024 35.6432 139.487 35.6432Z" fill="#EDBB0A"/>
<path d="M27.8932 142.085C27.1245 142.085 26.3557 141.829 25.5614 141.06C23.9983 139.497 22.7171 138.216 21.1797 137.191C16.5161 133.066 12.3906 129.197 12.3906 123.252C12.3906 118.076 16.5161 113.95 21.6922 113.95C24.5364 113.95 26.3557 114.975 27.8932 116.282C29.4563 115.001 31.2499 113.95 34.0942 113.95C39.2703 113.95 43.3957 118.076 43.3957 123.252C43.3957 129.197 39.014 133.066 34.6067 137.191C33.3255 138.472 31.7624 139.779 30.225 141.06C29.7125 141.829 28.6875 142.085 27.8932 142.085ZM21.9484 120.382C20.3853 120.382 19.1041 121.663 19.1041 123.226C19.1041 126.327 21.4359 128.658 25.8176 132.271C26.5864 133.04 27.3807 133.553 28.1494 134.347C28.9181 133.578 29.7125 133.066 30.4812 132.271C34.8629 128.402 37.1947 126.07 37.1947 123.226C37.1947 121.689 35.9135 120.382 34.3505 120.382C33.0692 120.382 32.5311 120.382 31.2499 123.226C30.7375 124.251 29.7125 125.045 28.4057 125.045C27.0988 125.045 26.0739 124.277 25.5614 123.226C23.7421 120.382 22.9734 120.382 21.9484 120.382Z" fill="#EDBB0A"/>
<path d="M129.672 140.548H121.678C119.858 140.548 118.321 138.985 118.321 137.191C118.321 135.398 119.858 133.835 121.678 133.835H129.672C130.185 133.835 130.441 133.578 130.697 133.322C130.953 133.066 131.21 132.553 131.21 132.297C131.21 131.528 130.441 130.734 129.647 130.734H126.29C124.214 130.734 122.164 129.965 120.601 128.402C119.038 126.865 118.27 124.789 118.27 122.714C118.27 118.332 121.883 114.693 126.264 114.693H134.285C136.104 114.693 137.641 116.256 137.641 118.05C137.641 119.844 136.078 121.407 134.285 121.407H126.264C125.496 121.407 124.727 122.176 124.727 122.944C124.727 123.457 124.983 123.713 125.239 123.969C125.496 124.226 126.008 124.482 126.264 124.482H129.621C134.003 124.482 137.641 128.095 137.641 132.502C137.641 134.578 136.873 136.628 135.31 138.191C133.746 139.472 131.697 140.522 129.621 140.522L129.672 140.548Z" fill="#EDBB0A"/>
<path d="M27.8921 155C12.6458 155 0.5 142.598 0.5 127.608C0.5 112.618 12.902 100.216 27.8921 100.216C42.8822 100.216 55.5405 112.362 55.5405 127.608C55.5405 142.854 43.1384 155 27.8921 155ZM27.8921 106.699C16.2588 106.699 6.95726 116 6.95726 127.634C6.95726 139.267 16.2588 148.568 27.8921 148.568C39.5255 148.568 48.827 139.267 48.827 127.634C49.0832 116 39.5255 106.699 27.8921 106.699Z" fill="black"/>
<path d="M128.134 155C112.888 155 100.742 142.598 100.742 127.608C100.742 112.618 112.888 100.216 128.134 100.216C143.381 100.216 155.526 112.362 155.526 127.608C155.526 142.854 143.124 155 128.134 155ZM128.134 106.699C116.501 106.699 107.199 116 107.199 127.634C107.199 139.267 116.501 148.568 128.134 148.568C139.768 148.568 149.069 139.267 149.069 127.634C149.069 116 139.768 106.699 128.134 106.699Z" fill="black"/>
<path d="M27.8921 55.0145C12.6458 55.0145 0.5 42.6381 0.5 27.648C0.5 12.6579 12.902 0.255859 27.8921 0.255859C42.8822 0.255859 55.2843 12.6579 55.2843 27.648C55.2843 42.6381 43.1384 55.0401 27.8921 55.0401V55.0145ZM27.8921 6.45688C16.2588 6.45688 6.95726 15.7584 6.95726 27.3917C6.95726 39.0251 16.2588 48.3266 27.8921 48.3266C39.5255 48.3266 48.827 39.0251 48.827 27.3917C48.827 15.7584 39.4998 6.45688 27.8921 6.45688Z" fill="black"/>
<path d="M128.134 55.0149C112.888 55.0149 100.742 42.6128 100.742 27.6227C100.742 12.6327 112.888 0 128.134 0C143.381 0 155.526 12.402 155.526 27.3921C155.526 42.3822 143.124 55.0405 128.134 55.0405V55.0149ZM128.134 6.45726C116.501 6.45726 107.199 15.7588 107.199 27.3921C107.199 39.0255 116.501 48.327 128.134 48.327C139.768 48.327 149.069 39.0255 149.069 27.3921C149.069 15.7588 139.768 6.45726 128.134 6.45726Z" fill="black"/>
<path d="M27.8919 42.1003C26.0726 42.1003 24.5352 40.5628 24.5352 38.7435V16.015C24.5352 14.1956 26.0726 12.6582 27.8919 12.6582C29.7112 12.6582 31.2487 14.1956 31.2487 16.015V38.7435C31.2487 40.5628 29.7112 42.1003 27.8919 42.1003Z" fill="#EDBB0A"/>
<path d="M39.2455 30.7487H16.5169C14.6976 30.7487 13.1602 29.1856 13.1602 27.3919C13.1602 25.5982 14.7232 24.0352 16.5169 24.0352H39.2455C41.0648 24.0352 42.6022 25.5726 42.6022 27.3919C42.6022 29.2112 41.0391 30.7487 39.2455 30.7487Z" fill="#EDBB0A"/>
<path d="M124.777 96.885C124.777 95.0657 126.315 93.5282 128.134 93.5282C129.953 93.5282 131.491 95.0657 131.491 96.885C131.491 98.7043 129.953 100.242 128.134 100.242C126.315 100.242 124.777 98.6787 124.777 96.885ZM124.777 87.8397C124.777 86.0204 126.315 84.4829 128.134 84.4829C129.953 84.4829 131.491 86.046 131.491 87.8397C131.491 89.659 129.953 91.1964 128.134 91.1964C126.315 91.1964 124.777 89.659 124.777 87.8397ZM124.777 78.7944C124.777 76.9751 126.315 75.4376 128.134 75.4376C129.953 75.4376 131.491 76.9751 131.491 78.7944C131.491 80.6137 129.953 82.1512 128.134 82.1512C126.315 82.1512 124.777 80.5881 124.777 78.7944ZM124.777 69.7491C124.777 67.9298 126.315 66.3923 128.134 66.3923C129.953 66.3923 131.491 67.9554 131.491 69.7491C131.491 71.5684 129.953 73.1059 128.134 73.1059C126.315 73.1059 124.777 71.5684 124.777 69.7491ZM124.777 60.7038C124.777 58.8845 126.315 57.3471 128.134 57.3471C129.953 57.3471 131.491 58.8845 131.491 60.7038C131.491 62.5231 129.953 64.0606 128.134 64.0606C126.315 64.0606 124.777 62.5231 124.777 60.7038ZM124.777 51.6585C124.777 49.8392 126.315 48.3018 128.134 48.3018C129.953 48.3018 131.491 49.8648 131.491 51.6585C131.491 53.4778 129.953 55.0153 128.134 55.0153C126.315 55.0153 124.777 53.4778 124.777 51.6585Z" fill="black"/>
<path d="M100.742 127.633C100.742 125.814 102.305 124.276 104.099 124.276C105.918 124.276 107.456 125.839 107.456 127.633C107.456 129.452 105.893 130.99 104.099 130.99C102.023 130.734 100.742 129.427 100.742 127.633ZM91.6968 127.633C91.6968 125.814 93.2343 124.276 95.0536 124.276C96.8729 124.276 98.4103 125.839 98.4103 127.633C98.4103 129.452 96.8729 130.99 95.0536 130.99C92.978 130.734 91.6968 129.427 91.6968 127.633ZM82.6515 127.633C82.6515 125.814 84.2146 124.276 86.0083 124.276C87.802 124.276 89.365 125.839 89.365 127.633C89.365 129.452 87.802 130.99 86.0083 130.99C83.9327 130.734 82.6515 129.427 82.6515 127.633ZM73.6062 127.633C73.6062 125.814 75.1437 124.276 76.963 124.276C78.7823 124.276 80.3197 125.839 80.3197 127.633C80.3197 129.452 78.7823 130.99 76.963 130.99C74.8874 130.734 73.6062 129.427 73.6062 127.633ZM64.5609 127.633C64.5609 125.814 66.0984 124.276 67.9177 124.276C69.737 124.276 71.2744 125.839 71.2744 127.633C71.2744 129.452 69.7114 130.99 67.9177 130.99C65.8421 130.734 64.5609 129.427 64.5609 127.633ZM55.5156 127.633C55.5156 125.814 57.0531 124.276 58.8724 124.276C60.6917 124.276 62.2291 125.839 62.2291 127.633C62.2291 129.452 60.6917 130.99 58.8724 130.99C56.7968 130.734 55.5156 129.427 55.5156 127.633Z" fill="black"/>
<path d="M24.793 103.342C24.793 101.523 26.356 99.9853 28.1497 99.9853C29.969 99.9853 31.5065 101.548 31.5065 103.342C31.5065 105.161 29.9434 106.699 28.1497 106.699C26.0742 106.699 24.793 105.136 24.793 103.342ZM24.793 94.2967C24.793 92.4774 26.356 90.94 28.1497 90.94C29.969 90.94 31.5065 92.503 31.5065 94.2967C31.5065 96.116 29.9434 97.6535 28.1497 97.6535C26.0742 97.6535 24.793 96.116 24.793 94.2967ZM24.793 85.2514C24.793 83.4321 26.356 81.8947 28.1497 81.8947C29.969 81.8947 31.5065 83.4321 31.5065 85.2514C31.5065 87.0707 29.9434 88.6082 28.1497 88.6082C26.0742 88.6082 24.793 87.0707 24.793 85.2514ZM24.793 76.2061C24.793 74.3868 26.356 72.8494 28.1497 72.8494C29.969 72.8494 31.5065 74.4124 31.5065 76.2061C31.5065 78.0254 29.9434 79.5629 28.1497 79.5629C26.0742 79.5629 24.793 78.0254 24.793 76.2061ZM24.793 67.1608C24.793 65.3415 26.356 63.8041 28.1497 63.8041C29.969 63.8041 31.5065 65.3415 31.5065 67.1608C31.5065 68.9801 29.9434 70.5176 28.1497 70.5176C26.0742 70.5176 24.793 68.9801 24.793 67.1608ZM24.793 58.1155C24.793 56.2962 26.356 54.7588 28.1497 54.7588C29.969 54.7588 31.5065 56.3219 31.5065 58.1155C31.5065 59.9348 29.9434 61.4723 28.1497 61.4723C26.0742 61.4723 24.793 59.9092 24.793 58.1155Z" fill="black"/>
<path d="M94.2851 27.3919C94.2851 25.5726 95.8481 24.0352 97.6418 24.0352C99.4611 24.0352 100.999 25.5726 100.999 27.3919C100.999 29.2112 99.4611 30.7487 97.6418 30.7487C95.5663 30.7487 94.2851 29.1856 94.2851 27.3919ZM85.2398 27.3919C85.2398 25.5726 86.7772 24.0352 88.5965 24.0352C90.4158 24.0352 91.9533 25.5726 91.9533 27.3919C91.9533 29.2112 90.4158 30.7487 88.5965 30.7487C86.521 30.7487 85.2398 29.1856 85.2398 27.3919ZM76.1945 27.3919C76.1945 25.5726 77.7576 24.0352 79.5512 24.0352C81.3705 24.0352 82.908 25.5726 82.908 27.3919C82.908 29.2112 81.3449 30.7487 79.5512 30.7487C77.4757 30.7487 76.1945 29.1856 76.1945 27.3919ZM67.1492 27.3919C67.1492 25.5726 68.6866 24.0352 70.5059 24.0352C72.3252 24.0352 73.8627 25.5726 73.8627 27.3919C73.8627 29.2112 72.3252 30.7487 70.5059 30.7487C68.4304 30.7487 67.1492 29.1856 67.1492 27.3919ZM58.1039 27.3919C58.1039 25.5726 59.667 24.0352 61.4606 24.0352C63.28 24.0352 64.8174 25.5726 64.8174 27.3919C64.8174 29.2112 63.2543 30.7487 61.4606 30.7487C59.3851 30.7487 58.1039 29.1856 58.1039 27.3919ZM49.0586 27.3919C49.0586 25.5726 50.596 24.0352 52.4153 24.0352C54.2347 24.0352 55.7721 25.5726 55.7721 27.3919C55.7721 29.2112 54.2347 30.7487 52.4153 30.7487C50.3398 30.7487 49.0586 29.1856 49.0586 27.3919Z" fill="black"/>
<path d="M100.742 58.1156C99.9732 58.1156 99.2045 57.8593 98.4101 57.0906C97.1289 55.8094 97.1289 53.7339 98.4101 52.4527L108.224 42.6386C109.505 41.3574 111.581 41.3574 112.888 42.6386C114.169 43.9198 114.169 45.9954 112.888 47.2766L103.074 57.0906C102.305 57.8593 101.536 58.1156 100.742 58.1156Z" fill="black"/>
<path d="M55.513 58.1156C54.7442 58.1156 53.9755 57.8593 53.1812 57.0906L43.3672 47.2766C42.0859 45.9954 42.0859 43.9198 43.3672 42.6386C44.6484 41.3574 46.7239 41.3574 48.0051 42.6386L57.8191 52.4527C59.1003 53.7339 59.1003 55.8094 57.8191 57.0906C57.0504 57.8593 56.2817 58.1156 55.4873 58.1156H55.513Z" fill="black"/>
<path d="M110.298 113.156C109.529 113.156 108.761 112.9 107.966 112.131L98.1523 102.317C96.8711 101.036 96.8711 98.9601 98.1523 97.6533C99.4335 96.3721 101.509 96.3721 102.79 97.6533L112.604 107.467C113.885 108.749 113.885 110.824 112.604 112.105C111.836 112.618 111.067 113.13 110.272 113.13L110.298 113.156Z" fill="black"/>
<path d="M45.6989 113.156C44.9302 113.156 44.1359 112.899 43.3672 112.131C42.0859 110.849 42.0859 108.774 43.3672 107.493L53.1812 97.6787C54.4624 96.3975 56.5379 96.3975 57.8191 97.6787C59.1003 98.9599 59.1003 101.035 57.8191 102.342L48.0051 112.156C47.2364 112.669 46.442 113.181 45.6733 113.181L45.6989 113.156Z" fill="black"/>
<path d="M96.8702 73.1052V88.3515H59.6641V73.1052C59.6641 67.1604 64.302 62.5225 70.2468 62.5225H86.5181C91.9504 62.5225 96.8446 67.1604 96.8446 73.1052H96.8702Z" fill="white"/>
<path d="M88.0585 88.3516H67.918V116.256H88.0585V88.3516Z" fill="white"/>
<path d="M78.0133 36.6934C82.7281 36.6934 86.5461 40.5113 86.5461 45.2262C86.5461 49.941 82.7281 53.759 78.0133 53.759C73.2985 53.759 69.4805 49.941 69.4805 45.2262C69.4805 40.5113 73.2985 36.6934 78.0133 36.6934Z" fill="white"/>
<path d="M78.0146 57.0907C71.5573 57.0907 66.125 51.6584 66.125 45.2011C66.125 38.7438 71.5573 33.3115 78.0146 33.3115C84.4718 33.3115 89.9041 38.7438 89.9041 45.2011C89.9041 51.6584 84.4718 57.0907 78.0146 57.0907ZM78.0146 39.7944C74.9141 39.7944 72.5823 42.1262 72.5823 45.2267C72.5823 48.3272 74.9141 50.659 78.0146 50.659C81.1151 50.659 83.4469 48.3272 83.4469 45.2267C83.4469 42.1262 81.1151 39.7944 78.0146 39.7944Z" fill="#EDBB0A"/>
<path d="M88.0833 119.613C86.2896 119.613 84.7266 118.076 84.7266 116.256V88.3519C84.7266 86.5326 86.2896 84.9951 88.0833 84.9951C89.877 84.9951 91.4401 86.5326 91.4401 88.3519V116.256C91.4401 118.076 89.877 119.613 88.0833 119.613Z" fill="#EDBB0A"/>
<path d="M67.9153 119.613C66.096 119.613 64.5586 118.076 64.5586 116.256V88.3519C64.5586 86.5326 66.096 84.9951 67.9153 84.9951C69.7347 84.9951 71.2721 86.5326 71.2721 88.3519V116.256C71.0159 118.076 69.709 119.613 67.9153 119.613Z" fill="#EDBB0A"/>
<path d="M96.8723 91.7086H59.1536C57.3599 91.7086 55.7969 90.1455 55.7969 88.3518V73.1055C55.7969 65.367 61.9979 59.166 69.7364 59.166H86.0077C93.7461 59.166 99.9472 65.367 99.9472 73.1055V88.3518C99.9472 90.1711 98.3841 91.7086 96.8466 91.7086H96.8723ZM62.5104 85.2513H93.5155V73.1055C93.5155 68.98 90.1588 65.6233 86.0333 65.6233H69.762C65.6365 65.6233 62.2798 68.98 62.2798 73.1055L62.536 85.2513H62.5104Z" fill="#EDBB0A"/>
<path d="M94.2837 119.613H61.9974C60.1781 119.613 58.6406 118.075 58.6406 116.256C58.6406 114.437 60.1781 112.899 61.9974 112.899H94.2837C96.103 112.899 97.6405 114.437 97.6405 116.256C97.3842 118.075 95.8211 119.613 94.2837 119.613Z" fill="#EDBB0A"/>
</svg>
