<svg width="153" height="155" viewBox="0 0 153 155" fill="none" xmlns="http://www.w3.org/2000/svg">
<path d="M78.0833 3.1695C53.2691 2.90758 32.6953 23.232 32.6953 48.0614C32.6953 59.1403 36.6478 69.4596 43.5057 77.3694C51.6986 86.8768 56.6981 98.7677 57.7451 111.182H97.3222C98.6309 98.7677 103.657 87.1649 111.849 77.6575C118.707 69.7477 122.66 59.4284 122.66 48.3495C122.66 23.5201 102.61 3.19569 78.0571 3.19569L78.0833 3.1695Z" fill="#EDBB0A"/>
<path d="M8.95535 19.5391C11.7299 19.5391 13.981 21.7915 13.981 24.5678C13.981 27.3441 11.7299 29.5965 8.95535 29.5965C6.18076 29.5965 3.92969 27.3441 3.92969 24.5678C3.92969 21.7915 6.18076 19.5391 8.95535 19.5391Z" fill="white"/>
<path d="M142.475 65.7404C146.118 65.7404 149.071 62.7854 149.071 59.1402C149.071 55.4951 146.118 52.54 142.475 52.54C138.832 52.54 135.879 55.4951 135.879 59.1402C135.879 62.7854 138.832 65.7404 142.475 65.7404Z" fill="white"/>
<path d="M85.7529 135.199V136.797C85.7529 141.276 82.0622 144.995 77.5601 144.995C73.0579 144.995 69.3672 141.302 69.3672 136.797V135.199H85.7268H85.7529Z" fill="white"/>
<path d="M101.3 124.906C102.347 125.954 102.871 127.552 102.871 129.123C102.871 132.554 100.227 135.2 96.7981 135.2H57.7446C56.174 135.2 54.5773 134.414 53.5303 133.34C52.4833 132.292 51.6719 130.695 51.6719 129.123C51.6719 125.954 54.3156 123.309 57.4828 123.047H97.0599C98.6304 123.309 100.227 123.833 101.274 124.906H101.3Z" fill="#EDBB0A"/>
<path d="M101.3 113.016C102.347 114.063 102.871 115.661 102.871 117.233C102.871 120.664 100.227 123.309 96.7981 123.309H58.0063C56.4357 123.309 54.8391 122.523 53.792 121.449C52.745 120.402 51.9336 118.804 51.9336 117.233C51.9336 114.063 54.5773 111.418 57.7445 111.156H97.3216C98.6303 111.156 100.227 111.942 101.274 113.016H101.3Z" fill="white"/>
<path d="M94.4416 66.2897C94.1799 69.9827 91.0127 72.8899 87.0602 72.8899C81.7728 73.4137 77.8203 68.6731 77.8203 64.4301V36.9555C77.8203 31.141 82.558 26.4004 88.369 26.4004C94.1799 26.4004 98.9176 31.141 98.9176 36.9555C98.9176 38.0031 98.6559 39.077 98.3941 39.8627C101.038 41.1723 103.132 44.0795 103.132 47.5106C103.132 50.4178 101.823 53.0631 99.4411 54.3727C101.561 55.4203 103.132 57.5418 103.132 60.1871C103.132 63.6182 100.226 66.5254 96.7974 66.5254C96.0121 66.5254 95.2269 66.5254 94.4155 66.2635L94.4416 66.2897Z" fill="white"/>
<path d="M56.9866 40.1254C56.7248 39.0778 56.4631 38.2658 56.4631 37.2182C56.4631 31.4037 61.2008 26.6631 67.0117 26.6631C72.8226 26.6631 77.5604 31.4037 77.5604 37.2182V64.6928C77.5604 68.6477 73.6079 73.4145 68.0587 73.1526C64.1062 72.8907 60.939 70.2454 60.6773 66.5524C59.892 66.8143 59.3685 66.8143 58.5571 66.8143C55.1281 66.8143 52.2227 63.9071 52.2227 60.476C52.2227 57.8307 53.7932 55.7354 55.9134 54.6616C53.7932 53.0901 52.2227 50.7067 52.2227 47.7994C52.2227 44.3684 54.3429 41.4612 56.9604 40.1516L56.9866 40.1254Z" fill="white"/>
<path d="M149.073 9.76953H142.477V16.3697H149.073V9.76953Z" fill="black"/>
<path d="M142.475 16.3691H135.879V22.9693H142.475V16.3691Z" fill="black"/>
<path d="M142.475 3.16895H135.879V9.76915H142.475V3.16895Z" fill="black"/>
<path d="M135.877 9.76953H129.281V16.3697H135.877V9.76953Z" fill="black"/>
<path d="M23.7173 52.54H17.1211V59.1402H23.7173V52.54Z" fill="black"/>
<path d="M17.1196 59.1396H10.5234V65.7399H17.1196V59.1396Z" fill="black"/>
<path d="M82.5852 111.968C80.7268 111.968 79.1562 110.37 79.1562 108.537V85.3051C79.1562 83.4455 80.7268 81.874 82.5852 81.874C84.4437 81.874 86.0142 83.4455 86.0142 85.3051V108.537C86.0142 110.658 84.4437 111.968 82.5852 111.968Z" fill="black"/>
<path d="M72.7962 111.968C70.9377 111.968 69.3672 110.37 69.3672 108.537V85.3051C69.3672 83.4455 70.9377 81.874 72.7962 81.874C74.6546 81.874 76.2251 83.4455 76.2251 85.3051V108.537C75.9634 110.658 74.6546 111.968 72.7962 111.968Z" fill="black"/>
<path d="M68.8432 76.3214H68.058C63.8437 76.0594 60.153 73.4141 58.5563 69.9831C53.2689 69.9831 49.0547 65.5044 49.0547 60.2137C49.0547 58.0922 49.84 55.9969 51.1749 54.1373C49.8661 52.2778 49.0547 49.9206 49.0547 47.5371C49.0547 43.8442 50.6252 40.675 53.2689 38.5535V36.9559C53.2689 29.308 59.6033 22.9697 67.2465 22.9697C74.8897 22.9697 81.2241 29.308 81.2241 36.9559C81.2241 38.8154 79.6536 40.3869 77.7952 40.3869C75.9367 40.3869 74.3662 38.8154 74.3662 36.9559C74.3662 33.001 71.199 29.5699 66.9848 29.5699C63.0323 29.5699 59.6033 32.7391 59.6033 36.9559C59.6033 37.7416 59.6033 38.2654 59.8651 39.0774C60.3886 40.675 59.6033 42.2465 58.2946 43.0322C56.4361 43.818 55.3891 45.6776 55.3891 47.511C55.3891 49.0824 56.1744 50.6801 57.5093 51.7278C58.5563 52.5135 59.0798 53.5873 58.8181 54.635C58.8181 55.6826 58.0328 56.7565 56.9596 57.2803C55.9126 57.8041 55.1012 58.8518 55.1012 59.9256C55.1012 61.4971 56.4099 63.0948 58.2684 63.0948C58.5301 63.0948 59.0537 63.0948 59.3154 62.8329C60.3624 62.5709 61.4356 62.5709 62.2209 63.0948C63.0061 63.6186 63.5296 64.6924 63.7914 65.4782C64.0531 67.5997 65.6498 69.1711 68.0056 69.1711C70.1258 69.4331 71.4346 68.3854 72.2198 67.5997C73.2668 66.552 74.0783 65.2163 74.0783 63.9067C74.0783 62.0471 75.6488 60.4756 77.5072 60.4756C79.3657 60.4756 80.9362 62.0471 80.9362 63.9067C80.9362 66.8139 79.6274 69.9831 76.9837 72.3665C74.8635 75.2737 71.6963 76.3214 68.7909 76.3214H68.8432Z" fill="black"/>
<path d="M64.1072 48.8469C56.9876 48.8469 54.0821 43.8182 53.5586 40.3871L60.1548 39.8633C60.4165 40.9109 61.2018 42.5086 64.6307 42.5086C66.4892 42.5086 68.0597 43.8182 68.0597 45.6777C68.0597 47.5373 66.7509 49.1088 64.8925 49.1088C64.8925 48.8469 64.6307 48.8469 64.1072 48.8469Z" fill="black"/>
<path d="M60.9407 69.4597C60.7662 69.4597 60.7662 69.4597 60.9407 69.4597C58.8205 69.4597 57.5117 67.8882 57.5117 66.0287C57.5117 64.1691 59.0822 62.8595 60.6789 62.8595C60.9407 62.8595 62.5374 62.3357 64.1079 58.6427C64.8932 57.045 66.7516 56.2593 68.5839 57.0451C70.1544 57.8308 70.9658 59.6904 70.1544 61.5238C66.4637 68.9097 61.9615 69.4335 60.9145 69.4335L60.9407 69.4597Z" fill="black"/>
<path d="M86.5399 76.3214C79.4202 76.3214 74.3945 70.245 74.3945 64.4305V36.9559C74.3945 29.308 80.729 22.9697 88.3721 22.9697C96.0153 22.9697 102.35 29.308 102.35 36.9559V38.5535C104.993 40.675 106.564 44.1061 106.564 47.5371C106.564 49.9206 105.779 52.2778 104.444 54.1373C105.753 55.7088 106.564 57.8303 106.564 60.2137C106.564 65.5044 102.35 69.7212 97.0623 69.9831C95.4918 73.4141 91.7749 76.0594 87.5607 76.3214H86.5137H86.5399ZM88.3983 29.858C84.4459 29.858 81.0169 33.0272 81.0169 37.244V64.7186C81.0169 66.8401 83.3988 70.0093 86.5661 70.0093H86.8278C89.2098 69.7473 91.042 68.4378 91.042 66.3163C91.042 65.2686 91.5655 64.4567 92.6125 63.9329C93.3978 63.4091 94.471 63.1471 95.518 63.671C95.7798 63.671 96.3033 63.9329 96.565 63.9329C98.1355 63.9329 99.7322 62.6233 99.7322 60.7637C99.7322 59.7161 98.947 58.3803 97.8738 58.1184C96.8268 57.5946 96.0153 56.5208 96.0153 55.4731C96.0153 54.4255 96.5388 53.0897 97.3241 52.5659C98.6329 51.5182 99.4443 49.9205 99.4443 48.3491C99.4443 46.4895 98.3973 44.6561 96.5388 43.8704C95.2301 43.0846 94.4186 41.487 94.9683 39.9155C95.2301 39.1297 95.2301 38.6059 95.2301 37.794C95.4918 33.0534 92.3246 29.8842 88.3721 29.8842L88.3983 29.858Z" fill="black"/>
<path d="M91.2767 48.8471H90.2297C88.3713 48.8471 87.0625 47.2494 87.0625 45.416C87.0625 43.5826 88.633 42.2469 90.4915 42.2469C94.1822 42.5088 94.9674 40.6754 94.9674 39.6016L101.564 40.1254C101.302 43.8184 98.3964 48.8471 91.2767 48.8471Z" fill="black"/>
<path d="M94.4425 69.4589C93.1337 69.4589 88.6316 68.9351 85.2026 61.5491C84.4173 59.9777 85.2026 57.8562 86.7731 57.0704C88.3436 56.2847 90.4638 57.0704 91.2491 58.6681C92.8458 62.0992 94.4163 62.623 94.6781 62.8849C96.2486 62.8849 97.8453 64.1945 97.8453 66.054C97.8453 67.9136 96.5365 69.4851 94.4163 69.4851C94.5908 69.4851 94.5908 69.4851 94.4163 69.4851L94.4425 69.4589Z" fill="black"/>
<path d="M97.0859 114.351H96.8241C94.9656 114.089 93.6569 112.492 93.9186 110.658C95.2274 97.7197 100.515 85.305 109.231 75.2737C115.827 67.6259 119.256 58.1185 119.256 48.0872C119.256 25.3794 100.777 6.62639 77.8208 6.36448C66.7487 6.36448 56.1738 10.5813 48.2689 18.5172C40.364 26.427 35.8618 37.0083 35.8618 48.0872C35.8618 58.1185 39.2908 67.6259 45.8869 75.2737C54.6033 85.305 59.6028 97.7197 60.9377 110.92C61.1995 112.78 59.629 114.351 58.0323 114.613C56.1738 114.875 54.6033 113.303 54.3416 111.706C53.2946 99.815 48.7924 88.7361 40.8875 79.7524C33.506 71.0308 29.2656 59.9518 29.2656 48.3229C29.2656 35.3844 34.2913 23.2317 43.505 13.9861C52.7449 5.02873 64.6285 0 77.5591 0H77.8208C90.7514 0 102.635 5.29064 111.587 14.2481C120.565 23.4936 125.565 35.3844 125.565 48.3229C125.565 59.9518 121.35 71.0307 113.943 80.0144C106.038 89.2599 101.274 100.077 100.227 111.706C100.227 113.303 98.9181 114.351 97.0597 114.351H97.0859Z" fill="black"/>
<path d="M96.8247 126.477C94.9662 126.477 93.3957 124.88 93.3957 123.046C93.3957 121.213 94.9662 119.615 96.8247 119.615C98.3952 119.615 99.4684 118.306 99.4684 116.97C99.4684 116.184 99.2066 115.66 98.6831 115.11C98.1596 114.587 97.6361 114.325 96.8247 114.325H57.7711C56.2006 114.325 55.1274 115.634 55.1274 116.97C55.1274 117.756 55.3892 118.28 55.9127 118.83C56.4362 119.38 57.2214 119.615 57.7711 119.615C59.6296 119.615 61.2001 121.187 61.2001 123.046C61.2001 124.906 59.6296 126.477 57.7711 126.477C55.3892 126.477 53.0334 125.43 51.175 123.832C49.3165 121.972 48.5312 119.877 48.5312 117.232C48.5312 112.203 52.4837 108.248 57.5094 107.986H97.3482C99.7301 107.986 101.824 109.034 103.683 110.894C105.253 112.753 106.326 114.848 106.326 117.232C106.326 122.261 102.112 126.477 96.8247 126.477Z" fill="black"/>
<path d="M96.8258 138.369H85.7537C83.8952 138.369 82.3247 136.797 82.3247 134.938C82.3247 133.078 83.8952 131.507 85.7537 131.507H97.1138C98.6843 131.507 99.7575 130.197 99.7575 128.862C99.7575 128.076 99.4957 127.552 98.9722 127.002C98.4487 126.452 97.9252 126.216 97.1138 126.216H58.0602C56.4897 126.216 55.4165 127.526 55.4165 128.862C55.4165 129.647 55.6782 130.171 56.2018 130.721C56.7253 131.271 57.5105 131.507 58.0602 131.507H69.4203C71.2787 131.507 72.8492 133.078 72.8492 134.938C72.8492 136.797 71.2787 138.369 69.4203 138.369H58.0602C55.6782 138.369 53.3225 137.321 51.464 135.724C49.6056 133.864 48.8203 131.507 48.8203 129.123C48.8203 124.095 52.7728 120.14 57.7984 119.878H97.3755C99.7575 119.878 102.113 120.926 103.71 122.785C105.28 124.645 106.354 126.74 106.354 129.123C106.354 134.152 102.139 138.369 96.852 138.369H96.8258Z" fill="black"/>
<path d="M8.95459 32.7387C4.45244 32.7387 0.761719 29.0457 0.761719 24.567C0.761719 20.0883 4.45244 16.3691 8.95459 16.3691C13.4567 16.3691 17.1475 20.0621 17.1475 24.567C17.1475 29.0719 13.4567 32.7649 8.95459 32.7649V32.7387ZM8.95459 22.9693C8.16933 22.9693 7.38407 23.7551 7.38407 24.5408C7.38407 25.3266 8.16933 26.1123 8.95459 26.1123C9.73985 26.1123 10.5251 25.3266 10.5251 24.5408C10.5251 23.7551 9.73985 22.9693 8.95459 22.9693Z" fill="black"/>
<path d="M142.474 69.1973C136.925 69.1973 132.449 64.7186 132.449 59.166C132.449 53.6135 136.925 49.1348 142.474 49.1348C148.024 49.1348 152.5 53.6135 152.5 59.166C152.5 64.7186 148.024 69.1973 142.474 69.1973ZM142.474 55.9969C140.616 55.9969 139.045 57.5684 139.045 59.4279C139.045 61.2875 140.616 62.859 142.474 62.859C144.333 62.859 145.903 61.2875 145.903 59.4279C145.903 57.3064 144.333 55.9969 142.474 55.9969Z" fill="black"/>
<path d="M77.2976 148.4C70.9632 148.4 65.6758 143.109 65.6758 136.771V135.173C65.6758 133.314 67.2463 131.742 69.1047 131.742H85.7261C87.5845 131.742 89.155 133.314 89.155 135.173V136.771C88.8933 143.109 83.6059 148.4 77.2714 148.4H77.2976ZM72.8216 138.369C73.6069 140.228 75.4653 141.8 77.5594 141.8C79.6534 141.8 81.5118 140.49 82.2971 138.369H72.7955H72.8216Z" fill="black"/>
<path d="M149.069 155H96.3001C94.4416 155 92.8711 153.428 92.8711 151.569C92.8711 149.709 94.4416 148.138 96.3001 148.138H149.069C150.928 148.138 152.498 149.709 152.498 151.569C152.498 153.428 150.928 155 149.069 155Z" fill="black"/>
<path d="M119.519 155C117.66 155 116.09 153.428 116.09 151.569V108.798C116.09 106.939 117.66 105.367 119.519 105.367C121.377 105.367 122.948 106.965 122.948 108.798V151.831C122.686 153.402 121.089 155 119.519 155Z" fill="black"/>
<path d="M126.116 118.568C125.33 118.568 124.545 118.306 123.734 117.52L119.519 113.303L115.305 117.52C113.996 118.83 111.876 118.83 110.568 117.52C109.259 116.211 109.259 114.089 110.568 112.753L117.164 106.153C118.472 104.844 120.593 104.844 121.901 106.153L128.498 112.753C129.806 114.063 129.806 116.184 128.498 117.52C127.712 118.306 126.927 118.568 126.116 118.568Z" fill="black"/>
<path d="M139.308 155C137.449 155 135.879 153.429 135.879 151.569V78.9408C135.879 77.0812 137.449 75.5098 139.308 75.5098C141.166 75.5098 142.737 77.1074 142.737 78.9408V151.569C142.475 153.429 140.878 155 139.308 155Z" fill="black"/>
<path d="M145.905 88.9976C145.119 88.9976 144.334 88.7357 143.523 87.95L139.309 83.7332L135.094 87.95C133.786 89.2595 131.665 89.2595 130.357 87.95C129.048 86.6404 129.048 84.5189 130.357 83.2093L136.953 76.6091C138.262 75.2996 140.382 75.2996 141.69 76.6091L148.287 83.2093C149.595 84.5189 149.595 86.6404 148.287 87.95C147.501 88.7357 146.716 88.9976 145.905 88.9976Z" fill="black"/>
<path d="M56.7246 155H3.92896C2.07052 155 0.5 153.428 0.5 151.569C0.5 149.709 2.07052 148.138 3.92896 148.138H56.6984C58.5568 148.138 60.1273 149.709 60.1273 151.569C60.1273 153.428 58.5568 155 56.6984 155H56.7246Z" fill="black"/>
<path d="M13.9524 155C12.094 155 10.5234 153.429 10.5234 151.569V78.9408C10.5234 77.0812 12.094 75.5098 13.9524 75.5098C15.8108 75.5098 17.3814 77.1074 17.3814 78.9408V151.569C17.1196 153.429 15.5229 155 13.9524 155Z" fill="black"/>
<path d="M20.5492 88.9976C19.764 88.9976 18.9525 88.7357 18.1673 87.95L13.9531 83.7332L9.73884 87.95C8.43007 89.2595 6.30987 89.2595 5.00111 87.95C3.69234 86.6404 3.69234 84.5189 5.00111 83.2093L11.5973 76.6091C12.906 75.2996 15.0262 75.2996 16.335 76.6091L22.9312 83.2093C24.24 84.5189 24.24 86.6404 22.9312 87.95C22.1459 88.7357 21.3607 88.9976 20.5492 88.9976Z" fill="black"/>
<path d="M33.7415 155C31.883 155 30.3125 153.428 30.3125 151.569V108.798C30.3125 106.939 31.883 105.367 33.7415 105.367C35.5999 105.367 37.1704 106.965 37.1704 108.798V151.831C36.9087 153.402 35.312 155 33.7415 155Z" fill="black"/>
<path d="M40.3383 118.568C39.553 118.568 38.7678 118.306 37.9563 117.52L33.7421 113.303L29.5279 117.52C28.2191 118.83 26.0989 118.83 24.7902 117.52C23.4814 116.211 23.4814 114.089 24.7902 112.753L31.3863 106.153C32.6951 104.844 34.8153 104.844 36.1241 106.153L42.7203 112.753C44.029 114.063 44.029 116.184 42.7203 117.52C41.935 118.306 41.1497 118.568 40.3383 118.568Z" fill="black"/>
</svg>
