<svg width="261" height="254" viewBox="0 0 261 254" fill="none" xmlns="http://www.w3.org/2000/svg">
<g clip-path="url(#clip0_605_4276)">
<path d="M19.2541 193.622C10.0296 184.731 0.119227 174.302 0.000964299 161.241C-0.105472 148.855 8.62232 138.633 14.7069 127.979C22.5123 114.332 26.3854 98.2959 25.7054 82.4368C25.1732 69.9553 21.9505 57.0717 25.8355 45.2469C29.4839 34.1437 38.8207 26.087 48.607 20.2308C59.2861 13.8363 71.0118 9.33465 83.1279 6.96851C100.501 3.579 118.358 4.60236 136.015 3.67365C154.718 2.68578 173.339 -0.502603 192.054 0.0652724C203.442 0.408364 216.15 2.96972 222.619 12.7123C227.373 19.8699 227.544 29.1275 228.721 37.7343C231.914 61.0586 243.427 82.0937 253.568 103.164C257.968 112.309 262.26 122.312 260.646 132.392C258.216 147.595 243.078 158.437 241.884 173.8C240.648 189.7 254.97 204.926 250.127 220.07C247.927 226.949 242.144 231.918 236.142 235.627C225.806 242.01 214.175 245.748 202.55 248.943C192.302 251.764 181.824 254.225 171.222 253.977C162.376 253.769 153.683 251.687 145.068 249.611C130.173 246.02 115.278 242.436 100.382 238.845C90.5252 236.473 80.4551 234.006 71.9284 228.357C62.9877 222.436 56.229 214.734 45.5853 212.202C35.1841 209.724 26.823 200.928 19.2423 193.622H19.2541Z" fill="#FFB000"/>
<path d="M128.652 230.232C132.691 230.977 136.753 231.592 140.833 232.071C141.862 232.195 143.157 232.172 143.618 231.243C144.21 230.048 142.796 228.871 141.596 228.279C139.698 227.339 134.766 224.707 132.868 223.766C130.633 222.66 131.52 219.247 128.995 222.258C128.155 223.257 127.694 230.054 128.652 230.226V230.232Z" fill="black"/>
<path d="M106.076 234.964C104.296 237.502 105.472 241.128 109.955 237.786C111.658 236.514 112.698 234.544 114.07 232.923C114.585 232.314 115.105 231.699 115.46 230.989C116.181 229.552 116.063 226.949 116.039 225.34C116.021 224.009 115.608 221.66 113.479 222.252C112.296 222.577 112.196 223.855 111.746 224.754C109.683 228.877 108.92 230.942 106.087 234.964H106.076Z" fill="black"/>
<path d="M111.734 224.754C113.165 224.95 114.596 225.145 116.027 225.34C118.984 212.953 120.699 202.785 121.698 198.585C125.784 181.424 126.216 178.331 131.236 161.418C132.2 164.382 131.159 187.351 130.946 190.457C129.687 208.487 129.397 210.522 128.333 224.707L132.868 223.778C138.633 203.814 143.109 187.068 145.451 166.417C145.942 162.111 147.054 153.634 147.054 153.634C144.061 153.628 117.925 153.285 115.495 153.214C115.081 165.24 114.732 174.119 113.763 186.375C112.515 202.193 112.385 211.368 111.734 224.76V224.754Z" fill="#1E1E1E"/>
<path d="M107.631 119.005C109.097 120.413 110.404 125.683 112.391 126.115C114.378 126.547 115.974 122.442 115.974 122.442C114.981 135.047 115.957 141.04 115.495 153.207C120.705 155.455 139.639 155.875 147.054 153.627C147.054 153.627 147.178 134.639 147.178 120.803C149.058 119.673 151.666 118.863 154.144 117.621C154.144 117.621 154.871 113.888 152.766 108.872C150.56 104.962 148.65 103.471 143.346 101.88C136.085 99.6971 124.146 99.7503 117.305 103.619C111.333 106.997 108.678 112.581 107.625 118.999L107.631 119.005Z" fill="white"/>
<path d="M126.014 104.465C129.295 105.949 134.203 107.008 137.408 105.358C138.035 105.038 138.668 104.53 138.715 103.826C138.733 103.554 138.65 103.281 138.573 103.021C137.858 100.702 136.977 98.4309 135.93 96.2422C134.682 93.6276 126.694 90.871 126.593 94.4439C126.481 98.4605 126.138 101.637 126.02 104.465H126.014Z" fill="#F78E69"/>
<path d="M108.488 134.201C109.635 136.934 111.042 137.703 113.958 138.442C121.704 140.4 130.562 135.449 133.708 135.047C134.861 134.899 136.138 134.78 137.09 135.455C138.456 136.419 141.081 137.324 141.59 136.537C143.257 133.94 142.69 131.533 141.022 129.865C140.312 129.155 139.236 129.078 138.243 129.208C131.431 130.066 124.282 130.456 117.417 130.456C115.856 130.456 115.962 127.055 116.506 122.246C116.583 121.571 107.772 118.342 107.642 119.004C106.259 125.931 106.868 130.302 108.5 134.207L108.488 134.201Z" fill="#F8AB73"/>
<path d="M147.255 133.131C145.753 134.119 142.749 135.941 138.717 131.22C137.102 129.333 136.31 124.838 135.937 122.383C135.11 116.899 135.033 111.983 133.454 105.932C132.496 106.003 132.691 104.181 131.786 103.868C130.882 103.548 130.953 101.259 131.331 100.36C131.786 99.3068 133.684 99.4725 135.24 99.0939C136.452 98.7981 136.943 99.4724 137.504 100.632C137.782 101.206 138.427 104.483 138.486 105.122C138.894 109.665 140.082 111.309 141.448 115.681C141.904 117.142 143.27 120.36 144.216 121.56C145.274 122.903 144.287 121.052 144.76 118.254C145.15 115.953 154.516 114.267 154.156 117.627C153.363 125.009 150.401 131.072 147.267 133.137L147.255 133.131Z" fill="#F8AB73"/>
<path d="M133.903 98.9638C135.115 99.1708 136.427 99.1767 137.504 98.5793C138.225 98.1771 138.781 97.5382 139.23 96.8461C141.347 93.5926 141.193 89.4164 140.963 85.5418C140.898 84.4297 140.744 81.549 140.348 80.5138C138.722 76.302 132.992 77.0178 130.721 77.2899C124.572 78.0352 122.496 82.5132 122.472 83.7968C122.39 88.0026 123.685 91.7707 126.6 94.4385C128.9 96.5444 130.231 98.3249 133.914 98.9579L133.903 98.9638Z" fill="#FFB380"/>
<path d="M126.411 87.3754C126.44 86.0917 126.364 83.1636 127.369 82.6135C130.804 82.6135 138.172 83.0512 139.993 81.8267C141.277 80.9631 142.353 80.2059 142.341 77.9463C142.341 77.1713 142.341 71.1909 136.593 73.2317C133.388 74.3675 128.161 74.6573 126.009 75.8995C125.175 76.3846 124.253 77.3015 124.235 78.6029C124.235 78.6029 123.029 79.0643 122.455 79.7031C120.699 81.667 121.077 86.21 121.97 88.6886C123.673 93.4149 125.76 93.9887 126.588 94.4383C126.216 92.2023 126.015 90.682 126.015 90.682C126.015 90.682 123.916 90.8891 123.809 88.0793C123.661 84.0687 126.417 87.3754 126.417 87.3754H126.411Z" fill="black"/>
<path d="M145.713 91.3448L157.391 76.8758L160.029 83.3886L171.884 75.4502L159.579 90.7296L155.765 85.2874L145.713 91.3448Z" fill="white"/>
<path d="M115.473 92.3676L99.5843 85.281L104.841 81.3354L94.8184 72.5156L111.588 79.969L107.579 84.7309L115.473 92.3676Z" fill="white"/>
<path d="M64.1188 104.234C66.8798 92.3556 59.4921 80.4869 47.6179 77.7248C35.7437 74.9628 23.8795 82.3533 21.1184 94.232C18.3574 106.111 25.7451 117.979 37.6193 120.741C49.4935 123.503 61.3577 116.113 64.1188 104.234Z" fill="black"/>
<path d="M41.9893 87.0924L41.4688 111.346L43.2541 111.384L43.7747 87.1307L41.9893 87.0924Z" fill="white"/>
<path d="M42.3389 112.25C38.1406 112.162 34.9711 106.371 35.1308 99.071C35.2845 91.7714 38.6964 86.1223 42.9006 86.211C47.1049 86.2997 50.2684 92.0909 50.1088 99.3904C49.955 106.69 46.5372 112.339 42.3389 112.25ZM42.8592 87.9974C39.7667 87.9324 37.0407 93.0196 36.9106 99.1124C36.7805 105.205 39.2818 110.405 42.3744 110.47C45.4669 110.535 48.1929 105.448 48.323 99.3549C48.4531 93.2621 45.9518 88.0625 42.8592 87.9974Z" fill="white"/>
<path d="M42.7237 94.2024C39.5128 94.1314 36.4498 92.8833 34.1023 90.6828L33.375 90.0025L34.126 89.3518C36.5622 87.2519 39.6784 86.1398 42.8892 86.2049C46.106 86.2758 49.169 87.524 51.5106 89.7245L52.2379 90.4048L51.4869 91.0495C49.0448 93.1436 45.9345 94.2616 42.7237 94.1965V94.2024ZM36.1187 90.0617C38.0168 91.5346 40.3407 92.3627 42.7651 92.416C45.1835 92.4692 47.5429 91.7416 49.506 90.3456C47.6079 88.8727 45.2841 88.0445 42.8597 87.9913C40.4353 87.9381 38.0819 88.6656 36.1187 90.0617Z" fill="white"/>
<path d="M42.3398 112.25C39.058 112.179 35.9477 110.883 33.5825 108.606L32.8906 107.937L33.612 107.299C36.0719 105.122 39.2354 103.962 42.5172 104.033C45.799 104.104 48.9093 105.4 51.2746 107.677L51.9664 108.346L51.245 108.985C48.7851 111.161 45.6216 112.321 42.3398 112.25ZM35.5811 107.991C37.5088 109.541 39.8859 110.41 42.3812 110.463C44.8766 110.517 47.2891 109.748 49.2759 108.281C47.3482 106.731 44.9712 105.861 42.4758 105.808C39.9805 105.755 37.5679 106.524 35.5811 107.991Z" fill="white"/>
<path d="M30.5168 98.088L30.4785 99.874L54.7227 100.395L54.761 98.6087L30.5168 98.088Z" fill="white"/>
<path d="M42.3394 112.25C39.0576 112.179 35.9473 110.884 33.5821 108.606C30.9803 106.092 29.5256 102.578 29.6025 98.9583C29.6794 95.273 31.3291 91.7711 34.132 89.3635C36.5682 87.2636 39.6844 86.1515 42.8952 86.2166C46.112 86.2876 49.175 87.5357 51.5166 89.7362C54.2071 92.2621 55.709 95.829 55.6321 99.5143C55.5553 103.135 53.9528 106.583 51.2446 108.985C48.7847 111.162 45.6212 112.321 42.3394 112.25ZM42.8598 87.9971C40.0865 87.9379 37.396 88.9021 35.2969 90.7123C32.8843 92.7945 31.4592 95.8113 31.3883 98.9938C31.3232 102.117 32.5709 105.152 34.8179 107.323C36.8579 109.292 39.5425 110.41 42.3749 110.47C45.2073 110.529 47.9392 109.529 50.062 107.648C52.4036 105.578 53.7813 102.596 53.8464 99.4788C53.9173 96.2964 52.6224 93.2204 50.2985 91.0376C48.2762 89.1388 45.633 88.0622 42.8598 88.003V87.9971Z" fill="white"/>
<path d="M156.723 32.0958C159.569 20.2372 152.267 8.3159 140.412 5.4689C128.558 2.62189 116.642 9.92725 113.796 21.7859C110.95 33.6445 118.252 45.5658 130.106 48.4128C141.961 51.2598 153.877 43.9544 156.723 32.0958Z" fill="black"/>
<path d="M137.113 41.7853C137.101 42.4005 136.132 42.8797 134.949 42.856C133.766 42.8264 132.826 42.3059 132.838 41.6907C132.85 41.0755 133.82 40.5963 135.002 40.62C136.185 40.6496 137.125 41.1701 137.113 41.7853Z" fill="#3A3A3A"/>
<path d="M145.564 21.6793C145.7 15.8527 140.881 11.0612 134.962 11.3333C130.03 11.5581 125.926 15.409 125.388 20.3188C125.105 22.9156 125.808 25.3468 127.174 27.2811C128.948 29.7952 130.148 32.6641 130.598 35.7046L139.633 35.9117C140.219 32.8948 141.555 30.0791 143.441 27.6538C144.73 25.9975 145.517 23.933 145.57 21.6793H145.564Z" fill="white"/>
<path d="M130.596 35.7042L139.628 35.9124L139.579 38.0413C139.529 40.2472 137.696 41.9919 135.497 41.9412L134.445 41.9169C132.24 41.8661 130.496 40.0331 130.547 37.8331L130.596 35.6982L130.596 35.7042Z" fill="#5B5B5B"/>
<path d="M139.586 36.9765L130.601 36.7694C130.3 36.7624 130.051 37.0004 130.044 37.3009L130.041 37.4428C130.034 37.7433 130.272 37.9925 130.572 37.9994L139.558 38.2066C139.858 38.2135 140.107 37.9755 140.114 37.675L140.117 37.5331C140.124 37.2326 139.886 36.9834 139.586 36.9765Z" fill="#FFB000"/>
<path d="M139.533 38.9863L130.548 38.7791C130.247 38.7722 129.998 39.0102 129.991 39.3107L129.988 39.4526C129.981 39.7531 130.219 40.0023 130.519 40.0092L139.505 40.2163C139.805 40.2233 140.054 39.9853 140.061 39.6848L140.065 39.5429C140.072 39.2424 139.834 38.9932 139.533 38.9863Z" fill="#FFB000"/>
<path d="M133.914 34.1306C133.967 31.6994 134.027 29.2741 134.08 26.8429C134.092 26.2809 133.222 26.3637 133.211 26.9198C133.157 29.351 133.098 31.7763 133.045 34.2075C133.033 34.7695 133.902 34.6867 133.914 34.1306Z" fill="#FFB000"/>
<path d="M137.274 33.9179C137.327 31.5873 137.38 29.2507 137.433 26.92C137.445 26.3581 136.576 26.4409 136.564 26.9969C136.511 29.3276 136.458 31.6642 136.404 33.9948C136.393 34.5568 137.262 34.474 137.274 33.9179Z" fill="#FFB000"/>
<path d="M134.27 25.0986C134.276 24.7556 134.287 24.4184 134.293 24.0753C134.293 23.8387 134.033 23.6612 133.82 23.679C133.56 23.7026 133.43 23.9156 133.424 24.1522L133.4 25.1755C133.4 25.4122 133.661 25.5896 133.873 25.5719C134.128 25.5482 134.264 25.3353 134.27 25.0986Z" fill="#FFB000"/>
<path d="M133.595 24.146C134.653 24.8558 135.93 24.8972 137.036 24.2524C137.521 23.9685 137.012 23.2527 136.527 23.5367C135.794 23.9685 134.866 23.9448 134.156 23.4716C133.695 23.164 133.127 23.8324 133.595 24.14V24.146Z" fill="#FFB000"/>
<path d="M136.344 23.9332C136.344 23.9806 136.344 24.0279 136.344 24.0811C136.344 24.3118 136.604 24.507 136.817 24.4775C137.071 24.442 137.207 24.2468 137.213 24.0042C137.213 23.9569 137.213 23.9096 137.213 23.8563C137.213 23.6256 136.953 23.4304 136.74 23.46C136.486 23.4955 136.35 23.6907 136.344 23.9332Z" fill="#FFB000"/>
<path d="M136.344 23.9334C136.332 24.3712 136.326 24.8089 136.314 25.2466C136.314 25.4833 136.575 25.6607 136.788 25.643C137.042 25.6193 137.178 25.4064 137.184 25.1697C137.196 24.732 137.201 24.2943 137.213 23.8565C137.213 23.6199 136.953 23.4425 136.74 23.4602C136.48 23.4839 136.35 23.6968 136.344 23.9334Z" fill="#FFB000"/>
<path d="M137.456 15.2495C138.521 15.4625 139.39 16.0777 139.969 16.9827C140.478 17.7695 141.666 16.9295 141.158 16.1368C140.371 14.9183 139.136 14.096 137.716 13.8121C136.794 13.6287 136.534 15.0602 137.456 15.2495Z" fill="#FFB000"/>
<path d="M142.578 18.8401C142.578 18.7928 142.578 18.7454 142.578 18.6922C142.578 18.5147 142.448 18.3018 142.317 18.1953C142.181 18.0829 141.963 18.006 141.785 18.0297C141.596 18.0533 141.407 18.1362 141.289 18.29C141.164 18.4556 141.129 18.6153 141.123 18.8223C141.123 18.8697 141.123 18.917 141.123 18.9702C141.123 19.1477 141.253 19.3547 141.383 19.4671C141.519 19.5795 141.738 19.6564 141.915 19.6327C142.105 19.6091 142.294 19.5263 142.412 19.3725C142.536 19.2068 142.572 19.0471 142.578 18.8401Z" fill="#FFB000"/>
<path d="M74.0796 71.67C86.2706 71.67 96.1533 61.7835 96.1533 49.5879C96.1533 37.3923 86.2706 27.5059 74.0796 27.5059C61.8886 27.5059 52.0059 37.3923 52.0059 49.5879C52.0059 61.7835 61.8886 71.67 74.0796 71.67Z" fill="black"/>
<path d="M84.4106 37.8576L81.3122 35.1957L78.9528 37.9463C78.1486 37.5323 77.2912 37.2602 76.422 37.1182L76.1441 33.5039L72.0699 33.8174L72.3478 37.4317C71.5082 37.7038 70.7099 38.1061 69.9767 38.6325L67.2271 36.2723L64.5662 39.372L67.3158 41.7322C66.9018 42.5367 66.6298 43.3944 66.4879 44.264L62.875 44.542L63.1884 48.6177L66.8013 48.3397C67.0733 49.1796 67.4754 49.9782 68.0017 50.7117L65.6423 53.4624L68.7408 56.1243L71.1002 53.3736C71.9044 53.7877 72.7618 54.0598 73.631 54.2018L73.9089 57.8161L77.9831 57.5026L77.7052 53.8883C78.5448 53.6162 79.3431 53.2139 80.0763 52.6874L82.8259 55.0477L85.4868 51.948L82.7372 49.5878C83.1511 48.7833 83.4232 47.9256 83.5651 47.056L87.178 46.778L86.8646 42.7023L83.2517 42.9803C82.9797 42.1403 82.5776 41.3418 82.0513 40.6083L84.4106 37.8576ZM78.0008 48.2154C76.5935 49.8599 74.1159 50.0492 72.472 48.6354C70.8282 47.2276 70.6389 44.749 72.0522 43.1046C73.4595 41.4601 75.9371 41.2708 77.581 42.6846C79.2248 44.0924 79.414 46.571 78.0008 48.2154Z" fill="white"/>
<path d="M74.3888 59.5076L73.3067 58.5788L72.4789 59.543C72.195 59.4011 71.8994 59.3005 71.5919 59.2532L71.4973 57.9873L70.0722 58.0938L70.1668 59.3597C69.8712 59.4543 69.5933 59.5963 69.339 59.7797L68.3751 58.9515L67.4468 60.034L68.4106 60.8622C68.2687 61.1461 68.1682 61.4419 68.1209 61.7495L66.8555 61.8441L66.9619 63.2697L68.2273 63.1751C68.3219 63.4709 68.4638 63.7489 68.6471 64.0032L67.8193 64.9674L68.9014 65.8962L69.7293 64.9319C70.0131 65.0739 70.3087 65.1745 70.6162 65.2218L70.7108 66.4877L72.1359 66.3812L72.0413 65.1153C72.337 65.0207 72.6149 64.8787 72.8691 64.6953L73.833 65.5235L74.7613 64.441L73.7975 63.6128C73.9394 63.3289 74.0399 63.0331 74.0872 62.7255L75.3526 62.6309L75.2462 61.2053L73.9808 61.2999C73.8862 61.0041 73.7443 60.7261 73.561 60.4718L74.3888 59.5076ZM72.1477 63.1337C71.6569 63.7075 70.7877 63.7725 70.2141 63.2816C69.6406 62.7906 69.5755 61.921 70.0663 61.3472C70.5571 60.7734 71.4263 60.7084 71.9999 61.1993C72.5735 61.6903 72.6385 62.5599 72.1477 63.1337Z" fill="white"/>
<path d="M214.269 174.869C226.46 174.869 236.343 164.983 236.343 152.787C236.343 140.592 226.46 130.705 214.269 130.705C202.078 130.705 192.195 140.592 192.195 152.787C192.195 164.983 202.078 174.869 214.269 174.869Z" fill="black"/>
<path d="M224.505 135.018C224.044 137.112 223.245 139.561 221.253 140.365C220.129 140.821 218.905 140.732 217.782 141.105C216.019 141.684 214.902 143.293 214.748 145.086C214.701 145.642 213.826 145.642 213.873 145.08C214.033 143.187 215.008 141.531 216.711 140.62C217.628 140.135 218.639 140.141 219.603 139.993C222.494 139.543 222.973 137.331 223.541 134.787L223.819 135.473L224.505 135.018Z" fill="url(#paint0_linear_605_4276)"/>
<path d="M200.745 144.778L199.905 146.588L199.781 164.476L200.615 162.536L200.745 144.778Z" fill="#FFB000"/>
<path d="M214.109 163.412C214.109 163.412 213.021 163.258 212.069 163.761C212.069 163.761 207.799 161.33 199.781 164.471L200.621 162.531C200.621 162.531 208.261 157.952 214.115 162.625V163.406L214.109 163.412Z" fill="#E5E5E5"/>
<path d="M214.115 162.631C214.115 162.631 211.436 161.247 207.374 161.276C203.436 161.3 200.615 162.536 200.615 162.536L200.739 144.772C200.739 144.772 203.489 143.483 207.421 143.512C211.265 143.542 214.239 144.867 214.239 144.867L214.115 162.631Z" fill="white"/>
<path d="M202.809 147.227C202.767 147.227 202.726 147.203 202.708 147.156C202.685 147.102 202.708 147.037 202.767 147.014C202.767 147.014 202.838 146.984 202.974 146.937C203.034 146.919 203.093 146.949 203.11 147.002C203.128 147.061 203.099 147.12 203.045 147.138C202.915 147.179 202.85 147.209 202.844 147.209C202.832 147.209 202.815 147.215 202.803 147.215L202.809 147.227Z" fill="#FFB000"/>
<path d="M203.441 147.014C203.394 147.014 203.352 146.985 203.335 146.937C203.317 146.878 203.352 146.819 203.406 146.801C203.536 146.766 203.684 146.724 203.849 146.677C203.908 146.665 203.967 146.695 203.979 146.754C203.997 146.813 203.961 146.872 203.902 146.884C203.743 146.925 203.595 146.967 203.471 147.002C203.459 147.002 203.447 147.002 203.441 147.002V147.014ZM211.04 147.044C211.04 147.044 211.016 147.044 211.004 147.038C210.862 146.991 210.72 146.943 210.578 146.902C210.519 146.884 210.49 146.825 210.507 146.766C210.525 146.707 210.584 146.671 210.643 146.695C210.791 146.736 210.933 146.783 211.081 146.837C211.14 146.854 211.17 146.92 211.146 146.973C211.128 147.02 211.087 147.044 211.04 147.044ZM204.316 146.789C204.269 146.789 204.222 146.754 204.21 146.707C204.198 146.647 204.233 146.588 204.293 146.576C204.435 146.547 204.582 146.511 204.742 146.482C204.801 146.47 204.86 146.511 204.872 146.571C204.884 146.63 204.843 146.689 204.783 146.701C204.63 146.73 204.482 146.76 204.34 146.789C204.334 146.789 204.322 146.789 204.316 146.789ZM210.17 146.789C210.17 146.789 210.153 146.789 210.147 146.789C209.999 146.754 209.857 146.718 209.709 146.689C209.65 146.677 209.614 146.618 209.626 146.559C209.638 146.5 209.691 146.458 209.756 146.476C209.904 146.505 210.052 146.541 210.206 146.576C210.265 146.588 210.3 146.647 210.283 146.707C210.271 146.754 210.224 146.789 210.176 146.789H210.17ZM205.209 146.624C205.156 146.624 205.109 146.582 205.103 146.529C205.091 146.47 205.132 146.417 205.191 146.405C205.339 146.381 205.487 146.358 205.647 146.34C205.712 146.328 205.759 146.375 205.771 146.434C205.777 146.494 205.735 146.547 205.676 146.559C205.523 146.576 205.375 146.6 205.233 146.624C205.227 146.624 205.221 146.624 205.215 146.624H205.209ZM209.277 146.606C209.277 146.606 209.266 146.606 209.26 146.606C209.112 146.582 208.964 146.559 208.816 146.541C208.757 146.535 208.716 146.482 208.722 146.417C208.727 146.358 208.775 146.316 208.84 146.322C208.988 146.34 209.141 146.363 209.295 146.387C209.354 146.399 209.396 146.452 209.384 146.511C209.378 146.565 209.331 146.606 209.277 146.606ZM206.108 146.511C206.055 146.511 206.007 146.47 206.002 146.411C206.002 146.352 206.043 146.298 206.102 146.292C206.25 146.281 206.404 146.269 206.557 146.257C206.628 146.257 206.67 146.298 206.67 146.358C206.67 146.417 206.628 146.47 206.569 146.476C206.415 146.482 206.268 146.494 206.12 146.511C206.12 146.511 206.114 146.511 206.108 146.511ZM208.373 146.494C208.373 146.494 208.373 146.494 208.367 146.494C208.213 146.482 208.065 146.47 207.917 146.464C207.858 146.464 207.811 146.411 207.811 146.352C207.811 146.292 207.864 146.245 207.923 146.245C208.071 146.251 208.225 146.263 208.379 146.275C208.438 146.275 208.485 146.334 208.479 146.393C208.479 146.452 208.426 146.494 208.373 146.494ZM207.013 146.458C206.954 146.458 206.906 146.411 206.906 146.352C206.906 146.292 206.954 146.239 207.013 146.239C207.155 146.239 207.296 146.239 207.438 146.239H207.468C207.527 146.239 207.574 146.287 207.574 146.352C207.574 146.417 207.527 146.458 207.462 146.458H207.432C207.291 146.458 207.149 146.458 207.013 146.458Z" fill="#FFB000"/>
<path d="M211.679 147.286C211.679 147.286 211.649 147.286 211.638 147.28C211.573 147.251 211.502 147.227 211.437 147.198C211.383 147.174 211.354 147.109 211.377 147.056C211.401 147.002 211.466 146.973 211.519 146.997C211.59 147.026 211.655 147.05 211.726 147.079C211.779 147.103 211.809 147.168 211.785 147.221C211.768 147.263 211.726 147.286 211.685 147.286H211.679Z" fill="#FFB000"/>
<path d="M202.797 148.942C202.756 148.942 202.714 148.919 202.697 148.871C202.673 148.818 202.697 148.753 202.756 148.73C202.756 148.73 202.827 148.7 202.963 148.653C203.022 148.635 203.081 148.664 203.099 148.718C203.116 148.777 203.087 148.836 203.034 148.854C202.904 148.895 202.838 148.925 202.833 148.925C202.821 148.925 202.803 148.931 202.791 148.931L202.797 148.942Z" fill="#FFB000"/>
<path d="M203.429 148.73C203.382 148.73 203.341 148.7 203.323 148.653C203.305 148.594 203.341 148.535 203.394 148.517C203.524 148.482 203.672 148.44 203.837 148.393C203.897 148.381 203.956 148.411 203.968 148.47C203.985 148.529 203.95 148.588 203.891 148.6C203.731 148.641 203.583 148.683 203.459 148.718C203.447 148.718 203.435 148.718 203.429 148.718V148.73ZM211.028 148.76C211.028 148.76 211.004 148.76 210.992 148.754C210.85 148.706 210.708 148.659 210.567 148.618C210.507 148.6 210.478 148.541 210.496 148.482C210.513 148.422 210.572 148.393 210.632 148.411C210.779 148.452 210.921 148.499 211.069 148.553C211.128 148.57 211.158 148.635 211.134 148.689C211.116 148.736 211.075 148.76 211.028 148.76ZM204.305 148.505C204.257 148.505 204.21 148.47 204.198 148.422C204.186 148.363 204.222 148.304 204.281 148.292C204.423 148.263 204.571 148.227 204.73 148.198C204.789 148.186 204.849 148.227 204.86 148.286C204.872 148.345 204.831 148.405 204.772 148.416C204.618 148.446 204.47 148.476 204.328 148.505C204.322 148.505 204.31 148.505 204.305 148.505ZM210.159 148.505C210.159 148.505 210.141 148.505 210.135 148.505C209.987 148.47 209.845 148.434 209.697 148.405C209.638 148.393 209.603 148.334 209.615 148.275C209.626 148.215 209.68 148.174 209.745 148.192C209.892 148.221 210.04 148.257 210.194 148.292C210.253 148.304 210.289 148.363 210.271 148.422C210.259 148.47 210.212 148.505 210.164 148.505H210.159ZM205.197 148.34C205.144 148.34 205.097 148.298 205.091 148.245C205.079 148.186 205.121 148.133 205.18 148.121C205.328 148.097 205.475 148.073 205.635 148.056C205.7 148.044 205.747 148.091 205.759 148.15C205.765 148.209 205.724 148.263 205.665 148.275C205.511 148.292 205.363 148.316 205.221 148.34C205.215 148.34 205.209 148.34 205.203 148.34H205.197ZM209.266 148.322C209.266 148.322 209.254 148.322 209.248 148.322C209.1 148.298 208.952 148.275 208.804 148.257C208.745 148.251 208.704 148.198 208.71 148.133C208.716 148.073 208.763 148.026 208.828 148.038C208.976 148.056 209.13 148.079 209.283 148.103C209.343 148.115 209.384 148.168 209.372 148.227C209.366 148.28 209.319 148.322 209.266 148.322ZM206.096 148.227C206.043 148.227 205.996 148.186 205.99 148.127C205.99 148.067 206.031 148.014 206.09 148.008C206.238 147.996 206.392 147.985 206.546 147.973C206.617 147.973 206.658 148.014 206.658 148.073C206.658 148.133 206.617 148.186 206.557 148.192C206.404 148.204 206.256 148.209 206.108 148.227C206.108 148.227 206.102 148.227 206.096 148.227ZM208.361 148.209C208.361 148.209 208.361 148.209 208.355 148.209C208.201 148.198 208.053 148.186 207.906 148.18C207.847 148.18 207.799 148.127 207.799 148.067C207.799 148.008 207.852 147.961 207.912 147.961C208.059 147.967 208.213 147.979 208.367 147.991C208.426 147.991 208.473 148.05 208.467 148.109C208.467 148.168 208.414 148.209 208.361 148.209ZM207.001 148.174C206.942 148.174 206.895 148.127 206.895 148.067C206.895 148.008 206.942 147.955 207.001 147.955C207.143 147.955 207.285 147.955 207.427 147.955H207.456C207.515 147.955 207.563 148.002 207.563 148.067C207.563 148.127 207.515 148.174 207.45 148.174H207.421C207.279 148.174 207.137 148.174 207.001 148.174Z" fill="#FFB000"/>
<path d="M211.667 149.008C211.667 149.008 211.638 149.008 211.626 149.002C211.561 148.973 211.496 148.949 211.425 148.919C211.372 148.896 211.342 148.831 211.366 148.777C211.389 148.724 211.454 148.695 211.508 148.718C211.579 148.748 211.644 148.771 211.715 148.801C211.768 148.825 211.797 148.89 211.774 148.943C211.756 148.984 211.715 149.008 211.673 149.008H211.667Z" fill="#FFB000"/>
<path d="M202.785 150.657C202.744 150.657 202.703 150.634 202.685 150.586C202.661 150.533 202.685 150.468 202.744 150.444C202.744 150.444 202.815 150.415 202.951 150.367C203.01 150.35 203.069 150.379 203.087 150.433C203.105 150.492 203.075 150.551 203.022 150.569C202.892 150.61 202.827 150.64 202.821 150.64C202.809 150.64 202.791 150.645 202.779 150.645L202.785 150.657Z" fill="#FFB000"/>
<path d="M203.418 150.451C203.37 150.451 203.329 150.421 203.311 150.374C203.294 150.315 203.329 150.255 203.382 150.238C203.512 150.202 203.66 150.161 203.826 150.114C203.885 150.102 203.944 150.131 203.956 150.19C203.974 150.25 203.938 150.309 203.879 150.321C203.719 150.362 203.571 150.403 203.447 150.439C203.435 150.439 203.424 150.439 203.418 150.439V150.451ZM211.016 150.48C211.016 150.48 210.992 150.48 210.981 150.474C210.839 150.427 210.697 150.38 210.555 150.338C210.496 150.321 210.466 150.261 210.484 150.202C210.502 150.143 210.561 150.114 210.62 150.131C210.768 150.173 210.91 150.22 211.057 150.273C211.117 150.291 211.146 150.356 211.123 150.409C211.105 150.457 211.063 150.48 211.016 150.48ZM204.293 150.226C204.246 150.226 204.198 150.19 204.186 150.143C204.175 150.084 204.21 150.025 204.269 150.013C204.411 149.983 204.559 149.948 204.719 149.918C204.778 149.906 204.837 149.948 204.849 150.007C204.86 150.066 204.819 150.125 204.76 150.137C204.606 150.167 204.458 150.196 204.316 150.226C204.311 150.226 204.299 150.226 204.293 150.226ZM210.147 150.226C210.147 150.226 210.129 150.226 210.123 150.226C209.975 150.19 209.833 150.155 209.686 150.125C209.626 150.114 209.591 150.054 209.603 149.995C209.615 149.936 209.668 149.895 209.733 149.912C209.881 149.942 210.029 149.977 210.182 150.013C210.241 150.025 210.277 150.084 210.259 150.143C210.247 150.19 210.2 150.226 210.153 150.226H210.147ZM205.186 150.06C205.133 150.06 205.085 150.019 205.079 149.966C205.067 149.906 205.109 149.853 205.168 149.841C205.316 149.818 205.464 149.794 205.623 149.776C205.688 149.765 205.736 149.812 205.747 149.871C205.753 149.93 205.712 149.983 205.653 149.995C205.499 150.013 205.351 150.037 205.209 150.06C205.203 150.06 205.198 150.06 205.192 150.06H205.186ZM209.254 150.043C209.254 150.043 209.242 150.043 209.236 150.043C209.088 150.019 208.941 149.995 208.793 149.977C208.734 149.972 208.692 149.918 208.698 149.853C208.704 149.794 208.751 149.753 208.816 149.759C208.964 149.776 209.118 149.8 209.272 149.824C209.331 149.835 209.372 149.889 209.36 149.948C209.354 150.001 209.307 150.043 209.254 150.037V150.043ZM206.085 149.948C206.031 149.948 205.984 149.906 205.978 149.847C205.978 149.788 206.019 149.735 206.079 149.729C206.226 149.717 206.38 149.705 206.534 149.694C206.605 149.688 206.646 149.735 206.646 149.794C206.646 149.853 206.605 149.906 206.546 149.906C206.392 149.918 206.244 149.924 206.096 149.942C206.096 149.942 206.09 149.942 206.085 149.942V149.948ZM208.349 149.93C208.349 149.93 208.349 149.93 208.343 149.93C208.19 149.918 208.042 149.906 207.894 149.901C207.835 149.901 207.788 149.847 207.788 149.788C207.788 149.729 207.841 149.682 207.9 149.682C208.048 149.688 208.201 149.699 208.355 149.711C208.414 149.711 208.462 149.77 208.456 149.83C208.456 149.889 208.402 149.93 208.349 149.93ZM206.989 149.895C206.93 149.895 206.883 149.847 206.883 149.788C206.883 149.729 206.93 149.676 206.989 149.676C207.131 149.676 207.273 149.676 207.415 149.676H207.445C207.504 149.676 207.551 149.723 207.551 149.788C207.551 149.847 207.504 149.895 207.439 149.895H207.409C207.267 149.895 207.125 149.895 206.989 149.895Z" fill="#FFB000"/>
<path d="M211.656 150.723C211.656 150.723 211.626 150.723 211.614 150.717C211.549 150.687 211.478 150.664 211.413 150.634C211.36 150.611 211.33 150.551 211.354 150.492C211.378 150.439 211.443 150.409 211.496 150.433C211.567 150.463 211.632 150.486 211.703 150.516C211.756 150.54 211.786 150.605 211.762 150.658C211.744 150.699 211.703 150.723 211.661 150.723H211.656Z" fill="#FFB000"/>
<path d="M202.773 152.373C202.731 152.373 202.69 152.349 202.672 152.302C202.649 152.249 202.678 152.184 202.731 152.16C202.731 152.16 202.802 152.131 202.938 152.083C202.998 152.066 203.057 152.095 203.074 152.148C203.092 152.207 203.063 152.267 203.009 152.284C202.879 152.326 202.814 152.355 202.808 152.355C202.796 152.355 202.779 152.361 202.767 152.361L202.773 152.373Z" fill="#FFB000"/>
<path d="M203.406 152.167C203.359 152.167 203.317 152.137 203.3 152.09C203.282 152.03 203.317 151.971 203.37 151.954C203.501 151.918 203.648 151.877 203.814 151.829C203.873 151.818 203.932 151.847 203.944 151.906C203.962 151.965 203.926 152.025 203.867 152.036C203.708 152.078 203.56 152.119 203.436 152.155C203.424 152.155 203.412 152.155 203.406 152.155V152.167ZM211.004 152.196C211.004 152.196 210.981 152.196 210.969 152.19C210.827 152.143 210.685 152.096 210.543 152.054C210.484 152.036 210.454 151.977 210.472 151.918C210.49 151.859 210.549 151.829 210.608 151.847C210.756 151.889 210.898 151.936 211.046 151.989C211.105 152.007 211.134 152.072 211.111 152.125C211.093 152.172 211.052 152.196 211.004 152.196ZM204.281 151.942C204.234 151.942 204.187 151.906 204.175 151.859C204.163 151.8 204.198 151.741 204.257 151.729C204.399 151.699 204.547 151.664 204.707 151.634C204.772 151.622 204.825 151.664 204.837 151.723C204.849 151.782 204.807 151.841 204.748 151.853C204.595 151.883 204.447 151.912 204.305 151.942C204.299 151.942 204.287 151.942 204.281 151.942ZM210.129 151.942C210.129 151.942 210.111 151.942 210.106 151.942C209.958 151.906 209.816 151.871 209.668 151.841C209.609 151.829 209.573 151.77 209.585 151.711C209.597 151.652 209.65 151.61 209.715 151.628C209.863 151.658 210.011 151.693 210.165 151.729C210.224 151.741 210.259 151.8 210.242 151.859C210.23 151.906 210.182 151.942 210.135 151.942H210.129ZM205.168 151.776C205.115 151.776 205.068 151.735 205.062 151.681C205.05 151.622 205.091 151.569 205.15 151.557C205.298 151.534 205.446 151.51 205.606 151.492C205.671 151.48 205.718 151.528 205.73 151.587C205.736 151.646 205.694 151.699 205.635 151.711C205.481 151.729 205.334 151.752 205.192 151.776C205.186 151.776 205.18 151.776 205.174 151.776H205.168ZM209.236 151.758C209.236 151.758 209.225 151.758 209.219 151.758C209.071 151.735 208.923 151.711 208.775 151.693C208.716 151.687 208.675 151.634 208.68 151.569C208.686 151.51 208.734 151.463 208.799 151.474C208.947 151.492 209.1 151.516 209.254 151.539C209.313 151.551 209.355 151.605 209.343 151.664C209.337 151.717 209.29 151.758 209.236 151.752V151.758ZM206.067 151.664C206.014 151.664 205.966 151.622 205.96 151.563C205.96 151.504 206.002 151.451 206.061 151.445C206.209 151.433 206.363 151.421 206.516 151.409C206.587 151.409 206.629 151.451 206.629 151.51C206.629 151.569 206.587 151.622 206.528 151.622C206.374 151.634 206.227 151.64 206.079 151.658C206.079 151.658 206.073 151.658 206.067 151.658V151.664ZM208.332 151.646C208.332 151.646 208.332 151.646 208.326 151.646C208.172 151.634 208.024 151.622 207.876 151.616C207.817 151.616 207.77 151.563 207.77 151.504C207.77 151.445 207.823 151.398 207.882 151.398C208.03 151.403 208.184 151.415 208.338 151.427C208.397 151.427 208.444 151.486 208.438 151.545C208.438 151.605 208.385 151.646 208.332 151.646ZM206.972 151.61C206.912 151.61 206.865 151.563 206.865 151.504C206.865 151.445 206.912 151.392 206.972 151.392C207.114 151.392 207.25 151.392 207.397 151.392H207.427C207.486 151.392 207.533 151.439 207.533 151.504C207.533 151.563 207.486 151.61 207.421 151.61H207.391C207.238 151.61 207.108 151.61 206.972 151.61Z" fill="#FFB000"/>
<path d="M211.642 152.439C211.642 152.439 211.612 152.439 211.6 152.433C211.535 152.403 211.464 152.38 211.399 152.35C211.346 152.326 211.317 152.261 211.34 152.208C211.364 152.155 211.423 152.125 211.482 152.149C211.553 152.178 211.618 152.202 211.689 152.232C211.742 152.255 211.772 152.32 211.748 152.374C211.731 152.415 211.689 152.439 211.648 152.439H211.642Z" fill="#FFB000"/>
<path d="M202.761 154.089C202.72 154.089 202.678 154.059 202.661 154.018C202.637 153.965 202.666 153.9 202.72 153.876C202.72 153.876 202.791 153.846 202.927 153.799C202.986 153.781 203.045 153.811 203.063 153.864C203.08 153.923 203.051 153.982 202.998 154C202.868 154.042 202.802 154.071 202.797 154.071C202.785 154.071 202.767 154.077 202.755 154.077L202.761 154.089Z" fill="#FFB000"/>
<path d="M203.394 153.882C203.347 153.882 203.306 153.853 203.288 153.805C203.27 153.746 203.306 153.687 203.359 153.669C203.489 153.634 203.637 153.592 203.802 153.545C203.861 153.533 203.921 153.563 203.932 153.622C203.95 153.681 203.915 153.74 203.855 153.752C203.696 153.794 203.548 153.835 203.424 153.871C203.412 153.871 203.4 153.871 203.394 153.871V153.882ZM210.993 153.912C210.993 153.912 210.969 153.912 210.957 153.906C210.815 153.859 210.673 153.811 210.531 153.77C210.472 153.752 210.443 153.693 210.46 153.634C210.478 153.575 210.537 153.545 210.596 153.563C210.744 153.604 210.886 153.652 211.034 153.705C211.093 153.723 211.123 153.788 211.099 153.841C211.081 153.888 211.04 153.912 210.993 153.912ZM204.269 153.658C204.222 153.658 204.175 153.622 204.163 153.575C204.151 153.516 204.187 153.456 204.246 153.445C204.388 153.415 204.535 153.38 204.695 153.35C204.754 153.338 204.813 153.38 204.825 153.439C204.837 153.498 204.796 153.557 204.737 153.569C204.583 153.598 204.435 153.628 204.293 153.658C204.287 153.658 204.275 153.658 204.269 153.658ZM210.123 153.658C210.123 153.658 210.106 153.658 210.1 153.658C209.952 153.622 209.81 153.587 209.662 153.557C209.603 153.545 209.568 153.486 209.579 153.427C209.591 153.368 209.644 153.326 209.709 153.344C209.857 153.374 210.005 153.409 210.159 153.445C210.218 153.456 210.253 153.516 210.236 153.575C210.224 153.622 210.177 153.658 210.129 153.658H210.123ZM205.162 153.492C205.109 153.492 205.062 153.451 205.056 153.397C205.044 153.338 205.085 153.285 205.145 153.273C205.292 153.249 205.44 153.226 205.6 153.208C205.665 153.196 205.712 153.243 205.724 153.303C205.73 153.362 205.689 153.415 205.629 153.427C205.476 153.445 205.328 153.468 205.186 153.492C205.18 153.492 205.174 153.492 205.168 153.492H205.162ZM209.231 153.474C209.231 153.474 209.219 153.474 209.213 153.474C209.065 153.451 208.917 153.427 208.769 153.409C208.71 153.403 208.669 153.35 208.675 153.285C208.681 153.226 208.728 153.178 208.793 153.19C208.941 153.208 209.095 153.232 209.248 153.255C209.307 153.267 209.349 153.32 209.337 153.38C209.325 153.433 209.284 153.474 209.231 153.468V153.474ZM206.061 153.38C206.008 153.38 205.961 153.338 205.955 153.279C205.955 153.22 205.996 153.167 206.055 153.161C206.203 153.149 206.357 153.137 206.51 153.125C206.581 153.125 206.623 153.167 206.623 153.226C206.623 153.285 206.581 153.338 206.522 153.344C206.369 153.35 206.221 153.362 206.073 153.38C206.073 153.38 206.067 153.38 206.061 153.38ZM208.326 153.362C208.326 153.362 208.326 153.362 208.32 153.362C208.166 153.35 208.018 153.338 207.87 153.332C207.811 153.332 207.764 153.279 207.764 153.22C207.764 153.161 207.817 153.113 207.876 153.113C208.024 153.119 208.178 153.131 208.332 153.143C208.391 153.143 208.438 153.202 208.432 153.261C208.432 153.32 208.379 153.362 208.326 153.362ZM206.966 153.326C206.907 153.326 206.859 153.279 206.859 153.22C206.859 153.161 206.907 153.107 206.966 153.107C207.108 153.107 207.25 153.107 207.392 153.107H207.421C207.48 153.107 207.528 153.155 207.528 153.22C207.528 153.279 207.48 153.326 207.415 153.326H207.386C207.244 153.326 207.102 153.326 206.966 153.326Z" fill="#FFB000"/>
<path d="M211.63 154.155C211.63 154.155 211.601 154.155 211.589 154.149C211.524 154.119 211.453 154.095 211.388 154.066C211.334 154.042 211.305 153.977 211.329 153.924C211.352 153.871 211.411 153.841 211.47 153.865C211.541 153.894 211.606 153.918 211.677 153.948C211.731 153.971 211.76 154.036 211.737 154.089C211.719 154.131 211.677 154.155 211.636 154.155H211.63Z" fill="#FFB000"/>
<path d="M202.75 155.81C202.709 155.81 202.667 155.786 202.65 155.739C202.626 155.68 202.65 155.62 202.709 155.597C202.709 155.597 202.78 155.567 202.916 155.52C202.975 155.502 203.034 155.532 203.052 155.585C203.07 155.644 203.04 155.703 202.987 155.721C202.857 155.762 202.792 155.792 202.786 155.792C202.774 155.792 202.756 155.798 202.744 155.798L202.75 155.81Z" fill="#FFB000"/>
<path d="M203.383 155.597C203.335 155.597 203.294 155.568 203.276 155.52C203.258 155.461 203.294 155.402 203.347 155.384C203.477 155.349 203.625 155.307 203.791 155.26C203.85 155.248 203.909 155.278 203.921 155.337C203.938 155.396 203.903 155.455 203.844 155.467C203.684 155.508 203.536 155.55 203.412 155.585C203.4 155.585 203.388 155.585 203.383 155.585V155.597ZM210.981 155.627C210.981 155.627 210.957 155.627 210.945 155.621C210.804 155.574 210.662 155.526 210.52 155.485C210.461 155.467 210.431 155.408 210.449 155.349C210.466 155.29 210.526 155.254 210.585 155.278C210.733 155.319 210.874 155.366 211.022 155.42C211.081 155.437 211.111 155.503 211.087 155.556C211.07 155.603 211.028 155.627 210.981 155.627ZM204.258 155.372C204.21 155.372 204.163 155.337 204.151 155.29C204.139 155.23 204.175 155.171 204.234 155.159C204.376 155.13 204.524 155.094 204.683 155.065C204.743 155.053 204.802 155.094 204.814 155.154C204.825 155.213 204.784 155.272 204.725 155.284C204.571 155.313 204.423 155.343 204.281 155.372C204.275 155.372 204.264 155.372 204.258 155.372ZM210.112 155.372C210.112 155.372 210.094 155.372 210.088 155.372C209.94 155.337 209.798 155.301 209.65 155.272C209.591 155.26 209.556 155.201 209.568 155.142C209.58 155.083 209.633 155.041 209.698 155.059C209.846 155.088 209.993 155.124 210.147 155.159C210.206 155.171 210.242 155.23 210.224 155.29C210.212 155.337 210.165 155.372 210.118 155.372H210.112ZM205.151 155.207C205.097 155.207 205.05 155.165 205.044 155.112C205.032 155.053 205.074 155 205.133 154.988C205.281 154.964 205.428 154.941 205.588 154.923C205.653 154.911 205.7 154.958 205.712 155.017C205.718 155.077 205.677 155.13 205.618 155.142C205.464 155.159 205.316 155.183 205.174 155.207C205.168 155.207 205.162 155.207 205.156 155.207H205.151ZM209.219 155.189C209.219 155.189 209.207 155.189 209.201 155.189C209.053 155.165 208.905 155.142 208.758 155.124C208.698 155.118 208.657 155.065 208.663 155C208.669 154.941 208.716 154.899 208.781 154.905C208.929 154.923 209.083 154.946 209.237 154.97C209.296 154.982 209.337 155.035 209.325 155.094C209.313 155.148 209.272 155.189 209.219 155.183V155.189ZM206.049 155.094C205.996 155.094 205.949 155.053 205.943 154.994C205.943 154.935 205.984 154.881 206.043 154.876C206.191 154.864 206.345 154.852 206.499 154.84C206.57 154.84 206.611 154.881 206.611 154.941C206.611 155 206.57 155.053 206.511 155.059C206.357 155.071 206.209 155.077 206.061 155.094C206.061 155.094 206.055 155.094 206.049 155.094ZM208.314 155.077C208.314 155.077 208.314 155.077 208.308 155.077C208.154 155.065 208.007 155.053 207.859 155.047C207.8 155.047 207.752 154.994 207.752 154.935C207.752 154.876 207.806 154.828 207.865 154.828C208.013 154.834 208.166 154.846 208.32 154.858C208.379 154.858 208.426 154.917 208.421 154.976C208.421 155.035 208.367 155.077 208.314 155.077ZM206.954 155.041C206.895 155.041 206.848 154.994 206.848 154.935C206.848 154.876 206.895 154.822 206.954 154.822C207.096 154.822 207.238 154.822 207.38 154.822H207.409C207.469 154.822 207.516 154.87 207.516 154.935C207.516 154.994 207.469 155.041 207.403 155.041H207.374C207.232 155.041 207.09 155.041 206.954 155.041Z" fill="#FFB000"/>
<path d="M211.615 155.869C211.615 155.869 211.585 155.869 211.573 155.863C211.508 155.834 211.437 155.81 211.372 155.781C211.319 155.757 211.289 155.692 211.313 155.639C211.337 155.585 211.396 155.556 211.455 155.58C211.526 155.609 211.591 155.633 211.662 155.662C211.715 155.686 211.745 155.751 211.721 155.804C211.703 155.846 211.662 155.869 211.62 155.869H211.615Z" fill="#FFB000"/>
<path d="M202.738 157.525C202.697 157.525 202.656 157.502 202.638 157.454C202.614 157.395 202.638 157.336 202.697 157.313C202.697 157.313 202.768 157.283 202.904 157.236C202.963 157.218 203.022 157.247 203.04 157.301C203.058 157.36 203.028 157.419 202.975 157.437C202.845 157.478 202.78 157.508 202.774 157.508C202.762 157.508 202.744 157.514 202.733 157.514L202.738 157.525Z" fill="#FFB000"/>
<path d="M203.371 157.313C203.324 157.313 203.282 157.283 203.264 157.236C203.247 157.177 203.282 157.118 203.335 157.1C203.465 157.065 203.613 157.023 203.779 156.976C203.838 156.964 203.897 156.994 203.909 157.053C203.927 157.112 203.891 157.171 203.832 157.183C203.672 157.224 203.525 157.266 203.4 157.301C203.389 157.301 203.377 157.301 203.371 157.301V157.313ZM210.969 157.343C210.969 157.343 210.946 157.343 210.934 157.337C210.792 157.289 210.65 157.242 210.508 157.201C210.449 157.183 210.419 157.124 210.437 157.065C210.455 157.005 210.514 156.97 210.573 156.994C210.721 157.035 210.863 157.082 211.011 157.136C211.07 157.153 211.099 157.218 211.076 157.272C211.058 157.319 211.017 157.343 210.969 157.343ZM204.246 157.088C204.199 157.088 204.151 157.053 204.14 157.005C204.128 156.946 204.163 156.887 204.222 156.875C204.364 156.846 204.512 156.81 204.672 156.781C204.737 156.769 204.79 156.81 204.802 156.869C204.814 156.928 204.772 156.988 204.713 156.999C204.559 157.029 204.412 157.059 204.27 157.088C204.264 157.088 204.252 157.088 204.246 157.088ZM210.094 157.088C210.094 157.088 210.076 157.088 210.07 157.088C209.923 157.053 209.775 157.017 209.633 156.988C209.574 156.976 209.538 156.917 209.55 156.858C209.562 156.798 209.615 156.757 209.68 156.775C209.828 156.804 209.976 156.84 210.13 156.875C210.189 156.887 210.224 156.946 210.206 157.005C210.195 157.053 210.147 157.088 210.1 157.088H210.094ZM205.133 156.923C205.08 156.923 205.032 156.881 205.027 156.828C205.015 156.769 205.056 156.716 205.115 156.704C205.263 156.68 205.411 156.656 205.571 156.639C205.636 156.627 205.683 156.674 205.695 156.733C205.701 156.792 205.659 156.846 205.6 156.858C205.446 156.875 205.299 156.899 205.157 156.923C205.151 156.923 205.145 156.923 205.139 156.923H205.133ZM209.201 156.905C209.201 156.905 209.189 156.905 209.183 156.905C209.036 156.881 208.888 156.858 208.74 156.84C208.681 156.834 208.639 156.781 208.645 156.716C208.651 156.656 208.699 156.609 208.764 156.621C208.911 156.639 209.065 156.662 209.219 156.686C209.278 156.698 209.319 156.751 209.308 156.81C209.296 156.863 209.254 156.905 209.201 156.905ZM206.032 156.81C205.979 156.81 205.931 156.769 205.925 156.71C205.925 156.65 205.967 156.597 206.026 156.591C206.174 156.579 206.327 156.568 206.481 156.556C206.552 156.556 206.593 156.597 206.593 156.656C206.593 156.716 206.552 156.769 206.493 156.769C206.339 156.781 206.191 156.787 206.044 156.804C206.044 156.804 206.038 156.804 206.032 156.804V156.81ZM208.296 156.792C208.296 156.792 208.296 156.792 208.291 156.792C208.137 156.781 207.989 156.769 207.841 156.763C207.782 156.763 207.735 156.71 207.735 156.65C207.735 156.591 207.788 156.544 207.847 156.544C207.995 156.55 208.149 156.562 208.302 156.574C208.361 156.574 208.409 156.633 208.403 156.692C208.403 156.751 208.35 156.792 208.296 156.792ZM206.936 156.757C206.877 156.757 206.83 156.71 206.83 156.65C206.83 156.591 206.877 156.538 206.936 156.538C207.078 156.538 207.22 156.538 207.362 156.538H207.392C207.451 156.538 207.498 156.585 207.498 156.65C207.498 156.71 207.451 156.757 207.386 156.757H207.356C207.214 156.757 207.078 156.757 206.936 156.757Z" fill="#FFB000"/>
<path d="M211.603 157.585C211.603 157.585 211.573 157.585 211.561 157.579C211.496 157.55 211.425 157.526 211.36 157.496C211.307 157.473 211.278 157.408 211.301 157.355C211.325 157.301 211.39 157.272 211.443 157.295C211.514 157.325 211.579 157.349 211.65 157.378C211.703 157.402 211.733 157.467 211.709 157.52C211.691 157.562 211.65 157.585 211.609 157.585H211.603Z" fill="#FFB000"/>
<path d="M202.726 159.24C202.685 159.24 202.643 159.217 202.625 159.169C202.602 159.11 202.631 159.051 202.685 159.027C202.685 159.027 202.756 158.998 202.892 158.95C202.951 158.933 203.01 158.962 203.028 159.016C203.045 159.075 203.016 159.134 202.962 159.152C202.832 159.193 202.767 159.223 202.761 159.223C202.75 159.223 202.732 159.228 202.72 159.228L202.726 159.24Z" fill="#FFB000"/>
<path d="M203.359 159.028C203.312 159.028 203.27 158.998 203.253 158.951C203.235 158.892 203.27 158.833 203.324 158.815C203.454 158.779 203.602 158.738 203.767 158.691C203.826 158.673 203.885 158.708 203.897 158.768C203.915 158.827 203.879 158.886 203.82 158.898C203.661 158.939 203.513 158.981 203.389 159.016C203.377 159.016 203.365 159.016 203.359 159.016V159.028ZM210.957 159.057C210.957 159.057 210.934 159.057 210.922 159.057C210.78 159.01 210.638 158.963 210.496 158.921C210.437 158.904 210.408 158.844 210.425 158.785C210.443 158.726 210.502 158.691 210.561 158.714C210.709 158.756 210.851 158.803 210.999 158.856C211.058 158.874 211.088 158.939 211.064 158.992C211.046 159.04 211.005 159.063 210.957 159.063V159.057ZM204.234 158.803C204.187 158.803 204.14 158.768 204.128 158.72C204.116 158.661 204.151 158.602 204.211 158.59C204.353 158.561 204.5 158.525 204.66 158.495C204.719 158.484 204.778 158.525 204.79 158.584C204.802 158.643 204.761 158.702 204.701 158.714C204.548 158.744 204.4 158.773 204.258 158.803C204.252 158.803 204.24 158.803 204.234 158.803ZM210.088 158.803C210.088 158.803 210.071 158.803 210.065 158.803C209.917 158.768 209.775 158.732 209.627 158.703C209.568 158.691 209.532 158.632 209.544 158.572C209.556 158.513 209.609 158.472 209.674 158.49C209.822 158.519 209.97 158.555 210.124 158.59C210.183 158.602 210.218 158.661 210.201 158.72C210.189 158.768 210.141 158.803 210.094 158.803H210.088ZM205.127 158.637C205.074 158.637 205.027 158.596 205.021 158.543C205.009 158.484 205.05 158.43 205.109 158.419C205.257 158.395 205.405 158.371 205.565 158.353C205.63 158.342 205.677 158.389 205.689 158.448C205.695 158.507 205.653 158.561 205.594 158.572C205.441 158.59 205.293 158.614 205.151 158.637C205.145 158.637 205.139 158.637 205.133 158.637H205.127ZM209.195 158.62C209.195 158.62 209.184 158.62 209.178 158.62C209.03 158.596 208.882 158.572 208.734 158.555C208.675 158.549 208.634 158.495 208.64 158.43C208.645 158.371 208.693 158.33 208.758 158.336C208.906 158.353 209.059 158.377 209.213 158.401C209.272 158.413 209.314 158.466 209.302 158.525C209.29 158.578 209.249 158.62 209.195 158.62ZM206.026 158.525C205.973 158.525 205.925 158.484 205.919 158.424C205.919 158.365 205.961 158.312 206.02 158.306C206.168 158.294 206.322 158.283 206.475 158.271C206.546 158.265 206.588 158.312 206.588 158.371C206.588 158.43 206.546 158.484 206.487 158.49C206.333 158.501 206.186 158.507 206.038 158.525C206.038 158.525 206.032 158.525 206.026 158.525ZM208.291 158.507C208.291 158.507 208.291 158.507 208.285 158.507C208.131 158.495 207.983 158.484 207.835 158.478C207.776 158.478 207.729 158.424 207.729 158.365C207.729 158.306 207.782 158.259 207.841 158.259C207.989 158.265 208.143 158.277 208.297 158.288C208.356 158.288 208.403 158.348 208.397 158.407C208.397 158.466 208.344 158.507 208.291 158.507ZM206.931 158.472C206.872 158.472 206.824 158.424 206.824 158.365C206.824 158.306 206.872 158.253 206.931 158.253C207.073 158.253 207.214 158.253 207.356 158.253H207.386C207.445 158.253 207.492 158.3 207.492 158.365C207.492 158.424 207.445 158.472 207.38 158.472H207.35C207.209 158.472 207.067 158.472 206.931 158.472Z" fill="#FFB000"/>
<path d="M211.589 159.3C211.589 159.3 211.56 159.3 211.548 159.294C211.483 159.265 211.412 159.241 211.347 159.211C211.293 159.188 211.264 159.129 211.288 159.069C211.311 159.016 211.37 158.987 211.429 159.01C211.5 159.04 211.565 159.063 211.636 159.093C211.69 159.117 211.719 159.182 211.696 159.235C211.678 159.276 211.636 159.3 211.595 159.3H211.589Z" fill="#FFB000"/>
<path d="M227.734 144.968L228.544 146.79L228.419 164.678L227.609 162.732L227.734 144.968Z" fill="#FFB000"/>
<path d="M214.109 163.412C214.109 163.412 215.203 163.276 216.143 163.79C216.143 163.79 220.448 161.418 228.419 164.678L227.609 162.725C227.609 162.725 220.034 158.035 214.115 162.631V163.412H214.109Z" fill="#E5E5E5"/>
<path d="M214.115 162.631C214.115 162.631 216.812 161.288 220.874 161.371C224.812 161.454 227.615 162.725 227.615 162.725L227.739 144.962C227.739 144.962 225.013 143.631 221.075 143.607C217.231 143.577 214.239 144.867 214.239 144.867L214.115 162.631Z" fill="#F49E06"/>
<path d="M225.634 147.387C225.634 147.387 225.604 147.387 225.593 147.381C225.593 147.381 225.522 147.351 225.397 147.304C225.338 147.286 225.309 147.221 225.332 147.162C225.35 147.103 225.415 147.073 225.474 147.097C225.61 147.144 225.681 147.174 225.681 147.174C225.734 147.198 225.764 147.263 225.74 147.316C225.723 147.357 225.681 147.381 225.64 147.381L225.634 147.387Z" fill="#FFB000"/>
<path d="M225.001 147.168C225.001 147.168 224.977 147.168 224.971 147.168C224.847 147.127 224.699 147.085 224.54 147.044C224.481 147.026 224.445 146.967 224.463 146.908C224.481 146.849 224.54 146.819 224.599 146.831C224.764 146.878 224.906 146.92 225.036 146.961C225.096 146.979 225.125 147.038 225.107 147.097C225.096 147.144 225.048 147.174 225.001 147.174V147.168ZM217.403 147.091C217.355 147.091 217.314 147.062 217.302 147.014C217.284 146.955 217.314 146.896 217.373 146.878C217.521 146.831 217.669 146.784 217.811 146.742C217.87 146.724 217.929 146.76 217.947 146.819C217.964 146.878 217.929 146.937 217.87 146.955C217.728 146.997 217.586 147.038 217.438 147.085C217.426 147.085 217.414 147.085 217.403 147.085V147.091ZM224.126 146.931C224.126 146.931 224.108 146.931 224.102 146.931C223.96 146.896 223.818 146.866 223.665 146.837C223.605 146.825 223.57 146.766 223.582 146.707C223.594 146.648 223.647 146.606 223.712 146.624C223.866 146.653 224.019 146.689 224.155 146.724C224.214 146.736 224.25 146.795 224.238 146.855C224.226 146.908 224.179 146.937 224.132 146.937L224.126 146.931ZM218.272 146.843C218.224 146.843 218.177 146.807 218.165 146.76C218.153 146.701 218.189 146.642 218.248 146.63C218.396 146.594 218.55 146.565 218.697 146.535C218.757 146.523 218.816 146.565 218.828 146.624C218.839 146.683 218.798 146.742 218.739 146.754C218.591 146.784 218.449 146.813 218.301 146.849C218.289 146.849 218.284 146.849 218.278 146.849L218.272 146.843ZM223.233 146.748C223.233 146.748 223.221 146.748 223.215 146.748C223.073 146.724 222.925 146.701 222.772 146.677C222.713 146.671 222.671 146.612 222.677 146.553C222.683 146.494 222.736 146.452 222.801 146.458C222.955 146.482 223.109 146.506 223.251 146.529C223.31 146.541 223.351 146.594 223.339 146.653C223.327 146.707 223.286 146.742 223.233 146.742V146.748ZM219.165 146.671C219.111 146.671 219.064 146.63 219.058 146.577C219.046 146.517 219.088 146.464 219.153 146.452C219.307 146.429 219.454 146.411 219.608 146.393C219.673 146.393 219.72 146.429 219.726 146.488C219.732 146.547 219.691 146.6 219.632 146.606C219.484 146.624 219.336 146.642 219.188 146.665C219.188 146.665 219.176 146.665 219.171 146.665L219.165 146.671ZM222.334 146.624C222.334 146.624 222.328 146.624 222.322 146.624C222.174 146.606 222.027 146.594 221.873 146.582C221.814 146.582 221.766 146.523 221.772 146.464C221.772 146.405 221.82 146.358 221.891 146.364C222.044 146.375 222.198 146.387 222.346 146.405C222.405 146.411 222.446 146.464 222.441 146.523C222.435 146.582 222.387 146.624 222.334 146.618V146.624ZM220.069 146.577C220.01 146.577 219.963 146.529 219.963 146.476C219.963 146.417 220.004 146.364 220.063 146.358C220.217 146.346 220.371 146.34 220.519 146.334C220.578 146.334 220.625 146.381 220.625 146.441C220.625 146.5 220.578 146.553 220.519 146.553C220.371 146.553 220.223 146.565 220.069 146.577C220.069 146.577 220.069 146.577 220.063 146.577H220.069ZM221.429 146.559C221.293 146.559 221.151 146.553 221.01 146.547H220.98C220.921 146.547 220.874 146.5 220.874 146.435C220.874 146.375 220.921 146.328 220.986 146.328H221.015C221.157 146.328 221.305 146.328 221.441 146.34C221.5 146.34 221.548 146.393 221.548 146.452C221.548 146.512 221.494 146.559 221.435 146.559H221.429Z" fill="#FFB000"/>
<path d="M216.764 147.328C216.722 147.328 216.681 147.305 216.663 147.263C216.64 147.21 216.663 147.145 216.722 147.121C216.793 147.092 216.858 147.068 216.929 147.038C216.989 147.015 217.048 147.044 217.071 147.104C217.095 147.157 217.065 147.222 217.006 147.245C216.941 147.269 216.87 147.299 216.805 147.322C216.793 147.322 216.776 147.328 216.764 147.328Z" fill="#FFB000"/>
<path d="M225.622 149.103C225.622 149.103 225.593 149.103 225.581 149.097C225.581 149.097 225.51 149.067 225.386 149.02C225.327 149.002 225.297 148.937 225.321 148.878C225.338 148.819 225.403 148.789 225.463 148.813C225.599 148.86 225.67 148.89 225.67 148.89C225.723 148.913 225.752 148.978 225.729 149.032C225.711 149.073 225.67 149.097 225.628 149.097L225.622 149.103Z" fill="#FFB000"/>
<path d="M224.989 148.884C224.989 148.884 224.966 148.884 224.96 148.884C224.835 148.843 224.688 148.801 224.528 148.76C224.469 148.742 224.433 148.683 224.451 148.624C224.469 148.564 224.528 148.529 224.587 148.547C224.753 148.594 224.895 148.635 225.025 148.677C225.084 148.695 225.113 148.754 225.096 148.813C225.084 148.86 225.036 148.89 224.989 148.89V148.884ZM217.391 148.807C217.343 148.807 217.302 148.777 217.29 148.73C217.273 148.671 217.302 148.612 217.361 148.594C217.509 148.547 217.657 148.499 217.799 148.458C217.858 148.44 217.917 148.476 217.935 148.535C217.953 148.594 217.917 148.653 217.858 148.671C217.716 148.712 217.574 148.754 217.426 148.801C217.414 148.801 217.403 148.801 217.391 148.801V148.807ZM224.114 148.647C224.114 148.647 224.096 148.647 224.09 148.647C223.948 148.612 223.807 148.582 223.653 148.553C223.594 148.541 223.558 148.482 223.57 148.423C223.582 148.363 223.635 148.322 223.7 148.34C223.854 148.369 224.008 148.405 224.144 148.44C224.203 148.452 224.238 148.511 224.226 148.57C224.215 148.624 224.167 148.653 224.12 148.653L224.114 148.647ZM218.266 148.559C218.219 148.559 218.171 148.523 218.16 148.476C218.148 148.417 218.183 148.357 218.242 148.346C218.39 148.31 218.544 148.281 218.692 148.251C218.751 148.239 218.81 148.281 218.822 148.34C218.834 148.399 218.792 148.458 218.733 148.47C218.585 148.499 218.443 148.529 218.296 148.564C218.284 148.564 218.278 148.564 218.272 148.564L218.266 148.559ZM223.227 148.464C223.227 148.464 223.215 148.464 223.209 148.464C223.067 148.44 222.92 148.417 222.766 148.393C222.707 148.387 222.665 148.328 222.671 148.269C222.677 148.21 222.73 148.162 222.795 148.174C222.949 148.198 223.103 148.221 223.245 148.245C223.304 148.257 223.345 148.31 223.333 148.369C223.322 148.423 223.28 148.458 223.227 148.458V148.464ZM219.159 148.387C219.106 148.387 219.058 148.346 219.052 148.292C219.041 148.233 219.082 148.18 219.147 148.168C219.301 148.145 219.449 148.127 219.602 148.109C219.667 148.103 219.715 148.145 219.721 148.204C219.726 148.263 219.685 148.316 219.626 148.322C219.478 148.34 219.33 148.357 219.182 148.381C219.182 148.381 219.171 148.381 219.165 148.381L219.159 148.387ZM222.328 148.34C222.328 148.34 222.322 148.34 222.316 148.34C222.169 148.322 222.021 148.31 221.867 148.298C221.808 148.298 221.761 148.239 221.767 148.18C221.767 148.121 221.814 148.079 221.885 148.079C222.039 148.091 222.192 148.103 222.34 148.121C222.399 148.127 222.441 148.18 222.435 148.239C222.435 148.292 222.381 148.34 222.328 148.334V148.34ZM220.064 148.292C220.004 148.292 219.957 148.245 219.957 148.192C219.957 148.133 219.998 148.079 220.058 148.074C220.211 148.062 220.365 148.056 220.513 148.05C220.572 148.05 220.619 148.097 220.619 148.156C220.619 148.215 220.572 148.269 220.513 148.269C220.365 148.269 220.217 148.281 220.064 148.292C220.064 148.292 220.064 148.292 220.058 148.292H220.064ZM221.424 148.275C221.288 148.275 221.146 148.269 221.004 148.263H220.974C220.915 148.263 220.868 148.215 220.868 148.15C220.868 148.091 220.915 148.044 220.98 148.044H221.01C221.152 148.044 221.299 148.044 221.435 148.056C221.495 148.056 221.542 148.109 221.542 148.168C221.542 148.227 221.489 148.275 221.429 148.275H221.424Z" fill="#FFB000"/>
<path d="M216.752 149.044C216.711 149.044 216.669 149.02 216.652 148.979C216.628 148.926 216.652 148.861 216.711 148.837C216.782 148.807 216.847 148.784 216.918 148.754C216.977 148.731 217.036 148.76 217.06 148.819C217.083 148.873 217.054 148.938 216.995 148.961C216.93 148.985 216.859 149.015 216.794 149.038C216.782 149.038 216.764 149.044 216.752 149.044Z" fill="#FFB000"/>
<path d="M225.611 150.818C225.611 150.818 225.581 150.818 225.569 150.812C225.569 150.812 225.498 150.782 225.374 150.735C225.315 150.717 225.285 150.652 225.309 150.593C225.327 150.534 225.392 150.504 225.451 150.528C225.587 150.575 225.658 150.605 225.658 150.605C225.711 150.628 225.741 150.693 225.717 150.747C225.699 150.788 225.658 150.818 225.616 150.812L225.611 150.818Z" fill="#FFB000"/>
<path d="M224.977 150.605C224.977 150.605 224.954 150.605 224.948 150.605C224.824 150.563 224.676 150.522 224.516 150.48C224.457 150.463 224.422 150.404 224.439 150.344C224.457 150.285 224.516 150.25 224.575 150.267C224.741 150.315 224.883 150.356 225.013 150.398C225.072 150.415 225.102 150.474 225.084 150.534C225.072 150.581 225.025 150.611 224.977 150.611V150.605ZM217.379 150.528C217.332 150.528 217.29 150.498 217.279 150.451C217.261 150.392 217.29 150.333 217.35 150.315C217.497 150.267 217.645 150.22 217.787 150.179C217.846 150.161 217.905 150.196 217.923 150.256C217.941 150.315 217.905 150.374 217.846 150.392C217.704 150.433 217.562 150.475 217.415 150.522C217.403 150.522 217.391 150.522 217.379 150.522V150.528ZM224.102 150.368C224.102 150.368 224.085 150.368 224.079 150.368C223.937 150.333 223.795 150.303 223.641 150.273C223.582 150.262 223.546 150.202 223.558 150.143C223.57 150.084 223.623 150.043 223.688 150.06C223.842 150.09 223.996 150.125 224.132 150.161C224.191 150.173 224.226 150.232 224.215 150.291C224.203 150.344 224.156 150.374 224.108 150.374L224.102 150.368ZM218.248 150.279C218.201 150.279 218.154 150.244 218.142 150.196C218.13 150.137 218.166 150.078 218.225 150.066C218.372 150.031 218.526 150.001 218.674 149.972C218.733 149.96 218.792 150.001 218.804 150.06C218.816 150.12 218.775 150.179 218.715 150.191C218.568 150.22 218.426 150.25 218.278 150.285C218.266 150.285 218.26 150.285 218.254 150.285L218.248 150.279ZM223.209 150.185C223.209 150.185 223.198 150.185 223.192 150.185C223.05 150.161 222.902 150.137 222.748 150.114C222.689 150.108 222.648 150.049 222.654 149.989C222.66 149.93 222.713 149.883 222.778 149.895C222.932 149.918 223.085 149.942 223.227 149.966C223.286 149.978 223.328 150.031 223.316 150.09C223.304 150.143 223.263 150.179 223.209 150.179V150.185ZM219.141 150.108C219.088 150.108 219.041 150.066 219.035 150.013C219.023 149.954 219.064 149.901 219.129 149.889C219.283 149.865 219.431 149.847 219.585 149.83C219.65 149.83 219.697 149.865 219.703 149.924C219.709 149.984 219.667 150.037 219.608 150.043C219.46 150.06 219.313 150.078 219.165 150.102C219.165 150.102 219.153 150.102 219.147 150.102L219.141 150.108ZM222.311 150.06C222.311 150.06 222.305 150.06 222.299 150.06C222.151 150.043 222.003 150.031 221.849 150.019C221.79 150.019 221.743 149.96 221.749 149.901C221.749 149.842 221.796 149.794 221.867 149.8C222.021 149.812 222.175 149.824 222.322 149.842C222.382 149.847 222.423 149.901 222.417 149.96C222.417 150.013 222.364 150.06 222.311 150.055V150.06ZM220.046 150.013C219.987 150.013 219.939 149.966 219.939 149.913C219.939 149.853 219.981 149.8 220.04 149.794C220.194 149.782 220.347 149.776 220.495 149.771C220.554 149.771 220.602 149.818 220.602 149.877C220.602 149.936 220.554 149.989 220.495 149.989C220.347 149.989 220.2 150.001 220.046 150.013C220.046 150.013 220.046 150.013 220.04 150.013H220.046ZM221.406 149.995C221.27 149.995 221.128 149.989 220.986 149.984H220.957C220.897 149.984 220.85 149.936 220.85 149.871C220.85 149.812 220.897 149.765 220.962 149.765H220.992C221.134 149.765 221.282 149.765 221.418 149.776C221.477 149.776 221.524 149.83 221.524 149.889C221.524 149.948 221.471 149.995 221.412 149.995H221.406Z" fill="#FFB000"/>
<path d="M216.74 150.758C216.699 150.758 216.658 150.734 216.64 150.693C216.616 150.64 216.64 150.575 216.699 150.551C216.77 150.521 216.835 150.498 216.906 150.468C216.965 150.444 217.024 150.474 217.048 150.533C217.072 150.586 217.042 150.652 216.983 150.675C216.918 150.699 216.847 150.728 216.782 150.752C216.77 150.752 216.752 150.758 216.74 150.758Z" fill="#FFB000"/>
<path d="M225.599 152.539C225.599 152.539 225.569 152.539 225.557 152.533C225.557 152.533 225.486 152.504 225.362 152.456C225.303 152.439 225.274 152.374 225.297 152.314C225.315 152.255 225.38 152.226 225.439 152.249C225.575 152.297 225.646 152.326 225.646 152.326C225.699 152.35 225.729 152.415 225.705 152.468C225.687 152.51 225.646 152.539 225.605 152.533L225.599 152.539Z" fill="#FFB000"/>
<path d="M224.966 152.32C224.966 152.32 224.942 152.32 224.936 152.32C224.812 152.279 224.664 152.238 224.505 152.196C224.445 152.178 224.41 152.119 224.428 152.06C224.445 152.001 224.505 151.966 224.564 151.983C224.729 152.031 224.871 152.072 225.001 152.113C225.06 152.131 225.09 152.19 225.072 152.249C225.06 152.297 225.013 152.326 224.966 152.326V152.32ZM217.367 152.244C217.32 152.244 217.279 152.214 217.267 152.167C217.249 152.107 217.279 152.048 217.338 152.031C217.486 151.983 217.633 151.936 217.775 151.895C217.835 151.877 217.894 151.912 217.911 151.971C217.929 152.031 217.894 152.09 217.835 152.108C217.693 152.149 217.551 152.19 217.403 152.238C217.391 152.238 217.379 152.238 217.367 152.238V152.244ZM224.091 152.084C224.091 152.084 224.073 152.084 224.067 152.084C223.925 152.048 223.783 152.019 223.629 151.989C223.57 151.977 223.535 151.918 223.547 151.859C223.558 151.8 223.612 151.758 223.677 151.776C223.83 151.806 223.984 151.841 224.12 151.877C224.179 151.889 224.215 151.948 224.203 152.007C224.191 152.06 224.144 152.09 224.097 152.09L224.091 152.084ZM218.237 151.995C218.189 151.995 218.142 151.96 218.13 151.912C218.118 151.853 218.154 151.794 218.213 151.782C218.361 151.747 218.515 151.717 218.662 151.688C218.721 151.676 218.781 151.717 218.792 151.776C218.804 151.835 218.763 151.895 218.704 151.906C218.556 151.936 218.414 151.966 218.266 152.001C218.254 152.001 218.248 152.001 218.242 152.001L218.237 151.995ZM223.198 151.9C223.198 151.9 223.186 151.9 223.18 151.9C223.038 151.877 222.89 151.853 222.736 151.829C222.677 151.824 222.636 151.764 222.642 151.705C222.648 151.646 222.701 151.599 222.766 151.611C222.92 151.634 223.074 151.658 223.215 151.682C223.275 151.693 223.316 151.747 223.304 151.806C223.292 151.859 223.251 151.895 223.198 151.895V151.9ZM219.129 151.824C219.076 151.824 219.029 151.782 219.023 151.729C219.011 151.67 219.053 151.617 219.118 151.605C219.271 151.581 219.419 151.563 219.573 151.546C219.638 151.54 219.685 151.581 219.691 151.64C219.697 151.699 219.656 151.753 219.597 151.758C219.449 151.776 219.301 151.794 219.153 151.818C219.153 151.818 219.141 151.818 219.135 151.818L219.129 151.824ZM222.299 151.776C222.299 151.776 222.293 151.776 222.287 151.776C222.139 151.758 221.991 151.747 221.838 151.735C221.779 151.735 221.731 151.676 221.737 151.617C221.737 151.557 221.784 151.51 221.855 151.516C222.009 151.528 222.163 151.54 222.311 151.557C222.37 151.563 222.417 151.617 222.405 151.676C222.405 151.729 222.352 151.776 222.299 151.77V151.776ZM220.034 151.729C219.975 151.729 219.928 151.688 219.928 151.628C219.928 151.569 219.969 151.516 220.028 151.51C220.182 151.498 220.336 151.492 220.484 151.486C220.543 151.486 220.59 151.534 220.59 151.593C220.59 151.652 220.543 151.705 220.484 151.705C220.336 151.705 220.188 151.717 220.034 151.729C220.034 151.729 220.034 151.729 220.028 151.729H220.034ZM221.394 151.711C221.258 151.711 221.116 151.705 220.974 151.699H220.945C220.886 151.699 220.838 151.652 220.838 151.587C220.838 151.528 220.886 151.48 220.951 151.48H220.98C221.122 151.48 221.27 151.48 221.406 151.492C221.465 151.492 221.512 151.546 221.512 151.605C221.512 151.664 221.459 151.711 221.4 151.711H221.394Z" fill="#FFB000"/>
<path d="M216.729 152.474C216.687 152.474 216.646 152.45 216.628 152.409C216.605 152.355 216.628 152.29 216.687 152.267C216.758 152.237 216.823 152.214 216.894 152.184C216.953 152.16 217.013 152.19 217.036 152.249C217.06 152.302 217.03 152.367 216.971 152.391C216.906 152.415 216.835 152.444 216.77 152.468C216.758 152.468 216.741 152.474 216.729 152.474Z" fill="#FFB000"/>
<path d="M225.587 154.255C225.587 154.255 225.558 154.255 225.546 154.249C225.546 154.249 225.475 154.22 225.351 154.172C225.291 154.154 225.262 154.089 225.286 154.03C225.309 153.971 225.368 153.942 225.427 153.965C225.563 154.013 225.634 154.042 225.634 154.042C225.688 154.066 225.717 154.131 225.694 154.184C225.676 154.225 225.634 154.255 225.593 154.249L225.587 154.255Z" fill="#FFB000"/>
<path d="M224.954 154.036C224.954 154.036 224.93 154.036 224.924 154.036C224.794 153.995 224.652 153.953 224.493 153.912C224.434 153.894 224.398 153.835 224.416 153.776C224.434 153.717 224.493 153.687 224.552 153.699C224.717 153.746 224.859 153.788 224.989 153.829C225.049 153.847 225.078 153.906 225.06 153.965C225.049 154.013 225.001 154.042 224.954 154.042V154.036ZM217.356 153.959C217.308 153.959 217.267 153.93 217.255 153.882C217.237 153.823 217.267 153.764 217.326 153.746C217.474 153.699 217.622 153.652 217.764 153.61C217.823 153.593 217.882 153.628 217.9 153.687C217.917 153.746 217.882 153.806 217.823 153.823C217.681 153.865 217.539 153.906 217.391 153.953C217.379 153.953 217.367 153.953 217.356 153.953V153.959ZM224.079 153.8C224.079 153.8 224.061 153.8 224.055 153.8C223.913 153.764 223.771 153.735 223.618 153.705C223.559 153.693 223.523 153.634 223.535 153.575C223.547 153.516 223.6 153.474 223.665 153.492C223.819 153.522 223.972 153.557 224.108 153.593C224.168 153.604 224.203 153.664 224.191 153.723C224.179 153.776 224.132 153.806 224.085 153.806L224.079 153.8ZM218.231 153.711C218.183 153.711 218.136 153.675 218.124 153.628C218.113 153.569 218.148 153.51 218.207 153.498C218.355 153.462 218.509 153.433 218.657 153.403C218.716 153.391 218.775 153.433 218.787 153.492C218.798 153.551 218.757 153.61 218.698 153.622C218.55 153.652 218.408 153.681 218.26 153.717C218.249 153.717 218.243 153.717 218.237 153.717L218.231 153.711ZM223.192 153.616C223.192 153.616 223.18 153.616 223.174 153.616C223.032 153.593 222.884 153.569 222.731 153.545C222.672 153.539 222.63 153.48 222.636 153.421C222.642 153.362 222.695 153.315 222.76 153.326C222.914 153.35 223.068 153.374 223.21 153.397C223.269 153.409 223.31 153.462 223.298 153.522C223.287 153.575 223.245 153.61 223.192 153.61V153.616ZM219.124 153.539C219.07 153.539 219.023 153.498 219.017 153.445C219.005 153.386 219.047 153.332 219.112 153.321C219.266 153.297 219.413 153.279 219.567 153.261C219.632 153.255 219.679 153.297 219.685 153.356C219.691 153.415 219.65 153.468 219.591 153.474C219.443 153.492 219.295 153.51 219.147 153.533C219.147 153.533 219.135 153.533 219.13 153.533L219.124 153.539ZM222.293 153.492C222.293 153.492 222.287 153.492 222.281 153.492C222.133 153.474 221.986 153.462 221.832 153.451C221.773 153.451 221.725 153.391 221.731 153.332C221.731 153.273 221.779 153.226 221.85 153.232C222.003 153.244 222.157 153.255 222.305 153.273C222.364 153.279 222.411 153.332 222.4 153.391C222.394 153.445 222.346 153.492 222.293 153.486V153.492ZM220.028 153.445C219.969 153.445 219.922 153.397 219.922 153.344C219.922 153.285 219.963 153.232 220.022 153.226C220.176 153.214 220.33 153.208 220.478 153.202C220.537 153.202 220.584 153.25 220.584 153.309C220.584 153.368 220.537 153.421 220.478 153.421C220.33 153.421 220.182 153.433 220.028 153.445C220.028 153.445 220.028 153.445 220.022 153.445H220.028ZM221.388 153.427C221.252 153.427 221.11 153.421 220.969 153.415H220.939C220.88 153.415 220.833 153.368 220.833 153.303C220.833 153.238 220.88 153.196 220.945 153.196H220.974C221.116 153.196 221.258 153.196 221.4 153.208C221.459 153.208 221.507 153.261 221.507 153.321C221.507 153.38 221.453 153.427 221.394 153.427H221.388Z" fill="#FFB000"/>
<path d="M216.717 154.19C216.676 154.19 216.634 154.166 216.616 154.119C216.593 154.065 216.616 154 216.676 153.977C216.747 153.947 216.812 153.923 216.883 153.894C216.942 153.87 217.001 153.9 217.024 153.959C217.048 154.012 217.019 154.077 216.959 154.101C216.894 154.125 216.823 154.154 216.758 154.178C216.747 154.178 216.729 154.184 216.717 154.184V154.19Z" fill="#FFB000"/>
<path d="M225.575 155.97C225.575 155.97 225.546 155.97 225.534 155.964C225.534 155.964 225.463 155.934 225.339 155.887C225.28 155.869 225.25 155.804 225.274 155.745C225.292 155.686 225.357 155.656 225.416 155.68C225.552 155.727 225.623 155.757 225.623 155.757C225.676 155.781 225.705 155.846 225.682 155.899C225.664 155.94 225.623 155.964 225.581 155.964L225.575 155.97Z" fill="#FFB000"/>
<path d="M224.942 155.751C224.942 155.751 224.919 155.751 224.913 155.751C224.783 155.71 224.641 155.668 224.481 155.627C224.422 155.609 224.386 155.55 224.404 155.491C224.422 155.432 224.481 155.402 224.54 155.414C224.706 155.461 224.848 155.503 224.978 155.544C225.037 155.562 225.066 155.621 225.049 155.68C225.037 155.727 224.99 155.757 224.942 155.757V155.751ZM217.344 155.674C217.297 155.674 217.255 155.645 217.243 155.597C217.226 155.538 217.255 155.479 217.314 155.461C217.462 155.414 217.61 155.367 217.752 155.325C217.811 155.307 217.87 155.343 217.888 155.402C217.906 155.461 217.87 155.52 217.811 155.538C217.669 155.58 217.527 155.621 217.379 155.668C217.368 155.668 217.356 155.668 217.344 155.668V155.674ZM224.067 155.514C224.067 155.514 224.049 155.514 224.044 155.514C223.902 155.479 223.76 155.449 223.606 155.42C223.547 155.408 223.511 155.349 223.523 155.29C223.535 155.231 223.588 155.189 223.653 155.207C223.807 155.236 223.961 155.272 224.097 155.307C224.156 155.319 224.191 155.378 224.179 155.438C224.168 155.491 224.12 155.52 224.073 155.52L224.067 155.514ZM218.219 155.426C218.172 155.426 218.124 155.39 218.113 155.343C218.101 155.284 218.136 155.225 218.195 155.213C218.343 155.177 218.497 155.148 218.645 155.118C218.704 155.106 218.763 155.148 218.775 155.207C218.787 155.266 218.745 155.325 218.686 155.337C218.538 155.367 218.396 155.396 218.249 155.432C218.237 155.432 218.231 155.432 218.225 155.432L218.219 155.426ZM223.18 155.331C223.18 155.331 223.168 155.331 223.162 155.331C223.021 155.307 222.873 155.284 222.719 155.26C222.66 155.254 222.618 155.195 222.624 155.136C222.63 155.077 222.683 155.029 222.749 155.041C222.902 155.065 223.056 155.089 223.198 155.112C223.257 155.124 223.298 155.177 223.287 155.236C223.275 155.29 223.233 155.325 223.18 155.325V155.331ZM219.112 155.254C219.059 155.254 219.011 155.213 219.005 155.16C218.994 155.1 219.035 155.047 219.1 155.035C219.254 155.012 219.402 154.994 219.555 154.976C219.62 154.97 219.668 155.012 219.674 155.071C219.68 155.13 219.638 155.183 219.579 155.189C219.431 155.207 219.283 155.225 219.136 155.248C219.136 155.248 219.124 155.248 219.118 155.248L219.112 155.254ZM222.281 155.207C222.281 155.207 222.275 155.207 222.27 155.207C222.122 155.189 221.974 155.177 221.82 155.165C221.761 155.165 221.714 155.106 221.72 155.047C221.72 154.988 221.767 154.941 221.838 154.947C221.992 154.958 222.145 154.97 222.293 154.988C222.352 154.994 222.4 155.047 222.388 155.106C222.382 155.16 222.335 155.207 222.281 155.201V155.207ZM220.017 155.16C219.958 155.16 219.91 155.118 219.91 155.059C219.91 155 219.952 154.947 220.011 154.941C220.164 154.929 220.318 154.923 220.466 154.917C220.525 154.917 220.572 154.964 220.572 155.024C220.572 155.083 220.525 155.136 220.466 155.136C220.318 155.136 220.17 155.148 220.017 155.16C220.017 155.16 220.017 155.16 220.011 155.16H220.017ZM221.377 155.142C221.241 155.142 221.099 155.136 220.957 155.13H220.927C220.868 155.13 220.821 155.083 220.821 155.018C220.821 154.953 220.868 154.911 220.933 154.911H220.963C221.105 154.911 221.247 154.911 221.388 154.923C221.448 154.923 221.495 154.976 221.495 155.035C221.495 155.095 221.442 155.142 221.383 155.142H221.377Z" fill="#FFB000"/>
<path d="M216.705 155.904C216.664 155.904 216.623 155.881 216.605 155.839C216.581 155.786 216.605 155.721 216.664 155.697C216.735 155.668 216.8 155.644 216.871 155.615C216.93 155.591 216.989 155.621 217.013 155.68C217.036 155.733 217.007 155.798 216.948 155.822C216.883 155.845 216.812 155.875 216.747 155.899C216.735 155.899 216.717 155.904 216.705 155.904Z" fill="#FFB000"/>
<path d="M225.564 157.686C225.564 157.686 225.534 157.686 225.522 157.68C225.522 157.68 225.451 157.65 225.327 157.603C225.268 157.585 225.238 157.52 225.262 157.461C225.28 157.402 225.345 157.372 225.404 157.396C225.54 157.443 225.611 157.473 225.611 157.473C225.664 157.496 225.694 157.562 225.67 157.615C225.652 157.656 225.611 157.68 225.57 157.68L225.564 157.686Z" fill="#FFB000"/>
<path d="M224.931 157.467C224.931 157.467 224.907 157.467 224.901 157.467C224.771 157.426 224.629 157.384 224.469 157.343C224.41 157.325 224.375 157.266 224.392 157.207C224.41 157.148 224.469 157.118 224.528 157.13C224.694 157.177 224.836 157.218 224.966 157.26C225.025 157.278 225.055 157.337 225.037 157.396C225.025 157.443 224.978 157.473 224.931 157.473V157.467ZM217.332 157.39C217.285 157.39 217.244 157.36 217.232 157.313C217.214 157.254 217.243 157.195 217.303 157.177C217.45 157.13 217.598 157.082 217.74 157.041C217.799 157.023 217.858 157.059 217.876 157.118C217.894 157.177 217.858 157.236 217.799 157.254C217.657 157.295 217.516 157.337 217.368 157.384C217.356 157.384 217.344 157.384 217.332 157.384V157.39ZM224.055 157.23C224.055 157.23 224.038 157.23 224.032 157.23C223.89 157.195 223.748 157.165 223.594 157.136C223.535 157.124 223.5 157.065 223.511 157.006C223.523 156.946 223.576 156.905 223.642 156.923C223.795 156.952 223.949 156.988 224.085 157.023C224.144 157.035 224.18 157.094 224.168 157.153C224.156 157.207 224.109 157.236 224.061 157.236L224.055 157.23ZM218.207 157.142C218.16 157.142 218.113 157.106 218.101 157.059C218.089 157 218.125 156.94 218.184 156.929C218.332 156.893 218.485 156.864 218.633 156.834C218.698 156.822 218.751 156.864 218.763 156.923C218.775 156.982 218.734 157.041 218.674 157.053C218.527 157.082 218.385 157.112 218.237 157.148C218.225 157.148 218.219 157.148 218.213 157.148L218.207 157.142ZM223.168 157.047C223.168 157.047 223.157 157.047 223.151 157.047C223.009 157.023 222.861 157 222.707 156.976C222.648 156.97 222.607 156.911 222.613 156.852C222.619 156.793 222.672 156.745 222.737 156.757C222.891 156.781 223.044 156.804 223.186 156.828C223.245 156.84 223.287 156.893 223.275 156.952C223.263 157.006 223.222 157.041 223.168 157.041V157.047ZM219.1 156.97C219.047 156.97 219 156.929 218.994 156.875C218.982 156.816 219.023 156.763 219.088 156.751C219.242 156.728 219.39 156.71 219.544 156.692C219.609 156.686 219.656 156.728 219.662 156.787C219.668 156.846 219.627 156.899 219.567 156.905C219.42 156.923 219.272 156.94 219.124 156.964C219.124 156.964 219.112 156.964 219.106 156.964L219.1 156.97ZM222.27 156.923C222.27 156.923 222.264 156.923 222.258 156.923C222.11 156.905 221.962 156.893 221.808 156.881C221.749 156.881 221.702 156.822 221.708 156.763C221.708 156.704 221.755 156.662 221.826 156.662C221.98 156.674 222.134 156.686 222.282 156.704C222.341 156.71 222.382 156.763 222.376 156.822C222.37 156.875 222.323 156.923 222.27 156.917V156.923ZM220.005 156.875C219.946 156.875 219.899 156.828 219.899 156.775C219.899 156.716 219.94 156.662 219.999 156.657C220.153 156.645 220.307 156.639 220.454 156.633C220.513 156.633 220.561 156.68 220.561 156.739C220.561 156.799 220.513 156.852 220.454 156.852C220.307 156.852 220.159 156.864 220.005 156.875C220.005 156.875 220.005 156.875 219.999 156.875H220.005ZM221.365 156.858C221.229 156.858 221.087 156.852 220.945 156.846H220.916C220.856 156.846 220.809 156.798 220.809 156.733C220.809 156.674 220.856 156.627 220.921 156.627H220.951C221.093 156.627 221.235 156.627 221.377 156.639C221.436 156.639 221.483 156.692 221.483 156.751C221.483 156.81 221.43 156.858 221.371 156.858H221.365Z" fill="#FFB000"/>
<path d="M216.694 157.62C216.652 157.62 216.611 157.597 216.593 157.555C216.569 157.502 216.593 157.437 216.652 157.413C216.723 157.384 216.788 157.36 216.859 157.33C216.918 157.307 216.977 157.336 217.001 157.395C217.025 157.449 216.995 157.514 216.936 157.537C216.871 157.561 216.8 157.591 216.735 157.614C216.723 157.614 216.705 157.62 216.694 157.62Z" fill="#FFB000"/>
<path d="M225.546 159.401C225.546 159.401 225.516 159.401 225.505 159.395C225.505 159.395 225.434 159.366 225.31 159.318C225.25 159.301 225.221 159.235 225.244 159.176C225.268 159.117 225.327 159.093 225.386 159.111C225.522 159.159 225.593 159.188 225.593 159.188C225.647 159.212 225.676 159.277 225.652 159.33C225.635 159.372 225.593 159.401 225.552 159.395L225.546 159.401Z" fill="#FFB000"/>
<path d="M224.919 159.182C224.919 159.182 224.895 159.182 224.889 159.182C224.765 159.14 224.617 159.099 224.458 159.058C224.399 159.04 224.363 158.981 224.381 158.922C224.398 158.862 224.458 158.827 224.517 158.845C224.682 158.892 224.824 158.933 224.954 158.975C225.013 158.992 225.043 159.052 225.025 159.111C225.013 159.158 224.966 159.188 224.919 159.188V159.182ZM217.32 159.105C217.273 159.105 217.232 159.075 217.22 159.028C217.202 158.969 217.232 158.91 217.291 158.892C217.439 158.845 217.587 158.797 217.728 158.756C217.788 158.738 217.847 158.774 217.864 158.833C217.882 158.892 217.847 158.951 217.788 158.969C217.646 159.01 217.504 159.052 217.356 159.099C217.344 159.099 217.332 159.099 217.32 159.099V159.105ZM224.044 158.945C224.044 158.945 224.026 158.945 224.02 158.945C223.878 158.91 223.736 158.88 223.582 158.851C223.523 158.839 223.488 158.78 223.5 158.72C223.512 158.661 223.565 158.62 223.63 158.638C223.784 158.667 223.937 158.703 224.073 158.738C224.132 158.75 224.168 158.809 224.156 158.868C224.144 158.922 224.097 158.951 224.05 158.951L224.044 158.945ZM218.196 158.856C218.148 158.856 218.101 158.821 218.089 158.774C218.077 158.714 218.113 158.655 218.172 158.643C218.32 158.608 218.474 158.578 218.621 158.549C218.686 158.537 218.74 158.578 218.751 158.638C218.763 158.697 218.722 158.756 218.663 158.768C218.515 158.797 218.373 158.827 218.225 158.862C218.213 158.862 218.207 158.862 218.202 158.862L218.196 158.856ZM223.157 158.762C223.157 158.762 223.145 158.762 223.139 158.762C222.997 158.738 222.849 158.714 222.696 158.691C222.636 158.685 222.595 158.626 222.601 158.567C222.607 158.507 222.66 158.46 222.725 158.472C222.879 158.496 223.033 158.519 223.174 158.543C223.234 158.555 223.275 158.608 223.263 158.667C223.251 158.72 223.21 158.756 223.157 158.756V158.762ZM219.089 158.685C219.035 158.685 218.988 158.643 218.982 158.59C218.97 158.531 219.012 158.478 219.077 158.466C219.23 158.442 219.378 158.425 219.532 158.407C219.597 158.401 219.644 158.442 219.65 158.502C219.656 158.561 219.615 158.614 219.556 158.62C219.408 158.638 219.26 158.655 219.112 158.679C219.112 158.679 219.1 158.679 219.094 158.679L219.089 158.685ZM222.258 158.638C222.258 158.638 222.252 158.638 222.246 158.638C222.098 158.62 221.95 158.608 221.797 158.596C221.738 158.596 221.69 158.537 221.696 158.478C221.696 158.419 221.744 158.371 221.814 158.377C221.968 158.389 222.122 158.401 222.27 158.419C222.329 158.425 222.37 158.478 222.364 158.537C222.364 158.596 222.311 158.638 222.258 158.632V158.638ZM219.993 158.59C219.934 158.59 219.887 158.543 219.887 158.49C219.887 158.431 219.928 158.377 219.987 158.371C220.141 158.36 220.295 158.354 220.443 158.348C220.502 158.348 220.549 158.395 220.549 158.454C220.549 158.513 220.502 158.567 220.443 158.567C220.295 158.567 220.147 158.578 219.993 158.59C219.993 158.59 219.993 158.59 219.987 158.59H219.993ZM221.353 158.573C221.217 158.573 221.075 158.567 220.933 158.561H220.904C220.845 158.561 220.797 158.513 220.797 158.448C220.797 158.389 220.845 158.342 220.91 158.342H220.939C221.081 158.342 221.223 158.342 221.365 158.354C221.424 158.354 221.472 158.407 221.472 158.466C221.472 158.525 221.418 158.573 221.359 158.573H221.353Z" fill="#FFB000"/>
<path d="M216.682 159.342C216.64 159.342 216.599 159.318 216.581 159.277C216.558 159.224 216.581 159.159 216.64 159.135C216.711 159.105 216.776 159.082 216.847 159.052C216.907 159.028 216.966 159.058 216.989 159.117C217.013 159.176 216.983 159.235 216.924 159.259C216.859 159.283 216.788 159.312 216.723 159.336C216.711 159.336 216.694 159.342 216.682 159.342Z" fill="#FFB000"/>
<path d="M72.7964 157.59C75.5533 145.71 68.1614 133.844 56.2863 131.086C44.4111 128.328 32.5495 135.723 29.7926 147.602C27.0357 159.482 34.4275 171.348 46.3027 174.106C58.1779 176.864 70.0395 169.469 72.7964 157.59Z" fill="black"/>
<path d="M62.2072 144.489L63.6914 142.129L64.5192 140.798L63.1828 139.461L61.8583 140.289L59.493 141.762L59.0082 143.625H59.0141L46.2949 156.302L47.6313 157.639L60.3445 144.962L62.2072 144.489Z" fill="#FFB000"/>
<path d="M63.6924 142.129L61.8594 140.289L63.1839 139.461L64.5203 140.798L63.6924 142.129Z" fill="#FFB000"/>
<path d="M50.0505 157.645L41.7071 165.968C41.0153 166.66 39.8918 166.654 39.1999 165.968L37.9464 164.714C37.2545 164.022 37.2604 162.898 37.9464 162.206L46.2898 153.883C46.6387 153.534 47.2004 153.534 47.5434 153.883L50.0446 156.391C50.3876 156.734 50.3876 157.296 50.0446 157.645H50.0505Z" fill="white"/>
<path d="M41.7899 165.885L41.7071 165.968C41.0153 166.66 39.8918 166.654 39.1999 165.968L37.9464 164.714C37.2545 164.022 37.2604 162.898 37.9464 162.206L38.0291 162.123L41.784 165.885H41.7899Z" fill="white"/>
<path d="M47.5347 156.494L47.422 156.381C47.1868 156.145 46.8049 156.145 46.569 156.38L40.9332 162.002C40.6974 162.238 40.6968 162.62 40.9321 162.856L41.0448 162.969C41.28 163.205 41.6619 163.205 41.8977 162.97L47.5335 157.348C47.7694 157.112 47.7699 156.73 47.5347 156.494Z" fill="#FFB000"/>
<path d="M45.6157 155.527L40.0928 161.034C39.8267 161.3 39.3891 161.3 39.123 161.034L45.6157 154.562C45.8818 154.829 45.8877 155.261 45.6157 155.527Z" fill="#FFB000"/>
<path d="M49.3699 158.325L42.8773 164.797C42.6112 164.531 42.6112 164.093 42.8773 163.827L48.4002 158.32C48.6663 158.053 49.0979 158.059 49.364 158.32L49.3699 158.325Z" fill="#FFB000"/>
<path d="M58.7663 156.089L49.1456 145.447C49.796 143.761 49.5004 141.779 48.2054 140.348C46.9104 138.916 44.965 138.42 43.2265 138.899L46.4551 142.472L43.1556 145.459L39.927 141.886C39.2766 143.572 39.5722 145.559 40.8672 146.991C42.1622 148.422 44.1076 148.913 45.852 148.434L55.5554 159.165C54.97 160.821 55.2893 162.744 56.5488 164.14C57.8438 165.571 59.7892 166.068 61.5277 165.589L58.2991 162.016L61.5987 159.029L64.8272 162.602C65.4777 160.916 65.182 158.928 63.887 157.497C62.5566 156.024 60.5461 155.545 58.7722 156.089H58.7663Z" fill="white"/>
<path d="M48.4164 147.774L48.2541 147.921C47.9174 148.226 47.8914 148.746 48.1959 149.082L55.0423 156.654C55.3468 156.991 55.8666 157.017 56.2032 156.713L56.3655 156.566C56.7021 156.261 56.7282 155.741 56.4237 155.404L49.5773 147.832C49.2728 147.496 48.753 147.47 48.4164 147.774Z" fill="#FFB000"/>
<path d="M215.78 52.9219C218.626 41.0633 211.323 29.1421 199.469 26.2951C187.615 23.4481 175.698 30.7534 172.852 42.612C170.006 54.4707 177.309 66.3919 189.163 69.2389C201.017 72.0859 212.934 64.7806 215.78 52.9219Z" fill="black"/>
<path d="M198.563 50.1791L193.171 56.9581L187.092 53.2078L190.728 45.3462C191.16 44.4234 191.651 43.5302 192.224 42.6902C193.981 40.1052 195.826 38.0881 198.149 36.0118C199.03 35.225 199.947 34.4797 200.899 33.7699L203.974 31.6758C204.364 31.386 204.908 31.7231 204.825 32.2023L204.335 35.8935C204.128 37.0588 203.873 38.2182 203.566 39.354C202.75 42.3649 201.78 44.9203 200.26 47.6473C199.77 48.5346 199.196 49.3746 198.563 50.1791Z" fill="white"/>
<path d="M190.729 45.3458C190.729 45.3458 183.248 46.1443 180.227 50.4211C179.973 50.7761 180.268 51.267 180.706 51.2256C181.894 51.1192 184.047 51.3321 187.092 53.2073L190.729 45.3398V45.3458Z" fill="#C68400"/>
<path d="M198.563 50.1787C198.563 50.1787 201.212 57.2239 198.746 61.8438C198.539 62.2283 197.971 62.1869 197.812 61.7787C197.374 60.6667 196.215 58.8388 193.17 56.9636L198.563 50.1787Z" fill="#C68400"/>
<path d="M190.789 58.0582L187.188 55.8341L187.992 53.7637L192.273 56.4078L190.789 58.0582Z" fill="white"/>
<path d="M199.142 47.2692C198.107 48.9491 195.907 49.4697 194.228 48.4345C192.549 47.3993 192.028 45.1988 193.063 43.5188C194.098 41.8389 196.298 41.3183 197.977 42.3535C199.656 43.3887 200.177 45.5892 199.142 47.2692Z" fill="#F7D746"/>
<path d="M198.257 46.7183C197.523 47.9073 195.968 48.274 194.78 47.5405C193.591 46.807 193.224 45.2513 193.958 44.0623C194.691 42.8733 196.246 42.5066 197.435 43.2401C198.623 43.9736 198.99 45.5293 198.257 46.7183Z" fill="black"/>
<path d="M203.567 39.354L198.15 36.0118C199.031 35.225 199.948 34.4797 200.9 33.7699L203.975 31.6758C204.365 31.386 204.909 31.7231 204.826 32.2023L204.336 35.8935C204.129 37.0588 203.874 38.2182 203.567 39.354Z" fill="#FFBF3E"/>
<path d="M187.187 55.834C187.187 55.834 184.509 56.2836 184.414 59.5725C184.367 61.2939 182.895 62.0451 182.895 62.0451C182.895 62.0451 184.379 62.4119 185.343 61.146C185.343 61.146 184.994 63.3051 183.184 64.2693C183.184 64.2693 185.691 65.3696 187.98 61.7789C187.98 61.7789 187.98 63.3228 187.442 64.2338C187.442 64.2338 191.279 62.2522 190.783 58.0582L187.182 55.834H187.187Z" fill="white"/>
<path d="M188.162 56.4375C188.162 56.4375 187.121 56.7983 186.873 57.6265C186.571 58.6144 186.205 59.4662 185.59 59.7087C185.59 59.7087 186.767 60.0104 186.968 59.3538C186.968 59.3538 186.672 60.8563 186.069 61.0929C186.069 61.0929 188.062 60.9095 188.535 59.6436C188.535 59.6436 188.842 59.969 188.452 60.8149C188.452 60.8149 190.232 59.5017 189.676 57.3721L188.156 56.4375H188.162Z" fill="#FFB000"/>
<path d="M197.545 45.0271C197.333 45.3761 196.871 45.4885 196.523 45.2696C196.174 45.0567 196.061 44.5953 196.28 44.2463C196.493 43.8973 196.954 43.7849 197.303 44.0037C197.652 44.2167 197.764 44.6781 197.545 45.0271Z" fill="#FFB000"/>
<path d="M197.333 46.7891C197.18 47.0435 196.843 47.1204 196.594 46.9666C196.34 46.8128 196.263 46.4756 196.417 46.2272C196.571 45.9728 196.908 45.8959 197.156 46.0497C197.41 46.2035 197.487 46.5407 197.333 46.7891Z" fill="#FFB000"/>
<path d="M95.1673 216.838C103.788 208.214 103.788 194.233 95.1673 185.609C86.5469 176.986 72.5706 176.986 63.9503 185.609C55.33 194.233 55.33 208.214 63.9503 216.838C72.5706 225.462 86.5469 225.462 95.1673 216.838Z" fill="black"/>
<path d="M72.1217 189.393L71.9902 212.953C71.9848 213.914 72.7588 214.697 73.7189 214.702L85.2434 214.766C86.2035 214.772 86.9862 213.998 86.9916 213.037L87.1231 189.477C87.1285 188.516 86.3545 187.733 85.3944 187.728L73.8699 187.663C72.9098 187.658 72.1271 188.432 72.1217 189.393Z" fill="white"/>
<path d="M85.9029 191.211L73.3613 191.141L73.252 210.72L85.7936 210.79L85.9029 191.211Z" fill="black"/>
<path d="M80.5081 212.775C80.5081 213.319 80.0647 213.757 79.5206 213.751C78.9766 213.751 78.5391 213.307 78.545 212.763C78.5509 212.219 78.9885 211.781 79.5325 211.787C80.0765 211.793 80.5141 212.231 80.5081 212.775Z" fill="black"/>
<path d="M82.7731 189.421C82.7731 189.646 82.5839 189.829 82.3592 189.829C82.1345 189.829 81.9512 189.64 81.9512 189.415C81.9512 189.19 82.1404 189.007 82.3651 189.007C82.5898 189.007 82.7731 189.196 82.7731 189.421Z" fill="#FFB000"/>
<path d="M80.7754 188.994L78.558 188.982C78.3555 188.98 78.1905 189.144 78.1894 189.346L78.1889 189.435C78.1877 189.638 78.3509 189.803 78.5534 189.804L80.7708 189.816C80.9733 189.817 81.1383 189.654 81.1395 189.451L81.14 189.363C81.1411 189.16 80.9779 188.995 80.7754 188.994Z" fill="#FFB000"/>
<path d="M75.6063 198.46C76.6884 197.389 77.7705 196.324 78.8467 195.253C79.3493 194.757 78.5806 193.976 78.072 194.473C76.9899 195.543 75.9078 196.608 74.8317 197.679C74.329 198.176 75.0977 198.956 75.6063 198.46Z" fill="#FFB000"/>
<path d="M75.0906 204.292C77.9171 201.494 80.7495 198.696 83.576 195.898C84.0786 195.401 83.3099 194.62 82.8014 195.117C79.9749 197.915 77.1425 200.713 74.316 203.511C73.8134 204.008 74.5821 204.789 75.0906 204.292Z" fill="#FFB000"/>
<path d="M79.7449 207.197C80.9394 206.014 82.1338 204.831 83.3342 203.648C83.8368 203.151 83.0681 202.37 82.5596 202.867C81.3651 204.05 80.1707 205.233 78.9703 206.416C78.4677 206.913 79.2364 207.694 79.7449 207.197Z" fill="#FFB000"/>
<path d="M222.902 123.134C235.093 123.134 244.976 113.247 244.976 101.052C244.976 88.8562 235.093 78.9697 222.902 78.9697C210.711 78.9697 200.828 88.8562 200.828 101.052C200.828 113.247 210.711 123.134 222.902 123.134Z" fill="black"/>
<path d="M237.478 94.4381L237.443 107.736C237.443 108.759 236.609 109.587 235.592 109.581L210.165 109.516C209.142 109.516 208.314 108.682 208.32 107.659L208.356 94.3612C208.356 93.7165 208.687 93.1545 209.184 92.8232C209.473 92.628 209.834 92.5156 210.213 92.5156L235.639 92.5807C236.017 92.5807 236.372 92.699 236.662 92.8942C237.159 93.2255 237.484 93.7933 237.478 94.4381Z" fill="white"/>
<path d="M236.656 92.8942L225.894 99.8921C224.073 101.075 221.725 101.069 219.916 99.8743L209.184 92.8232C209.473 92.628 209.834 92.5156 210.212 92.5156L235.639 92.5807C236.017 92.5807 236.372 92.699 236.662 92.8942H236.656Z" fill="#E09500"/>
<path d="M225.338 106.612C225.462 106.488 225.663 106.488 225.757 106.624C225.964 106.931 225.474 107.363 225.048 107.6C224.557 107.872 223.96 108.008 223.25 108.008C222.541 108.008 221.973 107.889 221.476 107.659C220.98 107.428 220.607 107.085 220.365 106.635C220.122 106.186 219.998 105.695 219.998 105.162C219.998 104.577 220.134 104.039 220.412 103.536C220.69 103.033 221.062 102.654 221.541 102.406C222.02 102.152 222.57 102.027 223.185 102.027C223.706 102.027 224.173 102.128 224.581 102.335C224.989 102.536 225.296 102.826 225.509 103.199C225.722 103.571 225.828 103.979 225.828 104.423C225.828 104.95 225.663 105.429 225.338 105.855C224.93 106.393 224.403 106.665 223.765 106.665C223.593 106.665 223.463 106.635 223.374 106.576C223.286 106.517 223.227 106.428 223.203 106.31C222.961 106.547 222.677 106.665 222.357 106.665C222.014 106.665 221.731 106.547 221.5 106.31C221.216 106.014 221.11 105.6 221.181 105.062C221.222 104.725 221.34 104.399 221.518 104.115C221.855 103.571 222.298 103.299 222.848 103.299C223.215 103.299 223.487 103.441 223.664 103.725L223.741 103.382C224.167 103.382 224.48 103.772 224.392 104.186L224.09 105.612C224.06 105.754 224.049 105.843 224.049 105.884C224.049 105.937 224.06 105.973 224.084 106.002C224.108 106.026 224.137 106.044 224.167 106.044C224.267 106.044 224.397 105.985 224.551 105.861C224.764 105.701 224.936 105.494 225.066 105.228C225.196 104.961 225.261 104.689 225.261 104.405C225.261 103.897 225.077 103.471 224.705 103.128C224.338 102.785 223.824 102.613 223.162 102.613C222.6 102.613 222.121 102.725 221.731 102.956C221.34 103.187 221.045 103.506 220.85 103.926C220.654 104.34 220.554 104.772 220.554 105.228C220.554 105.683 220.666 106.062 220.885 106.422C221.104 106.783 221.417 107.044 221.813 107.209C222.21 107.375 222.671 107.458 223.185 107.458C223.7 107.458 224.108 107.387 224.462 107.251C224.817 107.115 225.006 106.961 225.326 106.629L225.338 106.612ZM221.979 105.334C221.979 105.6 222.032 105.79 222.139 105.914C222.245 106.038 222.375 106.103 222.535 106.103C222.653 106.103 222.765 106.073 222.866 106.014C222.943 105.973 223.02 105.908 223.097 105.819C223.209 105.695 223.303 105.506 223.38 105.263C223.457 105.021 223.499 104.796 223.499 104.583C223.499 104.346 223.445 104.169 223.333 104.044C223.227 103.92 223.085 103.855 222.919 103.855C222.742 103.855 222.576 103.926 222.422 104.062C222.269 104.198 222.156 104.399 222.079 104.654C222.003 104.908 221.967 105.133 221.967 105.334H221.979Z" fill="#FFB000"/>
<path d="M200.437 215.998C209.057 207.375 209.057 193.393 200.437 184.769C191.816 176.146 177.84 176.146 169.22 184.769C160.599 193.393 160.599 207.375 169.22 215.998C177.84 224.622 191.816 224.622 200.437 215.998Z" fill="black"/>
<path d="M184.95 212.894L184.27 200.555L199.046 203.577L198.875 204.412L185.18 201.608L185.801 212.847L184.95 212.894Z" fill="white"/>
<path d="M184.75 201.82L175.744 189.883L176.424 189.368L184.703 200.341L192.431 188.611L193.141 189.079L184.75 201.82Z" fill="white"/>
<path d="M184.553 200.69L172.746 205.67L173.077 206.455L184.884 201.475L184.553 200.69Z" fill="white"/>
<path d="M184.727 203.997C187.097 203.997 189.019 202.075 189.019 199.703C189.019 197.331 187.097 195.408 184.727 195.408C182.356 195.408 180.434 197.331 180.434 199.703C180.434 202.075 182.356 203.997 184.727 203.997Z" fill="white"/>
<path d="M194.914 188.842C194.914 190.02 193.962 190.972 192.785 190.972C191.608 190.972 190.656 190.02 190.656 188.842C190.656 187.665 191.608 186.713 192.785 186.713C193.962 186.713 194.914 187.665 194.914 188.842Z" fill="white"/>
<path d="M198.964 206.914C200.574 206.914 201.879 205.608 201.879 203.997C201.879 202.387 200.574 201.081 198.964 201.081C197.354 201.081 196.049 202.387 196.049 203.997C196.049 205.608 197.354 206.914 198.964 206.914Z" fill="white"/>
<path d="M172.911 208.978C174.521 208.978 175.826 207.672 175.826 206.062C175.826 204.451 174.521 203.146 172.911 203.146C171.301 203.146 169.996 204.451 169.996 206.062C169.996 207.672 171.301 208.978 172.911 208.978Z" fill="white"/>
<path d="M187.557 212.87C187.557 214.077 186.582 215.053 185.375 215.053C184.169 215.053 183.193 214.077 183.193 212.87C183.193 211.664 184.169 210.688 185.375 210.688C186.582 210.688 187.557 211.664 187.557 212.87Z" fill="white"/>
<path d="M178.268 189.629C178.268 190.836 177.293 191.812 176.086 191.812C174.88 191.812 173.904 190.836 173.904 189.629C173.904 188.422 174.88 187.446 176.086 187.446C177.293 187.446 178.268 188.422 178.268 189.629Z" fill="white"/>
</g>
<defs>
<linearGradient id="paint0_linear_605_4276" x1="213.867" y1="140.146" x2="224.505" y2="140.146" gradientUnits="userSpaceOnUse">
<stop stop-color="#FFB000"/>
<stop offset="1" stop-color="#C68400"/>
</linearGradient>
<clipPath id="clip0_605_4276">
<rect width="261" height="254" fill="white"/>
</clipPath>
</defs>
</svg>
