<svg width="160" height="155" viewBox="0 0 160 155" fill="none" xmlns="http://www.w3.org/2000/svg">
<g clip-path="url(#clip0_559_1695)">
<path d="M87.641 128.615H70.7891V151.638H87.641V128.615Z" fill="#EDBB0A"/>
<path d="M94.6656 117.989V128.846H63.2773V117.989C63.2773 112.034 67.9599 107.389 73.903 107.389H84.0142C89.9831 107.132 94.6399 112.06 94.6399 117.989H94.6656Z" fill="#EDBB0A"/>
<path d="M26.6905 12.6797C30.2667 12.6797 33.174 15.58 33.174 19.1476C33.174 22.7153 30.2667 25.6156 26.6905 25.6156C23.1143 25.6156 20.207 22.7153 20.207 19.1476C20.207 15.58 23.1143 12.6797 26.6905 12.6797Z" fill="white"/>
<path d="M79.0991 85.6494C82.984 85.6494 86.3544 88.7551 86.3544 92.8873C86.3544 96.763 83.2413 100.125 79.0991 100.125C75.2141 100.125 71.8438 97.0196 71.8438 92.8873C71.8438 89.0117 75.2141 85.6494 79.0991 85.6494Z" fill="#EDBB0A"/>
<path d="M40.1979 99.3809H18.4062V151.663H40.1979V99.3809Z" fill="white"/>
<path d="M141.878 28.7207H120.086V151.637H141.878V28.7207Z" fill="white"/>
<path d="M54.7098 99.3809H40.1992H18.4075H3.87109L29.2904 74.0225L54.7098 99.3809Z" fill="white"/>
<path d="M80.1303 39.0645L105.55 64.4486H91.039H69.2473H54.7109L80.1303 39.0645Z" fill="#EDBB0A"/>
<path d="M130.966 3.61914L156.386 28.7209H141.875H120.083H105.547L130.966 3.61914Z" fill="white"/>
<path d="M85.0694 15.7852H78.5859V22.2531H85.0694V15.7852Z" fill="black"/>
<path d="M78.585 22.2529H72.1016V28.7209H78.585V22.2529Z" fill="black"/>
<path d="M78.585 9.31738H72.1016V15.7853H78.585V9.31738Z" fill="black"/>
<path d="M72.1007 15.7852H65.6172V22.2531H72.1007V15.7852Z" fill="black"/>
<path d="M33.1749 45.0195H26.6914V51.4875H33.1749V45.0195Z" fill="black"/>
<path d="M26.6905 51.4873H20.207V57.9552H26.6905V51.4873Z" fill="black"/>
<path d="M26.6905 38.5508H20.207V45.0187H26.6905V38.5508Z" fill="black"/>
<path d="M20.2061 45.0195H13.7227V51.4875H20.2061V45.0195Z" fill="black"/>
<path d="M40.1985 155C38.3718 155 36.8281 153.435 36.8281 151.638V99.3555C36.8281 97.5331 38.3718 95.9932 40.1985 95.9932C42.0252 95.9932 43.5689 97.5331 43.5689 99.3555V151.638C43.5689 153.435 42.0252 155 40.1985 155Z" fill="black"/>
<path d="M18.4055 155C16.5788 155 15.0352 153.435 15.0352 151.638V99.3555C15.0352 97.5331 16.6046 95.9932 18.4055 95.9932C20.2065 95.9932 21.7759 97.5331 21.7759 99.3555V151.638C21.7759 153.435 20.2065 155 18.4055 155Z" fill="black"/>
<path d="M54.7091 102.742H3.87038C2.58397 102.742 1.27184 101.973 0.757281 100.664C0.242719 99.3802 0.5 98.0712 1.52912 97.0446L26.9485 71.6861C28.2349 70.4028 30.3188 70.4028 31.631 71.6861L56.793 96.7879C57.5649 97.3012 57.8222 98.3535 57.8222 99.1235C58.0794 101.203 56.5358 102.742 54.7091 102.742ZM11.6403 96.2746H46.6562L29.0067 78.6674L11.6403 96.2746Z" fill="black"/>
<path d="M91.0383 80.4906C89.2116 80.4906 87.668 78.9506 87.668 77.1283V64.1924C87.668 62.3701 89.2374 60.8301 91.0383 60.8301C92.8393 60.8301 94.4087 62.3957 94.4087 64.1924V77.1283C94.1514 79.2072 92.865 80.4906 91.0383 80.4906Z" fill="black"/>
<path d="M69.2454 80.4906C67.4187 80.4906 65.875 78.9506 65.875 77.1283V64.1924C65.875 62.3701 67.4187 60.8301 69.2454 60.8301C71.0721 60.8301 72.6158 62.3957 72.6158 64.1924V77.1283C72.6158 79.2072 71.0463 80.4906 69.2454 80.4906Z" fill="black"/>
<path d="M105.549 67.5283H54.7102C53.4238 67.5283 52.1117 66.7584 51.5971 65.4494C51.0826 64.166 51.3398 62.8571 52.369 61.8304L77.7883 36.472C78.3029 35.9586 79.332 35.4453 80.1296 35.4453C80.9271 35.4453 81.6733 35.702 82.4708 36.472L107.633 61.5737C108.405 62.0871 108.662 63.1137 108.662 63.9094C108.662 66.245 107.376 67.5283 105.549 67.5283ZM62.4801 61.0604H97.496L79.8466 43.4532L62.4801 61.0604Z" fill="black"/>
<path d="M141.874 155C140.048 155 138.504 153.434 138.504 151.637V28.7207C138.504 26.8984 140.073 25.3584 141.874 25.3584C143.675 25.3584 145.245 26.8984 145.245 28.7207V151.637C144.987 153.434 143.675 155 141.874 155Z" fill="black"/>
<path d="M120.086 155C118.259 155 116.973 153.434 116.973 151.637V28.7207C116.973 26.8984 118.542 25.3584 120.086 25.3584C121.912 25.3584 123.456 26.8984 123.456 28.7207V151.637C123.199 153.434 121.912 155 120.086 155Z" fill="black"/>
<path d="M156.385 32.083H105.546C104.26 32.083 102.948 31.313 102.433 30.0041C101.919 28.7207 102.176 27.4117 103.205 26.3851L128.65 1.02666C129.165 0.513329 130.219 0 130.991 0C131.763 0 132.561 0.256664 133.332 1.02666L158.495 26.1284C159.266 26.6418 159.524 27.6684 159.524 28.4641C159.524 30.543 158.237 32.083 156.411 32.083H156.385ZM113.316 25.6151H148.332L130.682 8.00793L113.316 25.6151Z" fill="black"/>
<path d="M79.0989 103.256C73.3872 103.256 68.7305 98.5852 68.7305 92.9129C68.7305 87.2406 73.413 82.5693 79.0989 82.5693C84.7848 82.5693 89.4673 87.2406 89.4673 92.9129C89.4673 98.5852 84.7848 103.256 79.0989 103.256ZM79.0989 89.0116C77.0149 89.0116 75.2139 90.8339 75.2139 92.8872C75.2139 94.9406 77.0406 96.7629 79.0989 96.7629C81.1571 96.7629 82.9838 94.9406 82.9838 92.8872C82.9838 90.5516 81.4144 89.0116 79.0989 89.0116Z" fill="black"/>
<path d="M87.6673 155C85.8406 155 84.2969 153.435 84.2969 151.638V128.615C84.2969 126.793 85.8406 125.253 87.6673 125.253C89.494 125.253 91.0376 126.819 91.0376 128.615V151.638C90.7803 153.435 89.2109 155 87.6673 155Z" fill="black"/>
<path d="M70.7883 155C68.9617 155 67.418 153.435 67.418 151.638V128.615C67.418 126.793 68.9874 125.253 70.7883 125.253C72.5893 125.253 74.1587 126.819 74.1587 128.615V151.638C73.9014 153.435 72.615 155 70.7883 155Z" fill="black"/>
<path d="M94.6654 131.977H63.5344C61.7077 131.977 60.1641 130.437 60.1641 128.614V117.757C60.1641 110.006 66.3903 103.795 74.1601 103.795H84.014C91.7839 103.795 98.0101 110.006 98.0101 117.757V128.614C98.0101 130.437 96.4407 131.977 94.6397 131.977H94.6654ZM66.9048 125.509H91.5523V118.014C91.5523 113.882 88.1819 110.52 84.0397 110.52H74.1859C70.0436 110.52 66.6733 113.882 66.6733 118.014V125.509H66.9305H66.9048Z" fill="black"/>
<path d="M153.017 155H7.24147C5.41478 155 3.87109 153.434 3.87109 151.638C3.87109 149.841 5.41478 148.275 7.24147 148.275H153.274C155.101 148.275 156.644 149.815 156.644 151.638C156.387 153.434 154.818 155 153.017 155Z" fill="black"/>
<path d="M26.6898 28.721C21.2354 28.721 16.8359 24.3321 16.8359 18.8908C16.8359 13.4495 21.2354 9.06055 26.6898 9.06055C32.1441 9.06055 36.5436 13.4495 36.5436 18.8908C36.5436 24.3321 31.8869 28.721 26.6898 28.721ZM26.6898 15.7852C24.8631 15.7852 23.3194 17.3251 23.3194 19.1475C23.3194 20.9698 24.8888 22.5098 26.6898 22.5098C28.4908 22.5098 30.0602 20.9698 30.0602 19.1475C29.8029 17.3251 28.5165 15.7852 26.6898 15.7852Z" fill="black"/>
</g>
<defs>
<clipPath id="clip0_559_1695">
<rect width="159" height="155" fill="white" transform="translate(0.5)"/>
</clipPath>
</defs>
</svg>
