<svg width="180" height="155" viewBox="0 0 180 155" fill="none" xmlns="http://www.w3.org/2000/svg">
<g clip-path="url(#clip0_559_1755)">
<path fill-rule="evenodd" clip-rule="evenodd" d="M152.428 34.5402L154.355 31.8613L157.37 34.0302C158.14 34.5841 159.223 34.4072 159.777 33.6373L162.991 29.1676C163.545 28.3978 163.368 27.3144 162.598 26.7604L150.375 17.9683C149.606 17.4143 148.523 17.5913 147.969 18.3612L144.755 22.8309C144.201 23.6007 144.378 24.6841 145.147 25.2381L148.163 27.4075L146.044 30.3538C137.917 25.6657 128.71 22.6416 118.888 21.7454V14.4234H124.869C126.397 14.4234 127.647 13.1733 127.647 11.6459V2.77758C127.647 1.24965 126.397 0 124.869 0H100.622C99.0939 0 97.8444 1.25016 97.8444 2.77758V11.6454C97.8444 13.1733 99.0939 14.4229 100.622 14.4229H106.604V21.7485C94.5462 22.8518 83.0411 27.1947 73.2074 34.4379C72.1687 35.2031 71.8127 36.5683 72.3472 37.7433L72.4607 37.9924C72.807 38.7541 73.4365 39.284 74.2466 39.4948C75.0567 39.705 75.8643 39.549 76.5378 39.0523C87.0594 31.2899 99.6728 27.1573 112.746 27.1573C146.471 27.1573 173.81 54.5014 173.81 88.2323C173.81 121.963 146.471 149.308 112.746 149.308C94.2645 149.308 76.9316 141.017 65.3048 126.683C64.8312 126.098 64.1899 125.757 63.4412 125.69C62.6934 125.623 62.0005 125.845 61.4312 126.335L61.2277 126.511C60.1215 127.463 59.9721 129.141 60.8912 130.274C73.6007 145.937 92.5476 154.999 112.745 154.999C149.612 154.999 179.5 125.105 179.5 88.2323C179.5 66.224 168.852 46.7032 152.428 34.5396V34.5402Z" fill="black"/>
<path fill-rule="evenodd" clip-rule="evenodd" d="M76.5946 122.607L76.391 122.782C75.7957 123.296 75.4679 123.988 75.45 124.774C75.4321 125.559 75.7277 126.268 76.2979 126.807C86.1813 136.153 99.1435 141.312 112.746 141.312C142.055 141.312 165.815 117.548 165.815 88.2331C165.815 58.9187 142.055 35.1543 112.746 35.1543C107.182 35.1543 101.656 36.0167 96.3613 37.7344C95.609 37.9784 95.0367 38.4956 94.7175 39.2194C94.3984 39.9432 94.4025 40.7146 94.7298 41.4348L94.8423 41.6829C95.4146 42.9417 96.8297 43.5663 98.1451 43.1407C102.864 41.6133 107.787 40.8465 112.746 40.8465C138.914 40.8465 160.124 62.0605 160.124 88.2331C160.124 114.406 138.913 135.62 112.746 135.62C100.61 135.62 89.0468 131.024 80.2247 122.69C79.2121 121.734 77.6496 121.698 76.5941 122.607H76.5946Z" fill="black"/>
<path fill-rule="evenodd" clip-rule="evenodd" d="M36.2635 66.8288H80.2945C81.6339 66.8288 82.7299 65.7326 82.7299 64.3929C82.7299 63.0532 81.6339 61.957 80.2945 61.957H36.2635C34.9241 61.957 33.8281 63.0532 33.8281 64.3929C33.8281 65.7326 34.9241 66.8288 36.2635 66.8288Z" fill="black"/>
<path fill-rule="evenodd" clip-rule="evenodd" d="M63.6619 82.3128C63.6619 80.9731 62.5659 79.877 61.2265 79.877H2.93542C1.59599 79.877 0.5 80.9726 0.5 82.3128C0.5 83.653 1.5965 84.7487 2.93542 84.7487H61.2265C62.5654 84.7487 63.6619 83.652 63.6619 82.3128Z" fill="black"/>
<path d="M70.1659 79.876H73.1143C74.4583 79.876 75.5497 80.9676 75.5497 82.3119C75.5497 83.6561 74.4583 84.7477 73.1143 84.7477H70.1659C68.8219 84.7477 67.7305 83.6561 67.7305 82.3119C67.7305 80.9671 68.8219 79.876 70.1659 79.876Z" fill="black"/>
<path d="M55.4906 44.0366H70.4238C71.7679 44.0366 72.8592 45.1282 72.8592 46.4725C72.8592 47.8173 71.7679 48.9084 70.4238 48.9084H55.4901C54.1461 48.9084 53.0547 47.8168 53.0547 46.4725C53.0547 45.1277 54.1461 44.0361 55.4901 44.0361L55.4906 44.0366Z" fill="black"/>
<path d="M42.8143 44.0371H45.8266C47.1707 44.0371 48.2621 45.1287 48.2621 46.473C48.2621 47.8178 47.1707 48.9094 45.8266 48.9094H42.8143C41.4703 48.9094 40.3789 47.8178 40.3789 46.4735C40.3789 45.1287 41.4703 44.0376 42.8143 44.0376V44.0371Z" fill="black"/>
<path fill-rule="evenodd" clip-rule="evenodd" d="M81.767 97.6118H62.2831C60.9436 97.6118 59.8477 98.708 59.8477 100.048C59.8477 101.388 60.9442 102.484 62.2831 102.484H81.767C83.1059 102.484 84.2024 101.387 84.2024 100.048C84.2024 98.7085 83.1064 97.6113 81.767 97.6113V97.6118Z" fill="black"/>
<path fill-rule="evenodd" clip-rule="evenodd" d="M56.0209 100.049C56.0209 98.7095 54.9249 97.6123 53.5855 97.6123H17.1815C15.8421 97.6123 14.7461 98.7085 14.7461 100.048C14.7461 101.388 15.8431 102.484 17.1815 102.484H53.5855C54.9239 102.484 56.0209 101.387 56.0209 100.048V100.049Z" fill="black"/>
<path d="M22.5487 115.349H66.0989C67.4429 115.349 68.5343 116.44 68.5343 117.785C68.5343 119.129 67.4429 120.221 66.0989 120.221H22.5487C21.2047 120.221 20.1133 119.129 20.1133 117.785C20.1133 116.44 21.2047 115.349 22.5487 115.349V115.349Z" fill="black"/>
<path fill-rule="evenodd" clip-rule="evenodd" d="M139.191 69.2287L116.422 82.5656C116.251 82.4541 116.075 82.3503 115.894 82.2546C115.27 81.915 114.582 81.6669 113.844 81.5359C112.801 81.3508 111.772 81.4168 110.817 81.6884L89.3182 44.8372C87.8192 42.2678 83.3867 44.1906 85.4038 47.6383L106.985 84.5268C106.512 85.2593 106.174 86.0957 106.013 87.0077C105.487 89.9705 106.979 92.8232 109.503 94.1588C109.516 94.1665 109.53 94.1737 109.543 94.1813C109.556 94.188 109.569 94.1941 109.581 94.2008C110.525 94.7026 111.602 94.988 112.746 94.988C116.477 94.988 119.501 91.9634 119.501 88.2318C119.501 87.5996 119.412 86.9888 119.25 86.4087L141.991 73.1434C144.56 71.6451 142.637 67.2092 139.191 69.2277L139.191 69.2287Z" fill="black"/>
</g>
<defs>
<clipPath id="clip0_559_1755">
<rect width="179" height="155" fill="white" transform="translate(0.5)"/>
</clipPath>
</defs>
</svg>
