<svg width="58" height="58" viewBox="0 0 58 58" fill="none" xmlns="http://www.w3.org/2000/svg">
<path d="M1.8734 28.7512C1.87207 33.5771 3.12594 38.2893 5.51015 42.4426L1.64539 56.6333L16.0861 52.8255C20.0802 55.0122 24.5554 56.158 29.103 56.1582H29.1149C44.1275 56.1582 56.3481 43.873 56.3545 28.7728C56.3574 21.4557 53.5264 14.5752 48.383 9.39869C43.2404 4.22261 36.4011 1.37053 29.1138 1.36719C14.0995 1.36719 1.87982 13.6518 1.87362 28.7512" fill="url(#paint0_linear_72_221)"/>
<path d="M0.900873 28.7423C0.899323 33.7419 2.19813 38.6225 4.66735 42.9246L0.664001 57.624L15.6225 53.6797C19.7441 55.9396 24.3846 57.1311 29.1065 57.1329H29.1187C44.6698 57.1329 57.3294 44.4057 57.336 28.765C57.3387 21.185 54.4059 14.0572 49.0787 8.69518C43.7509 3.33386 36.6669 0.379154 29.1187 0.376038C13.5649 0.376038 0.907071 13.1014 0.900873 28.7423ZM9.80901 42.1837L9.25048 41.2921C6.90257 37.5377 5.66332 33.1991 5.66509 28.7441C5.67018 15.7438 16.1908 5.16698 29.1275 5.16698C35.3924 5.16965 41.2801 7.62568 45.7085 12.0818C50.1367 16.5383 52.5734 22.4625 52.5718 28.7633C52.5661 41.7636 42.0452 52.3417 29.1187 52.3417H29.1094C24.9004 52.3395 20.7724 51.2028 17.1724 49.0546L16.3157 48.5437L7.43896 50.8842L9.80901 42.1835V42.1837Z" fill="url(#paint1_linear_72_221)"/>
<path d="M22.0661 16.8834C21.5379 15.7028 20.982 15.679 20.4797 15.6583C20.0684 15.6405 19.5982 15.6418 19.1284 15.6418C18.6582 15.6418 17.8943 15.8197 17.2485 16.5288C16.6021 17.2385 14.7806 18.9536 14.7806 22.442C14.7806 25.9305 17.3072 29.3018 17.6594 29.7753C18.0121 30.2479 22.537 37.6356 29.7033 40.4777C35.6592 42.8395 36.8712 42.3698 38.1638 42.2513C39.4567 42.1334 42.3354 40.5367 42.9227 38.881C43.5105 37.2255 43.5105 35.8065 43.3343 35.51C43.158 35.2145 42.6878 35.0371 41.9828 34.6827C41.2775 34.328 37.8112 32.6127 37.165 32.376C36.5186 32.1396 36.0486 32.0216 35.5784 32.7316C35.1082 33.4404 33.758 35.0371 33.3465 35.51C32.9354 35.9839 32.5239 36.0429 31.819 35.6883C31.1135 35.3325 28.8428 34.5847 26.1489 32.1694C24.0529 30.29 22.6379 27.9691 22.2266 27.2592C21.8153 26.5503 22.1825 26.1661 22.5361 25.8128C22.8529 25.4951 23.2414 24.9848 23.5942 24.5709C23.9458 24.1569 24.0631 23.8614 24.2982 23.3886C24.5335 22.9153 24.4158 22.5012 24.2398 22.1465C24.0631 21.7919 22.693 18.2853 22.0661 16.8834Z" fill="white"/>
<defs>
<linearGradient id="paint0_linear_72_221" x1="2737.1" y1="5527.98" x2="2737.1" y2="1.36719" gradientUnits="userSpaceOnUse">
<stop stop-color="#1FAF38"/>
<stop offset="1" stop-color="#60D669"/>
</linearGradient>
<linearGradient id="paint1_linear_72_221" x1="2834.27" y1="5725.17" x2="2834.27" y2="0.376038" gradientUnits="userSpaceOnUse">
<stop stop-color="#F9F9F9"/>
<stop offset="1" stop-color="white"/>
</linearGradient>
</defs>
</svg>
